solid OpenSCAD_Model
  facet normal -1 -0 -0
    outer loop
      vertex -12.7 5.2 2.22045e-16
      vertex -12.7 5.2 3.6
      vertex -12.7 33.4 2.22045e-16
    endloop
  endfacet
  facet normal -1 0 0
    outer loop
      vertex -12.7 33.4 2.22045e-16
      vertex -12.7 5.2 3.6
      vertex -12.7 33.4 3.6
    endloop
  endfacet
  facet normal -0.994522 -0.104528 -0
    outer loop
      vertex -12.7 5.2 2.22045e-16
      vertex -12.4225 2.55952 2.22045e-16
      vertex -12.7 5.2 3.6
    endloop
  endfacet
  facet normal -0.994522 -0.104528 0
    outer loop
      vertex -12.7 5.2 3.6
      vertex -12.4225 2.55952 2.22045e-16
      vertex -12.4225 2.55952 3.6
    endloop
  endfacet
  facet normal -0 -0 -1
    outer loop
      vertex -12.7 5.2 2.22045e-16
      vertex -12.7 33.4 2.22045e-16
      vertex -12.4225 2.55952 2.22045e-16
    endloop
  endfacet
  facet normal 0 -0 -1
    outer loop
      vertex -12.4225 2.55952 2.22045e-16
      vertex -12.7 33.4 2.22045e-16
      vertex 12.7 33.4 2.22045e-16
    endloop
  endfacet
  facet normal 0 0 -1
    outer loop
      vertex -12.4225 2.55952 2.22045e-16
      vertex 12.7 33.4 2.22045e-16
      vertex 12.7 5.2 2.22045e-16
    endloop
  endfacet
  facet normal -0 0 -1
    outer loop
      vertex -12.4225 2.55952 2.22045e-16
      vertex 12.7 5.2 2.22045e-16
      vertex 12.4225 2.55952 2.22045e-16
    endloop
  endfacet
  facet normal -0 0 -1
    outer loop
      vertex 0.8625 1.49389 2.22045e-16
      vertex 12.4225 2.55952 2.22045e-16
      vertex 11.602 0.034445 2.22045e-16
    endloop
  endfacet
  facet normal -0 0 -1
    outer loop
      vertex 1.725 0 2.22045e-16
      vertex 11.602 0.034445 2.22045e-16
      vertex 10.2745 -2.26487 2.22045e-16
    endloop
  endfacet
  facet normal 0 0 -1
    outer loop
      vertex 1.49389 -0.8625 2.22045e-16
      vertex 10.2745 -2.26487 2.22045e-16
      vertex 8.49796 -4.23794 2.22045e-16
    endloop
  endfacet
  facet normal 0 0 -1
    outer loop
      vertex -0.8625 -1.49389 2.22045e-16
      vertex 8.49796 -4.23794 2.22045e-16
      vertex 6.35 -5.79852 2.22045e-16
    endloop
  endfacet
  facet normal 0 0 -1
    outer loop
      vertex -12.4225 2.55952 2.22045e-16
      vertex 6.35 -5.79852 2.22045e-16
      vertex 3.92452 -6.87842 2.22045e-16
    endloop
  endfacet
  facet normal 0 0 -1
    outer loop
      vertex -12.4225 2.55952 2.22045e-16
      vertex 3.92452 -6.87842 2.22045e-16
      vertex 1.32751 -7.43043 2.22045e-16
    endloop
  endfacet
  facet normal 0 0 -1
    outer loop
      vertex -12.4225 2.55952 2.22045e-16
      vertex 1.32751 -7.43043 2.22045e-16
      vertex -1.32751 -7.43043 2.22045e-16
    endloop
  endfacet
  facet normal 0 0 -1
    outer loop
      vertex -12.4225 2.55952 2.22045e-16
      vertex -1.32751 -7.43043 2.22045e-16
      vertex -3.92452 -6.87842 2.22045e-16
    endloop
  endfacet
  facet normal 0 0 -1
    outer loop
      vertex -12.4225 2.55952 2.22045e-16
      vertex -3.92452 -6.87842 2.22045e-16
      vertex -6.35 -5.79852 2.22045e-16
    endloop
  endfacet
  facet normal 0 0 -1
    outer loop
      vertex -12.4225 2.55952 2.22045e-16
      vertex -6.35 -5.79852 2.22045e-16
      vertex -8.49796 -4.23794 2.22045e-16
    endloop
  endfacet
  facet normal 0 0 -1
    outer loop
      vertex -12.4225 2.55952 2.22045e-16
      vertex -8.49796 -4.23794 2.22045e-16
      vertex -10.2745 -2.26487 2.22045e-16
    endloop
  endfacet
  facet normal 0 0 -1
    outer loop
      vertex -12.4225 2.55952 2.22045e-16
      vertex -10.2745 -2.26487 2.22045e-16
      vertex -11.602 0.034445 2.22045e-16
    endloop
  endfacet
  facet normal 0 0 -1
    outer loop
      vertex -0.8625 -1.49389 2.22045e-16
      vertex -12.4225 2.55952 2.22045e-16
      vertex -1.49389 -0.8625 2.22045e-16
    endloop
  endfacet
  facet normal 0 0 -1
    outer loop
      vertex -12.4225 2.55952 2.22045e-16
      vertex -1.725 0 2.22045e-16
      vertex -1.49389 -0.8625 2.22045e-16
    endloop
  endfacet
  facet normal 0 0 -1
    outer loop
      vertex 0 -1.725 2.22045e-16
      vertex 8.49796 -4.23794 2.22045e-16
      vertex -0.8625 -1.49389 2.22045e-16
    endloop
  endfacet
  facet normal 0 0 -1
    outer loop
      vertex -12.4225 2.55952 2.22045e-16
      vertex -0.8625 -1.49389 2.22045e-16
      vertex 6.35 -5.79852 2.22045e-16
    endloop
  endfacet
  facet normal 0 0 -1
    outer loop
      vertex 0.8625 -1.49389 2.22045e-16
      vertex 8.49796 -4.23794 2.22045e-16
      vertex 0 -1.725 2.22045e-16
    endloop
  endfacet
  facet normal 0 0 -1
    outer loop
      vertex 1.49389 -0.8625 2.22045e-16
      vertex 8.49796 -4.23794 2.22045e-16
      vertex 0.8625 -1.49389 2.22045e-16
    endloop
  endfacet
  facet normal 0 0 -1
    outer loop
      vertex 1.725 0 2.22045e-16
      vertex 10.2745 -2.26487 2.22045e-16
      vertex 1.49389 -0.8625 2.22045e-16
    endloop
  endfacet
  facet normal 0 0 -1
    outer loop
      vertex 1.49389 0.8625 2.22045e-16
      vertex 11.602 0.034445 2.22045e-16
      vertex 1.725 0 2.22045e-16
    endloop
  endfacet
  facet normal -0 0 -1
    outer loop
      vertex 0 1.725 2.22045e-16
      vertex 12.4225 2.55952 2.22045e-16
      vertex 0.8625 1.49389 2.22045e-16
    endloop
  endfacet
  facet normal 0 -0 -1
    outer loop
      vertex -0.8625 1.49389 2.22045e-16
      vertex -12.4225 2.55952 2.22045e-16
      vertex 0 1.725 2.22045e-16
    endloop
  endfacet
  facet normal 0 0 -1
    outer loop
      vertex -12.4225 2.55952 2.22045e-16
      vertex 12.4225 2.55952 2.22045e-16
      vertex 0 1.725 2.22045e-16
    endloop
  endfacet
  facet normal 0 -0 -1
    outer loop
      vertex -1.49389 0.8625 2.22045e-16
      vertex -12.4225 2.55952 2.22045e-16
      vertex -0.8625 1.49389 2.22045e-16
    endloop
  endfacet
  facet normal 0 -0 -1
    outer loop
      vertex -1.725 0 2.22045e-16
      vertex -12.4225 2.55952 2.22045e-16
      vertex -1.49389 0.8625 2.22045e-16
    endloop
  endfacet
  facet normal 0 0 -1
    outer loop
      vertex 0.8625 1.49389 2.22045e-16
      vertex 11.602 0.034445 2.22045e-16
      vertex 1.49389 0.8625 2.22045e-16
    endloop
  endfacet
  facet normal 0 1 0
    outer loop
      vertex -12.7 33.4 2.22045e-16
      vertex -12.7 33.4 3.6
      vertex 12.7 33.4 2.22045e-16
    endloop
  endfacet
  facet normal 0 1 0
    outer loop
      vertex 12.7 33.4 2.22045e-16
      vertex -12.7 33.4 3.6
      vertex 12.7 33.4 3.6
    endloop
  endfacet
  facet normal 0 -0 1
    outer loop
      vertex -12.7 33.4 3.6
      vertex -12.7 5.2 3.6
      vertex -12.4225 2.55952 3.6
    endloop
  endfacet
  facet normal 0 0 1
    outer loop
      vertex -10.2745 -2.26487 3.6
      vertex -12.7 33.4 3.6
      vertex -11.602 0.034445 3.6
    endloop
  endfacet
  facet normal 0 0 1
    outer loop
      vertex -11.602 0.034445 3.6
      vertex -12.7 33.4 3.6
      vertex -12.4225 2.55952 3.6
    endloop
  endfacet
  facet normal 0 0 1
    outer loop
      vertex -8.49796 -4.23794 3.6
      vertex -12.7 33.4 3.6
      vertex -10.2745 -2.26487 3.6
    endloop
  endfacet
  facet normal 0 0 1
    outer loop
      vertex -6.35 -5.79852 3.6
      vertex -12.7 33.4 3.6
      vertex -8.49796 -4.23794 3.6
    endloop
  endfacet
  facet normal 0 0 1
    outer loop
      vertex -3.92452 -6.87842 3.6
      vertex -12.7 33.4 3.6
      vertex -6.35 -5.79852 3.6
    endloop
  endfacet
  facet normal 0 0 1
    outer loop
      vertex -1.32751 -7.43043 3.6
      vertex -12.7 33.4 3.6
      vertex -3.92452 -6.87842 3.6
    endloop
  endfacet
  facet normal -0 -0 1
    outer loop
      vertex -1.49389 -0.8625 3.6
      vertex -12.7 33.4 3.6
      vertex -1.32751 -7.43043 3.6
    endloop
  endfacet
  facet normal 0 0 1
    outer loop
      vertex 1.49389 0.8625 3.6
      vertex 1.725 0 3.6
      vertex 6.35 -5.79852 3.6
    endloop
  endfacet
  facet normal -0 0 1
    outer loop
      vertex 8.49796 -4.23794 3.6
      vertex -12.7 33.4 3.6
      vertex 6.35 -5.79852 3.6
    endloop
  endfacet
  facet normal -0 0 1
    outer loop
      vertex 10.2745 -2.26487 3.6
      vertex -12.7 33.4 3.6
      vertex 8.49796 -4.23794 3.6
    endloop
  endfacet
  facet normal -0 0 1
    outer loop
      vertex 11.602 0.034445 3.6
      vertex -12.7 33.4 3.6
      vertex 10.2745 -2.26487 3.6
    endloop
  endfacet
  facet normal -0 0 1
    outer loop
      vertex 12.4225 2.55952 3.6
      vertex -12.7 33.4 3.6
      vertex 11.602 0.034445 3.6
    endloop
  endfacet
  facet normal -0 0 1
    outer loop
      vertex 12.7 5.2 3.6
      vertex -12.7 33.4 3.6
      vertex 12.4225 2.55952 3.6
    endloop
  endfacet
  facet normal 0 0 1
    outer loop
      vertex 12.7 33.4 3.6
      vertex -12.7 33.4 3.6
      vertex 12.7 5.2 3.6
    endloop
  endfacet
  facet normal -0 0 1
    outer loop
      vertex 1.32751 -7.43043 3.6
      vertex -1.49389 -0.8625 3.6
      vertex -1.32751 -7.43043 3.6
    endloop
  endfacet
  facet normal -0 -0 1
    outer loop
      vertex -1.725 0 3.6
      vertex -12.7 33.4 3.6
      vertex -1.49389 -0.8625 3.6
    endloop
  endfacet
  facet normal 0 0 1
    outer loop
      vertex 0 1.725 3.6
      vertex 0.8625 1.49389 3.6
      vertex -12.7 33.4 3.6
    endloop
  endfacet
  facet normal -0 0 1
    outer loop
      vertex -0.8625 1.49389 3.6
      vertex -12.7 33.4 3.6
      vertex -1.49389 0.8625 3.6
    endloop
  endfacet
  facet normal -0 -0 1
    outer loop
      vertex 0 -1.725 3.6
      vertex -0.8625 -1.49389 3.6
      vertex 1.32751 -7.43043 3.6
    endloop
  endfacet
  facet normal -0 0 1
    outer loop
      vertex 0 1.725 3.6
      vertex -12.7 33.4 3.6
      vertex -0.8625 1.49389 3.6
    endloop
  endfacet
  facet normal 0 -0 1
    outer loop
      vertex 0.8625 -1.49389 3.6
      vertex 0 -1.725 3.6
      vertex 3.92452 -6.87842 3.6
    endloop
  endfacet
  facet normal 0 -0 1
    outer loop
      vertex 1.49389 -0.8625 3.6
      vertex 0.8625 -1.49389 3.6
      vertex 3.92452 -6.87842 3.6
    endloop
  endfacet
  facet normal 0 0 1
    outer loop
      vertex 1.49389 0.8625 3.6
      vertex -12.7 33.4 3.6
      vertex 0.8625 1.49389 3.6
    endloop
  endfacet
  facet normal 0 -0 1
    outer loop
      vertex 1.725 0 3.6
      vertex 1.49389 -0.8625 3.6
      vertex 3.92452 -6.87842 3.6
    endloop
  endfacet
  facet normal 0 0 1
    outer loop
      vertex 6.35 -5.79852 3.6
      vertex -12.7 33.4 3.6
      vertex 1.49389 0.8625 3.6
    endloop
  endfacet
  facet normal -0 0 1
    outer loop
      vertex 6.35 -5.79852 3.6
      vertex 1.725 0 3.6
      vertex 3.92452 -6.87842 3.6
    endloop
  endfacet
  facet normal -0 0 1
    outer loop
      vertex 3.92452 -6.87842 3.6
      vertex 0 -1.725 3.6
      vertex 1.32751 -7.43043 3.6
    endloop
  endfacet
  facet normal -0 -0 1
    outer loop
      vertex -0.8625 -1.49389 3.6
      vertex -1.49389 -0.8625 3.6
      vertex 1.32751 -7.43043 3.6
    endloop
  endfacet
  facet normal 0 0 1
    outer loop
      vertex -1.725 0 3.6
      vertex -1.49389 0.8625 3.6
      vertex -12.7 33.4 3.6
    endloop
  endfacet
  facet normal -0.951056 -0.309017 -0
    outer loop
      vertex -12.4225 2.55952 2.22045e-16
      vertex -11.602 0.034445 2.22045e-16
      vertex -12.4225 2.55952 3.6
    endloop
  endfacet
  facet normal -0.951056 -0.309017 0
    outer loop
      vertex -12.4225 2.55952 3.6
      vertex -11.602 0.034445 2.22045e-16
      vertex -11.602 0.034445 3.6
    endloop
  endfacet
  facet normal -0.866026 -0.5 -0
    outer loop
      vertex -11.602 0.034445 2.22045e-16
      vertex -10.2745 -2.26487 2.22045e-16
      vertex -11.602 0.034445 3.6
    endloop
  endfacet
  facet normal -0.866026 -0.5 0
    outer loop
      vertex -11.602 0.034445 3.6
      vertex -10.2745 -2.26487 2.22045e-16
      vertex -10.2745 -2.26487 3.6
    endloop
  endfacet
  facet normal -0.743145 -0.669131 -0
    outer loop
      vertex -10.2745 -2.26487 2.22045e-16
      vertex -8.49796 -4.23794 2.22045e-16
      vertex -10.2745 -2.26487 3.6
    endloop
  endfacet
  facet normal -0.743145 -0.669131 0
    outer loop
      vertex -10.2745 -2.26487 3.6
      vertex -8.49796 -4.23794 2.22045e-16
      vertex -8.49796 -4.23794 3.6
    endloop
  endfacet
  facet normal -0.587785 -0.809017 0
    outer loop
      vertex -8.49796 -4.23794 3.6
      vertex -8.49796 -4.23794 2.22045e-16
      vertex -6.35 -5.79852 2.22045e-16
    endloop
  endfacet
  facet normal -0.587785 -0.809017 0
    outer loop
      vertex -6.35 -5.79852 3.6
      vertex -8.49796 -4.23794 3.6
      vertex -6.35 -5.79852 2.22045e-16
    endloop
  endfacet
  facet normal -0.406737 -0.913545 0
    outer loop
      vertex -6.35 -5.79852 3.6
      vertex -6.35 -5.79852 2.22045e-16
      vertex -3.92452 -6.87842 2.22045e-16
    endloop
  endfacet
  facet normal -0.406737 -0.913545 0
    outer loop
      vertex -3.92452 -6.87842 3.6
      vertex -6.35 -5.79852 3.6
      vertex -3.92452 -6.87842 2.22045e-16
    endloop
  endfacet
  facet normal -0.207912 -0.978148 0
    outer loop
      vertex -3.92452 -6.87842 3.6
      vertex -3.92452 -6.87842 2.22045e-16
      vertex -1.32751 -7.43043 2.22045e-16
    endloop
  endfacet
  facet normal -0.207912 -0.978148 0
    outer loop
      vertex -1.32751 -7.43043 3.6
      vertex -3.92452 -6.87842 3.6
      vertex -1.32751 -7.43043 2.22045e-16
    endloop
  endfacet
  facet normal 0 -1 0
    outer loop
      vertex -1.32751 -7.43043 3.6
      vertex -1.32751 -7.43043 2.22045e-16
      vertex 1.32751 -7.43043 2.22045e-16
    endloop
  endfacet
  facet normal 0 -1 0
    outer loop
      vertex 1.32751 -7.43043 3.6
      vertex -1.32751 -7.43043 3.6
      vertex 1.32751 -7.43043 2.22045e-16
    endloop
  endfacet
  facet normal 0.207912 -0.978148 0
    outer loop
      vertex 1.32751 -7.43043 3.6
      vertex 1.32751 -7.43043 2.22045e-16
      vertex 3.92452 -6.87842 2.22045e-16
    endloop
  endfacet
  facet normal 0.207912 -0.978148 0
    outer loop
      vertex 3.92452 -6.87842 3.6
      vertex 1.32751 -7.43043 3.6
      vertex 3.92452 -6.87842 2.22045e-16
    endloop
  endfacet
  facet normal 0.406737 -0.913545 0
    outer loop
      vertex 3.92452 -6.87842 3.6
      vertex 3.92452 -6.87842 2.22045e-16
      vertex 6.35 -5.79852 2.22045e-16
    endloop
  endfacet
  facet normal 0.406737 -0.913545 0
    outer loop
      vertex 6.35 -5.79852 3.6
      vertex 3.92452 -6.87842 3.6
      vertex 6.35 -5.79852 2.22045e-16
    endloop
  endfacet
  facet normal 0.587785 -0.809017 0
    outer loop
      vertex 6.35 -5.79852 3.6
      vertex 6.35 -5.79852 2.22045e-16
      vertex 8.49796 -4.23794 2.22045e-16
    endloop
  endfacet
  facet normal 0.587785 -0.809017 0
    outer loop
      vertex 8.49796 -4.23794 3.6
      vertex 6.35 -5.79852 3.6
      vertex 8.49796 -4.23794 2.22045e-16
    endloop
  endfacet
  facet normal 0.743145 -0.669131 0
    outer loop
      vertex 8.49796 -4.23794 3.6
      vertex 8.49796 -4.23794 2.22045e-16
      vertex 10.2745 -2.26487 2.22045e-16
    endloop
  endfacet
  facet normal 0.743145 -0.669131 0
    outer loop
      vertex 10.2745 -2.26487 3.6
      vertex 8.49796 -4.23794 3.6
      vertex 10.2745 -2.26487 2.22045e-16
    endloop
  endfacet
  facet normal 0.866026 -0.5 0
    outer loop
      vertex 10.2745 -2.26487 3.6
      vertex 10.2745 -2.26487 2.22045e-16
      vertex 11.602 0.034445 2.22045e-16
    endloop
  endfacet
  facet normal 0.866026 -0.5 0
    outer loop
      vertex 11.602 0.034445 3.6
      vertex 10.2745 -2.26487 3.6
      vertex 11.602 0.034445 2.22045e-16
    endloop
  endfacet
  facet normal 0.951056 -0.309017 0
    outer loop
      vertex 11.602 0.034445 3.6
      vertex 11.602 0.034445 2.22045e-16
      vertex 12.4225 2.55952 2.22045e-16
    endloop
  endfacet
  facet normal 0.951056 -0.309017 0
    outer loop
      vertex 12.4225 2.55952 3.6
      vertex 11.602 0.034445 3.6
      vertex 12.4225 2.55952 2.22045e-16
    endloop
  endfacet
  facet normal 0.994522 -0.104528 0
    outer loop
      vertex 12.4225 2.55952 3.6
      vertex 12.4225 2.55952 2.22045e-16
      vertex 12.7 5.2 2.22045e-16
    endloop
  endfacet
  facet normal 0.994522 -0.104528 0
    outer loop
      vertex 12.7 5.2 3.6
      vertex 12.4225 2.55952 3.6
      vertex 12.7 5.2 2.22045e-16
    endloop
  endfacet
  facet normal 1 0 -0
    outer loop
      vertex 12.7 5.2 3.6
      vertex 12.7 5.2 2.22045e-16
      vertex 12.7 33.4 2.22045e-16
    endloop
  endfacet
  facet normal 1 0 0
    outer loop
      vertex 12.7 33.4 3.6
      vertex 12.7 5.2 3.6
      vertex 12.7 33.4 2.22045e-16
    endloop
  endfacet
  facet normal 0.965926 -0.258819 0
    outer loop
      vertex -1.49389 0.8625 2.22045e-16
      vertex -1.49389 0.8625 3.6
      vertex -1.725 0 3.6
    endloop
  endfacet
  facet normal 0.965926 -0.258819 0
    outer loop
      vertex -1.725 0 2.22045e-16
      vertex -1.49389 0.8625 2.22045e-16
      vertex -1.725 0 3.6
    endloop
  endfacet
  facet normal 0.965926 0.258819 0
    outer loop
      vertex -1.725 0 3.6
      vertex -1.49389 -0.8625 3.6
      vertex -1.49389 -0.8625 2.22045e-16
    endloop
  endfacet
  facet normal 0.965926 0.258819 0
    outer loop
      vertex -1.725 0 2.22045e-16
      vertex -1.725 0 3.6
      vertex -1.49389 -0.8625 2.22045e-16
    endloop
  endfacet
  facet normal 0.707107 -0.707107 0
    outer loop
      vertex -0.8625 1.49389 2.22045e-16
      vertex -0.8625 1.49389 3.6
      vertex -1.49389 0.8625 3.6
    endloop
  endfacet
  facet normal 0.707107 -0.707107 0
    outer loop
      vertex -1.49389 0.8625 2.22045e-16
      vertex -0.8625 1.49389 2.22045e-16
      vertex -1.49389 0.8625 3.6
    endloop
  endfacet
  facet normal 0.258819 -0.965926 0
    outer loop
      vertex 0 1.725 2.22045e-16
      vertex 0 1.725 3.6
      vertex -0.8625 1.49389 3.6
    endloop
  endfacet
  facet normal 0.258819 -0.965926 0
    outer loop
      vertex -0.8625 1.49389 2.22045e-16
      vertex 0 1.725 2.22045e-16
      vertex -0.8625 1.49389 3.6
    endloop
  endfacet
  facet normal -0.258819 -0.965926 -0
    outer loop
      vertex 0.8625 1.49389 2.22045e-16
      vertex 0.8625 1.49389 3.6
      vertex 0 1.725 3.6
    endloop
  endfacet
  facet normal -0.258819 -0.965926 -0
    outer loop
      vertex 0 1.725 2.22045e-16
      vertex 0.8625 1.49389 2.22045e-16
      vertex 0 1.725 3.6
    endloop
  endfacet
  facet normal -0.707107 -0.707107 -0
    outer loop
      vertex 1.49389 0.8625 2.22045e-16
      vertex 1.49389 0.8625 3.6
      vertex 0.8625 1.49389 3.6
    endloop
  endfacet
  facet normal -0.707107 -0.707107 -0
    outer loop
      vertex 0.8625 1.49389 2.22045e-16
      vertex 1.49389 0.8625 2.22045e-16
      vertex 0.8625 1.49389 3.6
    endloop
  endfacet
  facet normal -0.965926 -0.258819 0
    outer loop
      vertex 1.725 0 3.6
      vertex 1.49389 0.8625 3.6
      vertex 1.725 0 2.22045e-16
    endloop
  endfacet
  facet normal -0.965926 -0.258819 0
    outer loop
      vertex 1.725 0 2.22045e-16
      vertex 1.49389 0.8625 3.6
      vertex 1.49389 0.8625 2.22045e-16
    endloop
  endfacet
  facet normal -0.965926 0.258819 0
    outer loop
      vertex 1.725 0 3.6
      vertex 1.725 0 2.22045e-16
      vertex 1.49389 -0.8625 3.6
    endloop
  endfacet
  facet normal -0.965926 0.258819 0
    outer loop
      vertex 1.49389 -0.8625 3.6
      vertex 1.725 0 2.22045e-16
      vertex 1.49389 -0.8625 2.22045e-16
    endloop
  endfacet
  facet normal -0.707107 0.707107 0
    outer loop
      vertex 1.49389 -0.8625 3.6
      vertex 1.49389 -0.8625 2.22045e-16
      vertex 0.8625 -1.49389 3.6
    endloop
  endfacet
  facet normal -0.707107 0.707107 0
    outer loop
      vertex 0.8625 -1.49389 3.6
      vertex 1.49389 -0.8625 2.22045e-16
      vertex 0.8625 -1.49389 2.22045e-16
    endloop
  endfacet
  facet normal -0.258819 0.965926 0
    outer loop
      vertex 0.8625 -1.49389 3.6
      vertex 0.8625 -1.49389 2.22045e-16
      vertex 0 -1.725 3.6
    endloop
  endfacet
  facet normal -0.258819 0.965926 0
    outer loop
      vertex 0 -1.725 3.6
      vertex 0.8625 -1.49389 2.22045e-16
      vertex 0 -1.725 2.22045e-16
    endloop
  endfacet
  facet normal 0.258819 0.965926 -0
    outer loop
      vertex 0 -1.725 3.6
      vertex 0 -1.725 2.22045e-16
      vertex -0.8625 -1.49389 3.6
    endloop
  endfacet
  facet normal 0.258819 0.965926 -0
    outer loop
      vertex -0.8625 -1.49389 3.6
      vertex 0 -1.725 2.22045e-16
      vertex -0.8625 -1.49389 2.22045e-16
    endloop
  endfacet
  facet normal 0.707107 0.707107 -0
    outer loop
      vertex -0.8625 -1.49389 3.6
      vertex -0.8625 -1.49389 2.22045e-16
      vertex -1.49389 -0.8625 3.6
    endloop
  endfacet
  facet normal 0.707107 0.707107 -0
    outer loop
      vertex -1.49389 -0.8625 3.6
      vertex -0.8625 -1.49389 2.22045e-16
      vertex -1.49389 -0.8625 2.22045e-16
    endloop
  endfacet
endsolid OpenSCAD_Model
