solid OpenSCAD_Model
  facet normal -1 -0 -0
    outer loop
      vertex -40.25 -4 0
      vertex -40.25 -4 16
      vertex -40.25 14 0
    endloop
  endfacet
  facet normal -1 0 0
    outer loop
      vertex -40.25 14 0
      vertex -40.25 -4 16
      vertex -40.25 14 16
    endloop
  endfacet
  facet normal 0 -1 0
    outer loop
      vertex -31.925 -4 6.09882
      vertex -40.25 -4 0
      vertex 40.25 -4 0
    endloop
  endfacet
  facet normal 0 -1 0
    outer loop
      vertex 29.6683 -4 5.70089
      vertex -40.25 -4 16
      vertex 40.25 -4 0
    endloop
  endfacet
  facet normal 0 -1 0
    outer loop
      vertex -28.575 -4 6.09882
      vertex -31.925 -4 6.09882
      vertex 40.25 -4 0
    endloop
  endfacet
  facet normal 0 -1 0
    outer loop
      vertex -40.25 -4 16
      vertex -40.25 -4 0
      vertex -31.925 -4 6.09882
    endloop
  endfacet
  facet normal 0 -1 0
    outer loop
      vertex -40.25 -4 16
      vertex -31.925 -4 6.09882
      vertex -33.6 -4 9
    endloop
  endfacet
  facet normal 0 -1 0
    outer loop
      vertex -26.9 -4 9
      vertex -28.575 -4 6.09882
      vertex 40.25 -4 0
    endloop
  endfacet
  facet normal 0 -1 0
    outer loop
      vertex -40.25 -4 16
      vertex -33.6 -4 9
      vertex -31.925 -4 11.9012
    endloop
  endfacet
  facet normal 0 -1 0
    outer loop
      vertex -40.25 -4 16
      vertex -28.575 -4 11.9012
      vertex 40.25 -4 0
    endloop
  endfacet
  facet normal 0 -1 0
    outer loop
      vertex -40.25 -4 16
      vertex -31.925 -4 11.9012
      vertex -28.575 -4 11.9012
    endloop
  endfacet
  facet normal 0 -1 0
    outer loop
      vertex 26.9 -4 9
      vertex -40.25 -4 16
      vertex 27.102 -4 7.85423
    endloop
  endfacet
  facet normal 0 -1 0
    outer loop
      vertex 30.8317 -4 5.70089
      vertex 29.6683 -4 5.70089
      vertex 40.25 -4 0
    endloop
  endfacet
  facet normal 0 -1 0
    outer loop
      vertex 27.102 -4 10.1458
      vertex -40.25 -4 16
      vertex 26.9 -4 9
    endloop
  endfacet
  facet normal 0 -1 0
    outer loop
      vertex 27.6838 -4 11.1533
      vertex -40.25 -4 16
      vertex 27.102 -4 10.1458
    endloop
  endfacet
  facet normal 0 -1 0
    outer loop
      vertex 28.575 -4 11.9012
      vertex -40.25 -4 16
      vertex 27.6838 -4 11.1533
    endloop
  endfacet
  facet normal -0 -1 0
    outer loop
      vertex 30.8317 -4 12.2991
      vertex 31.925 -4 11.9012
      vertex 40.25 -4 16
    endloop
  endfacet
  facet normal 0 -1 0
    outer loop
      vertex 29.6683 -4 12.2991
      vertex -40.25 -4 16
      vertex 28.575 -4 11.9012
    endloop
  endfacet
  facet normal -0 -1 0
    outer loop
      vertex 31.925 -4 11.9012
      vertex 32.8162 -4 11.1533
      vertex 40.25 -4 16
    endloop
  endfacet
  facet normal 0 -1 0
    outer loop
      vertex 40.25 -4 16
      vertex -40.25 -4 16
      vertex 29.6683 -4 12.2991
    endloop
  endfacet
  facet normal 0 -1 0
    outer loop
      vertex 40.25 -4 16
      vertex 32.8162 -4 11.1533
      vertex 40.25 -4 0
    endloop
  endfacet
  facet normal 0 -1 0
    outer loop
      vertex 32.8162 -4 11.1533
      vertex 33.398 -4 10.1458
      vertex 40.25 -4 0
    endloop
  endfacet
  facet normal 0 -1 0
    outer loop
      vertex 33.398 -4 10.1458
      vertex 33.6 -4 9
      vertex 40.25 -4 0
    endloop
  endfacet
  facet normal 0 -1 0
    outer loop
      vertex 33.6 -4 9
      vertex 33.398 -4 7.85423
      vertex 40.25 -4 0
    endloop
  endfacet
  facet normal 0 -1 0
    outer loop
      vertex 33.398 -4 7.85423
      vertex 32.8162 -4 6.84666
      vertex 40.25 -4 0
    endloop
  endfacet
  facet normal 0 -1 0
    outer loop
      vertex 32.8162 -4 6.84666
      vertex 31.925 -4 6.09882
      vertex 40.25 -4 0
    endloop
  endfacet
  facet normal 0 -1 0
    outer loop
      vertex 31.925 -4 6.09882
      vertex 30.8317 -4 5.70089
      vertex 40.25 -4 0
    endloop
  endfacet
  facet normal 0 -1 0
    outer loop
      vertex 28.575 -4 6.09882
      vertex -40.25 -4 16
      vertex 29.6683 -4 5.70089
    endloop
  endfacet
  facet normal 0 -1 0
    outer loop
      vertex 27.6838 -4 6.84666
      vertex -40.25 -4 16
      vertex 28.575 -4 6.09882
    endloop
  endfacet
  facet normal 0 -1 0
    outer loop
      vertex 27.102 -4 7.85423
      vertex -40.25 -4 16
      vertex 27.6838 -4 6.84666
    endloop
  endfacet
  facet normal 0 -1 0
    outer loop
      vertex -28.575 -4 11.9012
      vertex -26.9 -4 9
      vertex 40.25 -4 0
    endloop
  endfacet
  facet normal -0 -1 0
    outer loop
      vertex 29.6683 -4 12.2991
      vertex 30.8317 -4 12.2991
      vertex 40.25 -4 16
    endloop
  endfacet
  facet normal 0 0 -1
    outer loop
      vertex 25.25 14 0
      vertex 33.525 0 0
      vertex 33.7561 -0.8625 0
    endloop
  endfacet
  facet normal 0 0 -1
    outer loop
      vertex 33.7561 -0.8625 0
      vertex 34.3875 -1.49389 0
      vertex 25.25 -0.25 0
    endloop
  endfacet
  facet normal -0 -0 -1
    outer loop
      vertex -33.7561 0.8625 0
      vertex -40.25 14 0
      vertex -25.25 -0.25 0
    endloop
  endfacet
  facet normal -0 0 -1
    outer loop
      vertex -40.25 -4 0
      vertex -25.25 -0.25 0
      vertex 40.25 -4 0
    endloop
  endfacet
  facet normal 0 0 -1
    outer loop
      vertex 34.3875 -1.49389 0
      vertex 40.25 -4 0
      vertex 25.25 -0.25 0
    endloop
  endfacet
  facet normal -0 0 -1
    outer loop
      vertex -33.7561 -0.8625 0
      vertex -25.25 -0.25 0
      vertex -34.3875 -1.49389 0
    endloop
  endfacet
  facet normal 0 -0 -1
    outer loop
      vertex 36.7439 0.8625 0
      vertex 25.25 14 0
      vertex 40.25 14 0
    endloop
  endfacet
  facet normal 0 -0 -1
    outer loop
      vertex -40.25 -4 0
      vertex -40.25 14 0
      vertex -36.975 0 0
    endloop
  endfacet
  facet normal 0 0 -1
    outer loop
      vertex -40.25 -4 0
      vertex -36.975 0 0
      vertex -36.7439 -0.8625 0
    endloop
  endfacet
  facet normal 0 0 -1
    outer loop
      vertex -40.25 -4 0
      vertex -36.7439 -0.8625 0
      vertex -36.1125 -1.49389 0
    endloop
  endfacet
  facet normal 0 0 -1
    outer loop
      vertex -40.25 -4 0
      vertex -36.1125 -1.49389 0
      vertex -35.25 -1.725 0
    endloop
  endfacet
  facet normal 0 0 -1
    outer loop
      vertex -40.25 -4 0
      vertex -35.25 -1.725 0
      vertex -25.25 -0.25 0
    endloop
  endfacet
  facet normal 0 0 -1
    outer loop
      vertex -35.25 -1.725 0
      vertex -34.3875 -1.49389 0
      vertex -25.25 -0.25 0
    endloop
  endfacet
  facet normal 0 0 -1
    outer loop
      vertex -33.525 0 0
      vertex -25.25 -0.25 0
      vertex -33.7561 -0.8625 0
    endloop
  endfacet
  facet normal 0 0 -1
    outer loop
      vertex 36.1125 -1.49389 0
      vertex 40.25 -4 0
      vertex 35.25 -1.725 0
    endloop
  endfacet
  facet normal -0 -0 -1
    outer loop
      vertex -34.3875 1.49389 0
      vertex -40.25 14 0
      vertex -33.7561 0.8625 0
    endloop
  endfacet
  facet normal -0 -0 -1
    outer loop
      vertex -33.525 0 0
      vertex -33.7561 0.8625 0
      vertex -25.25 -0.25 0
    endloop
  endfacet
  facet normal -0 -0 -1
    outer loop
      vertex -35.25 1.725 0
      vertex -40.25 14 0
      vertex -34.3875 1.49389 0
    endloop
  endfacet
  facet normal 0 -0 -1
    outer loop
      vertex -36.1125 1.49389 0
      vertex -40.25 14 0
      vertex -35.25 1.725 0
    endloop
  endfacet
  facet normal 0 -0 -1
    outer loop
      vertex -36.7439 0.8625 0
      vertex -40.25 14 0
      vertex -36.1125 1.49389 0
    endloop
  endfacet
  facet normal 0 -0 -1
    outer loop
      vertex -36.975 0 0
      vertex -40.25 14 0
      vertex -36.7439 0.8625 0
    endloop
  endfacet
  facet normal 0 0 -1
    outer loop
      vertex 33.7561 0.8625 0
      vertex 33.525 0 0
      vertex 25.25 14 0
    endloop
  endfacet
  facet normal 0 -0 -1
    outer loop
      vertex 34.3875 1.49389 0
      vertex 25.25 14 0
      vertex 35.25 1.725 0
    endloop
  endfacet
  facet normal 0 0 -1
    outer loop
      vertex 40.25 -4 0
      vertex 34.3875 -1.49389 0
      vertex 35.25 -1.725 0
    endloop
  endfacet
  facet normal 0 0 -1
    outer loop
      vertex 36.975 0 0
      vertex 40.25 -4 0
      vertex 36.7439 -0.8625 0
    endloop
  endfacet
  facet normal 0 0 -1
    outer loop
      vertex 40.25 -4 0
      vertex 36.1125 -1.49389 0
      vertex 36.7439 -0.8625 0
    endloop
  endfacet
  facet normal -0 -0 -1
    outer loop
      vertex 35.25 1.725 0
      vertex 25.25 14 0
      vertex 36.1125 1.49389 0
    endloop
  endfacet
  facet normal 0 0 -1
    outer loop
      vertex 40.25 -4 0
      vertex 36.975 0 0
      vertex 40.25 14 0
    endloop
  endfacet
  facet normal -0 -0 -1
    outer loop
      vertex 36.1125 1.49389 0
      vertex 25.25 14 0
      vertex 36.7439 0.8625 0
    endloop
  endfacet
  facet normal 0 -0 -1
    outer loop
      vertex 36.975 0 0
      vertex 36.7439 0.8625 0
      vertex 40.25 14 0
    endloop
  endfacet
  facet normal 0 -0 -1
    outer loop
      vertex 33.7561 0.8625 0
      vertex 25.25 14 0
      vertex 34.3875 1.49389 0
    endloop
  endfacet
  facet normal 0 0 -1
    outer loop
      vertex -25.25 -0.25 0
      vertex -40.25 14 0
      vertex -25.25 14 0
    endloop
  endfacet
  facet normal 0 0 -1
    outer loop
      vertex 25.25 -0.25 0
      vertex 40.25 -4 0
      vertex -25.25 -0.25 0
    endloop
  endfacet
  facet normal 0 0 -1
    outer loop
      vertex 25.25 14 0
      vertex 33.7561 -0.8625 0
      vertex 25.25 -0.25 0
    endloop
  endfacet
  facet normal 0 1 0
    outer loop
      vertex -40.25 14 0
      vertex -40.25 14 16
      vertex -25.25 14 0
    endloop
  endfacet
  facet normal 0 1 0
    outer loop
      vertex -31.1125 14 10.4939
      vertex -40.25 14 16
      vertex -25.25 14 16
    endloop
  endfacet
  facet normal 0 1 0
    outer loop
      vertex -31.7439 14 8.1375
      vertex -40.25 14 16
      vertex -31.975 14 9
    endloop
  endfacet
  facet normal 0 1 0
    outer loop
      vertex -25.25 14 0
      vertex -40.25 14 16
      vertex -31.7439 14 8.1375
    endloop
  endfacet
  facet normal 0 1 0
    outer loop
      vertex -25.25 14 0
      vertex -31.7439 14 8.1375
      vertex -31.1125 14 7.50611
    endloop
  endfacet
  facet normal 0 1 0
    outer loop
      vertex -28.7561 14 9.8625
      vertex -25.25 14 16
      vertex -28.525 14 9
    endloop
  endfacet
  facet normal 0 1 0
    outer loop
      vertex -25.25 14 0
      vertex -30.25 14 7.275
      vertex -29.3875 14 7.50611
    endloop
  endfacet
  facet normal 0 1 0
    outer loop
      vertex -25.25 14 0
      vertex -29.3875 14 7.50611
      vertex -28.7561 14 8.1375
    endloop
  endfacet
  facet normal 0 1 0
    outer loop
      vertex -25.25 14 0
      vertex -28.7561 14 8.1375
      vertex -25.25 14 16
    endloop
  endfacet
  facet normal 0 1 0
    outer loop
      vertex -28.7561 14 8.1375
      vertex -28.525 14 9
      vertex -25.25 14 16
    endloop
  endfacet
  facet normal 0 1 0
    outer loop
      vertex -29.3875 14 10.4939
      vertex -25.25 14 16
      vertex -28.7561 14 9.8625
    endloop
  endfacet
  facet normal 0 1 0
    outer loop
      vertex -31.1125 14 10.4939
      vertex -25.25 14 16
      vertex -30.25 14 10.725
    endloop
  endfacet
  facet normal 0 1 0
    outer loop
      vertex -29.3875 14 10.4939
      vertex -30.25 14 10.725
      vertex -25.25 14 16
    endloop
  endfacet
  facet normal 0 1 0
    outer loop
      vertex -31.7439 14 9.8625
      vertex -40.25 14 16
      vertex -31.1125 14 10.4939
    endloop
  endfacet
  facet normal 0 1 0
    outer loop
      vertex -31.975 14 9
      vertex -40.25 14 16
      vertex -31.7439 14 9.8625
    endloop
  endfacet
  facet normal -0 1 -0
    outer loop
      vertex -30.25 14 7.275
      vertex -25.25 14 0
      vertex -31.1125 14 7.50611
    endloop
  endfacet
  facet normal 0 -0 1
    outer loop
      vertex -25.25 -0.25 16
      vertex -40.25 -4 16
      vertex 40.25 -4 16
    endloop
  endfacet
  facet normal 0 0 1
    outer loop
      vertex -25.25 -0.25 16
      vertex -25.25 14 16
      vertex -40.25 14 16
    endloop
  endfacet
  facet normal 0 0 1
    outer loop
      vertex 36.7439 0.8625 16
      vertex 36.975 0 16
      vertex 40.25 -4 16
    endloop
  endfacet
  facet normal -0 -0 1
    outer loop
      vertex 35.25 -1.725 16
      vertex 25.25 -0.25 16
      vertex 40.25 -4 16
    endloop
  endfacet
  facet normal 0 -0 1
    outer loop
      vertex -34.3875 -1.49389 16
      vertex -40.25 -4 16
      vertex -25.25 -0.25 16
    endloop
  endfacet
  facet normal -0 0 1
    outer loop
      vertex -35.25 -1.725 16
      vertex -36.1125 -1.49389 16
      vertex -40.25 -4 16
    endloop
  endfacet
  facet normal 0 -0 1
    outer loop
      vertex -36.975 0 16
      vertex -40.25 -4 16
      vertex -36.7439 -0.8625 16
    endloop
  endfacet
  facet normal 0 0 1
    outer loop
      vertex -34.3875 1.49389 16
      vertex -33.7561 0.8625 16
      vertex -25.25 -0.25 16
    endloop
  endfacet
  facet normal 0 -0 1
    outer loop
      vertex -40.25 14 16
      vertex -40.25 -4 16
      vertex -36.975 0 16
    endloop
  endfacet
  facet normal 0 -0 1
    outer loop
      vertex -33.525 0 16
      vertex -33.7561 -0.8625 16
      vertex -25.25 -0.25 16
    endloop
  endfacet
  facet normal 0 0 1
    outer loop
      vertex -33.7561 0.8625 16
      vertex -33.525 0 16
      vertex -25.25 -0.25 16
    endloop
  endfacet
  facet normal 0 0 1
    outer loop
      vertex -40.25 14 16
      vertex -36.7439 0.8625 16
      vertex -36.1125 1.49389 16
    endloop
  endfacet
  facet normal 0 0 1
    outer loop
      vertex -40.25 14 16
      vertex -35.25 1.725 16
      vertex -25.25 -0.25 16
    endloop
  endfacet
  facet normal 0 0 1
    outer loop
      vertex -40.25 14 16
      vertex -36.1125 1.49389 16
      vertex -35.25 1.725 16
    endloop
  endfacet
  facet normal 0 0 1
    outer loop
      vertex -35.25 1.725 16
      vertex -34.3875 1.49389 16
      vertex -25.25 -0.25 16
    endloop
  endfacet
  facet normal 0 -0 1
    outer loop
      vertex 36.1125 -1.49389 16
      vertex 35.25 -1.725 16
      vertex 40.25 -4 16
    endloop
  endfacet
  facet normal 0 -0 1
    outer loop
      vertex -33.7561 -0.8625 16
      vertex -34.3875 -1.49389 16
      vertex -25.25 -0.25 16
    endloop
  endfacet
  facet normal 0 -0 1
    outer loop
      vertex -35.25 -1.725 16
      vertex -40.25 -4 16
      vertex -34.3875 -1.49389 16
    endloop
  endfacet
  facet normal 0 -0 1
    outer loop
      vertex -36.7439 -0.8625 16
      vertex -40.25 -4 16
      vertex -36.1125 -1.49389 16
    endloop
  endfacet
  facet normal 0 -0 1
    outer loop
      vertex 25.25 14 16
      vertex 25.25 -0.25 16
      vertex 33.7561 -0.8625 16
    endloop
  endfacet
  facet normal 0 0 1
    outer loop
      vertex 25.25 14 16
      vertex 33.7561 -0.8625 16
      vertex 33.525 0 16
    endloop
  endfacet
  facet normal 0 0 1
    outer loop
      vertex 25.25 14 16
      vertex 33.525 0 16
      vertex 33.7561 0.8625 16
    endloop
  endfacet
  facet normal 0 -0 1
    outer loop
      vertex 36.7439 -0.8625 16
      vertex 36.1125 -1.49389 16
      vertex 40.25 -4 16
    endloop
  endfacet
  facet normal 0 0 1
    outer loop
      vertex 25.25 14 16
      vertex 33.7561 0.8625 16
      vertex 34.3875 1.49389 16
    endloop
  endfacet
  facet normal 0 -0 1
    outer loop
      vertex 36.975 0 16
      vertex 36.7439 -0.8625 16
      vertex 40.25 -4 16
    endloop
  endfacet
  facet normal 0 0 1
    outer loop
      vertex 25.25 14 16
      vertex 34.3875 1.49389 16
      vertex 35.25 1.725 16
    endloop
  endfacet
  facet normal 0 0 1
    outer loop
      vertex 40.25 14 16
      vertex 25.25 14 16
      vertex 36.1125 1.49389 16
    endloop
  endfacet
  facet normal 0 0 1
    outer loop
      vertex 40.25 14 16
      vertex 36.7439 0.8625 16
      vertex 40.25 -4 16
    endloop
  endfacet
  facet normal 0 0 1
    outer loop
      vertex 40.25 14 16
      vertex 36.1125 1.49389 16
      vertex 36.7439 0.8625 16
    endloop
  endfacet
  facet normal -0 -0 1
    outer loop
      vertex 34.3875 -1.49389 16
      vertex 25.25 -0.25 16
      vertex 35.25 -1.725 16
    endloop
  endfacet
  facet normal -0 -0 1
    outer loop
      vertex 33.7561 -0.8625 16
      vertex 25.25 -0.25 16
      vertex 34.3875 -1.49389 16
    endloop
  endfacet
  facet normal 0 0 1
    outer loop
      vertex -36.975 0 16
      vertex -36.7439 0.8625 16
      vertex -40.25 14 16
    endloop
  endfacet
  facet normal 0 -0 1
    outer loop
      vertex 25.25 -0.25 16
      vertex -25.25 -0.25 16
      vertex 40.25 -4 16
    endloop
  endfacet
  facet normal 0 0 1
    outer loop
      vertex 35.25 1.725 16
      vertex 36.1125 1.49389 16
      vertex 25.25 14 16
    endloop
  endfacet
  facet normal 1 0 -0
    outer loop
      vertex 40.25 -4 16
      vertex 40.25 -4 0
      vertex 40.25 14 0
    endloop
  endfacet
  facet normal 1 0 0
    outer loop
      vertex 40.25 14 16
      vertex 40.25 -4 16
      vertex 40.25 14 0
    endloop
  endfacet
  facet normal 0 1.97373e-16 1
    outer loop
      vertex -28.575 -4 6.09882
      vertex -28.575 5 6.09882
      vertex -31.925 5 6.09882
    endloop
  endfacet
  facet normal 0 1.97373e-16 1
    outer loop
      vertex -31.925 -4 6.09882
      vertex -28.575 -4 6.09882
      vertex -31.925 5 6.09882
    endloop
  endfacet
  facet normal 0.866025 9.86865e-17 0.5
    outer loop
      vertex -31.925 -4 6.09882
      vertex -31.925 5 6.09882
      vertex -33.6 5 9
    endloop
  endfacet
  facet normal 0.866025 -3.42612e-14 0.5
    outer loop
      vertex -33.525 0 8.8701
      vertex -31.925 -4 6.09882
      vertex -33.6 0.279904 9
    endloop
  endfacet
  facet normal 0.866025 0 0.5
    outer loop
      vertex -33.6 0.279904 9
      vertex -31.925 -4 6.09882
      vertex -33.6 5 9
    endloop
  endfacet
  facet normal 0.866025 6.77343e-15 0.5
    outer loop
      vertex -33.6 -0.279904 9
      vertex -31.925 -4 6.09882
      vertex -33.525 0 8.8701
    endloop
  endfacet
  facet normal 0.866025 2.38751e-16 0.5
    outer loop
      vertex -33.6 -4 9
      vertex -31.925 -4 6.09882
      vertex -33.6 -0.279904 9
    endloop
  endfacet
  facet normal -0.866025 9.86865e-17 0.5
    outer loop
      vertex -26.9 5 9
      vertex -28.575 5 6.09882
      vertex -26.9 -4 9
    endloop
  endfacet
  facet normal -0.866025 7.45672e-17 0.5
    outer loop
      vertex -26.9 -4 9
      vertex -28.575 5 6.09882
      vertex -28.575 -4 6.09882
    endloop
  endfacet
  facet normal -0.866025 -9.86865e-17 -0.5
    outer loop
      vertex -26.9 5 9
      vertex -26.9 -4 9
      vertex -28.575 5 11.9012
    endloop
  endfacet
  facet normal -0.866025 -9.86865e-17 -0.5
    outer loop
      vertex -28.575 5 11.9012
      vertex -26.9 -4 9
      vertex -28.575 -4 11.9012
    endloop
  endfacet
  facet normal 0 -1.97373e-16 -1
    outer loop
      vertex -28.575 5 11.9012
      vertex -28.575 -4 11.9012
      vertex -31.925 5 11.9012
    endloop
  endfacet
  facet normal 0 -1.97373e-16 -1
    outer loop
      vertex -31.925 5 11.9012
      vertex -28.575 -4 11.9012
      vertex -31.925 -4 11.9012
    endloop
  endfacet
  facet normal 0.866025 0 -0.5
    outer loop
      vertex -33.6 5 9
      vertex -33.525 0 9.1299
      vertex -33.6 0.279904 9
    endloop
  endfacet
  facet normal 0.866025 -6.21394e-16 -0.5
    outer loop
      vertex -31.925 5 11.9012
      vertex -33.525 0 9.1299
      vertex -33.6 5 9
    endloop
  endfacet
  facet normal 0.866025 6.87091e-14 -0.5
    outer loop
      vertex -33.6 -0.279904 9
      vertex -33.525 0 9.1299
      vertex -31.925 5 11.9012
    endloop
  endfacet
  facet normal 0.866025 -9.86865e-17 -0.5
    outer loop
      vertex -31.925 -4 11.9012
      vertex -33.6 -0.279904 9
      vertex -31.925 5 11.9012
    endloop
  endfacet
  facet normal 0.866025 -2.38751e-16 -0.5
    outer loop
      vertex -33.6 -4 9
      vertex -33.6 -0.279904 9
      vertex -31.925 -4 11.9012
    endloop
  endfacet
  facet normal 0.984808 3.42735e-17 0.173648
    outer loop
      vertex 27.102 -4 7.85423
      vertex 27.102 5 7.85423
      vertex 26.9 5 9
    endloop
  endfacet
  facet normal 0.984808 3.42735e-17 0.173648
    outer loop
      vertex 26.9 -4 9
      vertex 27.102 -4 7.85423
      vertex 26.9 5 9
    endloop
  endfacet
  facet normal 0.866026 9.86864e-17 0.5
    outer loop
      vertex 27.6838 -4 6.84666
      vertex 27.6838 5 6.84666
      vertex 27.102 5 7.85423
    endloop
  endfacet
  facet normal 0.866026 9.86864e-17 0.5
    outer loop
      vertex 27.102 -4 7.85423
      vertex 27.6838 -4 6.84666
      vertex 27.102 5 7.85423
    endloop
  endfacet
  facet normal 0.642788 1.51196e-16 0.766044
    outer loop
      vertex 28.575 -4 6.09882
      vertex 28.575 5 6.09882
      vertex 27.6838 5 6.84666
    endloop
  endfacet
  facet normal 0.642788 1.51196e-16 0.766044
    outer loop
      vertex 27.6838 -4 6.84666
      vertex 28.575 -4 6.09882
      vertex 27.6838 5 6.84666
    endloop
  endfacet
  facet normal 0.34202 1.8547e-16 0.939693
    outer loop
      vertex 29.6683 -4 5.70089
      vertex 29.6683 5 5.70089
      vertex 28.575 5 6.09882
    endloop
  endfacet
  facet normal 0.34202 1.8547e-16 0.939693
    outer loop
      vertex 28.575 -4 6.09882
      vertex 29.6683 -4 5.70089
      vertex 28.575 5 6.09882
    endloop
  endfacet
  facet normal 0 1.97373e-16 1
    outer loop
      vertex 30.8317 -4 5.70089
      vertex 30.8317 5 5.70089
      vertex 29.6683 5 5.70089
    endloop
  endfacet
  facet normal 0 1.97373e-16 1
    outer loop
      vertex 29.6683 -4 5.70089
      vertex 30.8317 -4 5.70089
      vertex 29.6683 5 5.70089
    endloop
  endfacet
  facet normal -0.34202 1.8547e-16 0.939693
    outer loop
      vertex 31.925 -4 6.09882
      vertex 31.925 5 6.09882
      vertex 30.8317 5 5.70089
    endloop
  endfacet
  facet normal -0.34202 1.8547e-16 0.939693
    outer loop
      vertex 30.8317 -4 5.70089
      vertex 31.925 -4 6.09882
      vertex 30.8317 5 5.70089
    endloop
  endfacet
  facet normal -0.642788 1.51196e-16 0.766044
    outer loop
      vertex 32.8162 -4 6.84666
      vertex 32.8162 5 6.84666
      vertex 31.925 5 6.09882
    endloop
  endfacet
  facet normal -0.642788 1.51196e-16 0.766044
    outer loop
      vertex 31.925 -4 6.09882
      vertex 32.8162 -4 6.84666
      vertex 31.925 5 6.09882
    endloop
  endfacet
  facet normal -0.866026 9.86864e-17 0.5
    outer loop
      vertex 33.398 5 7.85423
      vertex 32.8162 5 6.84666
      vertex 33.398 -4 7.85423
    endloop
  endfacet
  facet normal -0.866026 1.07354e-16 0.5
    outer loop
      vertex 33.398 -4 7.85423
      vertex 32.8162 5 6.84666
      vertex 32.8162 -4 6.84666
    endloop
  endfacet
  facet normal -0.984808 8.29177e-17 0.173648
    outer loop
      vertex 33.6 -0.279904 9
      vertex 33.525 0 8.57465
      vertex 33.6 -4 9
    endloop
  endfacet
  facet normal -0.984808 0 0.173648
    outer loop
      vertex 33.6 5 9
      vertex 33.525 0 8.57465
      vertex 33.6 0.279904 9
    endloop
  endfacet
  facet normal -0.984808 -8.23792e-16 0.173648
    outer loop
      vertex 33.398 5 7.85423
      vertex 33.525 0 8.57465
      vertex 33.6 5 9
    endloop
  endfacet
  facet normal -0.984808 6.55268e-15 0.173648
    outer loop
      vertex 33.6 -4 9
      vertex 33.525 0 8.57465
      vertex 33.398 5 7.85423
    endloop
  endfacet
  facet normal -0.984808 3.35481e-17 0.173648
    outer loop
      vertex 33.6 -4 9
      vertex 33.398 5 7.85423
      vertex 33.398 -4 7.85423
    endloop
  endfacet
  facet normal -0.984808 0 -0.173648
    outer loop
      vertex 33.6 5 9
      vertex 33.6 0.279904 9
      vertex 33.398 5 10.1458
    endloop
  endfacet
  facet normal -0.984808 -2.06358e-15 -0.173648
    outer loop
      vertex 33.398 5 10.1458
      vertex 33.6 0.279904 9
      vertex 33.525 0 9.42535
    endloop
  endfacet
  facet normal -0.984808 -8.20539e-17 -0.173648
    outer loop
      vertex 33.525 0 9.42535
      vertex 33.6 -0.279904 9
      vertex 33.6 -4 9
    endloop
  endfacet
  facet normal -0.984808 6.05315e-15 -0.173648
    outer loop
      vertex 33.525 0 9.42535
      vertex 33.6 -4 9
      vertex 33.398 5 10.1458
    endloop
  endfacet
  facet normal -0.984808 -3.42735e-17 -0.173648
    outer loop
      vertex 33.398 5 10.1458
      vertex 33.6 -4 9
      vertex 33.398 -4 10.1458
    endloop
  endfacet
  facet normal -0.866026 -9.86864e-17 -0.5
    outer loop
      vertex 33.398 5 10.1458
      vertex 33.398 -4 10.1458
      vertex 32.8162 5 11.1533
    endloop
  endfacet
  facet normal -0.866026 -9.86864e-17 -0.5
    outer loop
      vertex 32.8162 5 11.1533
      vertex 33.398 -4 10.1458
      vertex 32.8162 -4 11.1533
    endloop
  endfacet
  facet normal -0.642788 -1.51196e-16 -0.766044
    outer loop
      vertex 32.8162 5 11.1533
      vertex 32.8162 -4 11.1533
      vertex 31.925 5 11.9012
    endloop
  endfacet
  facet normal -0.642788 -1.51196e-16 -0.766044
    outer loop
      vertex 31.925 5 11.9012
      vertex 32.8162 -4 11.1533
      vertex 31.925 -4 11.9012
    endloop
  endfacet
  facet normal -0.34202 -1.8547e-16 -0.939693
    outer loop
      vertex 31.925 5 11.9012
      vertex 31.925 -4 11.9012
      vertex 30.8317 5 12.2991
    endloop
  endfacet
  facet normal -0.34202 -1.8547e-16 -0.939693
    outer loop
      vertex 30.8317 5 12.2991
      vertex 31.925 -4 11.9012
      vertex 30.8317 -4 12.2991
    endloop
  endfacet
  facet normal 0 -1.97373e-16 -1
    outer loop
      vertex 30.8317 5 12.2991
      vertex 30.8317 -4 12.2991
      vertex 29.6683 5 12.2991
    endloop
  endfacet
  facet normal 0 -1.97373e-16 -1
    outer loop
      vertex 29.6683 5 12.2991
      vertex 30.8317 -4 12.2991
      vertex 29.6683 -4 12.2991
    endloop
  endfacet
  facet normal 0.34202 -1.8547e-16 -0.939693
    outer loop
      vertex 29.6683 5 12.2991
      vertex 29.6683 -4 12.2991
      vertex 28.575 5 11.9012
    endloop
  endfacet
  facet normal 0.34202 -1.8547e-16 -0.939693
    outer loop
      vertex 28.575 5 11.9012
      vertex 29.6683 -4 12.2991
      vertex 28.575 -4 11.9012
    endloop
  endfacet
  facet normal 0.642788 -1.51196e-16 -0.766044
    outer loop
      vertex 28.575 5 11.9012
      vertex 28.575 -4 11.9012
      vertex 27.6838 5 11.1533
    endloop
  endfacet
  facet normal 0.642788 -1.51196e-16 -0.766044
    outer loop
      vertex 27.6838 5 11.1533
      vertex 28.575 -4 11.9012
      vertex 27.6838 -4 11.1533
    endloop
  endfacet
  facet normal 0.866026 -1.07354e-16 -0.5
    outer loop
      vertex 27.102 5 10.1458
      vertex 27.6838 5 11.1533
      vertex 27.6838 -4 11.1533
    endloop
  endfacet
  facet normal 0.866026 -9.86864e-17 -0.5
    outer loop
      vertex 27.102 -4 10.1458
      vertex 27.102 5 10.1458
      vertex 27.6838 -4 11.1533
    endloop
  endfacet
  facet normal 0.984808 -3.35481e-17 -0.173648
    outer loop
      vertex 26.9 5 9
      vertex 27.102 5 10.1458
      vertex 27.102 -4 10.1458
    endloop
  endfacet
  facet normal 0.984808 -3.42735e-17 -0.173648
    outer loop
      vertex 26.9 -4 9
      vertex 26.9 5 9
      vertex 27.102 -4 10.1458
    endloop
  endfacet
  facet normal 0 1 0
    outer loop
      vertex 31.1125 14 10.4939
      vertex 25.25 14 16
      vertex 40.25 14 16
    endloop
  endfacet
  facet normal 0 1 0
    outer loop
      vertex 25.25 14 0
      vertex 25.25 14 16
      vertex 28.525 14 9
    endloop
  endfacet
  facet normal 0 1 0
    outer loop
      vertex 25.25 14 0
      vertex 28.525 14 9
      vertex 28.7561 14 8.1375
    endloop
  endfacet
  facet normal 0 1 0
    outer loop
      vertex 25.25 14 0
      vertex 28.7561 14 8.1375
      vertex 29.3875 14 7.50611
    endloop
  endfacet
  facet normal 0 1 0
    outer loop
      vertex 25.25 14 0
      vertex 29.3875 14 7.50611
      vertex 40.25 14 0
    endloop
  endfacet
  facet normal 0 1 -0
    outer loop
      vertex 31.1125 14 7.50611
      vertex 40.25 14 0
      vertex 30.25 14 7.275
    endloop
  endfacet
  facet normal 0 1 -0
    outer loop
      vertex 31.975 14 9
      vertex 40.25 14 0
      vertex 31.7439 14 8.1375
    endloop
  endfacet
  facet normal 0 1 0
    outer loop
      vertex 28.7561 14 9.8625
      vertex 25.25 14 16
      vertex 29.3875 14 10.4939
    endloop
  endfacet
  facet normal 0 1 0
    outer loop
      vertex 31.1125 14 7.50611
      vertex 31.7439 14 8.1375
      vertex 40.25 14 0
    endloop
  endfacet
  facet normal 0 1 0
    outer loop
      vertex 29.3875 14 10.4939
      vertex 25.25 14 16
      vertex 30.25 14 10.725
    endloop
  endfacet
  facet normal 0 1 0
    outer loop
      vertex 40.25 14 0
      vertex 31.975 14 9
      vertex 40.25 14 16
    endloop
  endfacet
  facet normal 0 1 0
    outer loop
      vertex 31.975 14 9
      vertex 31.7439 14 9.8625
      vertex 40.25 14 16
    endloop
  endfacet
  facet normal 0 1 0
    outer loop
      vertex 31.7439 14 9.8625
      vertex 31.1125 14 10.4939
      vertex 40.25 14 16
    endloop
  endfacet
  facet normal 0 1 0
    outer loop
      vertex 30.25 14 10.725
      vertex 25.25 14 16
      vertex 31.1125 14 10.4939
    endloop
  endfacet
  facet normal 0 1 0
    outer loop
      vertex 28.525 14 9
      vertex 25.25 14 16
      vertex 28.7561 14 9.8625
    endloop
  endfacet
  facet normal -0 1 -0
    outer loop
      vertex 30.25 14 7.275
      vertex 40.25 14 0
      vertex 29.3875 14 7.50611
    endloop
  endfacet
  facet normal -1 0 0
    outer loop
      vertex 25.25 14 16
      vertex 25.25 14 0
      vertex 25.25 -0.25 16
    endloop
  endfacet
  facet normal -1 0 0
    outer loop
      vertex 25.25 -0.25 16
      vertex 25.25 14 0
      vertex 25.25 -0.25 0
    endloop
  endfacet
  facet normal 0 1 0
    outer loop
      vertex 25.25 -0.25 16
      vertex 25.25 -0.25 0
      vertex -25.25 -0.25 16
    endloop
  endfacet
  facet normal 0 1 -0
    outer loop
      vertex -25.25 -0.25 16
      vertex 25.25 -0.25 0
      vertex -25.25 -0.25 0
    endloop
  endfacet
  facet normal 1 0 0
    outer loop
      vertex -25.25 14 0
      vertex -25.25 14 16
      vertex -25.25 -0.25 16
    endloop
  endfacet
  facet normal 1 0 0
    outer loop
      vertex -25.25 -0.25 0
      vertex -25.25 14 0
      vertex -25.25 -0.25 16
    endloop
  endfacet
  facet normal 0.965926 -0.258819 0
    outer loop
      vertex -36.7439 0.8625 0
      vertex -36.7439 0.8625 16
      vertex -36.975 0 16
    endloop
  endfacet
  facet normal 0.965926 -0.258819 0
    outer loop
      vertex -36.975 0 0
      vertex -36.7439 0.8625 0
      vertex -36.975 0 16
    endloop
  endfacet
  facet normal 0.965926 0.258819 0
    outer loop
      vertex -36.975 0 16
      vertex -36.7439 -0.8625 16
      vertex -36.7439 -0.8625 0
    endloop
  endfacet
  facet normal 0.965926 0.258819 0
    outer loop
      vertex -36.975 0 0
      vertex -36.975 0 16
      vertex -36.7439 -0.8625 0
    endloop
  endfacet
  facet normal 0.707107 -0.707107 0
    outer loop
      vertex -36.1125 1.49389 0
      vertex -36.1125 1.49389 16
      vertex -36.7439 0.8625 16
    endloop
  endfacet
  facet normal 0.707107 -0.707107 0
    outer loop
      vertex -36.7439 0.8625 0
      vertex -36.1125 1.49389 0
      vertex -36.7439 0.8625 16
    endloop
  endfacet
  facet normal 0.258819 -0.965926 0
    outer loop
      vertex -35.25 1.725 0
      vertex -35.25 1.725 16
      vertex -36.1125 1.49389 16
    endloop
  endfacet
  facet normal 0.258819 -0.965926 0
    outer loop
      vertex -36.1125 1.49389 0
      vertex -35.25 1.725 0
      vertex -36.1125 1.49389 16
    endloop
  endfacet
  facet normal -0.258819 -0.965926 -0
    outer loop
      vertex -34.3875 1.49389 0
      vertex -34.3875 1.49389 16
      vertex -35.25 1.725 16
    endloop
  endfacet
  facet normal -0.258819 -0.965926 -0
    outer loop
      vertex -35.25 1.725 0
      vertex -34.3875 1.49389 0
      vertex -35.25 1.725 16
    endloop
  endfacet
  facet normal -0.707107 -0.707107 -0
    outer loop
      vertex -33.7561 0.8625 0
      vertex -33.7561 0.8625 16
      vertex -34.3875 1.49389 16
    endloop
  endfacet
  facet normal -0.707107 -0.707107 -0
    outer loop
      vertex -34.3875 1.49389 0
      vertex -33.7561 0.8625 0
      vertex -34.3875 1.49389 16
    endloop
  endfacet
  facet normal -0.965926 -0.258819 0
    outer loop
      vertex -33.525 0 8.8701
      vertex -33.6 0.279904 9
      vertex -33.525 0 0
    endloop
  endfacet
  facet normal -0.965926 -0.258819 0
    outer loop
      vertex -33.525 0 16
      vertex -33.6 0.279904 9
      vertex -33.525 0 9.1299
    endloop
  endfacet
  facet normal -0.965926 -0.258819 -3.80777e-16
    outer loop
      vertex -33.7561 0.8625 16
      vertex -33.6 0.279904 9
      vertex -33.525 0 16
    endloop
  endfacet
  facet normal -0.965926 -0.258819 6.97995e-16
    outer loop
      vertex -33.525 0 0
      vertex -33.6 0.279904 9
      vertex -33.7561 0.8625 16
    endloop
  endfacet
  facet normal -0.965926 -0.258819 0
    outer loop
      vertex -33.525 0 0
      vertex -33.7561 0.8625 16
      vertex -33.7561 0.8625 0
    endloop
  endfacet
  facet normal -0.965926 0.258819 0
    outer loop
      vertex -33.525 0 16
      vertex -33.525 0 9.1299
      vertex -33.7561 -0.8625 16
    endloop
  endfacet
  facet normal -0.965926 0.258819 -1.1297e-15
    outer loop
      vertex -33.7561 -0.8625 16
      vertex -33.525 0 9.1299
      vertex -33.6 -0.279904 9
    endloop
  endfacet
  facet normal -0.965926 0.258819 0
    outer loop
      vertex -33.6 -0.279904 9
      vertex -33.525 0 8.8701
      vertex -33.525 0 0
    endloop
  endfacet
  facet normal -0.965926 0.258819 6.97421e-16
    outer loop
      vertex -33.6 -0.279904 9
      vertex -33.525 0 0
      vertex -33.7561 -0.8625 16
    endloop
  endfacet
  facet normal -0.965926 0.258819 0
    outer loop
      vertex -33.7561 -0.8625 16
      vertex -33.525 0 0
      vertex -33.7561 -0.8625 0
    endloop
  endfacet
  facet normal -0.707107 0.707107 0
    outer loop
      vertex -33.7561 -0.8625 16
      vertex -33.7561 -0.8625 0
      vertex -34.3875 -1.49389 16
    endloop
  endfacet
  facet normal -0.707107 0.707107 0
    outer loop
      vertex -34.3875 -1.49389 16
      vertex -33.7561 -0.8625 0
      vertex -34.3875 -1.49389 0
    endloop
  endfacet
  facet normal -0.258819 0.965926 0
    outer loop
      vertex -34.3875 -1.49389 16
      vertex -34.3875 -1.49389 0
      vertex -35.25 -1.725 16
    endloop
  endfacet
  facet normal -0.258819 0.965926 0
    outer loop
      vertex -35.25 -1.725 16
      vertex -34.3875 -1.49389 0
      vertex -35.25 -1.725 0
    endloop
  endfacet
  facet normal 0.258819 0.965926 -0
    outer loop
      vertex -35.25 -1.725 16
      vertex -35.25 -1.725 0
      vertex -36.1125 -1.49389 16
    endloop
  endfacet
  facet normal 0.258819 0.965926 -0
    outer loop
      vertex -36.1125 -1.49389 16
      vertex -35.25 -1.725 0
      vertex -36.1125 -1.49389 0
    endloop
  endfacet
  facet normal 0.707107 0.707107 -0
    outer loop
      vertex -36.1125 -1.49389 16
      vertex -36.1125 -1.49389 0
      vertex -36.7439 -0.8625 16
    endloop
  endfacet
  facet normal 0.707107 0.707107 -0
    outer loop
      vertex -36.7439 -0.8625 16
      vertex -36.1125 -1.49389 0
      vertex -36.7439 -0.8625 0
    endloop
  endfacet
  facet normal 0.965926 0.258819 -0
    outer loop
      vertex 33.525 0 16
      vertex 33.6 -0.279904 9
      vertex 33.525 0 9.42535
    endloop
  endfacet
  facet normal 0.965926 0.258819 -3.80777e-16
    outer loop
      vertex 33.7561 -0.8625 16
      vertex 33.6 -0.279904 9
      vertex 33.525 0 16
    endloop
  endfacet
  facet normal 0.965926 0.258819 8.29285e-16
    outer loop
      vertex 33.525 0 8.57465
      vertex 33.6 -0.279904 9
      vertex 33.7561 -0.8625 0
    endloop
  endfacet
  facet normal 0.965926 0.258819 0
    outer loop
      vertex 33.7561 -0.8625 0
      vertex 33.6 -0.279904 9
      vertex 33.7561 -0.8625 16
    endloop
  endfacet
  facet normal 0.965926 0.258819 0
    outer loop
      vertex 33.525 0 0
      vertex 33.525 0 8.57465
      vertex 33.7561 -0.8625 0
    endloop
  endfacet
  facet normal 0.965926 -0.258819 0
    outer loop
      vertex 33.7561 0.8625 0
      vertex 33.7561 0.8625 16
      vertex 33.525 0 16
    endloop
  endfacet
  facet normal 0.965926 -0.258819 -1.46908e-15
    outer loop
      vertex 33.6 0.279904 9
      vertex 33.7561 0.8625 0
      vertex 33.525 0 16
    endloop
  endfacet
  facet normal 0.965926 -0.258819 0
    outer loop
      vertex 33.525 0 9.42535
      vertex 33.6 0.279904 9
      vertex 33.525 0 16
    endloop
  endfacet
  facet normal 0.965926 -0.258819 0
    outer loop
      vertex 33.525 0 0
      vertex 33.7561 0.8625 0
      vertex 33.525 0 8.57465
    endloop
  endfacet
  facet normal 0.965926 -0.258819 8.27757e-16
    outer loop
      vertex 33.6 0.279904 9
      vertex 33.525 0 8.57465
      vertex 33.7561 0.8625 0
    endloop
  endfacet
  facet normal 0.707107 -0.707107 0
    outer loop
      vertex 34.3875 1.49389 0
      vertex 34.3875 1.49389 16
      vertex 33.7561 0.8625 16
    endloop
  endfacet
  facet normal 0.707107 -0.707107 0
    outer loop
      vertex 33.7561 0.8625 0
      vertex 34.3875 1.49389 0
      vertex 33.7561 0.8625 16
    endloop
  endfacet
  facet normal 0.258819 -0.965926 0
    outer loop
      vertex 35.25 1.725 0
      vertex 35.25 1.725 16
      vertex 34.3875 1.49389 16
    endloop
  endfacet
  facet normal 0.258819 -0.965926 0
    outer loop
      vertex 34.3875 1.49389 0
      vertex 35.25 1.725 0
      vertex 34.3875 1.49389 16
    endloop
  endfacet
  facet normal -0.258819 -0.965926 -0
    outer loop
      vertex 36.1125 1.49389 0
      vertex 36.1125 1.49389 16
      vertex 35.25 1.725 16
    endloop
  endfacet
  facet normal -0.258819 -0.965926 -0
    outer loop
      vertex 35.25 1.725 0
      vertex 36.1125 1.49389 0
      vertex 35.25 1.725 16
    endloop
  endfacet
  facet normal -0.707107 -0.707107 -0
    outer loop
      vertex 36.7439 0.8625 0
      vertex 36.7439 0.8625 16
      vertex 36.1125 1.49389 16
    endloop
  endfacet
  facet normal -0.707107 -0.707107 -0
    outer loop
      vertex 36.1125 1.49389 0
      vertex 36.7439 0.8625 0
      vertex 36.1125 1.49389 16
    endloop
  endfacet
  facet normal -0.965926 -0.258819 0
    outer loop
      vertex 36.975 0 16
      vertex 36.7439 0.8625 16
      vertex 36.975 0 0
    endloop
  endfacet
  facet normal -0.965926 -0.258819 0
    outer loop
      vertex 36.975 0 0
      vertex 36.7439 0.8625 16
      vertex 36.7439 0.8625 0
    endloop
  endfacet
  facet normal -0.965926 0.258819 0
    outer loop
      vertex 36.975 0 16
      vertex 36.975 0 0
      vertex 36.7439 -0.8625 16
    endloop
  endfacet
  facet normal -0.965926 0.258819 0
    outer loop
      vertex 36.7439 -0.8625 16
      vertex 36.975 0 0
      vertex 36.7439 -0.8625 0
    endloop
  endfacet
  facet normal -0.707107 0.707107 0
    outer loop
      vertex 36.7439 -0.8625 16
      vertex 36.7439 -0.8625 0
      vertex 36.1125 -1.49389 16
    endloop
  endfacet
  facet normal -0.707107 0.707107 0
    outer loop
      vertex 36.1125 -1.49389 16
      vertex 36.7439 -0.8625 0
      vertex 36.1125 -1.49389 0
    endloop
  endfacet
  facet normal -0.258819 0.965926 0
    outer loop
      vertex 36.1125 -1.49389 16
      vertex 36.1125 -1.49389 0
      vertex 35.25 -1.725 16
    endloop
  endfacet
  facet normal -0.258819 0.965926 0
    outer loop
      vertex 35.25 -1.725 16
      vertex 36.1125 -1.49389 0
      vertex 35.25 -1.725 0
    endloop
  endfacet
  facet normal 0.258819 0.965926 -0
    outer loop
      vertex 35.25 -1.725 16
      vertex 35.25 -1.725 0
      vertex 34.3875 -1.49389 16
    endloop
  endfacet
  facet normal 0.258819 0.965926 -0
    outer loop
      vertex 34.3875 -1.49389 16
      vertex 35.25 -1.725 0
      vertex 34.3875 -1.49389 0
    endloop
  endfacet
  facet normal 0.707107 0.707107 -0
    outer loop
      vertex 34.3875 -1.49389 16
      vertex 34.3875 -1.49389 0
      vertex 33.7561 -0.8625 16
    endloop
  endfacet
  facet normal 0.707107 0.707107 -0
    outer loop
      vertex 33.7561 -0.8625 16
      vertex 34.3875 -1.49389 0
      vertex 33.7561 -0.8625 0
    endloop
  endfacet
  facet normal 0.965926 -5.2454e-17 -0.258819
    outer loop
      vertex -31.975 14 9
      vertex -31.7439 14 9.8625
      vertex -31.7439 5 9.8625
    endloop
  endfacet
  facet normal 0.965926 -5.10838e-17 -0.258819
    outer loop
      vertex -31.975 5 9
      vertex -31.975 14 9
      vertex -31.7439 5 9.8625
    endloop
  endfacet
  facet normal 0.965926 5.10838e-17 0.258819
    outer loop
      vertex -31.7439 5 8.1375
      vertex -31.7439 14 8.1375
      vertex -31.975 14 9
    endloop
  endfacet
  facet normal 0.965926 5.10838e-17 0.258819
    outer loop
      vertex -31.975 5 9
      vertex -31.7439 5 8.1375
      vertex -31.975 14 9
    endloop
  endfacet
  facet normal 0.707107 -1.31135e-16 -0.707107
    outer loop
      vertex -31.7439 14 9.8625
      vertex -31.1125 14 10.4939
      vertex -31.1125 5 10.4939
    endloop
  endfacet
  facet normal 0.707107 -1.39564e-16 -0.707107
    outer loop
      vertex -31.7439 5 9.8625
      vertex -31.7439 14 9.8625
      vertex -31.1125 5 10.4939
    endloop
  endfacet
  facet normal 0.258819 -1.90648e-16 -0.965926
    outer loop
      vertex -30.25 14 10.725
      vertex -30.25 5 10.725
      vertex -31.1125 14 10.4939
    endloop
  endfacet
  facet normal 0.258819 -1.90648e-16 -0.965926
    outer loop
      vertex -31.1125 14 10.4939
      vertex -30.25 5 10.725
      vertex -31.1125 5 10.4939
    endloop
  endfacet
  facet normal -0.258819 -1.90648e-16 -0.965926
    outer loop
      vertex -29.3875 14 10.4939
      vertex -29.3875 5 10.4939
      vertex -30.25 14 10.725
    endloop
  endfacet
  facet normal -0.258819 -1.90648e-16 -0.965926
    outer loop
      vertex -30.25 14 10.725
      vertex -29.3875 5 10.4939
      vertex -30.25 5 10.725
    endloop
  endfacet
  facet normal -0.707107 -1.39564e-16 -0.707107
    outer loop
      vertex -28.7561 14 9.8625
      vertex -28.7561 5 9.8625
      vertex -29.3875 14 10.4939
    endloop
  endfacet
  facet normal -0.707107 -1.39564e-16 -0.707107
    outer loop
      vertex -29.3875 14 10.4939
      vertex -28.7561 5 9.8625
      vertex -29.3875 5 10.4939
    endloop
  endfacet
  facet normal -0.965926 -5.10838e-17 -0.258819
    outer loop
      vertex -28.525 14 9
      vertex -28.525 5 9
      vertex -28.7561 14 9.8625
    endloop
  endfacet
  facet normal -0.965926 -5.10838e-17 -0.258819
    outer loop
      vertex -28.7561 14 9.8625
      vertex -28.525 5 9
      vertex -28.7561 5 9.8625
    endloop
  endfacet
  facet normal -0.965926 5.10838e-17 0.258819
    outer loop
      vertex -28.525 14 9
      vertex -28.7561 14 8.1375
      vertex -28.525 5 9
    endloop
  endfacet
  facet normal -0.965926 4.80828e-17 0.258819
    outer loop
      vertex -28.525 5 9
      vertex -28.7561 14 8.1375
      vertex -28.7561 5 8.1375
    endloop
  endfacet
  facet normal -0.707107 1.39564e-16 0.707107
    outer loop
      vertex -28.7561 14 8.1375
      vertex -29.3875 14 7.50611
      vertex -28.7561 5 8.1375
    endloop
  endfacet
  facet normal -0.707107 1.31135e-16 0.707107
    outer loop
      vertex -28.7561 5 8.1375
      vertex -29.3875 14 7.50611
      vertex -29.3875 5 7.50611
    endloop
  endfacet
  facet normal -0.258819 1.90648e-16 0.965926
    outer loop
      vertex -29.3875 5 7.50611
      vertex -29.3875 14 7.50611
      vertex -30.25 14 7.275
    endloop
  endfacet
  facet normal -0.258819 1.90648e-16 0.965926
    outer loop
      vertex -30.25 5 7.275
      vertex -29.3875 5 7.50611
      vertex -30.25 14 7.275
    endloop
  endfacet
  facet normal 0.258819 1.90648e-16 0.965926
    outer loop
      vertex -30.25 5 7.275
      vertex -30.25 14 7.275
      vertex -31.1125 14 7.50611
    endloop
  endfacet
  facet normal 0.258819 1.90648e-16 0.965926
    outer loop
      vertex -31.1125 5 7.50611
      vertex -30.25 5 7.275
      vertex -31.1125 14 7.50611
    endloop
  endfacet
  facet normal 0.707107 1.39564e-16 0.707107
    outer loop
      vertex -31.1125 5 7.50611
      vertex -31.1125 14 7.50611
      vertex -31.7439 14 8.1375
    endloop
  endfacet
  facet normal 0.707107 1.39564e-16 0.707107
    outer loop
      vertex -31.7439 5 8.1375
      vertex -31.1125 5 7.50611
      vertex -31.7439 14 8.1375
    endloop
  endfacet
  facet normal 2.65128e-16 -1 1.53072e-16
    outer loop
      vertex -29.3875 5 7.50611
      vertex -28.575 5 6.09882
      vertex -26.9 5 9
    endloop
  endfacet
  facet normal 0 -1 0
    outer loop
      vertex -30.25 5 7.275
      vertex -31.1125 5 7.50611
      vertex -31.925 5 6.09882
    endloop
  endfacet
  facet normal 0 -1 0
    outer loop
      vertex -29.3875 5 7.50611
      vertex -30.25 5 7.275
      vertex -31.925 5 6.09882
    endloop
  endfacet
  facet normal 0 -1 0
    outer loop
      vertex -33.6 5 9
      vertex -31.975 5 9
      vertex -31.925 5 11.9012
    endloop
  endfacet
  facet normal -3.34658e-31 -1 3.06143e-16
    outer loop
      vertex -33.6 5 9
      vertex -31.925 5 6.09882
      vertex -31.975 5 9
    endloop
  endfacet
  facet normal 0 -1 0
    outer loop
      vertex -31.1125 5 10.4939
      vertex -30.25 5 10.725
      vertex -28.575 5 11.9012
    endloop
  endfacet
  facet normal 0 -1 0
    outer loop
      vertex -31.925 5 11.9012
      vertex -31.1125 5 10.4939
      vertex -28.575 5 11.9012
    endloop
  endfacet
  facet normal 0 -1 0
    outer loop
      vertex -31.925 5 11.9012
      vertex -31.7439 5 9.8625
      vertex -31.1125 5 10.4939
    endloop
  endfacet
  facet normal -0 -1 0
    outer loop
      vertex -30.25 5 10.725
      vertex -29.3875 5 10.4939
      vertex -28.575 5 11.9012
    endloop
  endfacet
  facet normal 0 -1 0
    outer loop
      vertex -28.575 5 11.9012
      vertex -28.7561 5 9.8625
      vertex -26.9 5 9
    endloop
  endfacet
  facet normal 0 -1 0
    outer loop
      vertex -28.7561 5 9.8625
      vertex -28.525 5 9
      vertex -26.9 5 9
    endloop
  endfacet
  facet normal 1.12569e-30 -1 1.02977e-15
    outer loop
      vertex -28.525 5 9
      vertex -28.7561 5 8.1375
      vertex -26.9 5 9
    endloop
  endfacet
  facet normal -0 -1 0
    outer loop
      vertex -31.925 5 6.09882
      vertex -28.575 5 6.09882
      vertex -29.3875 5 7.50611
    endloop
  endfacet
  facet normal 0 -1 0
    outer loop
      vertex -31.1125 5 7.50611
      vertex -31.7439 5 8.1375
      vertex -31.925 5 6.09882
    endloop
  endfacet
  facet normal 8.93894e-16 -1 -8.93894e-16
    outer loop
      vertex -28.7561 5 8.1375
      vertex -29.3875 5 7.50611
      vertex -26.9 5 9
    endloop
  endfacet
  facet normal -0 -1 0
    outer loop
      vertex -29.3875 5 10.4939
      vertex -28.7561 5 9.8625
      vertex -28.575 5 11.9012
    endloop
  endfacet
  facet normal 0 -1 0
    outer loop
      vertex -31.975 5 9
      vertex -31.7439 5 9.8625
      vertex -31.925 5 11.9012
    endloop
  endfacet
  facet normal -2.88626e-15 -1 2.564e-16
    outer loop
      vertex -31.7439 5 8.1375
      vertex -31.975 5 9
      vertex -31.925 5 6.09882
    endloop
  endfacet
  facet normal 0 -1 0
    outer loop
      vertex 27.102 5 7.85423
      vertex 27.6838 5 6.84666
      vertex 28.575 5 6.09882
    endloop
  endfacet
  facet normal 0 -1 0
    outer loop
      vertex 30.8317 5 5.70089
      vertex 27.102 5 7.85423
      vertex 29.6683 5 5.70089
    endloop
  endfacet
  facet normal 0 -1 0
    outer loop
      vertex 29.6683 5 5.70089
      vertex 27.102 5 7.85423
      vertex 28.575 5 6.09882
    endloop
  endfacet
  facet normal 0 -1 0
    outer loop
      vertex 31.925 5 6.09882
      vertex 27.102 5 7.85423
      vertex 30.8317 5 5.70089
    endloop
  endfacet
  facet normal 0 -1 0
    outer loop
      vertex 30.25 5 7.275
      vertex 27.102 5 7.85423
      vertex 31.925 5 6.09882
    endloop
  endfacet
  facet normal 7.95885e-16 -1 -2.13257e-16
    outer loop
      vertex 28.525 5 9
      vertex 28.7561 5 9.8625
      vertex 27.102 5 7.85423
    endloop
  endfacet
  facet normal -0 -1 0
    outer loop
      vertex 31.1125 5 10.4939
      vertex 31.7439 5 9.8625
      vertex 32.8162 5 11.1533
    endloop
  endfacet
  facet normal 0 -1 0
    outer loop
      vertex 28.7561 5 9.8625
      vertex 29.3875 5 10.4939
      vertex 30.8317 5 12.2991
    endloop
  endfacet
  facet normal -9.2078e-17 -1 2.52982e-16
    outer loop
      vertex 28.575 5 11.9012
      vertex 27.102 5 7.85423
      vertex 29.6683 5 12.2991
    endloop
  endfacet
  facet normal -2.65128e-16 -1 3.15967e-16
    outer loop
      vertex 27.6838 5 11.1533
      vertex 27.102 5 7.85423
      vertex 28.575 5 11.9012
    endloop
  endfacet
  facet normal -6.71328e-16 -1 3.87591e-16
    outer loop
      vertex 27.102 5 10.1458
      vertex 27.102 5 7.85423
      vertex 27.6838 5 11.1533
    endloop
  endfacet
  facet normal -2.19813e-15 -1 3.87591e-16
    outer loop
      vertex 26.9 5 9
      vertex 27.102 5 7.85423
      vertex 27.102 5 10.1458
    endloop
  endfacet
  facet normal -0 -1 0
    outer loop
      vertex 31.7439 5 9.8625
      vertex 31.975 5 9
      vertex 33.398 5 10.1458
    endloop
  endfacet
  facet normal 0 -1 0
    outer loop
      vertex 29.6683 5 12.2991
      vertex 28.7561 5 9.8625
      vertex 30.8317 5 12.2991
    endloop
  endfacet
  facet normal 9.84396e-16 -1 -3.68521e-16
    outer loop
      vertex 29.6683 5 12.2991
      vertex 27.102 5 7.85423
      vertex 28.7561 5 9.8625
    endloop
  endfacet
  facet normal 0 -1 0
    outer loop
      vertex 30.8317 5 12.2991
      vertex 29.3875 5 10.4939
      vertex 31.925 5 11.9012
    endloop
  endfacet
  facet normal -0 -1 0
    outer loop
      vertex 30.25 5 10.725
      vertex 31.1125 5 10.4939
      vertex 31.925 5 11.9012
    endloop
  endfacet
  facet normal 0 -1 0
    outer loop
      vertex 29.3875 5 10.4939
      vertex 30.25 5 10.725
      vertex 31.925 5 11.9012
    endloop
  endfacet
  facet normal 1.12569e-30 -1 1.02977e-15
    outer loop
      vertex 31.975 5 9
      vertex 31.7439 5 8.1375
      vertex 33.6 5 9
    endloop
  endfacet
  facet normal 0 -1 0
    outer loop
      vertex 31.925 5 11.9012
      vertex 31.1125 5 10.4939
      vertex 32.8162 5 11.1533
    endloop
  endfacet
  facet normal 0 -1 0
    outer loop
      vertex 32.8162 5 11.1533
      vertex 31.7439 5 9.8625
      vertex 33.398 5 10.1458
    endloop
  endfacet
  facet normal 0 -1 0
    outer loop
      vertex 33.398 5 10.1458
      vertex 31.975 5 9
      vertex 33.6 5 9
    endloop
  endfacet
  facet normal 1.28862e-16 -1 7.52461e-16
    outer loop
      vertex 33.6 5 9
      vertex 31.7439 5 8.1375
      vertex 33.398 5 7.85423
    endloop
  endfacet
  facet normal 0 -1 0
    outer loop
      vertex 33.398 5 7.85423
      vertex 31.1125 5 7.50611
      vertex 32.8162 5 6.84666
    endloop
  endfacet
  facet normal 0 -1 0
    outer loop
      vertex 30.25 5 7.275
      vertex 29.3875 5 7.50611
      vertex 27.102 5 7.85423
    endloop
  endfacet
  facet normal 0 -1 0
    outer loop
      vertex 32.8162 5 6.84666
      vertex 30.25 5 7.275
      vertex 31.925 5 6.09882
    endloop
  endfacet
  facet normal 0 -1 0
    outer loop
      vertex 29.3875 5 7.50611
      vertex 28.7561 5 8.1375
      vertex 27.102 5 7.85423
    endloop
  endfacet
  facet normal 0 -1 0
    outer loop
      vertex 31.1125 5 7.50611
      vertex 30.25 5 7.275
      vertex 32.8162 5 6.84666
    endloop
  endfacet
  facet normal 0 -1 0
    outer loop
      vertex 31.7439 5 8.1375
      vertex 31.1125 5 7.50611
      vertex 33.398 5 7.85423
    endloop
  endfacet
  facet normal -1.68615e-16 -1 9.84592e-16
    outer loop
      vertex 28.7561 5 8.1375
      vertex 28.525 5 9
      vertex 27.102 5 7.85423
    endloop
  endfacet
  facet normal 0.965926 5.10838e-17 0.258819
    outer loop
      vertex 28.7561 5 8.1375
      vertex 28.7561 14 8.1375
      vertex 28.525 14 9
    endloop
  endfacet
  facet normal 0.965926 5.10838e-17 0.258819
    outer loop
      vertex 28.525 5 9
      vertex 28.7561 5 8.1375
      vertex 28.525 14 9
    endloop
  endfacet
  facet normal 0.965926 -5.2454e-17 -0.258819
    outer loop
      vertex 28.525 14 9
      vertex 28.7561 14 9.8625
      vertex 28.7561 5 9.8625
    endloop
  endfacet
  facet normal 0.965926 -5.10838e-17 -0.258819
    outer loop
      vertex 28.525 5 9
      vertex 28.525 14 9
      vertex 28.7561 5 9.8625
    endloop
  endfacet
  facet normal 0.707107 -1.31135e-16 -0.707107
    outer loop
      vertex 28.7561 14 9.8625
      vertex 29.3875 14 10.4939
      vertex 29.3875 5 10.4939
    endloop
  endfacet
  facet normal 0.707107 -1.39564e-16 -0.707107
    outer loop
      vertex 28.7561 5 9.8625
      vertex 28.7561 14 9.8625
      vertex 29.3875 5 10.4939
    endloop
  endfacet
  facet normal 0.258819 -1.90648e-16 -0.965926
    outer loop
      vertex 30.25 14 10.725
      vertex 30.25 5 10.725
      vertex 29.3875 14 10.4939
    endloop
  endfacet
  facet normal 0.258819 -1.90648e-16 -0.965926
    outer loop
      vertex 29.3875 14 10.4939
      vertex 30.25 5 10.725
      vertex 29.3875 5 10.4939
    endloop
  endfacet
  facet normal -0.258819 -1.90648e-16 -0.965926
    outer loop
      vertex 31.1125 14 10.4939
      vertex 31.1125 5 10.4939
      vertex 30.25 14 10.725
    endloop
  endfacet
  facet normal -0.258819 -1.90648e-16 -0.965926
    outer loop
      vertex 30.25 14 10.725
      vertex 31.1125 5 10.4939
      vertex 30.25 5 10.725
    endloop
  endfacet
  facet normal -0.707107 -1.39564e-16 -0.707107
    outer loop
      vertex 31.7439 14 9.8625
      vertex 31.7439 5 9.8625
      vertex 31.1125 14 10.4939
    endloop
  endfacet
  facet normal -0.707107 -1.39564e-16 -0.707107
    outer loop
      vertex 31.1125 14 10.4939
      vertex 31.7439 5 9.8625
      vertex 31.1125 5 10.4939
    endloop
  endfacet
  facet normal -0.965926 -5.10838e-17 -0.258819
    outer loop
      vertex 31.975 14 9
      vertex 31.975 5 9
      vertex 31.7439 14 9.8625
    endloop
  endfacet
  facet normal -0.965926 -5.10838e-17 -0.258819
    outer loop
      vertex 31.7439 14 9.8625
      vertex 31.975 5 9
      vertex 31.7439 5 9.8625
    endloop
  endfacet
  facet normal -0.965926 5.10838e-17 0.258819
    outer loop
      vertex 31.975 14 9
      vertex 31.7439 14 8.1375
      vertex 31.975 5 9
    endloop
  endfacet
  facet normal -0.965926 4.80828e-17 0.258819
    outer loop
      vertex 31.975 5 9
      vertex 31.7439 14 8.1375
      vertex 31.7439 5 8.1375
    endloop
  endfacet
  facet normal -0.707107 1.39564e-16 0.707107
    outer loop
      vertex 31.7439 14 8.1375
      vertex 31.1125 14 7.50611
      vertex 31.7439 5 8.1375
    endloop
  endfacet
  facet normal -0.707107 1.31135e-16 0.707107
    outer loop
      vertex 31.7439 5 8.1375
      vertex 31.1125 14 7.50611
      vertex 31.1125 5 7.50611
    endloop
  endfacet
  facet normal -0.258819 1.90648e-16 0.965926
    outer loop
      vertex 31.1125 5 7.50611
      vertex 31.1125 14 7.50611
      vertex 30.25 14 7.275
    endloop
  endfacet
  facet normal -0.258819 1.90648e-16 0.965926
    outer loop
      vertex 30.25 5 7.275
      vertex 31.1125 5 7.50611
      vertex 30.25 14 7.275
    endloop
  endfacet
  facet normal 0.258819 1.90648e-16 0.965926
    outer loop
      vertex 30.25 5 7.275
      vertex 30.25 14 7.275
      vertex 29.3875 14 7.50611
    endloop
  endfacet
  facet normal 0.258819 1.90648e-16 0.965926
    outer loop
      vertex 29.3875 5 7.50611
      vertex 30.25 5 7.275
      vertex 29.3875 14 7.50611
    endloop
  endfacet
  facet normal 0.707107 1.39564e-16 0.707107
    outer loop
      vertex 29.3875 5 7.50611
      vertex 29.3875 14 7.50611
      vertex 28.7561 14 8.1375
    endloop
  endfacet
  facet normal 0.707107 1.39564e-16 0.707107
    outer loop
      vertex 28.7561 5 8.1375
      vertex 29.3875 5 7.50611
      vertex 28.7561 14 8.1375
    endloop
  endfacet
endsolid OpenSCAD_Model
