solid OpenSCAD_Model
  facet normal -0 -0 -1
    outer loop
      vertex -12 -3 0
      vertex -12 0 0
      vertex 6 -3 0
    endloop
  endfacet
  facet normal 0 0 -1
    outer loop
      vertex 6 -3 0
      vertex -12 0 0
      vertex -11.8847 1.17054 0
    endloop
  endfacet
  facet normal 0 0 -1
    outer loop
      vertex 6 -3 0
      vertex -11.8847 1.17054 0
      vertex -11.5433 2.2961 0
    endloop
  endfacet
  facet normal 0 0 -1
    outer loop
      vertex -0.866025 -0.5 0
      vertex -11.5433 2.2961 0
      vertex -10.9888 3.33342 0
    endloop
  endfacet
  facet normal 0 0 -1
    outer loop
      vertex -1 0 0
      vertex -10.9888 3.33342 0
      vertex -10.2426 4.24264 0
    endloop
  endfacet
  facet normal 0 0 -1
    outer loop
      vertex -0.5 0.866025 0
      vertex -9.33342 4.98882 0
      vertex -8.2961 5.54328 0
    endloop
  endfacet
  facet normal 0 0 -1
    outer loop
      vertex 5.3875 9.33142 0
      vertex 6.01 0 0
      vertex 6 0 0
    endloop
  endfacet
  facet normal 0 -0 -1
    outer loop
      vertex -0.5 0.866025 0
      vertex -7.17054 5.88471 0
      vertex 0 1 0
    endloop
  endfacet
  facet normal 0 0 -1
    outer loop
      vertex 6 -3 0
      vertex -6 6 0
      vertex -3.4641 6 0
    endloop
  endfacet
  facet normal 0 0 -1
    outer loop
      vertex 6 -3 0
      vertex -3.4641 6 0
      vertex 1.05385 13.8253 0
    endloop
  endfacet
  facet normal -0 0 -1
    outer loop
      vertex 1.05385 13.8253 0
      vertex 2.00736 15.068 0
      vertex 6 -3 0
    endloop
  endfacet
  facet normal 0 0 -1
    outer loop
      vertex 6 -3 0
      vertex 2.00736 15.068 0
      vertex 3.25 16.0215 0
    endloop
  endfacet
  facet normal 0 0 -1
    outer loop
      vertex 4.75611 11.6878 0
      vertex 3.25 16.0215 0
      vertex 4.69709 16.6209 0
    endloop
  endfacet
  facet normal 0 -0 -1
    outer loop
      vertex 5.3875 12.3192 0
      vertex 4.69709 16.6209 0
      vertex 6.25 16.8253 0
    endloop
  endfacet
  facet normal 0 0 -1
    outer loop
      vertex 6.1347 1.26614 0
      vertex 7.1125 9.33142 0
      vertex 6.50402 2.48361 0
    endloop
  endfacet
  facet normal 0 0 -1
    outer loop
      vertex 7.91088 4.58912 0
      vertex 10.4926 15.068 0
      vertex 11.4462 13.8253 0
    endloop
  endfacet
  facet normal 0 0 -1
    outer loop
      vertex 8.89435 5.39624 0
      vertex 11.4462 13.8253 0
      vertex 12.0456 12.3782 0
    endloop
  endfacet
  facet normal 0 0 -1
    outer loop
      vertex 10.0164 5.99598 0
      vertex 12.0456 12.3782 0
      vertex 12.25 10.8253 0
    endloop
  endfacet
  facet normal 0 0 -1
    outer loop
      vertex 10.4693 6.13337 0
      vertex 12.25 10.8253 0
      vertex 12.0456 9.2724 0
    endloop
  endfacet
  facet normal 0 0 -1
    outer loop
      vertex 10.0164 5.99598 0
      vertex 12.25 10.8253 0
      vertex 10.4693 6.13337 0
    endloop
  endfacet
  facet normal 0 0 -1
    outer loop
      vertex 8.89435 5.39624 0
      vertex 12.0456 12.3782 0
      vertex 10.0164 5.99598 0
    endloop
  endfacet
  facet normal 0 0 -1
    outer loop
      vertex 7.10376 3.60565 0
      vertex 10.4926 15.068 0
      vertex 7.91088 4.58912 0
    endloop
  endfacet
  facet normal 0 0 -1
    outer loop
      vertex 7.91088 4.58912 0
      vertex 11.4462 13.8253 0
      vertex 8.89435 5.39624 0
    endloop
  endfacet
  facet normal 0 0 -1
    outer loop
      vertex 7.10376 3.60565 0
      vertex 9.25 16.0215 0
      vertex 10.4926 15.068 0
    endloop
  endfacet
  facet normal 0 0 -1
    outer loop
      vertex 1 0 0
      vertex 6 -3 0
      vertex 0.866025 -0.5 0
    endloop
  endfacet
  facet normal 0 -0 -1
    outer loop
      vertex -1 0 0
      vertex -9.33342 4.98882 0
      vertex -0.866025 0.5 0
    endloop
  endfacet
  facet normal 0 0 -1
    outer loop
      vertex 7.74389 9.96282 0
      vertex 7.10376 3.60565 0
      vertex 6.50402 2.48361 0
    endloop
  endfacet
  facet normal 0 0 -1
    outer loop
      vertex -1 0 0
      vertex -10.2426 4.24264 0
      vertex -9.33342 4.98882 0
    endloop
  endfacet
  facet normal 0 0 -1
    outer loop
      vertex -0.866025 -0.5 0
      vertex -10.9888 3.33342 0
      vertex -1 0 0
    endloop
  endfacet
  facet normal 0 0 -1
    outer loop
      vertex -0.5 -0.866025 0
      vertex -11.5433 2.2961 0
      vertex -0.866025 -0.5 0
    endloop
  endfacet
  facet normal 0 0 -1
    outer loop
      vertex 0.5 -0.866025 0
      vertex 6 -3 0
      vertex 0 -1 0
    endloop
  endfacet
  facet normal 0 0 -1
    outer loop
      vertex 6 -3 0
      vertex -11.5433 2.2961 0
      vertex -0.5 -0.866025 0
    endloop
  endfacet
  facet normal 0 0 -1
    outer loop
      vertex 6 -3 0
      vertex -0.5 -0.866025 0
      vertex 0 -1 0
    endloop
  endfacet
  facet normal 0 -0 -1
    outer loop
      vertex -0.866025 0.5 0
      vertex -9.33342 4.98882 0
      vertex -0.5 0.866025 0
    endloop
  endfacet
  facet normal 0 0 -1
    outer loop
      vertex 0.866025 -0.5 0
      vertex 6 -3 0
      vertex 0.5 -0.866025 0
    endloop
  endfacet
  facet normal 0 -0 -1
    outer loop
      vertex 4.75611 11.6878 0
      vertex 4.69709 16.6209 0
      vertex 5.3875 12.3192 0
    endloop
  endfacet
  facet normal 0 0 -1
    outer loop
      vertex 0.866025 0.5 0
      vertex 6 -3 0
      vertex 1 0 0
    endloop
  endfacet
  facet normal 0 0 -1
    outer loop
      vertex 5.3875 9.33142 0
      vertex 6 0 0
      vertex 6 -3 0
    endloop
  endfacet
  facet normal 0 0 -1
    outer loop
      vertex 0 1 0
      vertex -7.17054 5.88471 0
      vertex -6 6 0
    endloop
  endfacet
  facet normal 0 0 -1
    outer loop
      vertex 6 -3 0
      vertex 0.866025 0.5 0
      vertex 0.5 0.866025 0
    endloop
  endfacet
  facet normal 0 0 -1
    outer loop
      vertex 6 -3 0
      vertex 0.5 0.866025 0
      vertex -6 6 0
    endloop
  endfacet
  facet normal -0 -0 -1
    outer loop
      vertex 0 1 0
      vertex -6 6 0
      vertex 0.5 0.866025 0
    endloop
  endfacet
  facet normal 0 0 -1
    outer loop
      vertex -0.5 0.866025 0
      vertex -8.2961 5.54328 0
      vertex -7.17054 5.88471 0
    endloop
  endfacet
  facet normal 0 0 -1
    outer loop
      vertex 6.25 9.10032 0
      vertex 6.1347 1.26614 0
      vertex 6.01 0 0
    endloop
  endfacet
  facet normal 0 -0 -1
    outer loop
      vertex 4.525 10.8253 0
      vertex 3.25 16.0215 0
      vertex 4.75611 11.6878 0
    endloop
  endfacet
  facet normal 0 0 -1
    outer loop
      vertex 5.3875 9.33142 0
      vertex 6 -3 0
      vertex 4.75611 9.96282 0
    endloop
  endfacet
  facet normal 0 0 -1
    outer loop
      vertex 6 -3 0
      vertex 3.25 16.0215 0
      vertex 4.525 10.8253 0
    endloop
  endfacet
  facet normal 0 0 -1
    outer loop
      vertex 6 -3 0
      vertex 4.525 10.8253 0
      vertex 4.75611 9.96282 0
    endloop
  endfacet
  facet normal 0 0 -1
    outer loop
      vertex 6.25 9.10032 0
      vertex 6.01 0 0
      vertex 5.3875 9.33142 0
    endloop
  endfacet
  facet normal 0 0 -1
    outer loop
      vertex 5.3875 12.3192 0
      vertex 6.25 16.8253 0
      vertex 6.25 12.5503 0
    endloop
  endfacet
  facet normal -0 0 -1
    outer loop
      vertex 7.1125 12.3192 0
      vertex 7.80291 16.6209 0
      vertex 7.74389 11.6878 0
    endloop
  endfacet
  facet normal 0 0 -1
    outer loop
      vertex 7.10376 3.60565 0
      vertex 7.74389 9.96282 0
      vertex 7.975 10.8253 0
    endloop
  endfacet
  facet normal 0 0 -1
    outer loop
      vertex 7.10376 3.60565 0
      vertex 7.975 10.8253 0
      vertex 9.25 16.0215 0
    endloop
  endfacet
  facet normal -0 0 -1
    outer loop
      vertex 7.74389 11.6878 0
      vertex 9.25 16.0215 0
      vertex 7.975 10.8253 0
    endloop
  endfacet
  facet normal 0 0 -1
    outer loop
      vertex 7.74389 11.6878 0
      vertex 7.80291 16.6209 0
      vertex 9.25 16.0215 0
    endloop
  endfacet
  facet normal -0 0 -1
    outer loop
      vertex 6.25 12.5503 0
      vertex 7.80291 16.6209 0
      vertex 7.1125 12.3192 0
    endloop
  endfacet
  facet normal 0 0 -1
    outer loop
      vertex 7.74389 9.96282 0
      vertex 6.50402 2.48361 0
      vertex 7.1125 9.33142 0
    endloop
  endfacet
  facet normal 0 -0 -1
    outer loop
      vertex 6.25 12.5503 0
      vertex 6.25 16.8253 0
      vertex 7.80291 16.6209 0
    endloop
  endfacet
  facet normal 0 0 -1
    outer loop
      vertex 7.1125 9.33142 0
      vertex 6.1347 1.26614 0
      vertex 6.25 9.10032 0
    endloop
  endfacet
  facet normal 0 0 -1
    outer loop
      vertex 10.4693 6.13337 0
      vertex 12.0456 9.2724 0
      vertex 11.4462 7.82532 0
    endloop
  endfacet
  facet normal -1 -0 -0
    outer loop
      vertex -12 -3 0
      vertex -12 -3 22
      vertex -12 0 0
    endloop
  endfacet
  facet normal -1 0 0
    outer loop
      vertex -12 0 0
      vertex -12 -3 22
      vertex -12 0 22
    endloop
  endfacet
  facet normal 0 -1 0
    outer loop
      vertex 6 -3 0
      vertex 6 -3 36
      vertex 1 -3 36
    endloop
  endfacet
  facet normal 0 -1 0
    outer loop
      vertex 2.975 -3 5.91747
      vertex 2.35 -3 5.75
      vertex 6 -3 0
    endloop
  endfacet
  facet normal -0 -1 -0
    outer loop
      vertex 3.43253 -3 7.625
      vertex 6 -3 0
      vertex 1 -3 36
    endloop
  endfacet
  facet normal 0 -1 0
    outer loop
      vertex -6 -3 36
      vertex -1 -3 14
      vertex -1 -3 36
    endloop
  endfacet
  facet normal -0 -1 -0
    outer loop
      vertex -3.52696 -3 18.3947
      vertex -1 -3 14
      vertex -6 -3 36
    endloop
  endfacet
  facet normal -0 -1 -0
    outer loop
      vertex -4.6053 -3 19.473
      vertex -3.92166 -3 19.0783
      vertex -6 -3 22
    endloop
  endfacet
  facet normal -0 -1 -0
    outer loop
      vertex -6.525 -3 8.08253
      vertex 6 -3 0
      vertex -12 -3 22
    endloop
  endfacet
  facet normal 0 -1 -0
    outer loop
      vertex -12 -3 0
      vertex -8.4 -3 7
      vertex -12 -3 22
    endloop
  endfacet
  facet normal 0 -1 -0
    outer loop
      vertex -8.4 -3 7
      vertex -8.23253 -3 7.625
      vertex -12 -3 22
    endloop
  endfacet
  facet normal 0 -1 -0
    outer loop
      vertex -8.23253 -3 7.625
      vertex -7.775 -3 8.08253
      vertex -12 -3 22
    endloop
  endfacet
  facet normal 0 -1 0
    outer loop
      vertex -6.06747 -3 6.375
      vertex -6.525 -3 5.91747
      vertex 6 -3 0
    endloop
  endfacet
  facet normal 0 -1 -0
    outer loop
      vertex -7.775 -3 8.08253
      vertex -7.15 -3 8.25
      vertex -12 -3 22
    endloop
  endfacet
  facet normal -0 -1 -0
    outer loop
      vertex -7.15 -3 8.25
      vertex -6.525 -3 8.08253
      vertex -12 -3 22
    endloop
  endfacet
  facet normal -0 -1 -0
    outer loop
      vertex -6.06747 -3 7.625
      vertex 6 -3 0
      vertex -6.525 -3 8.08253
    endloop
  endfacet
  facet normal 0 -1 0
    outer loop
      vertex -3.52696 -3 18.3947
      vertex -3.52696 -3 17.6053
      vertex -1 -3 14
    endloop
  endfacet
  facet normal -0 -1 -0
    outer loop
      vertex -5.3947 -3 19.473
      vertex -4.6053 -3 19.473
      vertex -6 -3 22
    endloop
  endfacet
  facet normal -0 -1 0
    outer loop
      vertex -12 -3 0
      vertex 6 -3 0
      vertex -6.525 -3 5.91747
    endloop
  endfacet
  facet normal 0 -1 0
    outer loop
      vertex -12 -3 0
      vertex -6.525 -3 5.91747
      vertex -7.15 -3 5.75
    endloop
  endfacet
  facet normal 0 -1 0
    outer loop
      vertex -12 -3 0
      vertex -7.15 -3 5.75
      vertex -7.775 -3 5.91747
    endloop
  endfacet
  facet normal 0 -1 0
    outer loop
      vertex -12 -3 0
      vertex -8.23253 -3 6.375
      vertex -8.4 -3 7
    endloop
  endfacet
  facet normal 0 -1 0
    outer loop
      vertex -12 -3 0
      vertex -7.775 -3 5.91747
      vertex -8.23253 -3 6.375
    endloop
  endfacet
  facet normal 0 -1 0
    outer loop
      vertex -12 -3 22
      vertex -6.47304 -3 18.3947
      vertex -6 -3 22
    endloop
  endfacet
  facet normal 0 -1 0
    outer loop
      vertex -6.47304 -3 18.3947
      vertex -6.07834 -3 19.0783
      vertex -6 -3 22
    endloop
  endfacet
  facet normal 0 -1 -0
    outer loop
      vertex 1.26747 -3 7.625
      vertex 1.725 -3 8.08253
      vertex -3.52696 -3 17.6053
    endloop
  endfacet
  facet normal 0 -1 0
    outer loop
      vertex -6.07834 -3 19.0783
      vertex -5.3947 -3 19.473
      vertex -6 -3 22
    endloop
  endfacet
  facet normal -0 -1 -0
    outer loop
      vertex -6 -3 22
      vertex -3.92166 -3 19.0783
      vertex -6 -3 36
    endloop
  endfacet
  facet normal -0 -1 -0
    outer loop
      vertex -3.92166 -3 19.0783
      vertex -3.52696 -3 18.3947
      vertex -6 -3 36
    endloop
  endfacet
  facet normal 0 -1 0
    outer loop
      vertex 2.35 -3 5.75
      vertex 1.725 -3 5.91747
      vertex 6 -3 0
    endloop
  endfacet
  facet normal 0 -1 -0
    outer loop
      vertex 1.725 -3 8.08253
      vertex 2.35 -3 8.25
      vertex -1 -3 14
    endloop
  endfacet
  facet normal 0 -1 0
    outer loop
      vertex -6.07834 -3 16.9217
      vertex -6.47304 -3 17.6053
      vertex -12 -3 22
    endloop
  endfacet
  facet normal 0 -1 0
    outer loop
      vertex -12 -3 22
      vertex -6.47304 -3 17.6053
      vertex -6.47304 -3 18.3947
    endloop
  endfacet
  facet normal 0 -1 0
    outer loop
      vertex -6.07834 -3 16.9217
      vertex 1.1 -3 7
      vertex -5.3947 -3 16.527
    endloop
  endfacet
  facet normal 0 -1 0
    outer loop
      vertex 1.26747 -3 6.375
      vertex 1.1 -3 7
      vertex -6.07834 -3 16.9217
    endloop
  endfacet
  facet normal 0 -1 0
    outer loop
      vertex 1.26747 -3 6.375
      vertex -6.07834 -3 16.9217
      vertex -12 -3 22
    endloop
  endfacet
  facet normal 0 -1 0
    outer loop
      vertex -3.52696 -3 17.6053
      vertex 1.725 -3 8.08253
      vertex -1 -3 14
    endloop
  endfacet
  facet normal 0 -1 0
    outer loop
      vertex -1 -3 14
      vertex 2.35 -3 8.25
      vertex 1 -3 14
    endloop
  endfacet
  facet normal 0 -1 0
    outer loop
      vertex 3.43253 -3 6.375
      vertex 2.975 -3 5.91747
      vertex 6 -3 0
    endloop
  endfacet
  facet normal -0 -1 -0
    outer loop
      vertex 2.35 -3 8.25
      vertex 2.975 -3 8.08253
      vertex 1 -3 14
    endloop
  endfacet
  facet normal -0 -1 -0
    outer loop
      vertex 1 -3 14
      vertex 3.43253 -3 7.625
      vertex 1 -3 36
    endloop
  endfacet
  facet normal -0 -1 -0
    outer loop
      vertex 3.6 -3 7
      vertex 6 -3 0
      vertex 3.43253 -3 7.625
    endloop
  endfacet
  facet normal 0 -1 0
    outer loop
      vertex 3.6 -3 7
      vertex 3.43253 -3 6.375
      vertex 6 -3 0
    endloop
  endfacet
  facet normal -0 -1 -0
    outer loop
      vertex 2.975 -3 8.08253
      vertex 3.43253 -3 7.625
      vertex 1 -3 14
    endloop
  endfacet
  facet normal 0 -1 0
    outer loop
      vertex 1.26747 -3 7.625
      vertex -3.52696 -3 17.6053
      vertex -3.92166 -3 16.9217
    endloop
  endfacet
  facet normal 0 -1 0
    outer loop
      vertex 1.1 -3 7
      vertex -4.6053 -3 16.527
      vertex -5.3947 -3 16.527
    endloop
  endfacet
  facet normal 0 -1 0
    outer loop
      vertex 1.26747 -3 6.375
      vertex 6 -3 0
      vertex 1.725 -3 5.91747
    endloop
  endfacet
  facet normal 0 -1 -0
    outer loop
      vertex 1.1 -3 7
      vertex 1.26747 -3 7.625
      vertex -4.6053 -3 16.527
    endloop
  endfacet
  facet normal 0 -1 0
    outer loop
      vertex -12 -3 22
      vertex 6 -3 0
      vertex 1.26747 -3 6.375
    endloop
  endfacet
  facet normal 0 -1 0
    outer loop
      vertex -6.06747 -3 7.625
      vertex -5.9 -3 7
      vertex 6 -3 0
    endloop
  endfacet
  facet normal 0 -1 0
    outer loop
      vertex -5.9 -3 7
      vertex -6.06747 -3 6.375
      vertex 6 -3 0
    endloop
  endfacet
  facet normal 0 -1 0
    outer loop
      vertex -3.92166 -3 16.9217
      vertex -4.6053 -3 16.527
      vertex 1.26747 -3 7.625
    endloop
  endfacet
  facet normal 1 0 -0
    outer loop
      vertex 6 -3 36
      vertex 6 -3 0
      vertex 6 0 0
    endloop
  endfacet
  facet normal 1 0 0
    outer loop
      vertex 6 0 36
      vertex 6 -3 36
      vertex 6 0 4
    endloop
  endfacet
  facet normal 1 -0 0
    outer loop
      vertex 6 0 4
      vertex 6 -3 36
      vertex 6 0 0
    endloop
  endfacet
  facet normal 0 -1 0
    outer loop
      vertex 6.01 0 0
      vertex 6.01 0 4
      vertex 6 0 4
    endloop
  endfacet
  facet normal -0 -1 -0
    outer loop
      vertex 6 0 0
      vertex 6.01 0 0
      vertex 6 0 4
    endloop
  endfacet
  facet normal 0.995185 -0.0980175 0
    outer loop
      vertex 6.1347 1.26614 0
      vertex 6.1347 1.26614 4
      vertex 6.01 0 4
    endloop
  endfacet
  facet normal 0.995185 -0.0980175 0
    outer loop
      vertex 6.01 0 0
      vertex 6.1347 1.26614 0
      vertex 6.01 0 4
    endloop
  endfacet
  facet normal 0.95694 -0.290285 0
    outer loop
      vertex 6.50402 2.48361 0
      vertex 6.50402 2.48361 4
      vertex 6.1347 1.26614 4
    endloop
  endfacet
  facet normal 0.95694 -0.290285 0
    outer loop
      vertex 6.1347 1.26614 0
      vertex 6.50402 2.48361 0
      vertex 6.1347 1.26614 4
    endloop
  endfacet
  facet normal 0.881922 -0.471396 0
    outer loop
      vertex 7.10376 3.60565 0
      vertex 7.10376 3.60565 4
      vertex 6.50402 2.48361 4
    endloop
  endfacet
  facet normal 0.881922 -0.471396 0
    outer loop
      vertex 6.50402 2.48361 0
      vertex 7.10376 3.60565 0
      vertex 6.50402 2.48361 4
    endloop
  endfacet
  facet normal 0.77301 -0.634393 0
    outer loop
      vertex 7.91088 4.58912 0
      vertex 7.91088 4.58912 4
      vertex 7.10376 3.60565 4
    endloop
  endfacet
  facet normal 0.77301 -0.634393 0
    outer loop
      vertex 7.10376 3.60565 0
      vertex 7.91088 4.58912 0
      vertex 7.10376 3.60565 4
    endloop
  endfacet
  facet normal 0.634393 -0.77301 0
    outer loop
      vertex 8.89435 5.39624 0
      vertex 8.89435 5.39624 4
      vertex 7.91088 4.58912 4
    endloop
  endfacet
  facet normal 0.634393 -0.77301 0
    outer loop
      vertex 7.91088 4.58912 0
      vertex 8.89435 5.39624 0
      vertex 7.91088 4.58912 4
    endloop
  endfacet
  facet normal 0.471396 -0.881922 0
    outer loop
      vertex 10.0164 5.99598 0
      vertex 10.0164 5.99598 4
      vertex 8.89435 5.39624 4
    endloop
  endfacet
  facet normal 0.471396 -0.881922 0
    outer loop
      vertex 8.89435 5.39624 0
      vertex 10.0164 5.99598 0
      vertex 8.89435 5.39624 4
    endloop
  endfacet
  facet normal 0.290285 -0.95694 0
    outer loop
      vertex 10.4693 6.13337 0
      vertex 10.4693 6.13337 4
      vertex 10.0164 5.99598 4
    endloop
  endfacet
  facet normal 0.290285 -0.95694 0
    outer loop
      vertex 10.0164 5.99598 0
      vertex 10.4693 6.13337 0
      vertex 10.0164 5.99598 4
    endloop
  endfacet
  facet normal 0.866025 -0.5 0
    outer loop
      vertex 10.4693 6.13337 4
      vertex 10.4693 6.13337 0
      vertex 11.4462 7.82532 0
    endloop
  endfacet
  facet normal 0.866025 -0.5 0
    outer loop
      vertex 11.4462 7.82532 4
      vertex 10.4693 6.13337 4
      vertex 11.4462 7.82532 0
    endloop
  endfacet
  facet normal 0.92388 -0.382683 0
    outer loop
      vertex 11.4462 7.82532 4
      vertex 11.4462 7.82532 0
      vertex 12.0456 9.2724 0
    endloop
  endfacet
  facet normal 0.92388 -0.382683 0
    outer loop
      vertex 12.0456 9.2724 4
      vertex 11.4462 7.82532 4
      vertex 12.0456 9.2724 0
    endloop
  endfacet
  facet normal 0.991445 -0.130526 0
    outer loop
      vertex 12.0456 9.2724 4
      vertex 12.0456 9.2724 0
      vertex 12.25 10.8253 0
    endloop
  endfacet
  facet normal 0.991445 -0.130526 0
    outer loop
      vertex 12.25 10.8253 4
      vertex 12.0456 9.2724 4
      vertex 12.25 10.8253 0
    endloop
  endfacet
  facet normal 0.991445 0.130526 0
    outer loop
      vertex 12.25 10.8253 0
      vertex 12.0456 12.3782 0
      vertex 12.0456 12.3782 4
    endloop
  endfacet
  facet normal 0.991445 0.130526 -0
    outer loop
      vertex 12.25 10.8253 4
      vertex 12.25 10.8253 0
      vertex 12.0456 12.3782 4
    endloop
  endfacet
  facet normal 0.923879 0.382684 0
    outer loop
      vertex 12.0456 12.3782 0
      vertex 11.4462 13.8253 0
      vertex 11.4462 13.8253 4
    endloop
  endfacet
  facet normal 0.923879 0.382684 -0
    outer loop
      vertex 12.0456 12.3782 4
      vertex 12.0456 12.3782 0
      vertex 11.4462 13.8253 4
    endloop
  endfacet
  facet normal 0.793353 0.608761 0
    outer loop
      vertex 11.4462 13.8253 0
      vertex 10.4926 15.068 0
      vertex 10.4926 15.068 4
    endloop
  endfacet
  facet normal 0.793353 0.608761 -0
    outer loop
      vertex 11.4462 13.8253 4
      vertex 11.4462 13.8253 0
      vertex 10.4926 15.068 4
    endloop
  endfacet
  facet normal 0.608761 0.793353 0
    outer loop
      vertex 9.25 16.0215 0
      vertex 9.25 16.0215 4
      vertex 10.4926 15.068 0
    endloop
  endfacet
  facet normal 0.608761 0.793353 0
    outer loop
      vertex 10.4926 15.068 0
      vertex 9.25 16.0215 4
      vertex 10.4926 15.068 4
    endloop
  endfacet
  facet normal 0.382683 0.92388 0
    outer loop
      vertex 7.80291 16.6209 0
      vertex 7.80291 16.6209 4
      vertex 9.25 16.0215 0
    endloop
  endfacet
  facet normal 0.382683 0.92388 0
    outer loop
      vertex 9.25 16.0215 0
      vertex 7.80291 16.6209 4
      vertex 9.25 16.0215 4
    endloop
  endfacet
  facet normal 0.130526 0.991445 0
    outer loop
      vertex 6.25 16.8253 0
      vertex 6.25 16.8253 4
      vertex 7.80291 16.6209 0
    endloop
  endfacet
  facet normal 0.130526 0.991445 0
    outer loop
      vertex 7.80291 16.6209 0
      vertex 6.25 16.8253 4
      vertex 7.80291 16.6209 4
    endloop
  endfacet
  facet normal -0.130526 0.991445 0
    outer loop
      vertex 4.69709 16.6209 0
      vertex 4.69709 16.6209 4
      vertex 6.25 16.8253 0
    endloop
  endfacet
  facet normal -0.130526 0.991445 0
    outer loop
      vertex 6.25 16.8253 0
      vertex 4.69709 16.6209 4
      vertex 6.25 16.8253 4
    endloop
  endfacet
  facet normal -0.382684 0.923879 0
    outer loop
      vertex 3.25 16.0215 0
      vertex 3.25 16.0215 4
      vertex 4.69709 16.6209 0
    endloop
  endfacet
  facet normal -0.382684 0.923879 0
    outer loop
      vertex 4.69709 16.6209 0
      vertex 3.25 16.0215 4
      vertex 4.69709 16.6209 4
    endloop
  endfacet
  facet normal -0.608761 0.793353 0
    outer loop
      vertex 2.00736 15.068 0
      vertex 2.00736 15.068 4
      vertex 3.25 16.0215 0
    endloop
  endfacet
  facet normal -0.608761 0.793353 0
    outer loop
      vertex 3.25 16.0215 0
      vertex 2.00736 15.068 4
      vertex 3.25 16.0215 4
    endloop
  endfacet
  facet normal -0.793353 0.608761 0
    outer loop
      vertex 1.05385 13.8253 0
      vertex 1.05385 13.8253 4
      vertex 2.00736 15.068 0
    endloop
  endfacet
  facet normal -0.793353 0.608761 0
    outer loop
      vertex 2.00736 15.068 0
      vertex 1.05385 13.8253 4
      vertex 2.00736 15.068 4
    endloop
  endfacet
  facet normal -0.866025 0.5 0
    outer loop
      vertex -3.4641 6 0
      vertex -3.4641 6 4
      vertex 1.05385 13.8253 0
    endloop
  endfacet
  facet normal -0.866025 0.5 0
    outer loop
      vertex 1.05385 13.8253 0
      vertex -3.4641 6 4
      vertex 1.05385 13.8253 4
    endloop
  endfacet
  facet normal 0 1 0
    outer loop
      vertex -6 6 0
      vertex -6 6 6.62679
      vertex -3.4641 6 0
    endloop
  endfacet
  facet normal 0 1 0
    outer loop
      vertex -3.4641 6 0
      vertex -6 6 6.62679
      vertex -5.9 6 7
    endloop
  endfacet
  facet normal 0 1 0
    outer loop
      vertex -3.4641 6 0
      vertex -5.9 6 7
      vertex -6 6 7.37321
    endloop
  endfacet
  facet normal 0 1 0
    outer loop
      vertex -3.4641 6 0
      vertex -6 6 7.37321
      vertex -6 6 16.8764
    endloop
  endfacet
  facet normal 0 1 0
    outer loop
      vertex -3.4641 6 0
      vertex -6 6 16.8764
      vertex -5.3947 6 16.527
    endloop
  endfacet
  facet normal 0 1 0
    outer loop
      vertex -3.4641 6 0
      vertex -5.3947 6 16.527
      vertex -4.6053 6 16.527
    endloop
  endfacet
  facet normal 0 1 0
    outer loop
      vertex -4.6053 6 16.527
      vertex -3.92166 6 16.9217
      vertex -3.4641 6 0
    endloop
  endfacet
  facet normal 0 1 0
    outer loop
      vertex -3.92166 6 16.9217
      vertex -3.52696 6 17.6053
      vertex -3.4641 6 0
    endloop
  endfacet
  facet normal 0 1 0
    outer loop
      vertex -3.52696 6 17.6053
      vertex -3.52696 6 18.3947
      vertex -3.4641 6 0
    endloop
  endfacet
  facet normal 0 1 0
    outer loop
      vertex -4.6053 6 19.473
      vertex -6 6 22
      vertex -3.92166 6 19.0783
    endloop
  endfacet
  facet normal -0 1 0
    outer loop
      vertex -5.3947 6 19.473
      vertex -6 6 19.1236
      vertex -6 6 22
    endloop
  endfacet
  facet normal 0 1 0
    outer loop
      vertex -5.3947 6 19.473
      vertex -6 6 22
      vertex -4.6053 6 19.473
    endloop
  endfacet
  facet normal 0 1 0
    outer loop
      vertex -3.92166 6 19.0783
      vertex -6 6 22
      vertex 0 6 22
    endloop
  endfacet
  facet normal 0 1 0
    outer loop
      vertex -3.92166 6 19.0783
      vertex 0 6 22
      vertex -3.52696 6 18.3947
    endloop
  endfacet
  facet normal 0 1 0
    outer loop
      vertex -3.52696 6 18.3947
      vertex 0 6 22
      vertex -3.4641 6 4
    endloop
  endfacet
  facet normal 0 1 0
    outer loop
      vertex -3.52696 6 18.3947
      vertex -3.4641 6 4
      vertex -3.4641 6 0
    endloop
  endfacet
  facet normal 0 1 0
    outer loop
      vertex -3.4641 6 4
      vertex 0 6 22
      vertex 0 6 4
    endloop
  endfacet
  facet normal -0.0980169 0.995185 0
    outer loop
      vertex -7.17054 5.88471 0
      vertex -7.17054 5.88471 5.7555
      vertex -6 6 0
    endloop
  endfacet
  facet normal -0.0980169 0.995185 3.58104e-15
    outer loop
      vertex -6 6 0
      vertex -7.17054 5.88471 5.7555
      vertex -7.15 5.88674 5.75
    endloop
  endfacet
  facet normal -0.0980169 0.995185 1.63648e-16
    outer loop
      vertex -6 6 0
      vertex -7.15 5.88674 5.75
      vertex -6.525 5.94829 5.91747
    endloop
  endfacet
  facet normal -0.0980169 0.995185 7.04977e-17
    outer loop
      vertex -6.525 5.94829 5.91747
      vertex -6.06747 5.99336 6.375
      vertex -6 6 0
    endloop
  endfacet
  facet normal -0.0980169 0.995185 0
    outer loop
      vertex -6.06747 5.99336 6.375
      vertex -6 6 6.62679
      vertex -6 6 0
    endloop
  endfacet
  facet normal -0.290285 0.95694 0
    outer loop
      vertex -8.2961 5.54328 0
      vertex -8.2961 5.54328 6.61224
      vertex -7.17054 5.88471 0
    endloop
  endfacet
  facet normal -0.290285 0.95694 0
    outer loop
      vertex -7.17054 5.88471 0
      vertex -8.2961 5.54328 6.61224
      vertex -8.23253 5.56256 6.375
    endloop
  endfacet
  facet normal -0.290285 0.95694 2.77532e-17
    outer loop
      vertex -7.17054 5.88471 0
      vertex -8.23253 5.56256 6.375
      vertex -7.775 5.70135 5.91747
    endloop
  endfacet
  facet normal -0.290285 0.95694 0
    outer loop
      vertex -7.775 5.70135 5.91747
      vertex -7.17054 5.88471 5.7555
      vertex -7.17054 5.88471 0
    endloop
  endfacet
  facet normal -0.471397 0.881921 0
    outer loop
      vertex -9.33342 4.98882 0
      vertex -9.33342 4.98882 22
      vertex -8.2961 5.54328 0
    endloop
  endfacet
  facet normal -0.471397 0.881921 0
    outer loop
      vertex -8.2961 5.54328 7.38776
      vertex -9.33342 4.98882 22
      vertex -8.2961 5.54328 22
    endloop
  endfacet
  facet normal -0.471397 0.881921 -4.28506e-16
    outer loop
      vertex -8.4 5.48774 7
      vertex -9.33342 4.98882 22
      vertex -8.2961 5.54328 7.38776
    endloop
  endfacet
  facet normal -0.471397 0.881921 1.65101e-16
    outer loop
      vertex -8.2961 5.54328 0
      vertex -9.33342 4.98882 22
      vertex -8.4 5.48774 7
    endloop
  endfacet
  facet normal -0.471397 0.881921 0
    outer loop
      vertex -8.2961 5.54328 0
      vertex -8.4 5.48774 7
      vertex -8.2961 5.54328 6.61224
    endloop
  endfacet
  facet normal -0.634393 0.773011 0
    outer loop
      vertex -10.2426 4.24264 0
      vertex -10.2426 4.24264 22
      vertex -9.33342 4.98882 0
    endloop
  endfacet
  facet normal -0.634393 0.773011 0
    outer loop
      vertex -9.33342 4.98882 0
      vertex -10.2426 4.24264 22
      vertex -9.33342 4.98882 22
    endloop
  endfacet
  facet normal -0.773011 0.634393 0
    outer loop
      vertex -10.9888 3.33342 0
      vertex -10.9888 3.33342 22
      vertex -10.2426 4.24264 0
    endloop
  endfacet
  facet normal -0.773011 0.634393 0
    outer loop
      vertex -10.2426 4.24264 0
      vertex -10.9888 3.33342 22
      vertex -10.2426 4.24264 22
    endloop
  endfacet
  facet normal -0.881921 0.471397 0
    outer loop
      vertex -11.5433 2.2961 0
      vertex -11.5433 2.2961 22
      vertex -10.9888 3.33342 0
    endloop
  endfacet
  facet normal -0.881921 0.471397 0
    outer loop
      vertex -10.9888 3.33342 0
      vertex -11.5433 2.2961 22
      vertex -10.9888 3.33342 22
    endloop
  endfacet
  facet normal -0.95694 0.290285 0
    outer loop
      vertex -11.8847 1.17054 0
      vertex -11.8847 1.17054 22
      vertex -11.5433 2.2961 0
    endloop
  endfacet
  facet normal -0.95694 0.290285 0
    outer loop
      vertex -11.5433 2.2961 0
      vertex -11.8847 1.17054 22
      vertex -11.5433 2.2961 22
    endloop
  endfacet
  facet normal -0.995185 0.0980169 0
    outer loop
      vertex -12 0 0
      vertex -12 0 22
      vertex -11.8847 1.17054 0
    endloop
  endfacet
  facet normal -0.995185 0.0980169 0
    outer loop
      vertex -11.8847 1.17054 0
      vertex -12 0 22
      vertex -11.8847 1.17054 22
    endloop
  endfacet
  facet normal 0.965926 -0.25882 0
    outer loop
      vertex -0.866025 0.5 0
      vertex -0.866025 0.5 36
      vertex -1 0 36
    endloop
  endfacet
  facet normal 0.965926 -0.25882 0
    outer loop
      vertex -1 0 0
      vertex -0.866025 0.5 0
      vertex -1 0 14
    endloop
  endfacet
  facet normal 0.965926 -0.25882 0
    outer loop
      vertex -1 0 14
      vertex -0.866025 0.5 0
      vertex -1 0 36
    endloop
  endfacet
  facet normal 0.965926 0.25882 0
    outer loop
      vertex -1 0 14
      vertex -0.866025 -0.5 14
      vertex -0.866025 -0.5 0
    endloop
  endfacet
  facet normal 0.965926 0.25882 0
    outer loop
      vertex -1 0 0
      vertex -1 0 14
      vertex -0.866025 -0.5 0
    endloop
  endfacet
  facet normal 0.707107 -0.707107 0
    outer loop
      vertex -0.5 0.866025 0
      vertex -0.5 0.866025 36
      vertex -0.866025 0.5 36
    endloop
  endfacet
  facet normal 0.707107 -0.707107 0
    outer loop
      vertex -0.866025 0.5 0
      vertex -0.5 0.866025 0
      vertex -0.866025 0.5 36
    endloop
  endfacet
  facet normal 0.25882 -0.965926 0
    outer loop
      vertex 0 1 0
      vertex 0 1 36
      vertex -0.5 0.866025 36
    endloop
  endfacet
  facet normal 0.25882 -0.965926 0
    outer loop
      vertex -0.5 0.866025 0
      vertex 0 1 0
      vertex -0.5 0.866025 36
    endloop
  endfacet
  facet normal -0.25882 -0.965926 -0
    outer loop
      vertex 0.5 0.866025 0
      vertex 0.5 0.866025 36
      vertex 0 1 36
    endloop
  endfacet
  facet normal -0.25882 -0.965926 -0
    outer loop
      vertex 0 1 0
      vertex 0.5 0.866025 0
      vertex 0 1 36
    endloop
  endfacet
  facet normal -0.707107 -0.707107 -0
    outer loop
      vertex 0.866025 0.5 0
      vertex 0.866025 0.5 36
      vertex 0.5 0.866025 36
    endloop
  endfacet
  facet normal -0.707107 -0.707107 -0
    outer loop
      vertex 0.5 0.866025 0
      vertex 0.866025 0.5 0
      vertex 0.5 0.866025 36
    endloop
  endfacet
  facet normal -0.965926 -0.25882 0
    outer loop
      vertex 1 0 36
      vertex 0.866025 0.5 36
      vertex 1 0 14
    endloop
  endfacet
  facet normal -0.965926 -0.25882 0
    outer loop
      vertex 1 0 14
      vertex 0.866025 0.5 36
      vertex 1 0 0
    endloop
  endfacet
  facet normal -0.965926 -0.25882 0
    outer loop
      vertex 1 0 0
      vertex 0.866025 0.5 36
      vertex 0.866025 0.5 0
    endloop
  endfacet
  facet normal -0.965926 0.25882 0
    outer loop
      vertex 1 0 14
      vertex 1 0 0
      vertex 0.866025 -0.5 14
    endloop
  endfacet
  facet normal -0.965926 0.25882 0
    outer loop
      vertex 0.866025 -0.5 14
      vertex 1 0 0
      vertex 0.866025 -0.5 0
    endloop
  endfacet
  facet normal -0.707107 0.707107 0
    outer loop
      vertex 0.866025 -0.5 14
      vertex 0.866025 -0.5 0
      vertex 0.5 -0.866025 14
    endloop
  endfacet
  facet normal -0.707107 0.707107 0
    outer loop
      vertex 0.5 -0.866025 14
      vertex 0.866025 -0.5 0
      vertex 0.5 -0.866025 0
    endloop
  endfacet
  facet normal -0.25882 0.965926 0
    outer loop
      vertex 0.5 -0.866025 14
      vertex 0.5 -0.866025 0
      vertex 0 -1 14
    endloop
  endfacet
  facet normal -0.25882 0.965926 0
    outer loop
      vertex 0 -1 14
      vertex 0.5 -0.866025 0
      vertex 0 -1 0
    endloop
  endfacet
  facet normal 0.25882 0.965926 -0
    outer loop
      vertex 0 -1 14
      vertex 0 -1 0
      vertex -0.5 -0.866025 14
    endloop
  endfacet
  facet normal 0.25882 0.965926 -0
    outer loop
      vertex -0.5 -0.866025 14
      vertex 0 -1 0
      vertex -0.5 -0.866025 0
    endloop
  endfacet
  facet normal 0.707107 0.707107 -0
    outer loop
      vertex -0.5 -0.866025 14
      vertex -0.5 -0.866025 0
      vertex -0.866025 -0.5 14
    endloop
  endfacet
  facet normal 0.707107 0.707107 -0
    outer loop
      vertex -0.866025 -0.5 14
      vertex -0.5 -0.866025 0
      vertex -0.866025 -0.5 0
    endloop
  endfacet
  facet normal 0.965926 -0.258819 0
    outer loop
      vertex 4.75611 11.6878 0
      vertex 4.75611 11.6878 4
      vertex 4.525 10.8253 4
    endloop
  endfacet
  facet normal 0.965926 -0.258819 0
    outer loop
      vertex 4.525 10.8253 0
      vertex 4.75611 11.6878 0
      vertex 4.525 10.8253 4
    endloop
  endfacet
  facet normal 0.707107 -0.707107 0
    outer loop
      vertex 5.3875 12.3192 0
      vertex 5.3875 12.3192 4
      vertex 4.75611 11.6878 4
    endloop
  endfacet
  facet normal 0.707107 -0.707107 0
    outer loop
      vertex 4.75611 11.6878 0
      vertex 5.3875 12.3192 0
      vertex 4.75611 11.6878 4
    endloop
  endfacet
  facet normal 0.258819 -0.965926 0
    outer loop
      vertex 6.25 12.5503 0
      vertex 6.25 12.5503 4
      vertex 5.3875 12.3192 4
    endloop
  endfacet
  facet normal 0.258819 -0.965926 0
    outer loop
      vertex 5.3875 12.3192 0
      vertex 6.25 12.5503 0
      vertex 5.3875 12.3192 4
    endloop
  endfacet
  facet normal -0.258819 -0.965926 -0
    outer loop
      vertex 7.1125 12.3192 0
      vertex 7.1125 12.3192 4
      vertex 6.25 12.5503 4
    endloop
  endfacet
  facet normal -0.258819 -0.965926 -0
    outer loop
      vertex 6.25 12.5503 0
      vertex 7.1125 12.3192 0
      vertex 6.25 12.5503 4
    endloop
  endfacet
  facet normal -0.707107 -0.707107 0
    outer loop
      vertex 7.74389 11.6878 4
      vertex 7.1125 12.3192 4
      vertex 7.74389 11.6878 0
    endloop
  endfacet
  facet normal -0.707107 -0.707107 0
    outer loop
      vertex 7.74389 11.6878 0
      vertex 7.1125 12.3192 4
      vertex 7.1125 12.3192 0
    endloop
  endfacet
  facet normal -0.965926 -0.258819 0
    outer loop
      vertex 7.975 10.8253 4
      vertex 7.74389 11.6878 4
      vertex 7.975 10.8253 0
    endloop
  endfacet
  facet normal -0.965926 -0.258819 0
    outer loop
      vertex 7.975 10.8253 0
      vertex 7.74389 11.6878 4
      vertex 7.74389 11.6878 0
    endloop
  endfacet
  facet normal -0.965926 0.258819 0
    outer loop
      vertex 7.975 10.8253 4
      vertex 7.975 10.8253 0
      vertex 7.74389 9.96282 4
    endloop
  endfacet
  facet normal -0.965926 0.258819 0
    outer loop
      vertex 7.74389 9.96282 4
      vertex 7.975 10.8253 0
      vertex 7.74389 9.96282 0
    endloop
  endfacet
  facet normal -0.707107 0.707107 0
    outer loop
      vertex 7.74389 9.96282 4
      vertex 7.74389 9.96282 0
      vertex 7.1125 9.33142 4
    endloop
  endfacet
  facet normal -0.707107 0.707107 0
    outer loop
      vertex 7.1125 9.33142 4
      vertex 7.74389 9.96282 0
      vertex 7.1125 9.33142 0
    endloop
  endfacet
  facet normal -0.258819 0.965926 0
    outer loop
      vertex 7.1125 9.33142 4
      vertex 7.1125 9.33142 0
      vertex 6.25 9.10032 4
    endloop
  endfacet
  facet normal -0.258819 0.965926 0
    outer loop
      vertex 6.25 9.10032 4
      vertex 7.1125 9.33142 0
      vertex 6.25 9.10032 0
    endloop
  endfacet
  facet normal 0.258819 0.965926 -0
    outer loop
      vertex 6.25 9.10032 4
      vertex 6.25 9.10032 0
      vertex 5.3875 9.33142 4
    endloop
  endfacet
  facet normal 0.258819 0.965926 -0
    outer loop
      vertex 5.3875 9.33142 4
      vertex 6.25 9.10032 0
      vertex 5.3875 9.33142 0
    endloop
  endfacet
  facet normal 0.707107 0.707107 0
    outer loop
      vertex 4.75611 9.96282 4
      vertex 5.3875 9.33142 4
      vertex 5.3875 9.33142 0
    endloop
  endfacet
  facet normal 0.707107 0.707107 0
    outer loop
      vertex 4.75611 9.96282 0
      vertex 4.75611 9.96282 4
      vertex 5.3875 9.33142 0
    endloop
  endfacet
  facet normal 0.965926 0.258819 0
    outer loop
      vertex 4.525 10.8253 4
      vertex 4.75611 9.96282 4
      vertex 4.75611 9.96282 0
    endloop
  endfacet
  facet normal 0.965926 0.258819 0
    outer loop
      vertex 4.525 10.8253 0
      vertex 4.525 10.8253 4
      vertex 4.75611 9.96282 0
    endloop
  endfacet
  facet normal 0 -0 1
    outer loop
      vertex -12 0 22
      vertex -12 -3 22
      vertex -6 -3 22
    endloop
  endfacet
  facet normal 0 0 1
    outer loop
      vertex -5.88471 1.17054 22
      vertex -12 0 22
      vertex -6 0 22
    endloop
  endfacet
  facet normal 0 0 1
    outer loop
      vertex -6 0 22
      vertex -12 0 22
      vertex -6 -3 22
    endloop
  endfacet
  facet normal 0 0 1
    outer loop
      vertex -5.54328 2.2961 22
      vertex -12 0 22
      vertex -5.88471 1.17054 22
    endloop
  endfacet
  facet normal 0 0 1
    outer loop
      vertex -4.98882 3.33342 22
      vertex -12 0 22
      vertex -5.54328 2.2961 22
    endloop
  endfacet
  facet normal 0 0 1
    outer loop
      vertex -4.24264 4.24264 22
      vertex -12 0 22
      vertex -4.98882 3.33342 22
    endloop
  endfacet
  facet normal 0 0 1
    outer loop
      vertex -3.33342 4.98882 22
      vertex -12 0 22
      vertex -4.24264 4.24264 22
    endloop
  endfacet
  facet normal 0 -0 1
    outer loop
      vertex -6 6 22
      vertex -12 0 22
      vertex -3.33342 4.98882 22
    endloop
  endfacet
  facet normal 0 0 1
    outer loop
      vertex -6 6 22
      vertex -3.33342 4.98882 22
      vertex -2.2961 5.54328 22
    endloop
  endfacet
  facet normal 0 0 1
    outer loop
      vertex -6 6 22
      vertex -2.2961 5.54328 22
      vertex -1.17054 5.88471 22
    endloop
  endfacet
  facet normal 0 0 1
    outer loop
      vertex -6 6 22
      vertex -1.17054 5.88471 22
      vertex 0 6 22
    endloop
  endfacet
  facet normal 0 -0 1
    outer loop
      vertex -7.17054 5.88471 22
      vertex -12 0 22
      vertex -6 6 22
    endloop
  endfacet
  facet normal 0 -0 1
    outer loop
      vertex -8.2961 5.54328 22
      vertex -12 0 22
      vertex -7.17054 5.88471 22
    endloop
  endfacet
  facet normal 0 -0 1
    outer loop
      vertex -9.33342 4.98882 22
      vertex -12 0 22
      vertex -8.2961 5.54328 22
    endloop
  endfacet
  facet normal 0 -0 1
    outer loop
      vertex -10.2426 4.24264 22
      vertex -12 0 22
      vertex -9.33342 4.98882 22
    endloop
  endfacet
  facet normal 0 -0 1
    outer loop
      vertex -10.9888 3.33342 22
      vertex -12 0 22
      vertex -10.2426 4.24264 22
    endloop
  endfacet
  facet normal 0 -0 1
    outer loop
      vertex -11.5433 2.2961 22
      vertex -12 0 22
      vertex -10.9888 3.33342 22
    endloop
  endfacet
  facet normal 0 -0 1
    outer loop
      vertex -11.8847 1.17054 22
      vertex -12 0 22
      vertex -11.5433 2.2961 22
    endloop
  endfacet
  facet normal -1 -0 -0
    outer loop
      vertex -6 -3 22
      vertex -6 -3 36
      vertex -6 0 22
    endloop
  endfacet
  facet normal -1 0 0
    outer loop
      vertex -6 0 22
      vertex -6 -3 36
      vertex -6 0 36
    endloop
  endfacet
  facet normal 0 -0 1
    outer loop
      vertex -6 0 36
      vertex -6 -3 36
      vertex -1 -3 36
    endloop
  endfacet
  facet normal 0 0 1
    outer loop
      vertex -0.866025 0.5 36
      vertex -6 0 36
      vertex -1 0 36
    endloop
  endfacet
  facet normal 0 0 1
    outer loop
      vertex -1 0 36
      vertex -6 0 36
      vertex -1 -3 36
    endloop
  endfacet
  facet normal 0 0 1
    outer loop
      vertex -0.5 0.866025 36
      vertex -6 0 36
      vertex -0.866025 0.5 36
    endloop
  endfacet
  facet normal 0 0 1
    outer loop
      vertex 0 1 36
      vertex -6 0 36
      vertex -0.5 0.866025 36
    endloop
  endfacet
  facet normal 0 0 1
    outer loop
      vertex 5.54328 2.2961 36
      vertex -6 0 36
      vertex 0 1 36
    endloop
  endfacet
  facet normal 0 0 1
    outer loop
      vertex 6 0 36
      vertex 0 1 36
      vertex 0.5 0.866025 36
    endloop
  endfacet
  facet normal 0 0 1
    outer loop
      vertex 6 -3 36
      vertex 0.5 0.866025 36
      vertex 0.866025 0.5 36
    endloop
  endfacet
  facet normal 0 0 1
    outer loop
      vertex 6 -3 36
      vertex 0.866025 0.5 36
      vertex 1 0 36
    endloop
  endfacet
  facet normal -0 0 1
    outer loop
      vertex 6 -3 36
      vertex 1 0 36
      vertex 1 -3 36
    endloop
  endfacet
  facet normal -0 0 1
    outer loop
      vertex 6 0 36
      vertex 0.5 0.866025 36
      vertex 6 -3 36
    endloop
  endfacet
  facet normal 0 -0 1
    outer loop
      vertex 5.88471 1.17054 36
      vertex 0 1 36
      vertex 6 0 36
    endloop
  endfacet
  facet normal 0 -0 1
    outer loop
      vertex 5.54328 2.2961 36
      vertex 0 1 36
      vertex 5.88471 1.17054 36
    endloop
  endfacet
  facet normal 0 -0 1
    outer loop
      vertex 4.98882 3.33342 36
      vertex -6 0 36
      vertex 5.54328 2.2961 36
    endloop
  endfacet
  facet normal 0 -0 1
    outer loop
      vertex 4.24264 4.24264 36
      vertex -6 0 36
      vertex 4.98882 3.33342 36
    endloop
  endfacet
  facet normal 0 -0 1
    outer loop
      vertex 3.33342 4.98882 36
      vertex -6 0 36
      vertex 4.24264 4.24264 36
    endloop
  endfacet
  facet normal 0 -0 1
    outer loop
      vertex 2.2961 5.54328 36
      vertex -6 0 36
      vertex 3.33342 4.98882 36
    endloop
  endfacet
  facet normal 0 -0 1
    outer loop
      vertex 1.17054 5.88471 36
      vertex -6 0 36
      vertex 2.2961 5.54328 36
    endloop
  endfacet
  facet normal 0 -0 1
    outer loop
      vertex 0 6 36
      vertex -6 0 36
      vertex 1.17054 5.88471 36
    endloop
  endfacet
  facet normal 0 -0 1
    outer loop
      vertex -1.17054 5.88471 36
      vertex -6 0 36
      vertex 0 6 36
    endloop
  endfacet
  facet normal 0 -0 1
    outer loop
      vertex -2.2961 5.54328 36
      vertex -6 0 36
      vertex -1.17054 5.88471 36
    endloop
  endfacet
  facet normal 0 -0 1
    outer loop
      vertex -3.33342 4.98882 36
      vertex -6 0 36
      vertex -2.2961 5.54328 36
    endloop
  endfacet
  facet normal 0 -0 1
    outer loop
      vertex -4.24264 4.24264 36
      vertex -6 0 36
      vertex -3.33342 4.98882 36
    endloop
  endfacet
  facet normal 0 -0 1
    outer loop
      vertex -4.98882 3.33342 36
      vertex -6 0 36
      vertex -4.24264 4.24264 36
    endloop
  endfacet
  facet normal 0 -0 1
    outer loop
      vertex -5.54328 2.2961 36
      vertex -6 0 36
      vertex -4.98882 3.33342 36
    endloop
  endfacet
  facet normal 0 -0 1
    outer loop
      vertex -5.88471 1.17054 36
      vertex -6 0 36
      vertex -5.54328 2.2961 36
    endloop
  endfacet
  facet normal 1 0 0
    outer loop
      vertex -1 0 14
      vertex -1 0 36
      vertex -1 -3 36
    endloop
  endfacet
  facet normal 1 0 0
    outer loop
      vertex -1 -3 14
      vertex -1 0 14
      vertex -1 -3 36
    endloop
  endfacet
  facet normal -0 -0 1
    outer loop
      vertex 0 -1 14
      vertex -0.5 -0.866025 14
      vertex 1 -3 14
    endloop
  endfacet
  facet normal 0 0 1
    outer loop
      vertex 1 -3 14
      vertex 1 0 14
      vertex 0.866025 -0.5 14
    endloop
  endfacet
  facet normal -0 -0 1
    outer loop
      vertex -0.5 -0.866025 14
      vertex -0.866025 -0.5 14
      vertex 1 -3 14
    endloop
  endfacet
  facet normal 0 0 1
    outer loop
      vertex 0.5 -0.866025 14
      vertex 1 -3 14
      vertex 0.866025 -0.5 14
    endloop
  endfacet
  facet normal 0 -0 1
    outer loop
      vertex 0.5 -0.866025 14
      vertex 0 -1 14
      vertex 1 -3 14
    endloop
  endfacet
  facet normal 0 -0 1
    outer loop
      vertex -0.866025 -0.5 14
      vertex -1 -3 14
      vertex 1 -3 14
    endloop
  endfacet
  facet normal 0 -0 1
    outer loop
      vertex -1 0 14
      vertex -1 -3 14
      vertex -0.866025 -0.5 14
    endloop
  endfacet
  facet normal -1 0 0
    outer loop
      vertex 1 0 36
      vertex 1 0 14
      vertex 1 -3 36
    endloop
  endfacet
  facet normal -1 0 0
    outer loop
      vertex 1 -3 36
      vertex 1 0 14
      vertex 1 -3 14
    endloop
  endfacet
  facet normal 0.965926 -2.94069e-14 -0.258819
    outer loop
      vertex -8.4 5.48774 7
      vertex -8.2961 5.54328 7.38776
      vertex -8.23253 5.56256 7.625
    endloop
  endfacet
  facet normal 0.965926 -5.41669e-17 -0.258819
    outer loop
      vertex -8.4 -3 7
      vertex -8.4 5.48774 7
      vertex -8.23253 -3 7.625
    endloop
  endfacet
  facet normal 0.965926 -5.36936e-17 -0.258819
    outer loop
      vertex -8.23253 -3 7.625
      vertex -8.4 5.48774 7
      vertex -8.23253 5.56256 7.625
    endloop
  endfacet
  facet normal 0.965926 5.36936e-17 0.258819
    outer loop
      vertex -8.23253 -3 6.375
      vertex -8.23253 5.56256 6.375
      vertex -8.2961 5.54328 6.61224
    endloop
  endfacet
  facet normal 0.965926 5.41669e-17 0.258819
    outer loop
      vertex -8.4 -3 7
      vertex -8.23253 -3 6.375
      vertex -8.4 5.48774 7
    endloop
  endfacet
  facet normal 0.965926 0 0.258819
    outer loop
      vertex -8.4 5.48774 7
      vertex -8.23253 -3 6.375
      vertex -8.2961 5.54328 6.61224
    endloop
  endfacet
  facet normal 0.707107 1.44354e-16 0.707107
    outer loop
      vertex -7.775 -3 5.91747
      vertex -7.775 5.70135 5.91747
      vertex -8.23253 5.56256 6.375
    endloop
  endfacet
  facet normal 0.707107 1.46694e-16 0.707107
    outer loop
      vertex -8.23253 -3 6.375
      vertex -7.775 -3 5.91747
      vertex -8.23253 5.56256 6.375
    endloop
  endfacet
  facet normal 0.258819 1.93078e-16 0.965926
    outer loop
      vertex -7.15 -3 5.75
      vertex -7.15 5.88674 5.75
      vertex -7.17054 5.88471 5.7555
    endloop
  endfacet
  facet normal 0.258819 1.97191e-16 0.965926
    outer loop
      vertex -7.775 -3 5.91747
      vertex -7.15 -3 5.75
      vertex -7.775 5.70135 5.91747
    endloop
  endfacet
  facet normal 0.258819 2.30164e-16 0.965926
    outer loop
      vertex -7.775 5.70135 5.91747
      vertex -7.15 -3 5.75
      vertex -7.17054 5.88471 5.7555
    endloop
  endfacet
  facet normal -0.258819 1.91749e-16 0.965926
    outer loop
      vertex -6.525 -3 5.91747
      vertex -6.525 5.94829 5.91747
      vertex -7.15 5.88674 5.75
    endloop
  endfacet
  facet normal -0.258819 1.93078e-16 0.965926
    outer loop
      vertex -7.15 -3 5.75
      vertex -6.525 -3 5.91747
      vertex -7.15 5.88674 5.75
    endloop
  endfacet
  facet normal -0.707107 1.39667e-16 0.707107
    outer loop
      vertex -6.06747 5.99336 6.375
      vertex -6.525 5.94829 5.91747
      vertex -6.06747 -3 6.375
    endloop
  endfacet
  facet normal -0.707107 1.37944e-16 0.707107
    outer loop
      vertex -6.06747 -3 6.375
      vertex -6.525 5.94829 5.91747
      vertex -6.525 -3 5.91747
    endloop
  endfacet
  facet normal -0.965926 5.10838e-17 0.258819
    outer loop
      vertex -5.9 6 7
      vertex -6 6 6.62679
      vertex -5.9 -3 7
    endloop
  endfacet
  facet normal -0.965926 2.2435e-17 0.258819
    outer loop
      vertex -5.9 -3 7
      vertex -6 6 6.62679
      vertex -6.06747 5.99336 6.375
    endloop
  endfacet
  facet normal -0.965926 5.12359e-17 0.258819
    outer loop
      vertex -5.9 -3 7
      vertex -6.06747 5.99336 6.375
      vertex -6.06747 -3 6.375
    endloop
  endfacet
  facet normal -0.965926 -8.13095e-14 -0.258819
    outer loop
      vertex -6 6 7.37321
      vertex -5.9 6 7
      vertex -6.06747 5.99336 7.625
    endloop
  endfacet
  facet normal -0.965926 -5.42098e-17 -0.258819
    outer loop
      vertex -6.06747 5.99336 7.625
      vertex -5.9 6 7
      vertex -5.9 -3 7
    endloop
  endfacet
  facet normal -0.965926 -5.11216e-17 -0.258819
    outer loop
      vertex -6.06747 5.99336 7.625
      vertex -5.9 -3 7
      vertex -6.06747 -3 7.625
    endloop
  endfacet
  facet normal -0.707107 -1.39667e-16 -0.707107
    outer loop
      vertex -6.06747 5.99336 7.625
      vertex -6.06747 -3 7.625
      vertex -6.525 5.94829 8.08253
    endloop
  endfacet
  facet normal -0.707107 -1.4037e-16 -0.707107
    outer loop
      vertex -6.525 5.94829 8.08253
      vertex -6.06747 -3 7.625
      vertex -6.525 -3 8.08253
    endloop
  endfacet
  facet normal -0.258819 -1.91749e-16 -0.965926
    outer loop
      vertex -6.525 5.94829 8.08253
      vertex -6.525 -3 8.08253
      vertex -7.15 5.88674 8.25
    endloop
  endfacet
  facet normal -0.258819 -1.93078e-16 -0.965926
    outer loop
      vertex -7.15 5.88674 8.25
      vertex -6.525 -3 8.08253
      vertex -7.15 -3 8.25
    endloop
  endfacet
  facet normal 0.258819 -1.37431e-13 -0.965926
    outer loop
      vertex -7.17054 5.88471 8.2445
      vertex -7.15 5.88674 8.25
      vertex -7.775 5.70135 8.08253
    endloop
  endfacet
  facet normal 0.258819 -1.94153e-16 -0.965926
    outer loop
      vertex -7.775 5.70135 8.08253
      vertex -7.15 5.88674 8.25
      vertex -7.15 -3 8.25
    endloop
  endfacet
  facet normal 0.258819 -1.97191e-16 -0.965926
    outer loop
      vertex -7.775 5.70135 8.08253
      vertex -7.15 -3 8.25
      vertex -7.775 -3 8.08253
    endloop
  endfacet
  facet normal 0.707107 -1.46834e-16 -0.707107
    outer loop
      vertex -8.23253 5.56256 7.625
      vertex -7.775 5.70135 8.08253
      vertex -7.775 -3 8.08253
    endloop
  endfacet
  facet normal 0.707107 -1.46694e-16 -0.707107
    outer loop
      vertex -8.23253 -3 7.625
      vertex -8.23253 5.56256 7.625
      vertex -7.775 -3 8.08253
    endloop
  endfacet
  facet normal 0.866026 -1.97542e-16 -0.5
    outer loop
      vertex -6.07834 5.99228 19.0783
      vertex -6.07834 -3 19.0783
      vertex -6.47304 -3 18.3947
    endloop
  endfacet
  facet normal 0.866026 0 -0.5
    outer loop
      vertex -6.47304 5.95341 18.3947
      vertex -6.07834 5.99228 19.0783
      vertex -6.47304 -3 18.3947
    endloop
  endfacet
  facet normal 1 0 -3.17198e-07
    outer loop
      vertex -6.47304 5.95341 18.3947
      vertex -6.47304 -3 18.3947
      vertex -6.47304 -3 17.6053
    endloop
  endfacet
  facet normal 1 -1.25864e-22 -3.17198e-07
    outer loop
      vertex -6.47304 5.95341 17.6053
      vertex -6.47304 5.95341 18.3947
      vertex -6.47304 -3 17.6053
    endloop
  endfacet
  facet normal 0.866025 2.02548e-16 0.5
    outer loop
      vertex -6.47304 -3 17.6053
      vertex -6.07834 -3 16.9217
      vertex -6.07834 5.99228 16.9217
    endloop
  endfacet
  facet normal 0.866025 1.984e-16 0.5
    outer loop
      vertex -6.47304 5.95341 17.6053
      vertex -6.47304 -3 17.6053
      vertex -6.07834 5.99228 16.9217
    endloop
  endfacet
  facet normal 0.5 0 0.866026
    outer loop
      vertex -6.07834 -3 16.9217
      vertex -5.3947 -3 16.527
      vertex -5.3947 6 16.527
    endloop
  endfacet
  facet normal 0.5 3.42153e-16 0.866026
    outer loop
      vertex -6.07834 5.99228 16.9217
      vertex -6.07834 -3 16.9217
      vertex -6 6 16.8764
    endloop
  endfacet
  facet normal 0.5 4.53728e-16 0.866026
    outer loop
      vertex -6 6 16.8764
      vertex -6.07834 -3 16.9217
      vertex -5.3947 6 16.527
    endloop
  endfacet
  facet normal 3.17198e-07 3.94746e-16 1
    outer loop
      vertex -5.3947 -3 16.527
      vertex -4.6053 -3 16.527
      vertex -4.6053 6 16.527
    endloop
  endfacet
  facet normal 3.17198e-07 -0 1
    outer loop
      vertex -5.3947 6 16.527
      vertex -5.3947 -3 16.527
      vertex -4.6053 6 16.527
    endloop
  endfacet
  facet normal -0.5 3.41166e-16 0.866025
    outer loop
      vertex -4.6053 -3 16.527
      vertex -3.92166 -3 16.9217
      vertex -3.92166 6 16.9217
    endloop
  endfacet
  facet normal -0.5 2.92517e-16 0.866025
    outer loop
      vertex -4.6053 6 16.527
      vertex -4.6053 -3 16.527
      vertex -3.92166 6 16.9217
    endloop
  endfacet
  facet normal -0.866026 0 0.5
    outer loop
      vertex -3.52696 -3 17.6053
      vertex -3.52696 6 17.6053
      vertex -3.92166 -3 16.9217
    endloop
  endfacet
  facet normal -0.866026 1.97373e-16 0.5
    outer loop
      vertex -3.92166 -3 16.9217
      vertex -3.52696 6 17.6053
      vertex -3.92166 6 16.9217
    endloop
  endfacet
  facet normal -1 0 3.17198e-07
    outer loop
      vertex -3.52696 -3 18.3947
      vertex -3.52696 6 18.3947
      vertex -3.52696 -3 17.6053
    endloop
  endfacet
  facet normal -1 0 3.17198e-07
    outer loop
      vertex -3.52696 -3 17.6053
      vertex -3.52696 6 18.3947
      vertex -3.52696 6 17.6053
    endloop
  endfacet
  facet normal -0.866025 -0 -0.5
    outer loop
      vertex -3.52696 -3 18.3947
      vertex -3.92166 -3 19.0783
      vertex -3.52696 6 18.3947
    endloop
  endfacet
  facet normal -0.866025 -2.42277e-16 -0.5
    outer loop
      vertex -3.52696 6 18.3947
      vertex -3.92166 -3 19.0783
      vertex -3.92166 6 19.0783
    endloop
  endfacet
  facet normal -0.5 -3.66532e-16 -0.866026
    outer loop
      vertex -3.92166 -3 19.0783
      vertex -4.6053 -3 19.473
      vertex -3.92166 6 19.0783
    endloop
  endfacet
  facet normal -0.5 -3.41166e-16 -0.866026
    outer loop
      vertex -3.92166 6 19.0783
      vertex -4.6053 -3 19.473
      vertex -4.6053 6 19.473
    endloop
  endfacet
  facet normal -3.17198e-07 -3.94746e-16 -1
    outer loop
      vertex -4.6053 -3 19.473
      vertex -5.3947 -3 19.473
      vertex -4.6053 6 19.473
    endloop
  endfacet
  facet normal -3.17198e-07 -3.94746e-16 -1
    outer loop
      vertex -4.6053 6 19.473
      vertex -5.3947 -3 19.473
      vertex -5.3947 6 19.473
    endloop
  endfacet
  facet normal 0.5 -3.4186e-16 -0.866025
    outer loop
      vertex -5.3947 6 19.473
      vertex -5.3947 -3 19.473
      vertex -6 6 19.1236
    endloop
  endfacet
  facet normal 0.5 -9.76526e-17 -0.866025
    outer loop
      vertex -6 6 19.1236
      vertex -5.3947 -3 19.473
      vertex -6.07834 -3 19.0783
    endloop
  endfacet
  facet normal 0.5 -3.42114e-16 -0.866025
    outer loop
      vertex -6 6 19.1236
      vertex -6.07834 -3 19.0783
      vertex -6.07834 5.99228 19.0783
    endloop
  endfacet
  facet normal 0.965926 -2.40409e-14 -0.258819
    outer loop
      vertex 1.1 5.89166 7
      vertex 1.17054 5.88471 7.26327
      vertex 1.26747 5.85531 7.625
    endloop
  endfacet
  facet normal 0.965926 -5.17062e-17 -0.258819
    outer loop
      vertex 1.1 -3 7
      vertex 1.1 5.89166 7
      vertex 1.26747 -3 7.625
    endloop
  endfacet
  facet normal 0.965926 -5.19185e-17 -0.258819
    outer loop
      vertex 1.26747 -3 7.625
      vertex 1.1 5.89166 7
      vertex 1.26747 5.85531 7.625
    endloop
  endfacet
  facet normal 0.965926 5.19185e-17 0.258819
    outer loop
      vertex 1.26747 -3 6.375
      vertex 1.26747 5.85531 6.375
      vertex 1.17054 5.88471 6.73673
    endloop
  endfacet
  facet normal 0.965926 5.17062e-17 0.258819
    outer loop
      vertex 1.1 -3 7
      vertex 1.26747 -3 6.375
      vertex 1.1 5.89166 7
    endloop
  endfacet
  facet normal 0.965926 5.66979e-17 0.258819
    outer loop
      vertex 1.1 5.89166 7
      vertex 1.26747 -3 6.375
      vertex 1.17054 5.88471 6.73673
    endloop
  endfacet
  facet normal 0.707107 1.44103e-16 0.707107
    outer loop
      vertex 1.725 -3 5.91747
      vertex 1.725 5.71652 5.91747
      vertex 1.26747 5.85531 6.375
    endloop
  endfacet
  facet normal 0.707107 1.41844e-16 0.707107
    outer loop
      vertex 1.26747 -3 6.375
      vertex 1.725 -3 5.91747
      vertex 1.26747 5.85531 6.375
    endloop
  endfacet
  facet normal 0.258819 2.01519e-16 0.965926
    outer loop
      vertex 2.35 -3 5.75
      vertex 2.35 5.51447 5.75
      vertex 2.2961 5.54328 5.76444
    endloop
  endfacet
  facet normal 0.258819 1.96848e-16 0.965926
    outer loop
      vertex 1.725 -3 5.91747
      vertex 2.35 -3 5.75
      vertex 1.725 5.71652 5.91747
    endloop
  endfacet
  facet normal 0.258819 2.32019e-16 0.965926
    outer loop
      vertex 1.725 5.71652 5.91747
      vertex 2.35 -3 5.75
      vertex 2.2961 5.54328 5.76444
    endloop
  endfacet
  facet normal -0.258819 2.09749e-16 0.965926
    outer loop
      vertex 2.975 -3 5.91747
      vertex 2.975 5.1804 5.91747
      vertex 2.35 5.51447 5.75
    endloop
  endfacet
  facet normal -0.258819 2.01519e-16 0.965926
    outer loop
      vertex 2.35 -3 5.75
      vertex 2.975 -3 5.91747
      vertex 2.35 5.51447 5.75
    endloop
  endfacet
  facet normal -0.707107 1.58846e-16 0.707107
    outer loop
      vertex 3.43253 4.90748 6.375
      vertex 3.33342 4.98882 6.27589
      vertex 3.43253 -3 6.375
    endloop
  endfacet
  facet normal -0.707107 1.98404e-16 0.707107
    outer loop
      vertex 3.43253 -3 6.375
      vertex 3.33342 4.98882 6.27589
      vertex 2.975 5.1804 5.91747
    endloop
  endfacet
  facet normal -0.707107 1.5352e-16 0.707107
    outer loop
      vertex 3.43253 -3 6.375
      vertex 2.975 5.1804 5.91747
      vertex 2.975 -3 5.91747
    endloop
  endfacet
  facet normal -0.965926 5.91701e-17 0.258819
    outer loop
      vertex 3.6 4.77004 7
      vertex 3.43253 4.90748 6.375
      vertex 3.6 -3 7
    endloop
  endfacet
  facet normal -0.965926 5.82995e-17 0.258819
    outer loop
      vertex 3.6 -3 7
      vertex 3.43253 4.90748 6.375
      vertex 3.43253 -3 6.375
    endloop
  endfacet
  facet normal -0.965926 -5.91701e-17 -0.258819
    outer loop
      vertex 3.6 4.77004 7
      vertex 3.6 -3 7
      vertex 3.43253 4.90748 7.625
    endloop
  endfacet
  facet normal -0.965926 -5.81417e-17 -0.258819
    outer loop
      vertex 3.43253 4.90748 7.625
      vertex 3.6 -3 7
      vertex 3.43253 -3 7.625
    endloop
  endfacet
  facet normal -0.707107 -1.09129e-14 -0.707107
    outer loop
      vertex 3.33342 4.98882 7.72411
      vertex 3.43253 4.90748 7.625
      vertex 2.975 5.1804 8.08253
    endloop
  endfacet
  facet normal -0.707107 -1.58819e-16 -0.707107
    outer loop
      vertex 2.975 5.1804 8.08253
      vertex 3.43253 4.90748 7.625
      vertex 3.43253 -3 7.625
    endloop
  endfacet
  facet normal -0.707107 -1.53547e-16 -0.707107
    outer loop
      vertex 2.975 5.1804 8.08253
      vertex 3.43253 -3 7.625
      vertex 2.975 -3 8.08253
    endloop
  endfacet
  facet normal -0.258819 -2.09749e-16 -0.965926
    outer loop
      vertex 2.975 5.1804 8.08253
      vertex 2.975 -3 8.08253
      vertex 2.35 5.51447 8.25
    endloop
  endfacet
  facet normal -0.258819 -2.01519e-16 -0.965926
    outer loop
      vertex 2.35 5.51447 8.25
      vertex 2.975 -3 8.08253
      vertex 2.35 -3 8.25
    endloop
  endfacet
  facet normal 0.258819 -5.59136e-14 -0.965926
    outer loop
      vertex 2.2961 5.54328 8.23556
      vertex 2.35 5.51447 8.25
      vertex 1.725 5.71652 8.08253
    endloop
  endfacet
  facet normal 0.258819 -2.03349e-16 -0.965926
    outer loop
      vertex 1.725 5.71652 8.08253
      vertex 2.35 5.51447 8.25
      vertex 2.35 -3 8.25
    endloop
  endfacet
  facet normal 0.258819 -1.96848e-16 -0.965926
    outer loop
      vertex 1.725 5.71652 8.08253
      vertex 2.35 -3 8.25
      vertex 1.725 -3 8.08253
    endloop
  endfacet
  facet normal 0.707107 -1.44714e-16 -0.707107
    outer loop
      vertex 1.26747 5.85531 7.625
      vertex 1.725 5.71652 8.08253
      vertex 1.725 -3 8.08253
    endloop
  endfacet
  facet normal 0.707107 -1.41844e-16 -0.707107
    outer loop
      vertex 1.26747 -3 7.625
      vertex 1.26747 5.85531 7.625
      vertex 1.725 -3 8.08253
    endloop
  endfacet
  facet normal 0.995185 0.0980169 0
    outer loop
      vertex 6 0 4
      vertex 5.88471 1.17054 4
      vertex 5.88471 1.17054 36
    endloop
  endfacet
  facet normal 0.995185 0.0980169 -0
    outer loop
      vertex 6 0 36
      vertex 6 0 4
      vertex 5.88471 1.17054 36
    endloop
  endfacet
  facet normal 0 0 1
    outer loop
      vertex 2.2961 5.54328 4
      vertex 3.33342 4.98882 4
      vertex 1.05385 13.8253 4
    endloop
  endfacet
  facet normal 0 0 1
    outer loop
      vertex 1.05385 13.8253 4
      vertex -3.4641 6 4
      vertex 0 6 4
    endloop
  endfacet
  facet normal 0 0 1
    outer loop
      vertex 3.33342 4.98882 4
      vertex 4.24264 4.24264 4
      vertex 1.05385 13.8253 4
    endloop
  endfacet
  facet normal 0 0 1
    outer loop
      vertex 1.17054 5.88471 4
      vertex 1.05385 13.8253 4
      vertex 0 6 4
    endloop
  endfacet
  facet normal 0 0 1
    outer loop
      vertex 1.17054 5.88471 4
      vertex 2.2961 5.54328 4
      vertex 1.05385 13.8253 4
    endloop
  endfacet
  facet normal 0 0 1
    outer loop
      vertex 4.24264 4.24264 4
      vertex 4.98882 3.33342 4
      vertex 1.05385 13.8253 4
    endloop
  endfacet
  facet normal 0 0 1
    outer loop
      vertex 4.98882 3.33342 4
      vertex 5.54328 2.2961 4
      vertex 1.05385 13.8253 4
    endloop
  endfacet
  facet normal 0 0 1
    outer loop
      vertex 5.54328 2.2961 4
      vertex 6.1347 1.26614 4
      vertex 1.05385 13.8253 4
    endloop
  endfacet
  facet normal 0 0 1
    outer loop
      vertex 5.88471 1.17054 4
      vertex 6.1347 1.26614 4
      vertex 5.54328 2.2961 4
    endloop
  endfacet
  facet normal 0 0 1
    outer loop
      vertex 6.50402 2.48361 4
      vertex 7.10376 3.60565 4
      vertex 1.05385 13.8253 4
    endloop
  endfacet
  facet normal 0 0 1
    outer loop
      vertex 6 0 4
      vertex 6.01 0 4
      vertex 5.88471 1.17054 4
    endloop
  endfacet
  facet normal 0 0 1
    outer loop
      vertex 6.01 0 4
      vertex 6.1347 1.26614 4
      vertex 5.88471 1.17054 4
    endloop
  endfacet
  facet normal 0 0 1
    outer loop
      vertex 7.10376 3.60565 4
      vertex 7.91088 4.58912 4
      vertex 1.05385 13.8253 4
    endloop
  endfacet
  facet normal 0 0 1
    outer loop
      vertex 6.1347 1.26614 4
      vertex 6.50402 2.48361 4
      vertex 1.05385 13.8253 4
    endloop
  endfacet
  facet normal 0 0 1
    outer loop
      vertex 7.91088 4.58912 4
      vertex 8.89435 5.39624 4
      vertex 1.05385 13.8253 4
    endloop
  endfacet
  facet normal 0 0 1
    outer loop
      vertex 5.3875 12.3192 4
      vertex 6.25 12.5503 4
      vertex 1.05385 13.8253 4
    endloop
  endfacet
  facet normal 0 0 1
    outer loop
      vertex 6.25 12.5503 4
      vertex 12.0456 12.3782 4
      vertex 1.05385 13.8253 4
    endloop
  endfacet
  facet normal 0 0 1
    outer loop
      vertex 12.0456 12.3782 4
      vertex 11.4462 13.8253 4
      vertex 1.05385 13.8253 4
    endloop
  endfacet
  facet normal 0 0 1
    outer loop
      vertex 11.4462 13.8253 4
      vertex 10.4926 15.068 4
      vertex 1.05385 13.8253 4
    endloop
  endfacet
  facet normal -0 0 1
    outer loop
      vertex 10.4926 15.068 4
      vertex 9.25 16.0215 4
      vertex 1.05385 13.8253 4
    endloop
  endfacet
  facet normal -0 0 1
    outer loop
      vertex 9.25 16.0215 4
      vertex 7.80291 16.6209 4
      vertex 1.05385 13.8253 4
    endloop
  endfacet
  facet normal -0 0 1
    outer loop
      vertex 7.80291 16.6209 4
      vertex 6.25 16.8253 4
      vertex 1.05385 13.8253 4
    endloop
  endfacet
  facet normal 0 0 1
    outer loop
      vertex 6.25 16.8253 4
      vertex 4.69709 16.6209 4
      vertex 1.05385 13.8253 4
    endloop
  endfacet
  facet normal 0 0 1
    outer loop
      vertex 4.69709 16.6209 4
      vertex 3.25 16.0215 4
      vertex 1.05385 13.8253 4
    endloop
  endfacet
  facet normal 0 0 1
    outer loop
      vertex 3.25 16.0215 4
      vertex 2.00736 15.068 4
      vertex 1.05385 13.8253 4
    endloop
  endfacet
  facet normal 0 0 1
    outer loop
      vertex 7.1125 9.33142 4
      vertex 10.0164 5.99598 4
      vertex 10.4693 6.13337 4
    endloop
  endfacet
  facet normal 0 0 1
    outer loop
      vertex 7.74389 11.6878 4
      vertex 7.975 10.8253 4
      vertex 12.0456 9.2724 4
    endloop
  endfacet
  facet normal 0 0 1
    outer loop
      vertex 7.1125 12.3192 4
      vertex 12.0456 12.3782 4
      vertex 6.25 12.5503 4
    endloop
  endfacet
  facet normal 0 -0 1
    outer loop
      vertex 7.975 10.8253 4
      vertex 7.74389 9.96282 4
      vertex 11.4462 7.82532 4
    endloop
  endfacet
  facet normal 0 0 1
    outer loop
      vertex 12.25 10.8253 4
      vertex 12.0456 12.3782 4
      vertex 7.1125 12.3192 4
    endloop
  endfacet
  facet normal 0 0 1
    outer loop
      vertex 7.975 10.8253 4
      vertex 11.4462 7.82532 4
      vertex 12.0456 9.2724 4
    endloop
  endfacet
  facet normal 0 0 1
    outer loop
      vertex 12.0456 9.2724 4
      vertex 12.25 10.8253 4
      vertex 7.74389 11.6878 4
    endloop
  endfacet
  facet normal 0 0 1
    outer loop
      vertex 7.1125 12.3192 4
      vertex 7.74389 11.6878 4
      vertex 12.25 10.8253 4
    endloop
  endfacet
  facet normal 0 -0 1
    outer loop
      vertex 7.1125 9.33142 4
      vertex 6.25 9.10032 4
      vertex 10.0164 5.99598 4
    endloop
  endfacet
  facet normal 0 0 1
    outer loop
      vertex 4.75611 11.6878 4
      vertex 5.3875 12.3192 4
      vertex 1.05385 13.8253 4
    endloop
  endfacet
  facet normal 0 0 1
    outer loop
      vertex 10.4693 6.13337 4
      vertex 11.4462 7.82532 4
      vertex 7.74389 9.96282 4
    endloop
  endfacet
  facet normal 0 0 1
    outer loop
      vertex 10.4693 6.13337 4
      vertex 7.74389 9.96282 4
      vertex 7.1125 9.33142 4
    endloop
  endfacet
  facet normal 0 0 1
    outer loop
      vertex 8.89435 5.39624 4
      vertex 10.0164 5.99598 4
      vertex 6.25 9.10032 4
    endloop
  endfacet
  facet normal 0 0 1
    outer loop
      vertex 8.89435 5.39624 4
      vertex 6.25 9.10032 4
      vertex 5.3875 9.33142 4
    endloop
  endfacet
  facet normal 0 0 1
    outer loop
      vertex 8.89435 5.39624 4
      vertex 4.75611 9.96282 4
      vertex 1.05385 13.8253 4
    endloop
  endfacet
  facet normal 0 0 1
    outer loop
      vertex 8.89435 5.39624 4
      vertex 5.3875 9.33142 4
      vertex 4.75611 9.96282 4
    endloop
  endfacet
  facet normal 0 0 1
    outer loop
      vertex 4.75611 9.96282 4
      vertex 4.525 10.8253 4
      vertex 1.05385 13.8253 4
    endloop
  endfacet
  facet normal 0 0 1
    outer loop
      vertex 4.525 10.8253 4
      vertex 4.75611 11.6878 4
      vertex 1.05385 13.8253 4
    endloop
  endfacet
  facet normal 0.0980169 0.995185 0
    outer loop
      vertex 0 6 4
      vertex 0 6 22
      vertex 1.17054 5.88471 4
    endloop
  endfacet
  facet normal 0.0980169 0.995185 0
    outer loop
      vertex 1.17054 5.88471 4
      vertex 0 6 22
      vertex 0 6 36
    endloop
  endfacet
  facet normal 0.0980169 0.995185 0
    outer loop
      vertex 1.17054 5.88471 7.26327
      vertex 0 6 36
      vertex 1.17054 5.88471 36
    endloop
  endfacet
  facet normal 0.0980169 0.995185 -4.16495e-16
    outer loop
      vertex 1.1 5.89166 7
      vertex 0 6 36
      vertex 1.17054 5.88471 7.26327
    endloop
  endfacet
  facet normal 0.0980169 0.995185 7.74903e-16
    outer loop
      vertex 1.17054 5.88471 4
      vertex 0 6 36
      vertex 1.1 5.89166 7
    endloop
  endfacet
  facet normal 0.0980169 0.995185 0
    outer loop
      vertex 1.17054 5.88471 4
      vertex 1.1 5.89166 7
      vertex 1.17054 5.88471 6.73673
    endloop
  endfacet
  facet normal -0.0980169 0.995185 0
    outer loop
      vertex -1.17054 5.88471 22
      vertex -1.17054 5.88471 36
      vertex 0 6 22
    endloop
  endfacet
  facet normal -0.0980169 0.995185 0
    outer loop
      vertex 0 6 22
      vertex -1.17054 5.88471 36
      vertex 0 6 36
    endloop
  endfacet
  facet normal -0.0980169 0.995185 0
    outer loop
      vertex -7.17054 5.88471 8.2445
      vertex -7.17054 5.88471 22
      vertex -7.15 5.88674 8.25
    endloop
  endfacet
  facet normal -0.0980169 0.995185 -2.27313e-16
    outer loop
      vertex -6.47304 5.95341 18.3947
      vertex -7.17054 5.88471 22
      vertex -6 6 22
    endloop
  endfacet
  facet normal -0.0980169 0.995185 0
    outer loop
      vertex -6.07834 5.99228 19.0783
      vertex -6 6 22
      vertex -6 6 19.1236
    endloop
  endfacet
  facet normal -0.0980169 0.995185 -2.33112e-17
    outer loop
      vertex -7.15 5.88674 8.25
      vertex -7.17054 5.88471 22
      vertex -6.47304 5.95341 18.3947
    endloop
  endfacet
  facet normal -0.0980169 0.995185 4.49098e-17
    outer loop
      vertex -6.07834 5.99228 16.9217
      vertex -7.15 5.88674 8.25
      vertex -6.47304 5.95341 17.6053
    endloop
  endfacet
  facet normal -0.0980169 0.995185 5.19485e-17
    outer loop
      vertex -7.15 5.88674 8.25
      vertex -6.47304 5.95341 18.3947
      vertex -6.47304 5.95341 17.6053
    endloop
  endfacet
  facet normal -0.0980169 0.995185 1.13714e-15
    outer loop
      vertex -7.15 5.88674 8.25
      vertex -6.07834 5.99228 16.9217
      vertex -6 6 16.8764
    endloop
  endfacet
  facet normal -0.0980169 0.995185 0
    outer loop
      vertex -6.06747 5.99336 7.625
      vertex -6 6 16.8764
      vertex -6 6 7.37321
    endloop
  endfacet
  facet normal -0.0980169 0.995185 -4.79465e-17
    outer loop
      vertex -6.525 5.94829 8.08253
      vertex -6 6 16.8764
      vertex -6.06747 5.99336 7.625
    endloop
  endfacet
  facet normal -0.0980169 0.995185 -1.09279e-16
    outer loop
      vertex -7.15 5.88674 8.25
      vertex -6 6 16.8764
      vertex -6.525 5.94829 8.08253
    endloop
  endfacet
  facet normal -0.0980169 0.995185 -1.83661e-16
    outer loop
      vertex -6.47304 5.95341 18.3947
      vertex -6 6 22
      vertex -6.07834 5.99228 19.0783
    endloop
  endfacet
  facet normal -0.290285 0.95694 0
    outer loop
      vertex -8.2961 5.54328 7.38776
      vertex -8.2961 5.54328 22
      vertex -8.23253 5.56256 7.625
    endloop
  endfacet
  facet normal -0.290285 0.95694 -4.96897e-19
    outer loop
      vertex -8.23253 5.56256 7.625
      vertex -8.2961 5.54328 22
      vertex -7.17054 5.88471 22
    endloop
  endfacet
  facet normal -0.290285 0.95694 0
    outer loop
      vertex -7.775 5.70135 8.08253
      vertex -7.17054 5.88471 22
      vertex -7.17054 5.88471 8.2445
    endloop
  endfacet
  facet normal -0.290285 0.95694 -1.05593e-17
    outer loop
      vertex -8.23253 5.56256 7.625
      vertex -7.17054 5.88471 22
      vertex -7.775 5.70135 8.08253
    endloop
  endfacet
  facet normal -0.290285 0.95694 0
    outer loop
      vertex -2.2961 5.54328 22
      vertex -2.2961 5.54328 36
      vertex -1.17054 5.88471 22
    endloop
  endfacet
  facet normal -0.290285 0.95694 0
    outer loop
      vertex -1.17054 5.88471 22
      vertex -2.2961 5.54328 36
      vertex -1.17054 5.88471 36
    endloop
  endfacet
  facet normal -0.471397 0.881921 0
    outer loop
      vertex -3.33342 4.98882 22
      vertex -3.33342 4.98882 36
      vertex -2.2961 5.54328 22
    endloop
  endfacet
  facet normal -0.471397 0.881921 0
    outer loop
      vertex -2.2961 5.54328 22
      vertex -3.33342 4.98882 36
      vertex -2.2961 5.54328 36
    endloop
  endfacet
  facet normal -0.634393 0.773011 0
    outer loop
      vertex -4.24264 4.24264 22
      vertex -4.24264 4.24264 36
      vertex -3.33342 4.98882 22
    endloop
  endfacet
  facet normal -0.634393 0.773011 0
    outer loop
      vertex -3.33342 4.98882 22
      vertex -4.24264 4.24264 36
      vertex -3.33342 4.98882 36
    endloop
  endfacet
  facet normal -0.773011 0.634393 0
    outer loop
      vertex -4.98882 3.33342 22
      vertex -4.98882 3.33342 36
      vertex -4.24264 4.24264 22
    endloop
  endfacet
  facet normal -0.773011 0.634393 0
    outer loop
      vertex -4.24264 4.24264 22
      vertex -4.98882 3.33342 36
      vertex -4.24264 4.24264 36
    endloop
  endfacet
  facet normal -0.881921 0.471397 0
    outer loop
      vertex -5.54328 2.2961 22
      vertex -5.54328 2.2961 36
      vertex -4.98882 3.33342 22
    endloop
  endfacet
  facet normal -0.881921 0.471397 0
    outer loop
      vertex -4.98882 3.33342 22
      vertex -5.54328 2.2961 36
      vertex -4.98882 3.33342 36
    endloop
  endfacet
  facet normal -0.95694 0.290285 0
    outer loop
      vertex -5.88471 1.17054 22
      vertex -5.88471 1.17054 36
      vertex -5.54328 2.2961 22
    endloop
  endfacet
  facet normal -0.95694 0.290285 0
    outer loop
      vertex -5.54328 2.2961 22
      vertex -5.88471 1.17054 36
      vertex -5.54328 2.2961 36
    endloop
  endfacet
  facet normal -0.995185 0.0980169 0
    outer loop
      vertex -6 0 22
      vertex -6 0 36
      vertex -5.88471 1.17054 22
    endloop
  endfacet
  facet normal -0.995185 0.0980169 0
    outer loop
      vertex -5.88471 1.17054 22
      vertex -6 0 36
      vertex -5.88471 1.17054 36
    endloop
  endfacet
  facet normal 0.290285 0.95694 0
    outer loop
      vertex 1.17054 5.88471 7.26327
      vertex 1.17054 5.88471 36
      vertex 1.26747 5.85531 7.625
    endloop
  endfacet
  facet normal 0.290285 0.95694 -2.99153e-17
    outer loop
      vertex 1.26747 5.85531 7.625
      vertex 1.17054 5.88471 36
      vertex 2.2961 5.54328 36
    endloop
  endfacet
  facet normal 0.290285 0.95694 0
    outer loop
      vertex 1.725 5.71652 8.08253
      vertex 2.2961 5.54328 36
      vertex 2.2961 5.54328 8.23556
    endloop
  endfacet
  facet normal 0.290285 0.95694 -2.00294e-17
    outer loop
      vertex 1.26747 5.85531 7.625
      vertex 2.2961 5.54328 36
      vertex 1.725 5.71652 8.08253
    endloop
  endfacet
  facet normal 0.471397 0.881921 0
    outer loop
      vertex 2.2961 5.54328 8.23556
      vertex 2.2961 5.54328 36
      vertex 2.35 5.51447 8.25
    endloop
  endfacet
  facet normal 0.471397 0.881921 -2.71781e-18
    outer loop
      vertex 2.35 5.51447 8.25
      vertex 2.2961 5.54328 36
      vertex 3.33342 4.98882 36
    endloop
  endfacet
  facet normal 0.471397 0.881921 0
    outer loop
      vertex 2.975 5.1804 8.08253
      vertex 3.33342 4.98882 36
      vertex 3.33342 4.98882 7.72411
    endloop
  endfacet
  facet normal 0.471397 0.881921 -4.20551e-18
    outer loop
      vertex 2.35 5.51447 8.25
      vertex 3.33342 4.98882 36
      vertex 2.975 5.1804 8.08253
    endloop
  endfacet
  facet normal 0.634393 0.773011 0
    outer loop
      vertex 3.33342 4.98882 4
      vertex 3.33342 4.98882 6.27589
      vertex 4.24264 4.24264 4
    endloop
  endfacet
  facet normal 0.634393 0.773011 3.83369e-16
    outer loop
      vertex 4.24264 4.24264 4
      vertex 3.33342 4.98882 6.27589
      vertex 3.43253 4.90748 6.375
    endloop
  endfacet
  facet normal 0.634393 0.773011 4.27183e-16
    outer loop
      vertex 4.24264 4.24264 4
      vertex 3.43253 4.90748 6.375
      vertex 3.6 4.77004 7
    endloop
  endfacet
  facet normal 0.634393 0.773011 -2.76612e-17
    outer loop
      vertex 3.6 4.77004 7
      vertex 3.33342 4.98882 36
      vertex 4.24264 4.24264 4
    endloop
  endfacet
  facet normal 0.634393 0.773011 0
    outer loop
      vertex 3.43253 4.90748 7.625
      vertex 3.33342 4.98882 7.72411
      vertex 3.33342 4.98882 36
    endloop
  endfacet
  facet normal 0.634393 0.773011 2.24811e-18
    outer loop
      vertex 3.43253 4.90748 7.625
      vertex 3.33342 4.98882 36
      vertex 3.6 4.77004 7
    endloop
  endfacet
  facet normal 0.634393 0.773011 0
    outer loop
      vertex 4.24264 4.24264 4
      vertex 3.33342 4.98882 36
      vertex 4.24264 4.24264 36
    endloop
  endfacet
  facet normal 0.773011 0.634393 0
    outer loop
      vertex 4.98882 3.33342 4
      vertex 4.24264 4.24264 4
      vertex 4.24264 4.24264 36
    endloop
  endfacet
  facet normal 0.773011 0.634393 -0
    outer loop
      vertex 4.98882 3.33342 36
      vertex 4.98882 3.33342 4
      vertex 4.24264 4.24264 36
    endloop
  endfacet
  facet normal 0.881921 0.471397 0
    outer loop
      vertex 5.54328 2.2961 4
      vertex 4.98882 3.33342 4
      vertex 4.98882 3.33342 36
    endloop
  endfacet
  facet normal 0.881921 0.471397 -0
    outer loop
      vertex 5.54328 2.2961 36
      vertex 5.54328 2.2961 4
      vertex 4.98882 3.33342 36
    endloop
  endfacet
  facet normal 0.95694 0.290285 0
    outer loop
      vertex 5.88471 1.17054 4
      vertex 5.54328 2.2961 4
      vertex 5.54328 2.2961 36
    endloop
  endfacet
  facet normal 0.95694 0.290285 -0
    outer loop
      vertex 5.88471 1.17054 36
      vertex 5.88471 1.17054 4
      vertex 5.54328 2.2961 36
    endloop
  endfacet
  facet normal 0.290285 0.95694 3.5553e-16
    outer loop
      vertex 1.17054 5.88471 4
      vertex 1.26747 5.85531 6.375
      vertex 2.2961 5.54328 4
    endloop
  endfacet
  facet normal 0.290285 0.95694 0
    outer loop
      vertex 1.17054 5.88471 4
      vertex 1.17054 5.88471 6.73673
      vertex 1.26747 5.85531 6.375
    endloop
  endfacet
  facet normal 0.290285 0.95694 0
    outer loop
      vertex 2.2961 5.54328 4
      vertex 1.725 5.71652 5.91747
      vertex 2.2961 5.54328 5.76444
    endloop
  endfacet
  facet normal 0.290285 0.95694 4.35952e-16
    outer loop
      vertex 1.725 5.71652 5.91747
      vertex 2.2961 5.54328 4
      vertex 1.26747 5.85531 6.375
    endloop
  endfacet
  facet normal 0.471397 0.881921 0
    outer loop
      vertex 2.2961 5.54328 4
      vertex 2.2961 5.54328 5.76444
      vertex 3.33342 4.98882 4
    endloop
  endfacet
  facet normal 0.471397 0.881921 -9.51155e-16
    outer loop
      vertex 3.33342 4.98882 4
      vertex 2.2961 5.54328 5.76444
      vertex 2.35 5.51447 5.75
    endloop
  endfacet
  facet normal 0.471397 0.881921 8.9395e-17
    outer loop
      vertex 3.33342 4.98882 4
      vertex 2.35 5.51447 5.75
      vertex 2.975 5.1804 5.91747
    endloop
  endfacet
  facet normal 0.471397 0.881921 0
    outer loop
      vertex 2.975 5.1804 5.91747
      vertex 3.33342 4.98882 6.27589
      vertex 3.33342 4.98882 4
    endloop
  endfacet
endsolid OpenSCAD_Model
