solid OpenSCAD_Model
  facet normal -1 0 0
    outer loop
      vertex -21 120.169 0
      vertex -21 120.169 2.6
      vertex -21 128.547 0
    endloop
  endfacet
  facet normal -1 0 0
    outer loop
      vertex -21 128.547 0
      vertex -21 120.169 2.6
      vertex -21 125.242 2.6
    endloop
  endfacet
  facet normal -1 0 0
    outer loop
      vertex -21 128.547 0
      vertex -21 125.242 2.6
      vertex -21 125.242 4.6
    endloop
  endfacet
  facet normal -1 0 0
    outer loop
      vertex -21 128.547 0
      vertex -21 125.242 4.6
      vertex -21 128.547 4.6
    endloop
  endfacet
  facet normal 0.16935 -0.985556 0
    outer loop
      vertex -19.085 120.498 0
      vertex -19.085 120.498 2.6
      vertex -21 120.169 2.6
    endloop
  endfacet
  facet normal 0.16935 -0.985556 0
    outer loop
      vertex -21 120.169 0
      vertex -19.085 120.498 0
      vertex -21 120.169 2.6
    endloop
  endfacet
  facet normal 0 0 -1
    outer loop
      vertex -21 120.169 0
      vertex -21 128.547 0
      vertex -19.085 120.498 0
    endloop
  endfacet
  facet normal 0 0 -1
    outer loop
      vertex -14.0875 125.128 0
      vertex -21 128.547 0
      vertex 21 128.547 0
    endloop
  endfacet
  facet normal 0 0 -1
    outer loop
      vertex 19.085 120.498 0
      vertex 21 128.547 0
      vertex 21 120.169 0
    endloop
  endfacet
  facet normal 0 0 -1
    outer loop
      vertex 15.9242 120.956 0
      vertex 21 128.547 0
      vertex 19.085 120.498 0
    endloop
  endfacet
  facet normal 0 0 -1
    outer loop
      vertex 16.5805 122.635 0
      vertex 21 128.547 0
      vertex 15.9242 120.956 0
    endloop
  endfacet
  facet normal 0 0 -1
    outer loop
      vertex 3.19359 121.958 0
      vertex 21 128.547 0
      vertex 6.38499 121.833 0
    endloop
  endfacet
  facet normal 0 0 -1
    outer loop
      vertex 0 122 0
      vertex 21 128.547 0
      vertex 3.19359 121.958 0
    endloop
  endfacet
  facet normal 0 0 -1
    outer loop
      vertex -3.19359 121.958 0
      vertex 21 128.547 0
      vertex 0 122 0
    endloop
  endfacet
  facet normal 0 0 -1
    outer loop
      vertex -6.38499 121.833 0
      vertex 21 128.547 0
      vertex -3.19359 121.958 0
    endloop
  endfacet
  facet normal 0 0 -1
    outer loop
      vertex -9.57201 121.624 0
      vertex 21 128.547 0
      vertex -6.38499 121.833 0
    endloop
  endfacet
  facet normal 0 0 -1
    outer loop
      vertex -12.7525 121.332 0
      vertex 21 128.547 0
      vertex -9.57201 121.624 0
    endloop
  endfacet
  facet normal 0 0 -1
    outer loop
      vertex -15.9242 120.956 0
      vertex 21 128.547 0
      vertex -12.7525 121.332 0
    endloop
  endfacet
  facet normal 0 0 -1
    outer loop
      vertex -19.085 120.498 0
      vertex 21 128.547 0
      vertex -15.9242 120.956 0
    endloop
  endfacet
  facet normal 0 0 -1
    outer loop
      vertex -19.085 120.498 0
      vertex -21 128.547 0
      vertex -16.825 123.547 0
    endloop
  endfacet
  facet normal 0 0 -1
    outer loop
      vertex -19.085 120.498 0
      vertex -16.825 123.547 0
      vertex -16.7628 123.075 0
    endloop
  endfacet
  facet normal 0 0 -1
    outer loop
      vertex -19.085 120.498 0
      vertex -16.7628 123.075 0
      vertex -16.5805 122.635 0
    endloop
  endfacet
  facet normal 0 0 -1
    outer loop
      vertex -19.085 120.498 0
      vertex -16.5805 122.635 0
      vertex -16.2905 122.257 0
    endloop
  endfacet
  facet normal 0 0 -1
    outer loop
      vertex -19.085 120.498 0
      vertex -16.2905 122.257 0
      vertex -15.9125 121.967 0
    endloop
  endfacet
  facet normal 0 0 -1
    outer loop
      vertex -19.085 120.498 0
      vertex -15.9125 121.967 0
      vertex -15.4723 121.785 0
    endloop
  endfacet
  facet normal 0 0 -1
    outer loop
      vertex -19.085 120.498 0
      vertex -15.4723 121.785 0
      vertex -15 121.722 0
    endloop
  endfacet
  facet normal 0 0 -1
    outer loop
      vertex -19.085 120.498 0
      vertex -15 121.722 0
      vertex -14.5277 121.785 0
    endloop
  endfacet
  facet normal 0 0 -1
    outer loop
      vertex -19.085 120.498 0
      vertex -14.5277 121.785 0
      vertex 21 128.547 0
    endloop
  endfacet
  facet normal 0 0 -1
    outer loop
      vertex -13.7095 122.257 0
      vertex 21 128.547 0
      vertex -14.0875 121.967 0
    endloop
  endfacet
  facet normal 0 0 -1
    outer loop
      vertex -13.4195 122.635 0
      vertex 21 128.547 0
      vertex -13.7095 122.257 0
    endloop
  endfacet
  facet normal 0 0 -1
    outer loop
      vertex -13.2372 123.075 0
      vertex 21 128.547 0
      vertex -13.4195 122.635 0
    endloop
  endfacet
  facet normal 0 0 -1
    outer loop
      vertex -13.175 123.547 0
      vertex 21 128.547 0
      vertex -13.2372 123.075 0
    endloop
  endfacet
  facet normal 0 0 -1
    outer loop
      vertex -13.2372 124.02 0
      vertex 21 128.547 0
      vertex -13.175 123.547 0
    endloop
  endfacet
  facet normal 0 0 -1
    outer loop
      vertex -13.4195 124.46 0
      vertex 21 128.547 0
      vertex -13.2372 124.02 0
    endloop
  endfacet
  facet normal 0 0 -1
    outer loop
      vertex 13.175 123.547 0
      vertex 9.57201 121.624 0
      vertex 13.2372 124.02 0
    endloop
  endfacet
  facet normal 0 0 -1
    outer loop
      vertex -15 125.372 0
      vertex -21 128.547 0
      vertex -14.5277 125.31 0
    endloop
  endfacet
  facet normal 0 0 -1
    outer loop
      vertex -15.4723 125.31 0
      vertex -21 128.547 0
      vertex -15 125.372 0
    endloop
  endfacet
  facet normal 0 0 -1
    outer loop
      vertex -13.4195 124.46 0
      vertex -13.7095 124.838 0
      vertex 21 128.547 0
    endloop
  endfacet
  facet normal 0 0 -1
    outer loop
      vertex -14.5277 125.31 0
      vertex -21 128.547 0
      vertex -14.0875 125.128 0
    endloop
  endfacet
  facet normal 0 0 -1
    outer loop
      vertex -13.7095 124.838 0
      vertex -14.0875 125.128 0
      vertex 21 128.547 0
    endloop
  endfacet
  facet normal 0 0 -1
    outer loop
      vertex 13.7095 124.838 0
      vertex 6.38499 121.833 0
      vertex 14.0875 125.128 0
    endloop
  endfacet
  facet normal 0 0 -1
    outer loop
      vertex -15.9125 125.128 0
      vertex -21 128.547 0
      vertex -15.4723 125.31 0
    endloop
  endfacet
  facet normal 0 0 -1
    outer loop
      vertex -16.2905 124.838 0
      vertex -21 128.547 0
      vertex -15.9125 125.128 0
    endloop
  endfacet
  facet normal 0 0 -1
    outer loop
      vertex -16.5805 124.46 0
      vertex -21 128.547 0
      vertex -16.2905 124.838 0
    endloop
  endfacet
  facet normal 0 0 -1
    outer loop
      vertex -16.7628 124.02 0
      vertex -21 128.547 0
      vertex -16.5805 124.46 0
    endloop
  endfacet
  facet normal 0 0 -1
    outer loop
      vertex -16.825 123.547 0
      vertex -21 128.547 0
      vertex -16.7628 124.02 0
    endloop
  endfacet
  facet normal 0 0 -1
    outer loop
      vertex 14.0875 121.967 0
      vertex 12.7525 121.332 0
      vertex 13.7095 122.257 0
    endloop
  endfacet
  facet normal 0 0 -1
    outer loop
      vertex 9.57201 121.624 0
      vertex 13.175 123.547 0
      vertex 12.7525 121.332 0
    endloop
  endfacet
  facet normal 0 0 -1
    outer loop
      vertex 15.4723 125.31 0
      vertex 21 128.547 0
      vertex 15.9125 125.128 0
    endloop
  endfacet
  facet normal 0 0 -1
    outer loop
      vertex 13.175 123.547 0
      vertex 13.2372 123.075 0
      vertex 12.7525 121.332 0
    endloop
  endfacet
  facet normal 0 0 -1
    outer loop
      vertex 13.2372 123.075 0
      vertex 13.4195 122.635 0
      vertex 12.7525 121.332 0
    endloop
  endfacet
  facet normal 0 0 -1
    outer loop
      vertex 15.9125 125.128 0
      vertex 21 128.547 0
      vertex 16.2905 124.838 0
    endloop
  endfacet
  facet normal 0 0 -1
    outer loop
      vertex 13.4195 122.635 0
      vertex 13.7095 122.257 0
      vertex 12.7525 121.332 0
    endloop
  endfacet
  facet normal 0 0 -1
    outer loop
      vertex 16.2905 124.838 0
      vertex 21 128.547 0
      vertex 16.5805 124.46 0
    endloop
  endfacet
  facet normal 0 0 -1
    outer loop
      vertex 12.7525 121.332 0
      vertex 14.0875 121.967 0
      vertex 15.9242 120.956 0
    endloop
  endfacet
  facet normal 0 0 -1
    outer loop
      vertex 14.0875 121.967 0
      vertex 14.5277 121.785 0
      vertex 15.9242 120.956 0
    endloop
  endfacet
  facet normal 0 0 -1
    outer loop
      vertex 16.5805 124.46 0
      vertex 21 128.547 0
      vertex 16.7628 124.02 0
    endloop
  endfacet
  facet normal 0 0 -1
    outer loop
      vertex 14.5277 121.785 0
      vertex 15 121.722 0
      vertex 15.9242 120.956 0
    endloop
  endfacet
  facet normal 0 0 -1
    outer loop
      vertex 16.7628 124.02 0
      vertex 21 128.547 0
      vertex 16.825 123.547 0
    endloop
  endfacet
  facet normal 0 0 -1
    outer loop
      vertex 15 121.722 0
      vertex 15.4723 121.785 0
      vertex 15.9242 120.956 0
    endloop
  endfacet
  facet normal 0 0 -1
    outer loop
      vertex 16.825 123.547 0
      vertex 21 128.547 0
      vertex 16.7628 123.075 0
    endloop
  endfacet
  facet normal 0 0 -1
    outer loop
      vertex 15.4723 121.785 0
      vertex 15.9125 121.967 0
      vertex 15.9242 120.956 0
    endloop
  endfacet
  facet normal 0 0 -1
    outer loop
      vertex 15.9125 121.967 0
      vertex 16.2905 122.257 0
      vertex 15.9242 120.956 0
    endloop
  endfacet
  facet normal 0 0 -1
    outer loop
      vertex 16.2905 122.257 0
      vertex 16.5805 122.635 0
      vertex 15.9242 120.956 0
    endloop
  endfacet
  facet normal 0 0 -1
    outer loop
      vertex 16.7628 123.075 0
      vertex 21 128.547 0
      vertex 16.5805 122.635 0
    endloop
  endfacet
  facet normal 0 0 -1
    outer loop
      vertex 15 125.372 0
      vertex 21 128.547 0
      vertex 15.4723 125.31 0
    endloop
  endfacet
  facet normal 0 0 -1
    outer loop
      vertex 14.5277 125.31 0
      vertex 21 128.547 0
      vertex 15 125.372 0
    endloop
  endfacet
  facet normal 0 0 -1
    outer loop
      vertex 14.0875 125.128 0
      vertex 21 128.547 0
      vertex 14.5277 125.31 0
    endloop
  endfacet
  facet normal 0 0 -1
    outer loop
      vertex 6.38499 121.833 0
      vertex 21 128.547 0
      vertex 14.0875 125.128 0
    endloop
  endfacet
  facet normal 0 0 -1
    outer loop
      vertex 13.4195 124.46 0
      vertex 6.38499 121.833 0
      vertex 13.7095 124.838 0
    endloop
  endfacet
  facet normal 0 0 -1
    outer loop
      vertex 6.38499 121.833 0
      vertex 13.4195 124.46 0
      vertex 9.57201 121.624 0
    endloop
  endfacet
  facet normal 0 0 -1
    outer loop
      vertex 13.4195 124.46 0
      vertex 13.2372 124.02 0
      vertex 9.57201 121.624 0
    endloop
  endfacet
  facet normal 0 0 -1
    outer loop
      vertex -14.0875 121.967 0
      vertex 21 128.547 0
      vertex -14.5277 121.785 0
    endloop
  endfacet
  facet normal 0 1 0
    outer loop
      vertex -21 128.547 0
      vertex -21 128.547 4.6
      vertex 21 128.547 0
    endloop
  endfacet
  facet normal 0 1 0
    outer loop
      vertex 21 128.547 0
      vertex -21 128.547 4.6
      vertex 21 128.547 4.6
    endloop
  endfacet
  facet normal 0 0 1
    outer loop
      vertex -13.2751 126.304 4.6
      vertex -9.9643 126.609 4.6
      vertex -21 128.547 4.6
    endloop
  endfacet
  facet normal 0 0 1
    outer loop
      vertex -21 128.547 4.6
      vertex -21 125.242 4.6
      vertex -19.8672 125.436 4.6
    endloop
  endfacet
  facet normal 0 0 1
    outer loop
      vertex -9.9643 126.609 4.6
      vertex -6.64667 126.826 4.6
      vertex -21 128.547 4.6
    endloop
  endfacet
  facet normal 0 0 1
    outer loop
      vertex -16.5768 125.913 4.6
      vertex -21 128.547 4.6
      vertex -19.8672 125.436 4.6
    endloop
  endfacet
  facet normal 0 0 1
    outer loop
      vertex -16.5768 125.913 4.6
      vertex -13.2751 126.304 4.6
      vertex -21 128.547 4.6
    endloop
  endfacet
  facet normal 0 0 1
    outer loop
      vertex -6.64667 126.826 4.6
      vertex -3.32447 126.956 4.6
      vertex -21 128.547 4.6
    endloop
  endfacet
  facet normal 0 0 1
    outer loop
      vertex -3.32447 126.956 4.6
      vertex 0 127 4.6
      vertex -21 128.547 4.6
    endloop
  endfacet
  facet normal 0 0 1
    outer loop
      vertex 0 127 4.6
      vertex 3.32447 126.956 4.6
      vertex -21 128.547 4.6
    endloop
  endfacet
  facet normal 0 0 1
    outer loop
      vertex 3.32447 126.956 4.6
      vertex 6.64667 126.826 4.6
      vertex -21 128.547 4.6
    endloop
  endfacet
  facet normal 0 0 1
    outer loop
      vertex 6.64667 126.826 4.6
      vertex 21 128.547 4.6
      vertex -21 128.547 4.6
    endloop
  endfacet
  facet normal 0 0 1
    outer loop
      vertex 9.9643 126.609 4.6
      vertex 21 128.547 4.6
      vertex 6.64667 126.826 4.6
    endloop
  endfacet
  facet normal 0 0 1
    outer loop
      vertex 13.2751 126.304 4.6
      vertex 21 128.547 4.6
      vertex 9.9643 126.609 4.6
    endloop
  endfacet
  facet normal 0 0 1
    outer loop
      vertex 16.5768 125.913 4.6
      vertex 21 128.547 4.6
      vertex 13.2751 126.304 4.6
    endloop
  endfacet
  facet normal 0 0 1
    outer loop
      vertex 19.8672 125.436 4.6
      vertex 21 128.547 4.6
      vertex 16.5768 125.913 4.6
    endloop
  endfacet
  facet normal 0 0 1
    outer loop
      vertex 21 125.242 4.6
      vertex 21 128.547 4.6
      vertex 19.8672 125.436 4.6
    endloop
  endfacet
  facet normal 0.169349 -0.985556 0
    outer loop
      vertex -19.8672 125.436 2.6
      vertex -19.8672 125.436 4.6
      vertex -21 125.242 4.6
    endloop
  endfacet
  facet normal 0.169349 -0.985556 0
    outer loop
      vertex -21 125.242 2.6
      vertex -19.8672 125.436 2.6
      vertex -21 125.242 4.6
    endloop
  endfacet
  facet normal 0 0 1
    outer loop
      vertex 14.5277 125.31 2.6
      vertex 15 125.372 2.6
      vertex 16.5768 125.913 2.6
    endloop
  endfacet
  facet normal 0 0 1
    outer loop
      vertex 13.4195 124.46 2.6
      vertex 13.7095 124.838 2.6
      vertex -15.9242 120.956 2.6
    endloop
  endfacet
  facet normal 0 0 1
    outer loop
      vertex 13.4195 124.46 2.6
      vertex -15.9242 120.956 2.6
      vertex -12.7525 121.332 2.6
    endloop
  endfacet
  facet normal 0 0 1
    outer loop
      vertex -19.085 120.498 2.6
      vertex -15.9242 120.956 2.6
      vertex 16.5768 125.913 2.6
    endloop
  endfacet
  facet normal 0 0 1
    outer loop
      vertex 14.5277 121.785 2.6
      vertex 14.0875 121.967 2.6
      vertex 12.7525 121.332 2.6
    endloop
  endfacet
  facet normal 0 0 1
    outer loop
      vertex 13.2372 124.02 2.6
      vertex -6.38499 121.833 2.6
      vertex -3.19359 121.958 2.6
    endloop
  endfacet
  facet normal 0 0 1
    outer loop
      vertex 19.085 120.498 2.6
      vertex 21 125.242 2.6
      vertex 15.9242 120.956 2.6
    endloop
  endfacet
  facet normal 0 0 1
    outer loop
      vertex 21 120.169 2.6
      vertex 21 125.242 2.6
      vertex 19.085 120.498 2.6
    endloop
  endfacet
  facet normal 0 0 1
    outer loop
      vertex 15.9125 125.128 2.6
      vertex 16.2905 124.838 2.6
      vertex 19.8672 125.436 2.6
    endloop
  endfacet
  facet normal 0 0 1
    outer loop
      vertex 14.5277 125.31 2.6
      vertex 16.5768 125.913 2.6
      vertex -15.9242 120.956 2.6
    endloop
  endfacet
  facet normal 0 0 1
    outer loop
      vertex 16.5768 125.913 2.6
      vertex 13.2751 126.304 2.6
      vertex -19.085 120.498 2.6
    endloop
  endfacet
  facet normal 0 0 1
    outer loop
      vertex 13.2751 126.304 2.6
      vertex 9.9643 126.609 2.6
      vertex -19.085 120.498 2.6
    endloop
  endfacet
  facet normal 0 0 1
    outer loop
      vertex 9.9643 126.609 2.6
      vertex 6.64667 126.826 2.6
      vertex -19.085 120.498 2.6
    endloop
  endfacet
  facet normal 0 0 1
    outer loop
      vertex -15 121.722 2.6
      vertex -15.4723 121.785 2.6
      vertex -19.085 120.498 2.6
    endloop
  endfacet
  facet normal 0 0 1
    outer loop
      vertex -13.2372 123.075 2.6
      vertex -13.4195 122.635 2.6
      vertex -3.32447 126.956 2.6
    endloop
  endfacet
  facet normal 0 0 1
    outer loop
      vertex -16.5805 122.635 2.6
      vertex -16.7628 123.075 2.6
      vertex -19.085 120.498 2.6
    endloop
  endfacet
  facet normal 0 0 1
    outer loop
      vertex -16.825 123.547 2.6
      vertex -16.5768 125.913 2.6
      vertex -19.085 120.498 2.6
    endloop
  endfacet
  facet normal 0 0 1
    outer loop
      vertex -16.5768 125.913 2.6
      vertex -19.8672 125.436 2.6
      vertex -19.085 120.498 2.6
    endloop
  endfacet
  facet normal 0 0 1
    outer loop
      vertex -19.8672 125.436 2.6
      vertex -21 125.242 2.6
      vertex -19.085 120.498 2.6
    endloop
  endfacet
  facet normal 0 0 1
    outer loop
      vertex -21 125.242 2.6
      vertex -21 120.169 2.6
      vertex -19.085 120.498 2.6
    endloop
  endfacet
  facet normal 0 0 1
    outer loop
      vertex -16.7628 123.075 2.6
      vertex -16.825 123.547 2.6
      vertex -19.085 120.498 2.6
    endloop
  endfacet
  facet normal 0 0 1
    outer loop
      vertex -16.7628 124.02 2.6
      vertex -16.5768 125.913 2.6
      vertex -16.825 123.547 2.6
    endloop
  endfacet
  facet normal 0 0 1
    outer loop
      vertex -14.5277 125.31 2.6
      vertex -14.0875 125.128 2.6
      vertex -13.2751 126.304 2.6
    endloop
  endfacet
  facet normal 0 0 1
    outer loop
      vertex -16.5805 124.46 2.6
      vertex -16.5768 125.913 2.6
      vertex -16.7628 124.02 2.6
    endloop
  endfacet
  facet normal 0 0 1
    outer loop
      vertex -13.4195 124.46 2.6
      vertex -13.2372 124.02 2.6
      vertex -9.9643 126.609 2.6
    endloop
  endfacet
  facet normal 0 0 1
    outer loop
      vertex -16.2905 124.838 2.6
      vertex -16.5768 125.913 2.6
      vertex -16.5805 124.46 2.6
    endloop
  endfacet
  facet normal 0 0 1
    outer loop
      vertex -15.9125 125.128 2.6
      vertex -16.5768 125.913 2.6
      vertex -16.2905 124.838 2.6
    endloop
  endfacet
  facet normal 0 0 1
    outer loop
      vertex -13.2751 126.304 2.6
      vertex -16.5768 125.913 2.6
      vertex -15.9125 125.128 2.6
    endloop
  endfacet
  facet normal 0 0 1
    outer loop
      vertex -13.2751 126.304 2.6
      vertex -15.9125 125.128 2.6
      vertex -15.4723 125.31 2.6
    endloop
  endfacet
  facet normal 0 0 1
    outer loop
      vertex 13.2372 124.02 2.6
      vertex -9.57201 121.624 2.6
      vertex -6.38499 121.833 2.6
    endloop
  endfacet
  facet normal 0 0 1
    outer loop
      vertex 13.2372 123.075 2.6
      vertex 13.175 123.547 2.6
      vertex 6.38499 121.833 2.6
    endloop
  endfacet
  facet normal 0 0 1
    outer loop
      vertex -9.9643 126.609 2.6
      vertex -13.2751 126.304 2.6
      vertex -14.0875 125.128 2.6
    endloop
  endfacet
  facet normal 0 0 1
    outer loop
      vertex -9.9643 126.609 2.6
      vertex -14.0875 125.128 2.6
      vertex -13.7095 124.838 2.6
    endloop
  endfacet
  facet normal 0 0 1
    outer loop
      vertex -13.175 123.547 2.6
      vertex -13.2372 123.075 2.6
      vertex -6.64667 126.826 2.6
    endloop
  endfacet
  facet normal 0 0 1
    outer loop
      vertex -9.9643 126.609 2.6
      vertex -13.7095 124.838 2.6
      vertex -13.4195 124.46 2.6
    endloop
  endfacet
  facet normal 0 0 1
    outer loop
      vertex -6.64667 126.826 2.6
      vertex -9.9643 126.609 2.6
      vertex -13.2372 124.02 2.6
    endloop
  endfacet
  facet normal 0 0 1
    outer loop
      vertex -13.4195 122.635 2.6
      vertex -13.7095 122.257 2.6
      vertex 0 127 2.6
    endloop
  endfacet
  facet normal 0 0 1
    outer loop
      vertex -6.64667 126.826 2.6
      vertex -13.2372 124.02 2.6
      vertex -13.175 123.547 2.6
    endloop
  endfacet
  facet normal 0 0 1
    outer loop
      vertex -3.32447 126.956 2.6
      vertex -6.64667 126.826 2.6
      vertex -13.2372 123.075 2.6
    endloop
  endfacet
  facet normal 0 0 1
    outer loop
      vertex -15.9125 121.967 2.6
      vertex -16.2905 122.257 2.6
      vertex -19.085 120.498 2.6
    endloop
  endfacet
  facet normal 0 0 1
    outer loop
      vertex 0 127 2.6
      vertex -3.32447 126.956 2.6
      vertex -13.4195 122.635 2.6
    endloop
  endfacet
  facet normal 0 0 1
    outer loop
      vertex 3.32447 126.956 2.6
      vertex 0 127 2.6
      vertex -13.7095 122.257 2.6
    endloop
  endfacet
  facet normal 0 0 1
    outer loop
      vertex -14.5277 121.785 2.6
      vertex -15 121.722 2.6
      vertex -19.085 120.498 2.6
    endloop
  endfacet
  facet normal 0 0 1
    outer loop
      vertex 3.32447 126.956 2.6
      vertex -13.7095 122.257 2.6
      vertex -14.0875 121.967 2.6
    endloop
  endfacet
  facet normal 0 0 1
    outer loop
      vertex 6.64667 126.826 2.6
      vertex -14.5277 121.785 2.6
      vertex -19.085 120.498 2.6
    endloop
  endfacet
  facet normal 0 0 1
    outer loop
      vertex 6.64667 126.826 2.6
      vertex 3.32447 126.956 2.6
      vertex -14.5277 121.785 2.6
    endloop
  endfacet
  facet normal 0 0 1
    outer loop
      vertex -14.0875 121.967 2.6
      vertex -14.5277 121.785 2.6
      vertex 3.32447 126.956 2.6
    endloop
  endfacet
  facet normal 0 0 1
    outer loop
      vertex -15.4723 121.785 2.6
      vertex -15.9125 121.967 2.6
      vertex -19.085 120.498 2.6
    endloop
  endfacet
  facet normal 0 0 1
    outer loop
      vertex -16.2905 122.257 2.6
      vertex -16.5805 122.635 2.6
      vertex -19.085 120.498 2.6
    endloop
  endfacet
  facet normal 0 0 1
    outer loop
      vertex 6.38499 121.833 2.6
      vertex 13.175 123.547 2.6
      vertex 3.19359 121.958 2.6
    endloop
  endfacet
  facet normal 0 0 1
    outer loop
      vertex 16.7628 124.02 2.6
      vertex 16.825 123.547 2.6
      vertex 21 125.242 2.6
    endloop
  endfacet
  facet normal 0 0 1
    outer loop
      vertex 3.19359 121.958 2.6
      vertex 13.2372 124.02 2.6
      vertex 0 122 2.6
    endloop
  endfacet
  facet normal 0 0 1
    outer loop
      vertex 13.7095 124.838 2.6
      vertex 14.0875 125.128 2.6
      vertex -15.9242 120.956 2.6
    endloop
  endfacet
  facet normal 0 0 1
    outer loop
      vertex 14.0875 125.128 2.6
      vertex 14.5277 125.31 2.6
      vertex -15.9242 120.956 2.6
    endloop
  endfacet
  facet normal 0 0 1
    outer loop
      vertex 15 125.372 2.6
      vertex 15.4723 125.31 2.6
      vertex 16.5768 125.913 2.6
    endloop
  endfacet
  facet normal 0 0 1
    outer loop
      vertex 19.8672 125.436 2.6
      vertex 16.5768 125.913 2.6
      vertex 15.4723 125.31 2.6
    endloop
  endfacet
  facet normal 0 0 1
    outer loop
      vertex 16.2905 124.838 2.6
      vertex 16.5805 124.46 2.6
      vertex 21 125.242 2.6
    endloop
  endfacet
  facet normal 0 0 1
    outer loop
      vertex 19.8672 125.436 2.6
      vertex 15.4723 125.31 2.6
      vertex 15.9125 125.128 2.6
    endloop
  endfacet
  facet normal 0 0 1
    outer loop
      vertex 16.825 123.547 2.6
      vertex 16.7628 123.075 2.6
      vertex 21 125.242 2.6
    endloop
  endfacet
  facet normal 0 0 1
    outer loop
      vertex 21 125.242 2.6
      vertex 19.8672 125.436 2.6
      vertex 16.2905 124.838 2.6
    endloop
  endfacet
  facet normal 0 0 1
    outer loop
      vertex 16.5805 124.46 2.6
      vertex 16.7628 124.02 2.6
      vertex 21 125.242 2.6
    endloop
  endfacet
  facet normal 0 0 1
    outer loop
      vertex 13.2372 124.02 2.6
      vertex -3.19359 121.958 2.6
      vertex 0 122 2.6
    endloop
  endfacet
  facet normal 0 0 1
    outer loop
      vertex 13.175 123.547 2.6
      vertex 13.2372 124.02 2.6
      vertex 3.19359 121.958 2.6
    endloop
  endfacet
  facet normal 0 0 1
    outer loop
      vertex 14.0875 121.967 2.6
      vertex 13.7095 122.257 2.6
      vertex 12.7525 121.332 2.6
    endloop
  endfacet
  facet normal 0 0 1
    outer loop
      vertex 15.9242 120.956 2.6
      vertex 21 125.242 2.6
      vertex 16.7628 123.075 2.6
    endloop
  endfacet
  facet normal 0 0 1
    outer loop
      vertex 13.4195 122.635 2.6
      vertex 13.2372 123.075 2.6
      vertex 9.57201 121.624 2.6
    endloop
  endfacet
  facet normal 0 0 1
    outer loop
      vertex 15.9242 120.956 2.6
      vertex 16.7628 123.075 2.6
      vertex 16.5805 122.635 2.6
    endloop
  endfacet
  facet normal 0 0 1
    outer loop
      vertex 15.9242 120.956 2.6
      vertex 16.5805 122.635 2.6
      vertex 16.2905 122.257 2.6
    endloop
  endfacet
  facet normal 0 0 1
    outer loop
      vertex 15.9242 120.956 2.6
      vertex 16.2905 122.257 2.6
      vertex 15.9125 121.967 2.6
    endloop
  endfacet
  facet normal 0 0 1
    outer loop
      vertex 15.9242 120.956 2.6
      vertex 15.4723 121.785 2.6
      vertex 12.7525 121.332 2.6
    endloop
  endfacet
  facet normal 0 0 1
    outer loop
      vertex 15.9242 120.956 2.6
      vertex 15.9125 121.967 2.6
      vertex 15.4723 121.785 2.6
    endloop
  endfacet
  facet normal 0 0 1
    outer loop
      vertex 15.4723 121.785 2.6
      vertex 15 121.722 2.6
      vertex 12.7525 121.332 2.6
    endloop
  endfacet
  facet normal 0 0 1
    outer loop
      vertex 15 121.722 2.6
      vertex 14.5277 121.785 2.6
      vertex 12.7525 121.332 2.6
    endloop
  endfacet
  facet normal 0 0 1
    outer loop
      vertex 12.7525 121.332 2.6
      vertex 13.7095 122.257 2.6
      vertex 9.57201 121.624 2.6
    endloop
  endfacet
  facet normal 0 0 1
    outer loop
      vertex 13.7095 122.257 2.6
      vertex 13.4195 122.635 2.6
      vertex 9.57201 121.624 2.6
    endloop
  endfacet
  facet normal 0 0 1
    outer loop
      vertex 9.57201 121.624 2.6
      vertex 13.2372 123.075 2.6
      vertex 6.38499 121.833 2.6
    endloop
  endfacet
  facet normal 0 0 1
    outer loop
      vertex -15.4723 125.31 2.6
      vertex -15 125.372 2.6
      vertex -13.2751 126.304 2.6
    endloop
  endfacet
  facet normal 0 0 1
    outer loop
      vertex -15 125.372 2.6
      vertex -14.5277 125.31 2.6
      vertex -13.2751 126.304 2.6
    endloop
  endfacet
  facet normal 0 0 1
    outer loop
      vertex 13.2372 124.02 2.6
      vertex -12.7525 121.332 2.6
      vertex -9.57201 121.624 2.6
    endloop
  endfacet
  facet normal 0 0 1
    outer loop
      vertex 13.2372 124.02 2.6
      vertex 13.4195 124.46 2.6
      vertex -12.7525 121.332 2.6
    endloop
  endfacet
  facet normal 0.143492 -0.989651 0
    outer loop
      vertex -15.9242 120.956 0
      vertex -15.9242 120.956 2.6
      vertex -19.085 120.498 2.6
    endloop
  endfacet
  facet normal 0.143492 -0.989651 0
    outer loop
      vertex -19.085 120.498 0
      vertex -15.9242 120.956 0
      vertex -19.085 120.498 2.6
    endloop
  endfacet
  facet normal 0.117537 -0.993068 0
    outer loop
      vertex -12.7525 121.332 0
      vertex -12.7525 121.332 2.6
      vertex -15.9242 120.956 2.6
    endloop
  endfacet
  facet normal 0.117537 -0.993068 0
    outer loop
      vertex -15.9242 120.956 0
      vertex -12.7525 121.332 0
      vertex -15.9242 120.956 2.6
    endloop
  endfacet
  facet normal 0.0915018 -0.995805 0
    outer loop
      vertex -9.57201 121.624 0
      vertex -9.57201 121.624 2.6
      vertex -12.7525 121.332 2.6
    endloop
  endfacet
  facet normal 0.0915018 -0.995805 0
    outer loop
      vertex -12.7525 121.332 0
      vertex -9.57201 121.624 0
      vertex -12.7525 121.332 2.6
    endloop
  endfacet
  facet normal 0.065403 -0.997859 0
    outer loop
      vertex -6.38499 121.833 0
      vertex -6.38499 121.833 2.6
      vertex -9.57201 121.624 2.6
    endloop
  endfacet
  facet normal 0.065403 -0.997859 0
    outer loop
      vertex -9.57201 121.624 0
      vertex -6.38499 121.833 0
      vertex -9.57201 121.624 2.6
    endloop
  endfacet
  facet normal 0.03926 -0.999229 0
    outer loop
      vertex -3.19359 121.958 0
      vertex -3.19359 121.958 2.6
      vertex -6.38499 121.833 2.6
    endloop
  endfacet
  facet normal 0.03926 -0.999229 0
    outer loop
      vertex -6.38499 121.833 0
      vertex -3.19359 121.958 0
      vertex -6.38499 121.833 2.6
    endloop
  endfacet
  facet normal 0.0130895 -0.999914 0
    outer loop
      vertex 0 122 0
      vertex 0 122 2.6
      vertex -3.19359 121.958 2.6
    endloop
  endfacet
  facet normal 0.0130895 -0.999914 0
    outer loop
      vertex -3.19359 121.958 0
      vertex 0 122 0
      vertex -3.19359 121.958 2.6
    endloop
  endfacet
  facet normal -0.0130895 -0.999914 0
    outer loop
      vertex 3.19359 121.958 0
      vertex 3.19359 121.958 2.6
      vertex 0 122 2.6
    endloop
  endfacet
  facet normal -0.0130895 -0.999914 0
    outer loop
      vertex 0 122 0
      vertex 3.19359 121.958 0
      vertex 0 122 2.6
    endloop
  endfacet
  facet normal -0.03926 -0.999229 0
    outer loop
      vertex 6.38499 121.833 0
      vertex 6.38499 121.833 2.6
      vertex 3.19359 121.958 2.6
    endloop
  endfacet
  facet normal -0.03926 -0.999229 0
    outer loop
      vertex 3.19359 121.958 0
      vertex 6.38499 121.833 0
      vertex 3.19359 121.958 2.6
    endloop
  endfacet
  facet normal -0.065403 -0.997859 0
    outer loop
      vertex 9.57201 121.624 0
      vertex 9.57201 121.624 2.6
      vertex 6.38499 121.833 2.6
    endloop
  endfacet
  facet normal -0.065403 -0.997859 0
    outer loop
      vertex 6.38499 121.833 0
      vertex 9.57201 121.624 0
      vertex 6.38499 121.833 2.6
    endloop
  endfacet
  facet normal -0.0915018 -0.995805 0
    outer loop
      vertex 12.7525 121.332 0
      vertex 12.7525 121.332 2.6
      vertex 9.57201 121.624 2.6
    endloop
  endfacet
  facet normal -0.0915018 -0.995805 0
    outer loop
      vertex 9.57201 121.624 0
      vertex 12.7525 121.332 0
      vertex 9.57201 121.624 2.6
    endloop
  endfacet
  facet normal -0.117537 -0.993068 0
    outer loop
      vertex 15.9242 120.956 0
      vertex 15.9242 120.956 2.6
      vertex 12.7525 121.332 2.6
    endloop
  endfacet
  facet normal -0.117537 -0.993068 0
    outer loop
      vertex 12.7525 121.332 0
      vertex 15.9242 120.956 0
      vertex 12.7525 121.332 2.6
    endloop
  endfacet
  facet normal -0.143492 -0.989651 0
    outer loop
      vertex 19.085 120.498 0
      vertex 19.085 120.498 2.6
      vertex 15.9242 120.956 2.6
    endloop
  endfacet
  facet normal -0.143492 -0.989651 0
    outer loop
      vertex 15.9242 120.956 0
      vertex 19.085 120.498 0
      vertex 15.9242 120.956 2.6
    endloop
  endfacet
  facet normal -0.16935 -0.985556 0
    outer loop
      vertex 21 120.169 0
      vertex 21 120.169 2.6
      vertex 19.085 120.498 2.6
    endloop
  endfacet
  facet normal -0.16935 -0.985556 0
    outer loop
      vertex 19.085 120.498 0
      vertex 21 120.169 0
      vertex 19.085 120.498 2.6
    endloop
  endfacet
  facet normal 1 0 0
    outer loop
      vertex 21 120.169 2.6
      vertex 21 120.169 0
      vertex 21 128.547 0
    endloop
  endfacet
  facet normal 1 0 0
    outer loop
      vertex 21 125.242 2.6
      vertex 21 120.169 2.6
      vertex 21 128.547 0
    endloop
  endfacet
  facet normal 1 0 0
    outer loop
      vertex 21 128.547 4.6
      vertex 21 125.242 2.6
      vertex 21 128.547 0
    endloop
  endfacet
  facet normal 1 0 0
    outer loop
      vertex 21 125.242 4.6
      vertex 21 125.242 2.6
      vertex 21 128.547 4.6
    endloop
  endfacet
  facet normal 0.991445 -0.130525 0
    outer loop
      vertex -16.7628 124.02 0
      vertex -16.7628 124.02 2.6
      vertex -16.825 123.547 2.6
    endloop
  endfacet
  facet normal 0.991445 -0.130525 0
    outer loop
      vertex -16.825 123.547 0
      vertex -16.7628 124.02 0
      vertex -16.825 123.547 2.6
    endloop
  endfacet
  facet normal 0.991445 0.130525 0
    outer loop
      vertex -16.825 123.547 2.6
      vertex -16.7628 123.075 2.6
      vertex -16.7628 123.075 0
    endloop
  endfacet
  facet normal 0.991445 0.130525 0
    outer loop
      vertex -16.825 123.547 0
      vertex -16.825 123.547 2.6
      vertex -16.7628 123.075 0
    endloop
  endfacet
  facet normal 0.923879 -0.382685 0
    outer loop
      vertex -16.5805 124.46 0
      vertex -16.5805 124.46 2.6
      vertex -16.7628 124.02 2.6
    endloop
  endfacet
  facet normal 0.923879 -0.382685 0
    outer loop
      vertex -16.7628 124.02 0
      vertex -16.5805 124.46 0
      vertex -16.7628 124.02 2.6
    endloop
  endfacet
  facet normal 0.793354 -0.608761 0
    outer loop
      vertex -16.2905 124.838 0
      vertex -16.2905 124.838 2.6
      vertex -16.5805 124.46 2.6
    endloop
  endfacet
  facet normal 0.793354 -0.608761 0
    outer loop
      vertex -16.5805 124.46 0
      vertex -16.2905 124.838 0
      vertex -16.5805 124.46 2.6
    endloop
  endfacet
  facet normal 0.608761 -0.793354 0
    outer loop
      vertex -15.9125 125.128 0
      vertex -15.9125 125.128 2.6
      vertex -16.2905 124.838 2.6
    endloop
  endfacet
  facet normal 0.608761 -0.793354 0
    outer loop
      vertex -16.2905 124.838 0
      vertex -15.9125 125.128 0
      vertex -16.2905 124.838 2.6
    endloop
  endfacet
  facet normal 0.382685 -0.923879 0
    outer loop
      vertex -15.4723 125.31 0
      vertex -15.4723 125.31 2.6
      vertex -15.9125 125.128 2.6
    endloop
  endfacet
  facet normal 0.382685 -0.923879 0
    outer loop
      vertex -15.9125 125.128 0
      vertex -15.4723 125.31 0
      vertex -15.9125 125.128 2.6
    endloop
  endfacet
  facet normal 0.130525 -0.991445 0
    outer loop
      vertex -15 125.372 0
      vertex -15 125.372 2.6
      vertex -15.4723 125.31 2.6
    endloop
  endfacet
  facet normal 0.130525 -0.991445 0
    outer loop
      vertex -15.4723 125.31 0
      vertex -15 125.372 0
      vertex -15.4723 125.31 2.6
    endloop
  endfacet
  facet normal -0.130525 -0.991445 0
    outer loop
      vertex -14.5277 125.31 0
      vertex -14.5277 125.31 2.6
      vertex -15 125.372 2.6
    endloop
  endfacet
  facet normal -0.130525 -0.991445 0
    outer loop
      vertex -15 125.372 0
      vertex -14.5277 125.31 0
      vertex -15 125.372 2.6
    endloop
  endfacet
  facet normal -0.382685 -0.923879 0
    outer loop
      vertex -14.0875 125.128 0
      vertex -14.0875 125.128 2.6
      vertex -14.5277 125.31 2.6
    endloop
  endfacet
  facet normal -0.382685 -0.923879 0
    outer loop
      vertex -14.5277 125.31 0
      vertex -14.0875 125.128 0
      vertex -14.5277 125.31 2.6
    endloop
  endfacet
  facet normal -0.608761 -0.793354 0
    outer loop
      vertex -13.7095 124.838 0
      vertex -13.7095 124.838 2.6
      vertex -14.0875 125.128 2.6
    endloop
  endfacet
  facet normal -0.608761 -0.793354 0
    outer loop
      vertex -14.0875 125.128 0
      vertex -13.7095 124.838 0
      vertex -14.0875 125.128 2.6
    endloop
  endfacet
  facet normal -0.793354 -0.608761 0
    outer loop
      vertex -13.4195 124.46 2.6
      vertex -13.7095 124.838 2.6
      vertex -13.4195 124.46 0
    endloop
  endfacet
  facet normal -0.793354 -0.608761 0
    outer loop
      vertex -13.4195 124.46 0
      vertex -13.7095 124.838 2.6
      vertex -13.7095 124.838 0
    endloop
  endfacet
  facet normal -0.923879 -0.382685 0
    outer loop
      vertex -13.2372 124.02 2.6
      vertex -13.4195 124.46 2.6
      vertex -13.2372 124.02 0
    endloop
  endfacet
  facet normal -0.923879 -0.382685 0
    outer loop
      vertex -13.2372 124.02 0
      vertex -13.4195 124.46 2.6
      vertex -13.4195 124.46 0
    endloop
  endfacet
  facet normal -0.991445 -0.130525 0
    outer loop
      vertex -13.175 123.547 2.6
      vertex -13.2372 124.02 2.6
      vertex -13.175 123.547 0
    endloop
  endfacet
  facet normal -0.991445 -0.130525 0
    outer loop
      vertex -13.175 123.547 0
      vertex -13.2372 124.02 2.6
      vertex -13.2372 124.02 0
    endloop
  endfacet
  facet normal -0.991445 0.130525 0
    outer loop
      vertex -13.175 123.547 2.6
      vertex -13.175 123.547 0
      vertex -13.2372 123.075 2.6
    endloop
  endfacet
  facet normal -0.991445 0.130525 0
    outer loop
      vertex -13.2372 123.075 2.6
      vertex -13.175 123.547 0
      vertex -13.2372 123.075 0
    endloop
  endfacet
  facet normal -0.923879 0.382685 0
    outer loop
      vertex -13.2372 123.075 2.6
      vertex -13.2372 123.075 0
      vertex -13.4195 122.635 2.6
    endloop
  endfacet
  facet normal -0.923879 0.382685 0
    outer loop
      vertex -13.4195 122.635 2.6
      vertex -13.2372 123.075 0
      vertex -13.4195 122.635 0
    endloop
  endfacet
  facet normal -0.793354 0.608761 0
    outer loop
      vertex -13.4195 122.635 2.6
      vertex -13.4195 122.635 0
      vertex -13.7095 122.257 2.6
    endloop
  endfacet
  facet normal -0.793354 0.608761 0
    outer loop
      vertex -13.7095 122.257 2.6
      vertex -13.4195 122.635 0
      vertex -13.7095 122.257 0
    endloop
  endfacet
  facet normal -0.608761 0.793354 0
    outer loop
      vertex -13.7095 122.257 2.6
      vertex -13.7095 122.257 0
      vertex -14.0875 121.967 2.6
    endloop
  endfacet
  facet normal -0.608761 0.793354 0
    outer loop
      vertex -14.0875 121.967 2.6
      vertex -13.7095 122.257 0
      vertex -14.0875 121.967 0
    endloop
  endfacet
  facet normal -0.382685 0.923879 0
    outer loop
      vertex -14.0875 121.967 2.6
      vertex -14.0875 121.967 0
      vertex -14.5277 121.785 2.6
    endloop
  endfacet
  facet normal -0.382685 0.923879 0
    outer loop
      vertex -14.5277 121.785 2.6
      vertex -14.0875 121.967 0
      vertex -14.5277 121.785 0
    endloop
  endfacet
  facet normal -0.130525 0.991445 0
    outer loop
      vertex -14.5277 121.785 2.6
      vertex -14.5277 121.785 0
      vertex -15 121.722 2.6
    endloop
  endfacet
  facet normal -0.130525 0.991445 0
    outer loop
      vertex -15 121.722 2.6
      vertex -14.5277 121.785 0
      vertex -15 121.722 0
    endloop
  endfacet
  facet normal 0.130525 0.991445 0
    outer loop
      vertex -15 121.722 2.6
      vertex -15 121.722 0
      vertex -15.4723 121.785 2.6
    endloop
  endfacet
  facet normal 0.130525 0.991445 0
    outer loop
      vertex -15.4723 121.785 2.6
      vertex -15 121.722 0
      vertex -15.4723 121.785 0
    endloop
  endfacet
  facet normal 0.382685 0.923879 0
    outer loop
      vertex -15.4723 121.785 2.6
      vertex -15.4723 121.785 0
      vertex -15.9125 121.967 2.6
    endloop
  endfacet
  facet normal 0.382685 0.923879 0
    outer loop
      vertex -15.9125 121.967 2.6
      vertex -15.4723 121.785 0
      vertex -15.9125 121.967 0
    endloop
  endfacet
  facet normal 0.608761 0.793354 0
    outer loop
      vertex -15.9125 121.967 2.6
      vertex -15.9125 121.967 0
      vertex -16.2905 122.257 2.6
    endloop
  endfacet
  facet normal 0.608761 0.793354 0
    outer loop
      vertex -16.2905 122.257 2.6
      vertex -15.9125 121.967 0
      vertex -16.2905 122.257 0
    endloop
  endfacet
  facet normal 0.793354 0.608761 0
    outer loop
      vertex -16.5805 122.635 2.6
      vertex -16.2905 122.257 2.6
      vertex -16.2905 122.257 0
    endloop
  endfacet
  facet normal 0.793354 0.608761 0
    outer loop
      vertex -16.5805 122.635 0
      vertex -16.5805 122.635 2.6
      vertex -16.2905 122.257 0
    endloop
  endfacet
  facet normal 0.923879 0.382685 0
    outer loop
      vertex -16.7628 123.075 2.6
      vertex -16.5805 122.635 2.6
      vertex -16.5805 122.635 0
    endloop
  endfacet
  facet normal 0.923879 0.382685 0
    outer loop
      vertex -16.7628 123.075 0
      vertex -16.7628 123.075 2.6
      vertex -16.5805 122.635 0
    endloop
  endfacet
  facet normal 0.991445 -0.130525 0
    outer loop
      vertex 13.2372 124.02 0
      vertex 13.2372 124.02 2.6
      vertex 13.175 123.547 2.6
    endloop
  endfacet
  facet normal 0.991445 -0.130525 0
    outer loop
      vertex 13.175 123.547 0
      vertex 13.2372 124.02 0
      vertex 13.175 123.547 2.6
    endloop
  endfacet
  facet normal 0.991445 0.130525 0
    outer loop
      vertex 13.175 123.547 2.6
      vertex 13.2372 123.075 2.6
      vertex 13.2372 123.075 0
    endloop
  endfacet
  facet normal 0.991445 0.130525 0
    outer loop
      vertex 13.175 123.547 0
      vertex 13.175 123.547 2.6
      vertex 13.2372 123.075 0
    endloop
  endfacet
  facet normal 0.923879 -0.382685 0
    outer loop
      vertex 13.4195 124.46 0
      vertex 13.4195 124.46 2.6
      vertex 13.2372 124.02 2.6
    endloop
  endfacet
  facet normal 0.923879 -0.382685 0
    outer loop
      vertex 13.2372 124.02 0
      vertex 13.4195 124.46 0
      vertex 13.2372 124.02 2.6
    endloop
  endfacet
  facet normal 0.793354 -0.608761 0
    outer loop
      vertex 13.7095 124.838 0
      vertex 13.7095 124.838 2.6
      vertex 13.4195 124.46 2.6
    endloop
  endfacet
  facet normal 0.793354 -0.608761 0
    outer loop
      vertex 13.4195 124.46 0
      vertex 13.7095 124.838 0
      vertex 13.4195 124.46 2.6
    endloop
  endfacet
  facet normal 0.608761 -0.793354 0
    outer loop
      vertex 14.0875 125.128 0
      vertex 14.0875 125.128 2.6
      vertex 13.7095 124.838 2.6
    endloop
  endfacet
  facet normal 0.608761 -0.793354 0
    outer loop
      vertex 13.7095 124.838 0
      vertex 14.0875 125.128 0
      vertex 13.7095 124.838 2.6
    endloop
  endfacet
  facet normal 0.382685 -0.923879 0
    outer loop
      vertex 14.5277 125.31 0
      vertex 14.5277 125.31 2.6
      vertex 14.0875 125.128 2.6
    endloop
  endfacet
  facet normal 0.382685 -0.923879 0
    outer loop
      vertex 14.0875 125.128 0
      vertex 14.5277 125.31 0
      vertex 14.0875 125.128 2.6
    endloop
  endfacet
  facet normal 0.130525 -0.991445 0
    outer loop
      vertex 15 125.372 0
      vertex 15 125.372 2.6
      vertex 14.5277 125.31 2.6
    endloop
  endfacet
  facet normal 0.130525 -0.991445 0
    outer loop
      vertex 14.5277 125.31 0
      vertex 15 125.372 0
      vertex 14.5277 125.31 2.6
    endloop
  endfacet
  facet normal -0.130525 -0.991445 0
    outer loop
      vertex 15.4723 125.31 0
      vertex 15.4723 125.31 2.6
      vertex 15 125.372 2.6
    endloop
  endfacet
  facet normal -0.130525 -0.991445 0
    outer loop
      vertex 15 125.372 0
      vertex 15.4723 125.31 0
      vertex 15 125.372 2.6
    endloop
  endfacet
  facet normal -0.382685 -0.923879 0
    outer loop
      vertex 15.9125 125.128 0
      vertex 15.9125 125.128 2.6
      vertex 15.4723 125.31 2.6
    endloop
  endfacet
  facet normal -0.382685 -0.923879 0
    outer loop
      vertex 15.4723 125.31 0
      vertex 15.9125 125.128 0
      vertex 15.4723 125.31 2.6
    endloop
  endfacet
  facet normal -0.608761 -0.793354 0
    outer loop
      vertex 16.2905 124.838 0
      vertex 16.2905 124.838 2.6
      vertex 15.9125 125.128 2.6
    endloop
  endfacet
  facet normal -0.608761 -0.793354 0
    outer loop
      vertex 15.9125 125.128 0
      vertex 16.2905 124.838 0
      vertex 15.9125 125.128 2.6
    endloop
  endfacet
  facet normal -0.793354 -0.608761 0
    outer loop
      vertex 16.5805 124.46 2.6
      vertex 16.2905 124.838 2.6
      vertex 16.5805 124.46 0
    endloop
  endfacet
  facet normal -0.793354 -0.608761 0
    outer loop
      vertex 16.5805 124.46 0
      vertex 16.2905 124.838 2.6
      vertex 16.2905 124.838 0
    endloop
  endfacet
  facet normal -0.923879 -0.382685 0
    outer loop
      vertex 16.7628 124.02 2.6
      vertex 16.5805 124.46 2.6
      vertex 16.7628 124.02 0
    endloop
  endfacet
  facet normal -0.923879 -0.382685 0
    outer loop
      vertex 16.7628 124.02 0
      vertex 16.5805 124.46 2.6
      vertex 16.5805 124.46 0
    endloop
  endfacet
  facet normal -0.991445 -0.130525 0
    outer loop
      vertex 16.825 123.547 2.6
      vertex 16.7628 124.02 2.6
      vertex 16.825 123.547 0
    endloop
  endfacet
  facet normal -0.991445 -0.130525 0
    outer loop
      vertex 16.825 123.547 0
      vertex 16.7628 124.02 2.6
      vertex 16.7628 124.02 0
    endloop
  endfacet
  facet normal -0.991445 0.130525 0
    outer loop
      vertex 16.825 123.547 2.6
      vertex 16.825 123.547 0
      vertex 16.7628 123.075 2.6
    endloop
  endfacet
  facet normal -0.991445 0.130525 0
    outer loop
      vertex 16.7628 123.075 2.6
      vertex 16.825 123.547 0
      vertex 16.7628 123.075 0
    endloop
  endfacet
  facet normal -0.923879 0.382685 0
    outer loop
      vertex 16.7628 123.075 2.6
      vertex 16.7628 123.075 0
      vertex 16.5805 122.635 2.6
    endloop
  endfacet
  facet normal -0.923879 0.382685 0
    outer loop
      vertex 16.5805 122.635 2.6
      vertex 16.7628 123.075 0
      vertex 16.5805 122.635 0
    endloop
  endfacet
  facet normal -0.793354 0.608761 0
    outer loop
      vertex 16.5805 122.635 2.6
      vertex 16.5805 122.635 0
      vertex 16.2905 122.257 2.6
    endloop
  endfacet
  facet normal -0.793354 0.608761 0
    outer loop
      vertex 16.2905 122.257 2.6
      vertex 16.5805 122.635 0
      vertex 16.2905 122.257 0
    endloop
  endfacet
  facet normal -0.608761 0.793354 0
    outer loop
      vertex 16.2905 122.257 2.6
      vertex 16.2905 122.257 0
      vertex 15.9125 121.967 2.6
    endloop
  endfacet
  facet normal -0.608761 0.793354 0
    outer loop
      vertex 15.9125 121.967 2.6
      vertex 16.2905 122.257 0
      vertex 15.9125 121.967 0
    endloop
  endfacet
  facet normal -0.382685 0.923879 0
    outer loop
      vertex 15.9125 121.967 2.6
      vertex 15.9125 121.967 0
      vertex 15.4723 121.785 2.6
    endloop
  endfacet
  facet normal -0.382685 0.923879 0
    outer loop
      vertex 15.4723 121.785 2.6
      vertex 15.9125 121.967 0
      vertex 15.4723 121.785 0
    endloop
  endfacet
  facet normal -0.130525 0.991445 0
    outer loop
      vertex 15.4723 121.785 2.6
      vertex 15.4723 121.785 0
      vertex 15 121.722 2.6
    endloop
  endfacet
  facet normal -0.130525 0.991445 0
    outer loop
      vertex 15 121.722 2.6
      vertex 15.4723 121.785 0
      vertex 15 121.722 0
    endloop
  endfacet
  facet normal 0.130525 0.991445 0
    outer loop
      vertex 15 121.722 2.6
      vertex 15 121.722 0
      vertex 14.5277 121.785 2.6
    endloop
  endfacet
  facet normal 0.130525 0.991445 0
    outer loop
      vertex 14.5277 121.785 2.6
      vertex 15 121.722 0
      vertex 14.5277 121.785 0
    endloop
  endfacet
  facet normal 0.382685 0.923879 0
    outer loop
      vertex 14.5277 121.785 2.6
      vertex 14.5277 121.785 0
      vertex 14.0875 121.967 2.6
    endloop
  endfacet
  facet normal 0.382685 0.923879 0
    outer loop
      vertex 14.0875 121.967 2.6
      vertex 14.5277 121.785 0
      vertex 14.0875 121.967 0
    endloop
  endfacet
  facet normal 0.608761 0.793354 0
    outer loop
      vertex 14.0875 121.967 2.6
      vertex 14.0875 121.967 0
      vertex 13.7095 122.257 2.6
    endloop
  endfacet
  facet normal 0.608761 0.793354 0
    outer loop
      vertex 13.7095 122.257 2.6
      vertex 14.0875 121.967 0
      vertex 13.7095 122.257 0
    endloop
  endfacet
  facet normal 0.793354 0.608761 0
    outer loop
      vertex 13.4195 122.635 2.6
      vertex 13.7095 122.257 2.6
      vertex 13.7095 122.257 0
    endloop
  endfacet
  facet normal 0.793354 0.608761 0
    outer loop
      vertex 13.4195 122.635 0
      vertex 13.4195 122.635 2.6
      vertex 13.7095 122.257 0
    endloop
  endfacet
  facet normal 0.923879 0.382685 0
    outer loop
      vertex 13.2372 123.075 2.6
      vertex 13.4195 122.635 2.6
      vertex 13.4195 122.635 0
    endloop
  endfacet
  facet normal 0.923879 0.382685 0
    outer loop
      vertex 13.2372 123.075 0
      vertex 13.2372 123.075 2.6
      vertex 13.4195 122.635 0
    endloop
  endfacet
  facet normal -0.169349 -0.985556 0
    outer loop
      vertex 21 125.242 2.6
      vertex 21 125.242 4.6
      vertex 19.8672 125.436 4.6
    endloop
  endfacet
  facet normal -0.169349 -0.985556 0
    outer loop
      vertex 19.8672 125.436 2.6
      vertex 21 125.242 2.6
      vertex 19.8672 125.436 4.6
    endloop
  endfacet
  facet normal -0.143493 -0.989651 0
    outer loop
      vertex 19.8672 125.436 2.6
      vertex 19.8672 125.436 4.6
      vertex 16.5768 125.913 4.6
    endloop
  endfacet
  facet normal -0.143493 -0.989651 0
    outer loop
      vertex 16.5768 125.913 2.6
      vertex 19.8672 125.436 2.6
      vertex 16.5768 125.913 4.6
    endloop
  endfacet
  facet normal -0.117538 -0.993068 0
    outer loop
      vertex 16.5768 125.913 2.6
      vertex 16.5768 125.913 4.6
      vertex 13.2751 126.304 4.6
    endloop
  endfacet
  facet normal -0.117538 -0.993068 0
    outer loop
      vertex 13.2751 126.304 2.6
      vertex 16.5768 125.913 2.6
      vertex 13.2751 126.304 4.6
    endloop
  endfacet
  facet normal -0.0915014 -0.995805 0
    outer loop
      vertex 13.2751 126.304 2.6
      vertex 13.2751 126.304 4.6
      vertex 9.9643 126.609 4.6
    endloop
  endfacet
  facet normal -0.0915014 -0.995805 0
    outer loop
      vertex 9.9643 126.609 2.6
      vertex 13.2751 126.304 2.6
      vertex 9.9643 126.609 4.6
    endloop
  endfacet
  facet normal -0.0654033 -0.997859 0
    outer loop
      vertex 9.9643 126.609 2.6
      vertex 9.9643 126.609 4.6
      vertex 6.64667 126.826 4.6
    endloop
  endfacet
  facet normal -0.0654033 -0.997859 0
    outer loop
      vertex 6.64667 126.826 2.6
      vertex 9.9643 126.609 2.6
      vertex 6.64667 126.826 4.6
    endloop
  endfacet
  facet normal -0.0392597 -0.999229 0
    outer loop
      vertex 6.64667 126.826 2.6
      vertex 6.64667 126.826 4.6
      vertex 3.32447 126.956 4.6
    endloop
  endfacet
  facet normal -0.0392597 -0.999229 0
    outer loop
      vertex 3.32447 126.956 2.6
      vertex 6.64667 126.826 2.6
      vertex 3.32447 126.956 4.6
    endloop
  endfacet
  facet normal -0.0130897 -0.999914 0
    outer loop
      vertex 3.32447 126.956 2.6
      vertex 3.32447 126.956 4.6
      vertex 0 127 4.6
    endloop
  endfacet
  facet normal -0.0130897 -0.999914 0
    outer loop
      vertex 0 127 2.6
      vertex 3.32447 126.956 2.6
      vertex 0 127 4.6
    endloop
  endfacet
  facet normal 0.0130897 -0.999914 0
    outer loop
      vertex 0 127 2.6
      vertex 0 127 4.6
      vertex -3.32447 126.956 4.6
    endloop
  endfacet
  facet normal 0.0130897 -0.999914 0
    outer loop
      vertex -3.32447 126.956 2.6
      vertex 0 127 2.6
      vertex -3.32447 126.956 4.6
    endloop
  endfacet
  facet normal 0.0392597 -0.999229 0
    outer loop
      vertex -3.32447 126.956 2.6
      vertex -3.32447 126.956 4.6
      vertex -6.64667 126.826 4.6
    endloop
  endfacet
  facet normal 0.0392597 -0.999229 0
    outer loop
      vertex -6.64667 126.826 2.6
      vertex -3.32447 126.956 2.6
      vertex -6.64667 126.826 4.6
    endloop
  endfacet
  facet normal 0.0654033 -0.997859 0
    outer loop
      vertex -6.64667 126.826 2.6
      vertex -6.64667 126.826 4.6
      vertex -9.9643 126.609 4.6
    endloop
  endfacet
  facet normal 0.0654033 -0.997859 0
    outer loop
      vertex -9.9643 126.609 2.6
      vertex -6.64667 126.826 2.6
      vertex -9.9643 126.609 4.6
    endloop
  endfacet
  facet normal 0.0915014 -0.995805 0
    outer loop
      vertex -9.9643 126.609 2.6
      vertex -9.9643 126.609 4.6
      vertex -13.2751 126.304 4.6
    endloop
  endfacet
  facet normal 0.0915014 -0.995805 0
    outer loop
      vertex -13.2751 126.304 2.6
      vertex -9.9643 126.609 2.6
      vertex -13.2751 126.304 4.6
    endloop
  endfacet
  facet normal 0.117538 -0.993068 0
    outer loop
      vertex -13.2751 126.304 2.6
      vertex -13.2751 126.304 4.6
      vertex -16.5768 125.913 4.6
    endloop
  endfacet
  facet normal 0.117538 -0.993068 0
    outer loop
      vertex -16.5768 125.913 2.6
      vertex -13.2751 126.304 2.6
      vertex -16.5768 125.913 4.6
    endloop
  endfacet
  facet normal 0.143493 -0.989651 0
    outer loop
      vertex -16.5768 125.913 2.6
      vertex -16.5768 125.913 4.6
      vertex -19.8672 125.436 4.6
    endloop
  endfacet
  facet normal 0.143493 -0.989651 0
    outer loop
      vertex -19.8672 125.436 2.6
      vertex -16.5768 125.913 2.6
      vertex -19.8672 125.436 4.6
    endloop
  endfacet
endsolid OpenSCAD_Model
