solid Probe-retractor-HB-V2
facet normal 0.0 0.0 -1.0
  outer loop
    vertex -1.9411428382689049 7.244443697168013 0.0
    vertex -1.738666487320323 0.4658742811845366 0.0
    vertex -1.7999999999999998 -2.2043642384652356e-16 0.0
  endloop
endfacet
facet normal 0.0 0.0 -1.0
  outer loop
    vertex -1.738666487320323 0.4658742811845366 0.0
    vertex -1.9411428382689049 7.244443697168013 0.0
    vertex 4.592425496802575e-16 7.5 0.0
  endloop
endfacet
facet normal 0.0 0.0 -1.0
  outer loop
    vertex -1.738666487320323 0.4658742811845366 0.0
    vertex 4.592425496802575e-16 7.5 0.0
    vertex -1.5588457268119897 0.8999999999999994 0.0
  endloop
endfacet
facet normal 0.0 0.0 -1.0
  outer loop
    vertex -1.5588457268119897 0.8999999999999994 0.0
    vertex 4.592425496802575e-16 7.5 0.0
    vertex -1.2727922061357861 1.2727922061357848 0.0
  endloop
endfacet
facet normal 0.0 0.0 -1.0
  outer loop
    vertex -1.2727922061357861 1.2727922061357848 0.0
    vertex 4.592425496802575e-16 7.5 0.0
    vertex -0.9000000000000008 1.5588457268119889 0.0
  endloop
endfacet
facet normal 0.0 0.0 -1.0
  outer loop
    vertex -0.9000000000000008 1.5588457268119889 0.0
    vertex 4.592425496802575e-16 7.5 0.0
    vertex -0.4658742811845387 1.7386664873203226 0.0
  endloop
endfacet
facet normal 0.0 0.0 -1.0
  outer loop
    vertex -0.4658742811845387 1.7386664873203226 0.0
    vertex 4.592425496802575e-16 7.5 0.0
    vertex -3.306546357697853e-16 1.7999999999999998 0.0
  endloop
endfacet
facet normal 0.0 0.0 -1.0
  outer loop
    vertex -3.306546357697853e-16 1.7999999999999998 0.0
    vertex 4.592425496802575e-16 7.5 0.0
    vertex 0.4658742811845365 1.738666487320323 0.0
  endloop
endfacet
facet normal 0.0 0.0 -1.0
  outer loop
    vertex 0.4658742811845365 1.738666487320323 0.0
    vertex 4.592425496802575e-16 7.5 0.0
    vertex 1.9411428382689073 7.244443697168013 0.0
  endloop
endfacet
facet normal 0.0 0.0 -1.0
  outer loop
    vertex 0.4658742811845365 1.738666487320323 0.0
    vertex 1.9411428382689073 7.244443697168013 0.0
    vertex 0.8999999999999987 1.5588457268119902 0.0
  endloop
endfacet
facet normal 0.0 0.0 -1.0
  outer loop
    vertex 0.8999999999999987 1.5588457268119902 0.0
    vertex 1.9411428382689073 7.244443697168013 0.0
    vertex 1.272792206135785 1.2727922061357857 0.0
  endloop
endfacet
facet normal 0.0 0.0 -1.0
  outer loop
    vertex 1.272792206135785 1.2727922061357857 0.0
    vertex 1.9411428382689073 7.244443697168013 0.0
    vertex 1.5588457268119889 0.9000000000000008 0.0
  endloop
endfacet
facet normal 0.0 0.0 -1.0
  outer loop
    vertex 1.5588457268119889 0.9000000000000008 0.0
    vertex 1.9411428382689073 7.244443697168013 0.0
    vertex 1.7386664873203226 0.46587428118453883 0.0
  endloop
endfacet
facet normal 0.0 0.0 -1.0
  outer loop
    vertex 1.7386664873203226 0.46587428118453883 0.0
    vertex 1.9411428382689073 7.244443697168013 0.0
    vertex 1.7999999999999998 0.0 0.0
  endloop
endfacet
facet normal 0.0 0.0 -1.0
  outer loop
    vertex 1.7999999999999998 0.0 0.0
    vertex 1.9411428382689073 7.244443697168013 0.0
    vertex 1.9411428382689024 -7.2444436971680135 0.0
  endloop
endfacet
facet normal 0.0 0.0 -1.0
  outer loop
    vertex 1.9411428382689024 -7.2444436971680135 0.0
    vertex 1.9411428382689073 7.244443697168013 0.0
    vertex 3.749999999999995 -6.495190528383294 0.0
  endloop
endfacet
facet normal 0.0 0.0 -1.0
  outer loop
    vertex 3.749999999999995 -6.495190528383294 0.0
    vertex 1.9411428382689073 7.244443697168013 0.0
    vertex 3.750000000000001 6.495190528383289 0.0
  endloop
endfacet
facet normal 0.0 0.0 -1.0
  outer loop
    vertex 3.749999999999995 -6.495190528383294 0.0
    vertex 3.750000000000001 6.495190528383289 0.0
    vertex 5.303300858899106 -5.3033008588991075 0.0
  endloop
endfacet
facet normal 0.0 0.0 -1.0
  outer loop
    vertex 5.303300858899106 -5.3033008588991075 0.0
    vertex 3.750000000000001 6.495190528383289 0.0
    vertex 5.303300858899107 5.303300858899107 0.0
  endloop
endfacet
facet normal 0.0 0.0 -1.0
  outer loop
    vertex 5.303300858899106 -5.3033008588991075 0.0
    vertex 5.303300858899107 5.303300858899107 0.0
    vertex 6.495190528383288 -3.7500000000000036 0.0
  endloop
endfacet
facet normal 0.0 0.0 -1.0
  outer loop
    vertex 6.495190528383288 -3.7500000000000036 0.0
    vertex 5.303300858899107 5.303300858899107 0.0
    vertex 6.495190528383291 3.7499999999999996 0.0
  endloop
endfacet
facet normal 0.0 0.0 -1.0
  outer loop
    vertex 6.495190528383288 -3.7500000000000036 0.0
    vertex 6.495190528383291 3.7499999999999996 0.0
    vertex 7.244443697168011 -1.941142838268912 0.0
  endloop
endfacet
facet normal 0.0 0.0 -1.0
  outer loop
    vertex 7.244443697168011 -1.941142838268912 0.0
    vertex 6.495190528383291 3.7499999999999996 0.0
    vertex 7.244443697168013 1.9411428382689055 0.0
  endloop
endfacet
facet normal 0.0 0.0 -1.0
  outer loop
    vertex 7.244443697168011 -1.941142838268912 0.0
    vertex 7.244443697168013 1.9411428382689055 0.0
    vertex 7.5 0.0 0.0
  endloop
endfacet
facet normal 0.0 0.0 -1.0
  outer loop
    vertex -7.244443697168013 1.9411428382689078 0.0
    vertex -7.2444436971680135 -1.9411428382689029 0.0
    vertex -7.5 9.18485099360515e-16 0.0
  endloop
endfacet
facet normal 0.0 0.0 -1.0
  outer loop
    vertex -7.2444436971680135 -1.9411428382689029 0.0
    vertex -7.244443697168013 1.9411428382689078 0.0
    vertex -6.495190528383291 -3.7499999999999982 0.0
  endloop
endfacet
facet normal 0.0 0.0 -1.0
  outer loop
    vertex -6.495190528383291 -3.7499999999999982 0.0
    vertex -7.244443697168013 1.9411428382689078 0.0
    vertex -6.495190528383289 3.750000000000003 0.0
  endloop
endfacet
facet normal 0.0 0.0 -1.0
  outer loop
    vertex -6.495190528383291 -3.7499999999999982 0.0
    vertex -6.495190528383289 3.750000000000003 0.0
    vertex -5.30330085889911 -5.303300858899103 0.0
  endloop
endfacet
facet normal 0.0 0.0 -1.0
  outer loop
    vertex -5.30330085889911 -5.303300858899103 0.0
    vertex -6.495190528383289 3.750000000000003 0.0
    vertex -5.303300858899107 5.303300858899107 0.0
  endloop
endfacet
facet normal 0.0 0.0 -1.0
  outer loop
    vertex -5.30330085889911 -5.303300858899103 0.0
    vertex -5.303300858899107 5.303300858899107 0.0
    vertex -3.7500000000000036 -6.495190528383288 0.0
  endloop
endfacet
facet normal 0.0 0.0 -1.0
  outer loop
    vertex -3.7500000000000036 -6.495190528383288 0.0
    vertex -5.303300858899107 5.303300858899107 0.0
    vertex -3.7499999999999987 6.495190528383291 0.0
  endloop
endfacet
facet normal 0.0 0.0 -1.0
  outer loop
    vertex -3.7500000000000036 -6.495190528383288 0.0
    vertex -3.7499999999999987 6.495190528383291 0.0
    vertex -1.9411428382689115 -7.244443697168011 0.0
  endloop
endfacet
facet normal 0.0 0.0 -1.0
  outer loop
    vertex -1.9411428382689115 -7.244443697168011 0.0
    vertex -3.7499999999999987 6.495190528383291 0.0
    vertex -1.9411428382689049 7.244443697168013 0.0
  endloop
endfacet
facet normal 0.0 0.0 -1.0
  outer loop
    vertex -1.9411428382689115 -7.244443697168011 0.0
    vertex -1.9411428382689049 7.244443697168013 0.0
    vertex -1.7999999999999998 -2.2043642384652356e-16 0.0
  endloop
endfacet
facet normal 0.0 0.0 -1.0
  outer loop
    vertex -1.9411428382689115 -7.244443697168011 0.0
    vertex -1.7999999999999998 -2.2043642384652356e-16 0.0
    vertex -1.7386664873203226 -0.4658742811845378 0.0
  endloop
endfacet
facet normal 0.0 0.0 -1.0
  outer loop
    vertex -1.9411428382689115 -7.244443697168011 0.0
    vertex -1.7386664873203226 -0.4658742811845378 0.0
    vertex -1.3777276490407724e-15 -7.5 0.0
  endloop
endfacet
facet normal 0.0 0.0 -1.0
  outer loop
    vertex -1.3777276490407724e-15 -7.5 0.0
    vertex -1.7386664873203226 -0.4658742811845378 0.0
    vertex -1.5588457268119893 -0.9000000000000005 0.0
  endloop
endfacet
facet normal 0.0 0.0 -1.0
  outer loop
    vertex -1.3777276490407724e-15 -7.5 0.0
    vertex -1.5588457268119893 -0.9000000000000005 0.0
    vertex -1.2727922061357853 -1.2727922061357857 0.0
  endloop
endfacet
facet normal 0.0 0.0 -1.0
  outer loop
    vertex -1.3777276490407724e-15 -7.5 0.0
    vertex -1.2727922061357853 -1.2727922061357857 0.0
    vertex -0.8999999999999996 -1.5588457268119895 0.0
  endloop
endfacet
facet normal 0.0 0.0 -1.0
  outer loop
    vertex -1.3777276490407724e-15 -7.5 0.0
    vertex -0.8999999999999996 -1.5588457268119895 0.0
    vertex -0.46587428118453716 -1.738666487320323 0.0
  endloop
endfacet
facet normal 0.0 0.0 -1.0
  outer loop
    vertex -1.3777276490407724e-15 -7.5 0.0
    vertex -0.46587428118453716 -1.738666487320323 0.0
    vertex 1.1021821192326178e-16 -1.7999999999999998 0.0
  endloop
endfacet
facet normal 0.0 0.0 -1.0
  outer loop
    vertex -1.3777276490407724e-15 -7.5 0.0
    vertex 1.1021821192326178e-16 -1.7999999999999998 0.0
    vertex 1.9411428382689024 -7.2444436971680135 0.0
  endloop
endfacet
facet normal 0.0 0.0 -1.0
  outer loop
    vertex 1.9411428382689024 -7.2444436971680135 0.0
    vertex 1.1021821192326178e-16 -1.7999999999999998 0.0
    vertex 0.46587428118453766 -1.7386664873203226 0.0
  endloop
endfacet
facet normal 0.0 0.0 -1.0
  outer loop
    vertex 1.9411428382689024 -7.2444436971680135 0.0
    vertex 0.46587428118453766 -1.7386664873203226 0.0
    vertex 0.9000000000000001 -1.5588457268119895 0.0
  endloop
endfacet
facet normal 0.0 0.0 -1.0
  outer loop
    vertex 1.9411428382689024 -7.2444436971680135 0.0
    vertex 0.9000000000000001 -1.5588457268119895 0.0
    vertex 1.2727922061357857 -1.2727922061357853 0.0
  endloop
endfacet
facet normal 0.0 0.0 -1.0
  outer loop
    vertex 1.9411428382689024 -7.2444436971680135 0.0
    vertex 1.2727922061357857 -1.2727922061357853 0.0
    vertex 1.5588457268119895 -0.8999999999999998 0.0
  endloop
endfacet
facet normal 0.0 0.0 -1.0
  outer loop
    vertex 1.9411428382689024 -7.2444436971680135 0.0
    vertex 1.5588457268119895 -0.8999999999999998 0.0
    vertex 1.738666487320323 -0.46587428118453733 0.0
  endloop
endfacet
facet normal 0.0 0.0 -1.0
  outer loop
    vertex 1.9411428382689024 -7.2444436971680135 0.0
    vertex 1.738666487320323 -0.46587428118453733 0.0
    vertex 1.7999999999999998 0.0 0.0
  endloop
endfacet
facet normal 0.0 0.0 1.0
  outer loop
    vertex -7.2444436971680135 -1.9411428382689029 29.000000000000004
    vertex -7.244443697168013 1.9411428382689078 29.000000000000004
    vertex -7.5 9.18485099360515e-16 29.000000000000004
  endloop
endfacet
facet normal 0.0 0.0 1.0
  outer loop
    vertex -7.244443697168013 1.9411428382689078 29.000000000000004
    vertex -7.2444436971680135 -1.9411428382689029 29.000000000000004
    vertex -6.495190528383291 -3.7499999999999982 29.000000000000004
  endloop
endfacet
facet normal 0.0 0.0 1.0
  outer loop
    vertex -7.244443697168013 1.9411428382689078 29.000000000000004
    vertex -6.495190528383291 -3.7499999999999982 29.000000000000004
    vertex -6.495190528383289 3.750000000000003 29.000000000000004
  endloop
endfacet
facet normal 0.0 0.0 1.0
  outer loop
    vertex -6.495190528383289 3.750000000000003 29.000000000000004
    vertex -6.495190528383291 -3.7499999999999982 29.000000000000004
    vertex -5.30330085889911 -5.303300858899103 29.000000000000004
  endloop
endfacet
facet normal 0.0 0.0 1.0
  outer loop
    vertex -6.495190528383289 3.750000000000003 29.000000000000004
    vertex -5.30330085889911 -5.303300858899103 29.000000000000004
    vertex -5.303300858899107 5.303300858899107 29.000000000000004
  endloop
endfacet
facet normal 0.0 0.0 1.0
  outer loop
    vertex -5.303300858899107 5.303300858899107 29.000000000000004
    vertex -5.30330085889911 -5.303300858899103 29.000000000000004
    vertex -3.7500000000000036 -6.495190528383288 29.000000000000004
  endloop
endfacet
facet normal 0.0 0.0 1.0
  outer loop
    vertex -5.303300858899107 5.303300858899107 29.000000000000004
    vertex -3.7500000000000036 -6.495190528383288 29.000000000000004
    vertex -3.7499999999999987 6.495190528383291 29.000000000000004
  endloop
endfacet
facet normal 0.0 0.0 1.0
  outer loop
    vertex -3.7499999999999987 6.495190528383291 29.000000000000004
    vertex -3.7500000000000036 -6.495190528383288 29.000000000000004
    vertex -3.2000000000000006 -5.878304635907295e-16 29.000000000000004
  endloop
endfacet
facet normal 0.0 0.0 1.0
  outer loop
    vertex -3.2000000000000006 -5.878304635907295e-16 29.000000000000004
    vertex -3.7500000000000036 -6.495190528383288 29.000000000000004
    vertex -3.0909626441250184 -0.8282209443280689 29.000000000000004
  endloop
endfacet
facet normal 0.0 0.0 1.0
  outer loop
    vertex -3.0909626441250184 -0.8282209443280689 29.000000000000004
    vertex -3.7500000000000036 -6.495190528383288 29.000000000000004
    vertex -1.9411428382689115 -7.244443697168011 29.000000000000004
  endloop
endfacet
facet normal 0.0 0.0 1.0
  outer loop
    vertex -3.0909626441250184 -0.8282209443280689 29.000000000000004
    vertex -1.9411428382689115 -7.244443697168011 29.000000000000004
    vertex -2.7712812921102032 -1.6000000000000016 29.000000000000004
  endloop
endfacet
facet normal 0.0 0.0 1.0
  outer loop
    vertex -2.7712812921102032 -1.6000000000000016 29.000000000000004
    vertex -1.9411428382689115 -7.244443697168011 29.000000000000004
    vertex -2.262741699796951 -2.262741699796954 29.000000000000004
  endloop
endfacet
facet normal 0.0 0.0 1.0
  outer loop
    vertex -2.262741699796951 -2.262741699796954 29.000000000000004
    vertex -1.9411428382689115 -7.244443697168011 29.000000000000004
    vertex -1.5999999999999992 -2.7712812921102046 29.000000000000004
  endloop
endfacet
facet normal 0.0 0.0 1.0
  outer loop
    vertex -1.5999999999999992 -2.7712812921102046 29.000000000000004
    vertex -1.9411428382689115 -7.244443697168011 29.000000000000004
    vertex -1.3777276490407724e-15 -7.5 29.000000000000004
  endloop
endfacet
facet normal 0.0 0.0 1.0
  outer loop
    vertex -1.5999999999999992 -2.7712812921102046 29.000000000000004
    vertex -1.3777276490407724e-15 -7.5 29.000000000000004
    vertex -0.8282209443280653 -3.0909626441250193 29.000000000000004
  endloop
endfacet
facet normal 0.0 0.0 1.0
  outer loop
    vertex -0.8282209443280653 -3.0909626441250193 29.000000000000004
    vertex -1.3777276490407724e-15 -7.5 29.000000000000004
    vertex 3.918869757271531e-16 -3.2000000000000006 29.000000000000004
  endloop
endfacet
facet normal 0.0 0.0 1.0
  outer loop
    vertex 3.918869757271531e-16 -3.2000000000000006 29.000000000000004
    vertex -1.3777276490407724e-15 -7.5 29.000000000000004
    vertex 1.9411428382689024 -7.2444436971680135 29.000000000000004
  endloop
endfacet
facet normal 0.0 0.0 1.0
  outer loop
    vertex 3.918869757271531e-16 -3.2000000000000006 29.000000000000004
    vertex 1.9411428382689024 -7.2444436971680135 29.000000000000004
    vertex 0.8282209443280674 -3.090962644125019 29.000000000000004
  endloop
endfacet
facet normal 0.0 0.0 1.0
  outer loop
    vertex 0.8282209443280674 -3.090962644125019 29.000000000000004
    vertex 1.9411428382689024 -7.2444436971680135 29.000000000000004
    vertex 1.6000000000000012 -2.7712812921102032 29.000000000000004
  endloop
endfacet
facet normal 0.0 0.0 1.0
  outer loop
    vertex 1.6000000000000012 -2.7712812921102032 29.000000000000004
    vertex 1.9411428382689024 -7.2444436971680135 29.000000000000004
    vertex 2.2627416997969525 -2.2627416997969525 29.000000000000004
  endloop
endfacet
facet normal 0.0 0.0 1.0
  outer loop
    vertex 2.2627416997969525 -2.2627416997969525 29.000000000000004
    vertex 1.9411428382689024 -7.2444436971680135 29.000000000000004
    vertex 3.749999999999995 -6.495190528383294 29.000000000000004
  endloop
endfacet
facet normal 0.0 0.0 1.0
  outer loop
    vertex 2.2627416997969525 -2.2627416997969525 29.000000000000004
    vertex 3.749999999999995 -6.495190528383294 29.000000000000004
    vertex 2.771281292110204 -1.5999999999999996 29.000000000000004
  endloop
endfacet
facet normal 0.0 0.0 1.0
  outer loop
    vertex 2.771281292110204 -1.5999999999999996 29.000000000000004
    vertex 3.749999999999995 -6.495190528383294 29.000000000000004
    vertex 3.090962644125019 -0.8282209443280661 29.000000000000004
  endloop
endfacet
facet normal 0.0 0.0 1.0
  outer loop
    vertex 3.090962644125019 -0.8282209443280661 29.000000000000004
    vertex 3.749999999999995 -6.495190528383294 29.000000000000004
    vertex 3.2000000000000006 1.9594348786357655e-16 29.000000000000004
  endloop
endfacet
facet normal 0.0 0.0 1.0
  outer loop
    vertex -3.7499999999999987 6.495190528383291 29.000000000000004
    vertex -3.0909626441250193 0.828220944328065 29.000000000000004
    vertex -1.9411428382689049 7.244443697168013 29.000000000000004
  endloop
endfacet
facet normal 0.0 0.0 1.0
  outer loop
    vertex -3.0909626441250193 0.828220944328065 29.000000000000004
    vertex -3.7499999999999987 6.495190528383291 29.000000000000004
    vertex -3.2000000000000006 -5.878304635907295e-16 29.000000000000004
  endloop
endfacet
facet normal 0.0 0.0 1.0
  outer loop
    vertex -1.9411428382689049 7.244443697168013 29.000000000000004
    vertex -3.0909626441250193 0.828220944328065 29.000000000000004
    vertex -2.771281292110205 1.599999999999998 29.000000000000004
  endloop
endfacet
facet normal 0.0 0.0 1.0
  outer loop
    vertex -1.9411428382689049 7.244443697168013 29.000000000000004
    vertex -2.771281292110205 1.599999999999998 29.000000000000004
    vertex -2.262741699796953 2.262741699796952 29.000000000000004
  endloop
endfacet
facet normal 0.0 0.0 1.0
  outer loop
    vertex -1.9411428382689049 7.244443697168013 29.000000000000004
    vertex -2.262741699796953 2.262741699796952 29.000000000000004
    vertex -1.6000000000000016 2.7712812921102032 29.000000000000004
  endloop
endfacet
facet normal 0.0 0.0 1.0
  outer loop
    vertex -1.9411428382689049 7.244443697168013 29.000000000000004
    vertex -1.6000000000000016 2.7712812921102032 29.000000000000004
    vertex 4.592425496802575e-16 7.5 29.000000000000004
  endloop
endfacet
facet normal 0.0 0.0 1.0
  outer loop
    vertex 4.592425496802575e-16 7.5 29.000000000000004
    vertex -1.6000000000000016 2.7712812921102032 29.000000000000004
    vertex -0.8282209443280691 3.0909626441250184 29.000000000000004
  endloop
endfacet
facet normal 0.0 0.0 1.0
  outer loop
    vertex 4.592425496802575e-16 7.5 29.000000000000004
    vertex -0.8282209443280691 3.0909626441250184 29.000000000000004
    vertex 0.0 3.2000000000000006 29.000000000000004
  endloop
endfacet
facet normal 0.0 0.0 1.0
  outer loop
    vertex 4.592425496802575e-16 7.5 29.000000000000004
    vertex 0.0 3.2000000000000006 29.000000000000004
    vertex 0.8282209443280665 3.090962644125019 29.000000000000004
  endloop
endfacet
facet normal 0.0 0.0 1.0
  outer loop
    vertex 4.592425496802575e-16 7.5 29.000000000000004
    vertex 0.8282209443280665 3.090962644125019 29.000000000000004
    vertex 1.9411428382689073 7.244443697168013 29.000000000000004
  endloop
endfacet
facet normal 0.0 0.0 1.0
  outer loop
    vertex 1.9411428382689073 7.244443697168013 29.000000000000004
    vertex 0.8282209443280665 3.090962644125019 29.000000000000004
    vertex 1.5999999999999999 2.771281292110204 29.000000000000004
  endloop
endfacet
facet normal 0.0 0.0 1.0
  outer loop
    vertex 1.9411428382689073 7.244443697168013 29.000000000000004
    vertex 1.5999999999999999 2.771281292110204 29.000000000000004
    vertex 2.2627416997969525 2.2627416997969525 29.000000000000004
  endloop
endfacet
facet normal 0.0 0.0 1.0
  outer loop
    vertex 1.9411428382689073 7.244443697168013 29.000000000000004
    vertex 2.2627416997969525 2.2627416997969525 29.000000000000004
    vertex 3.750000000000001 6.495190528383289 29.000000000000004
  endloop
endfacet
facet normal 0.0 0.0 1.0
  outer loop
    vertex 3.750000000000001 6.495190528383289 29.000000000000004
    vertex 2.2627416997969525 2.2627416997969525 29.000000000000004
    vertex 2.7712812921102037 1.6000000000000005 29.000000000000004
  endloop
endfacet
facet normal 0.0 0.0 1.0
  outer loop
    vertex 3.750000000000001 6.495190528383289 29.000000000000004
    vertex 2.7712812921102037 1.6000000000000005 29.000000000000004
    vertex 3.090962644125019 0.8282209443280671 29.000000000000004
  endloop
endfacet
facet normal 0.0 0.0 1.0
  outer loop
    vertex 3.750000000000001 6.495190528383289 29.000000000000004
    vertex 3.090962644125019 0.8282209443280671 29.000000000000004
    vertex 3.2000000000000006 1.9594348786357655e-16 29.000000000000004
  endloop
endfacet
facet normal 0.0 0.0 1.0
  outer loop
    vertex 3.750000000000001 6.495190528383289 29.000000000000004
    vertex 3.2000000000000006 1.9594348786357655e-16 29.000000000000004
    vertex 3.749999999999995 -6.495190528383294 29.000000000000004
  endloop
endfacet
facet normal 0.0 0.0 1.0
  outer loop
    vertex 3.750000000000001 6.495190528383289 29.000000000000004
    vertex 3.749999999999995 -6.495190528383294 29.000000000000004
    vertex 5.303300858899106 -5.3033008588991075 29.000000000000004
  endloop
endfacet
facet normal 0.0 0.0 1.0
  outer loop
    vertex 3.750000000000001 6.495190528383289 29.000000000000004
    vertex 5.303300858899106 -5.3033008588991075 29.000000000000004
    vertex 5.303300858899107 5.303300858899107 29.000000000000004
  endloop
endfacet
facet normal 0.0 0.0 1.0
  outer loop
    vertex 5.303300858899107 5.303300858899107 29.000000000000004
    vertex 5.303300858899106 -5.3033008588991075 29.000000000000004
    vertex 6.495190528383288 -3.7500000000000036 29.000000000000004
  endloop
endfacet
facet normal 0.0 0.0 1.0
  outer loop
    vertex 5.303300858899107 5.303300858899107 29.000000000000004
    vertex 6.495190528383288 -3.7500000000000036 29.000000000000004
    vertex 6.495190528383291 3.7499999999999996 29.000000000000004
  endloop
endfacet
facet normal 0.0 0.0 1.0
  outer loop
    vertex 6.495190528383291 3.7499999999999996 29.000000000000004
    vertex 6.495190528383288 -3.7500000000000036 29.000000000000004
    vertex 7.244443697168011 -1.941142838268912 29.000000000000004
  endloop
endfacet
facet normal 0.0 0.0 1.0
  outer loop
    vertex 6.495190528383291 3.7499999999999996 29.000000000000004
    vertex 7.244443697168011 -1.941142838268912 29.000000000000004
    vertex 7.244443697168013 1.9411428382689055 29.000000000000004
  endloop
endfacet
facet normal 0.0 0.0 1.0
  outer loop
    vertex 7.244443697168013 1.9411428382689055 29.000000000000004
    vertex 7.244443697168011 -1.941142838268912 29.000000000000004
    vertex 7.5 0.0 29.000000000000004
  endloop
endfacet
facet normal 0.9659258262890682 -0.25881904510252124 0.0
  outer loop
    vertex 7.244443697168011 -1.941142838268912 0.0
    vertex 6.495190528383288 -3.7500000000000036 29.000000000000004
    vertex 6.495190528383288 -3.7500000000000036 0.0
  endloop
endfacet
facet normal 0.8660254037844384 -0.5000000000000004 0.0
  outer loop
    vertex 6.495190528383288 -3.7500000000000036 29.000000000000004
    vertex 7.244443697168011 -1.941142838268912 0.0
    vertex 7.244443697168011 -1.941142838268912 29.000000000000004
  endloop
endfacet
facet normal 0.8660254037844384 -0.5000000000000004 0.0
  outer loop
    vertex 6.495190528383288 -3.7500000000000036 0.0
    vertex 5.303300858899106 -5.3033008588991075 29.000000000000004
    vertex 5.303300858899106 -5.3033008588991075 0.0
  endloop
endfacet
facet normal 0.7071067811865474 -0.7071067811865477 0.0
  outer loop
    vertex 5.303300858899106 -5.3033008588991075 29.000000000000004
    vertex 6.495190528383288 -3.7500000000000036 0.0
    vertex 6.495190528383288 -3.7500000000000036 29.000000000000004
  endloop
endfacet
facet normal 0.7071067811865474 -0.7071067811865477 0.0
  outer loop
    vertex 5.303300858899106 -5.3033008588991075 29.000000000000004
    vertex 3.749999999999995 -6.495190528383294 0.0
    vertex 5.303300858899106 -5.3033008588991075 0.0
  endloop
endfacet
facet normal 0.4999999999999997 -0.8660254037844389 0.0
  outer loop
    vertex 3.749999999999995 -6.495190528383294 0.0
    vertex 5.303300858899106 -5.3033008588991075 29.000000000000004
    vertex 3.749999999999995 -6.495190528383294 29.000000000000004
  endloop
endfacet
facet normal 0.4999999999999997 -0.8660254037844389 0.0
  outer loop
    vertex 3.749999999999995 -6.495190528383294 29.000000000000004
    vertex 1.9411428382689024 -7.2444436971680135 0.0
    vertex 3.749999999999995 -6.495190528383294 0.0
  endloop
endfacet
facet normal 0.2588190451025201 -0.9659258262890684 0.0
  outer loop
    vertex 1.9411428382689024 -7.2444436971680135 0.0
    vertex 3.749999999999995 -6.495190528383294 29.000000000000004
    vertex 1.9411428382689024 -7.2444436971680135 29.000000000000004
  endloop
endfacet
facet normal 0.2588190451025201 -0.9659258262890684 0.0
  outer loop
    vertex 1.9411428382689024 -7.2444436971680135 29.000000000000004
    vertex -1.3777276490407724e-15 -7.5 0.0
    vertex 1.9411428382689024 -7.2444436971680135 0.0
  endloop
endfacet
facet normal -5.079332640518736e-16 -1.0 0.0
  outer loop
    vertex -1.3777276490407724e-15 -7.5 0.0
    vertex 1.9411428382689024 -7.2444436971680135 29.000000000000004
    vertex -1.3777276490407724e-15 -7.5 29.000000000000004
  endloop
endfacet
facet normal -5.079332640518736e-16 -1.0 0.0
  outer loop
    vertex -1.3777276490407724e-15 -7.5 29.000000000000004
    vertex -1.9411428382689115 -7.244443697168011 0.0
    vertex -1.3777276490407724e-15 -7.5 0.0
  endloop
endfacet
facet normal -0.2588190451025213 -0.9659258262890682 0.0
  outer loop
    vertex -1.9411428382689115 -7.244443697168011 0.0
    vertex -1.3777276490407724e-15 -7.5 29.000000000000004
    vertex -1.9411428382689115 -7.244443697168011 29.000000000000004
  endloop
endfacet
facet normal -0.2588190451025213 -0.9659258262890682 0.0
  outer loop
    vertex -1.9411428382689115 -7.244443697168011 29.000000000000004
    vertex -3.7500000000000036 -6.495190528383288 0.0
    vertex -1.9411428382689115 -7.244443697168011 0.0
  endloop
endfacet
facet normal -0.5000000000000006 -0.8660254037844384 0.0
  outer loop
    vertex -3.7500000000000036 -6.495190528383288 0.0
    vertex -1.9411428382689115 -7.244443697168011 29.000000000000004
    vertex -3.7500000000000036 -6.495190528383288 29.000000000000004
  endloop
endfacet
facet normal -0.5000000000000006 -0.8660254037844384 0.0
  outer loop
    vertex -3.7500000000000036 -6.495190528383288 29.000000000000004
    vertex -5.30330085889911 -5.303300858899103 0.0
    vertex -3.7500000000000036 -6.495190528383288 0.0
  endloop
endfacet
facet normal -0.707106781186548 -0.7071067811865471 0.0
  outer loop
    vertex -5.30330085889911 -5.303300858899103 0.0
    vertex -3.7500000000000036 -6.495190528383288 29.000000000000004
    vertex -5.30330085889911 -5.303300858899103 29.000000000000004
  endloop
endfacet
facet normal -0.8660254037844388 -0.4999999999999998 0.0
  outer loop
    vertex -6.495190528383291 -3.7499999999999982 29.000000000000004
    vertex -5.30330085889911 -5.303300858899103 0.0
    vertex -5.30330085889911 -5.303300858899103 29.000000000000004
  endloop
endfacet
facet normal -0.707106781186548 -0.7071067811865471 0.0
  outer loop
    vertex -5.30330085889911 -5.303300858899103 0.0
    vertex -6.495190528383291 -3.7499999999999982 29.000000000000004
    vertex -6.495190528383291 -3.7499999999999982 0.0
  endloop
endfacet
facet normal -0.9659258262890684 -0.2588190451025206 0.0
  outer loop
    vertex -7.2444436971680135 -1.9411428382689029 29.000000000000004
    vertex -6.495190528383291 -3.7499999999999982 0.0
    vertex -6.495190528383291 -3.7499999999999982 29.000000000000004
  endloop
endfacet
facet normal -0.8660254037844388 -0.4999999999999998 0.0
  outer loop
    vertex -6.495190528383291 -3.7499999999999982 0.0
    vertex -7.2444436971680135 -1.9411428382689029 29.000000000000004
    vertex -7.2444436971680135 -1.9411428382689029 0.0
  endloop
endfacet
facet normal -1.0 2.673332968694071e-16 0.0
  outer loop
    vertex -7.5 9.18485099360515e-16 29.000000000000004
    vertex -7.2444436971680135 -1.9411428382689029 0.0
    vertex -7.2444436971680135 -1.9411428382689029 29.000000000000004
  endloop
endfacet
facet normal -0.9659258262890684 -0.2588190451025206 0.0
  outer loop
    vertex -7.2444436971680135 -1.9411428382689029 0.0
    vertex -7.5 9.18485099360515e-16 29.000000000000004
    vertex -7.5 9.18485099360515e-16 0.0
  endloop
endfacet
facet normal -0.9659258262890682 0.2588190451025208 0.0
  outer loop
    vertex -7.244443697168013 1.9411428382689078 29.000000000000004
    vertex -7.5 9.18485099360515e-16 0.0
    vertex -7.5 9.18485099360515e-16 29.000000000000004
  endloop
endfacet
facet normal -1.0 2.673332968694071e-16 0.0
  outer loop
    vertex -7.5 9.18485099360515e-16 0.0
    vertex -7.244443697168013 1.9411428382689078 29.000000000000004
    vertex -7.244443697168013 1.9411428382689078 0.0
  endloop
endfacet
facet normal -0.8660254037844384 0.5000000000000003 0.0
  outer loop
    vertex -6.495190528383289 3.750000000000003 29.000000000000004
    vertex -7.244443697168013 1.9411428382689078 0.0
    vertex -7.244443697168013 1.9411428382689078 29.000000000000004
  endloop
endfacet
facet normal -0.9659258262890682 0.2588190451025208 0.0
  outer loop
    vertex -7.244443697168013 1.9411428382689078 0.0
    vertex -6.495190528383289 3.750000000000003 29.000000000000004
    vertex -6.495190528383289 3.750000000000003 0.0
  endloop
endfacet
facet normal -0.7071067811865472 0.7071067811865478 0.0
  outer loop
    vertex -5.303300858899107 5.303300858899107 29.000000000000004
    vertex -6.495190528383289 3.750000000000003 0.0
    vertex -6.495190528383289 3.750000000000003 29.000000000000004
  endloop
endfacet
facet normal -0.8660254037844384 0.5000000000000003 0.0
  outer loop
    vertex -6.495190528383289 3.750000000000003 0.0
    vertex -5.303300858899107 5.303300858899107 29.000000000000004
    vertex -5.303300858899107 5.303300858899107 0.0
  endloop
endfacet
facet normal -0.7071067811865472 0.7071067811865478 0.0
  outer loop
    vertex -5.303300858899107 5.303300858899107 29.000000000000004
    vertex -3.7499999999999987 6.495190528383291 0.0
    vertex -5.303300858899107 5.303300858899107 0.0
  endloop
endfacet
facet normal -0.4999999999999998 0.8660254037844388 0.0
  outer loop
    vertex -3.7499999999999987 6.495190528383291 0.0
    vertex -5.303300858899107 5.303300858899107 29.000000000000004
    vertex -3.7499999999999987 6.495190528383291 29.000000000000004
  endloop
endfacet
facet normal -0.4999999999999998 0.8660254037844388 0.0
  outer loop
    vertex -3.7499999999999987 6.495190528383291 29.000000000000004
    vertex -1.9411428382689049 7.244443697168013 0.0
    vertex -3.7499999999999987 6.495190528383291 0.0
  endloop
endfacet
facet normal -0.25881904510252063 0.9659258262890683 0.0
  outer loop
    vertex -1.9411428382689049 7.244443697168013 0.0
    vertex -3.7499999999999987 6.495190528383291 29.000000000000004
    vertex -1.9411428382689049 7.244443697168013 29.000000000000004
  endloop
endfacet
facet normal -0.25881904510252063 0.9659258262890683 0.0
  outer loop
    vertex -1.9411428382689049 7.244443697168013 29.000000000000004
    vertex 4.592425496802575e-16 7.5 0.0
    vertex -1.9411428382689049 7.244443697168013 0.0
  endloop
endfacet
facet normal -6.237776926952835e-17 1.0 0.0
  outer loop
    vertex 4.592425496802575e-16 7.5 0.0
    vertex -1.9411428382689049 7.244443697168013 29.000000000000004
    vertex 4.592425496802575e-16 7.5 29.000000000000004
  endloop
endfacet
facet normal -6.237776926952835e-17 1.0 0.0
  outer loop
    vertex 4.592425496802575e-16 7.5 29.000000000000004
    vertex 1.9411428382689073 7.244443697168013 0.0
    vertex 4.592425496802575e-16 7.5 0.0
  endloop
endfacet
facet normal 0.2588190451025209 0.9659258262890682 0.0
  outer loop
    vertex 1.9411428382689073 7.244443697168013 0.0
    vertex 4.592425496802575e-16 7.5 29.000000000000004
    vertex 1.9411428382689073 7.244443697168013 29.000000000000004
  endloop
endfacet
facet normal 0.2588190451025209 0.9659258262890682 0.0
  outer loop
    vertex 1.9411428382689073 7.244443697168013 29.000000000000004
    vertex 3.750000000000001 6.495190528383289 0.0
    vertex 1.9411428382689073 7.244443697168013 0.0
  endloop
endfacet
facet normal 0.5000000000000001 0.8660254037844386 0.0
  outer loop
    vertex 3.750000000000001 6.495190528383289 0.0
    vertex 1.9411428382689073 7.244443697168013 29.000000000000004
    vertex 3.750000000000001 6.495190528383289 29.000000000000004
  endloop
endfacet
facet normal 0.5000000000000001 0.8660254037844386 0.0
  outer loop
    vertex 3.750000000000001 6.495190528383289 29.000000000000004
    vertex 5.303300858899107 5.303300858899107 0.0
    vertex 3.750000000000001 6.495190528383289 0.0
  endloop
endfacet
facet normal 0.7071067811865475 0.7071067811865476 0.0
  outer loop
    vertex 5.303300858899107 5.303300858899107 0.0
    vertex 3.750000000000001 6.495190528383289 29.000000000000004
    vertex 5.303300858899107 5.303300858899107 29.000000000000004
  endloop
endfacet
facet normal 0.7071067811865475 0.7071067811865476 0.0
  outer loop
    vertex 5.303300858899107 5.303300858899107 0.0
    vertex 6.495190528383291 3.7499999999999996 29.000000000000004
    vertex 6.495190528383291 3.7499999999999996 0.0
  endloop
endfacet
facet normal 0.8660254037844388 0.49999999999999994 0.0
  outer loop
    vertex 6.495190528383291 3.7499999999999996 29.000000000000004
    vertex 5.303300858899107 5.303300858899107 0.0
    vertex 5.303300858899107 5.303300858899107 29.000000000000004
  endloop
endfacet
facet normal 0.8660254037844388 0.49999999999999994 0.0
  outer loop
    vertex 6.495190528383291 3.7499999999999996 0.0
    vertex 7.244443697168013 1.9411428382689055 29.000000000000004
    vertex 7.244443697168013 1.9411428382689055 0.0
  endloop
endfacet
facet normal 0.9659258262890683 0.25881904510252063 0.0
  outer loop
    vertex 7.244443697168013 1.9411428382689055 29.000000000000004
    vertex 6.495190528383291 3.7499999999999996 0.0
    vertex 6.495190528383291 3.7499999999999996 29.000000000000004
  endloop
endfacet
facet normal 0.9659258262890683 0.25881904510252063 0.0
  outer loop
    vertex 7.244443697168013 1.9411428382689055 0.0
    vertex 7.5 0.0 29.000000000000004
    vertex 7.5 0.0 0.0
  endloop
endfacet
facet normal 1.0 -1.514888682259974e-16 0.0
  outer loop
    vertex 7.5 0.0 29.000000000000004
    vertex 7.244443697168013 1.9411428382689055 0.0
    vertex 7.244443697168013 1.9411428382689055 29.000000000000004
  endloop
endfacet
facet normal 1.0 -1.514888682259974e-16 0.0
  outer loop
    vertex 7.5 0.0 0.0
    vertex 7.244443697168011 -1.941142838268912 29.000000000000004
    vertex 7.244443697168011 -1.941142838268912 0.0
  endloop
endfacet
facet normal 0.9659258262890682 -0.25881904510252124 0.0
  outer loop
    vertex 7.244443697168011 -1.941142838268912 29.000000000000004
    vertex 7.5 0.0 0.0
    vertex 7.5 0.0 29.000000000000004
  endloop
endfacet
facet normal 0.0 0.0 1.0
  outer loop
    vertex -1.5999999999999992 -2.7712812921102046 25.800000000000004
    vertex -1.7999999999999998 -2.2043642384652356e-16 25.800000000000004
    vertex -2.262741699796951 -2.262741699796954 25.800000000000004
  endloop
endfacet
facet normal 0.0 0.0 1.0
  outer loop
    vertex -1.7999999999999998 -2.2043642384652356e-16 25.800000000000004
    vertex -1.5999999999999992 -2.7712812921102046 25.800000000000004
    vertex -1.7386664873203226 -0.4658742811845378 25.800000000000004
  endloop
endfacet
facet normal 0.0 0.0 1.0
  outer loop
    vertex -1.7386664873203226 -0.4658742811845378 25.800000000000004
    vertex -1.5999999999999992 -2.7712812921102046 25.800000000000004
    vertex -1.5588457268119893 -0.9000000000000005 25.800000000000004
  endloop
endfacet
facet normal 0.0 0.0 1.0
  outer loop
    vertex -1.5588457268119893 -0.9000000000000005 25.800000000000004
    vertex -1.5999999999999992 -2.7712812921102046 25.800000000000004
    vertex -0.8282209443280653 -3.0909626441250193 25.800000000000004
  endloop
endfacet
facet normal 0.0 0.0 1.0
  outer loop
    vertex -1.5588457268119893 -0.9000000000000005 25.800000000000004
    vertex -0.8282209443280653 -3.0909626441250193 25.800000000000004
    vertex -1.2727922061357853 -1.2727922061357857 25.800000000000004
  endloop
endfacet
facet normal 0.0 0.0 1.0
  outer loop
    vertex -1.2727922061357853 -1.2727922061357857 25.800000000000004
    vertex -0.8282209443280653 -3.0909626441250193 25.800000000000004
    vertex -0.8999999999999996 -1.5588457268119895 25.800000000000004
  endloop
endfacet
facet normal 0.0 0.0 1.0
  outer loop
    vertex -0.8999999999999996 -1.5588457268119895 25.800000000000004
    vertex -0.8282209443280653 -3.0909626441250193 25.800000000000004
    vertex -0.46587428118453716 -1.738666487320323 25.800000000000004
  endloop
endfacet
facet normal 0.0 0.0 1.0
  outer loop
    vertex -0.46587428118453716 -1.738666487320323 25.800000000000004
    vertex -0.8282209443280653 -3.0909626441250193 25.800000000000004
    vertex 3.918869757271531e-16 -3.2000000000000006 25.800000000000004
  endloop
endfacet
facet normal 0.0 0.0 1.0
  outer loop
    vertex -0.46587428118453716 -1.738666487320323 25.800000000000004
    vertex 3.918869757271531e-16 -3.2000000000000006 25.800000000000004
    vertex 1.1021821192326178e-16 -1.7999999999999998 25.800000000000004
  endloop
endfacet
facet normal 0.0 0.0 1.0
  outer loop
    vertex 1.1021821192326178e-16 -1.7999999999999998 25.800000000000004
    vertex 3.918869757271531e-16 -3.2000000000000006 25.800000000000004
    vertex 0.46587428118453766 -1.7386664873203226 25.800000000000004
  endloop
endfacet
facet normal 0.0 0.0 1.0
  outer loop
    vertex 0.46587428118453766 -1.7386664873203226 25.800000000000004
    vertex 3.918869757271531e-16 -3.2000000000000006 25.800000000000004
    vertex 0.8282209443280674 -3.090962644125019 25.800000000000004
  endloop
endfacet
facet normal 0.0 0.0 1.0
  outer loop
    vertex 0.46587428118453766 -1.7386664873203226 25.800000000000004
    vertex 0.8282209443280674 -3.090962644125019 25.800000000000004
    vertex 0.9000000000000001 -1.5588457268119895 25.800000000000004
  endloop
endfacet
facet normal 0.0 0.0 1.0
  outer loop
    vertex 0.9000000000000001 -1.5588457268119895 25.800000000000004
    vertex 0.8282209443280674 -3.090962644125019 25.800000000000004
    vertex 1.6000000000000012 -2.7712812921102032 25.800000000000004
  endloop
endfacet
facet normal 0.0 0.0 1.0
  outer loop
    vertex 0.9000000000000001 -1.5588457268119895 25.800000000000004
    vertex 1.6000000000000012 -2.7712812921102032 25.800000000000004
    vertex 1.2727922061357857 -1.2727922061357853 25.800000000000004
  endloop
endfacet
facet normal 0.0 0.0 1.0
  outer loop
    vertex 1.2727922061357857 -1.2727922061357853 25.800000000000004
    vertex 1.6000000000000012 -2.7712812921102032 25.800000000000004
    vertex 1.5588457268119895 -0.8999999999999998 25.800000000000004
  endloop
endfacet
facet normal 0.0 0.0 1.0
  outer loop
    vertex 1.5588457268119895 -0.8999999999999998 25.800000000000004
    vertex 1.6000000000000012 -2.7712812921102032 25.800000000000004
    vertex 1.738666487320323 -0.46587428118453733 25.800000000000004
  endloop
endfacet
facet normal 0.0 0.0 1.0
  outer loop
    vertex 1.738666487320323 -0.46587428118453733 25.800000000000004
    vertex 1.6000000000000012 -2.7712812921102032 25.800000000000004
    vertex 2.2627416997969525 -2.2627416997969525 25.800000000000004
  endloop
endfacet
facet normal 0.0 0.0 1.0
  outer loop
    vertex 1.738666487320323 -0.46587428118453733 25.800000000000004
    vertex 2.2627416997969525 -2.2627416997969525 25.800000000000004
    vertex 1.7999999999999998 0.0 25.800000000000004
  endloop
endfacet
facet normal 0.0 0.0 1.0
  outer loop
    vertex 1.7999999999999998 0.0 25.800000000000004
    vertex 2.2627416997969525 -2.2627416997969525 25.800000000000004
    vertex 2.2627416997969525 2.2627416997969525 25.800000000000004
  endloop
endfacet
facet normal 0.0 0.0 1.0
  outer loop
    vertex 2.2627416997969525 2.2627416997969525 25.800000000000004
    vertex 2.2627416997969525 -2.2627416997969525 25.800000000000004
    vertex 2.7712812921102037 1.6000000000000005 25.800000000000004
  endloop
endfacet
facet normal 0.0 0.0 1.0
  outer loop
    vertex 2.7712812921102037 1.6000000000000005 25.800000000000004
    vertex 2.2627416997969525 -2.2627416997969525 25.800000000000004
    vertex 2.771281292110204 -1.5999999999999996 25.800000000000004
  endloop
endfacet
facet normal 0.0 0.0 1.0
  outer loop
    vertex 2.7712812921102037 1.6000000000000005 25.800000000000004
    vertex 2.771281292110204 -1.5999999999999996 25.800000000000004
    vertex 3.090962644125019 0.8282209443280671 25.800000000000004
  endloop
endfacet
facet normal 0.0 0.0 1.0
  outer loop
    vertex 3.090962644125019 0.8282209443280671 25.800000000000004
    vertex 2.771281292110204 -1.5999999999999996 25.800000000000004
    vertex 3.090962644125019 -0.8282209443280661 25.800000000000004
  endloop
endfacet
facet normal 0.0 0.0 1.0
  outer loop
    vertex 3.090962644125019 0.8282209443280671 25.800000000000004
    vertex 3.090962644125019 -0.8282209443280661 25.800000000000004
    vertex 3.2000000000000006 1.9594348786357655e-16 25.800000000000004
  endloop
endfacet
facet normal 0.0 0.0 1.0
  outer loop
    vertex -3.0909626441250184 -0.8282209443280689 25.800000000000004
    vertex -3.0909626441250193 0.828220944328065 25.800000000000004
    vertex -3.2000000000000006 -5.878304635907295e-16 25.800000000000004
  endloop
endfacet
facet normal 0.0 0.0 1.0
  outer loop
    vertex -3.0909626441250193 0.828220944328065 25.800000000000004
    vertex -3.0909626441250184 -0.8282209443280689 25.800000000000004
    vertex -2.771281292110205 1.599999999999998 25.800000000000004
  endloop
endfacet
facet normal 0.0 0.0 1.0
  outer loop
    vertex -2.771281292110205 1.599999999999998 25.800000000000004
    vertex -3.0909626441250184 -0.8282209443280689 25.800000000000004
    vertex -2.7712812921102032 -1.6000000000000016 25.800000000000004
  endloop
endfacet
facet normal 0.0 0.0 1.0
  outer loop
    vertex -2.771281292110205 1.599999999999998 25.800000000000004
    vertex -2.7712812921102032 -1.6000000000000016 25.800000000000004
    vertex -2.262741699796953 2.262741699796952 25.800000000000004
  endloop
endfacet
facet normal 0.0 0.0 1.0
  outer loop
    vertex -2.262741699796953 2.262741699796952 25.800000000000004
    vertex -2.7712812921102032 -1.6000000000000016 25.800000000000004
    vertex -2.262741699796951 -2.262741699796954 25.800000000000004
  endloop
endfacet
facet normal 0.0 0.0 1.0
  outer loop
    vertex -2.262741699796953 2.262741699796952 25.800000000000004
    vertex -2.262741699796951 -2.262741699796954 25.800000000000004
    vertex -1.6000000000000016 2.7712812921102032 25.800000000000004
  endloop
endfacet
facet normal 0.0 0.0 1.0
  outer loop
    vertex -1.6000000000000016 2.7712812921102032 25.800000000000004
    vertex -2.262741699796951 -2.262741699796954 25.800000000000004
    vertex -1.7999999999999998 -2.2043642384652356e-16 25.800000000000004
  endloop
endfacet
facet normal 0.0 0.0 1.0
  outer loop
    vertex -1.6000000000000016 2.7712812921102032 25.800000000000004
    vertex -1.7999999999999998 -2.2043642384652356e-16 25.800000000000004
    vertex -1.738666487320323 0.4658742811845366 25.800000000000004
  endloop
endfacet
facet normal 0.0 0.0 1.0
  outer loop
    vertex -1.6000000000000016 2.7712812921102032 25.800000000000004
    vertex -1.738666487320323 0.4658742811845366 25.800000000000004
    vertex -1.5588457268119897 0.8999999999999994 25.800000000000004
  endloop
endfacet
facet normal 0.0 0.0 1.0
  outer loop
    vertex -1.6000000000000016 2.7712812921102032 25.800000000000004
    vertex -1.5588457268119897 0.8999999999999994 25.800000000000004
    vertex -0.8282209443280691 3.0909626441250184 25.800000000000004
  endloop
endfacet
facet normal 0.0 0.0 1.0
  outer loop
    vertex -0.8282209443280691 3.0909626441250184 25.800000000000004
    vertex -1.5588457268119897 0.8999999999999994 25.800000000000004
    vertex -1.2727922061357861 1.2727922061357848 25.800000000000004
  endloop
endfacet
facet normal 0.0 0.0 1.0
  outer loop
    vertex -0.8282209443280691 3.0909626441250184 25.800000000000004
    vertex -1.2727922061357861 1.2727922061357848 25.800000000000004
    vertex -0.9000000000000008 1.5588457268119889 25.800000000000004
  endloop
endfacet
facet normal 0.0 0.0 1.0
  outer loop
    vertex -0.8282209443280691 3.0909626441250184 25.800000000000004
    vertex -0.9000000000000008 1.5588457268119889 25.800000000000004
    vertex -0.4658742811845387 1.7386664873203226 25.800000000000004
  endloop
endfacet
facet normal 0.0 0.0 1.0
  outer loop
    vertex -0.8282209443280691 3.0909626441250184 25.800000000000004
    vertex -0.4658742811845387 1.7386664873203226 25.800000000000004
    vertex 0.0 3.2000000000000006 25.800000000000004
  endloop
endfacet
facet normal 0.0 0.0 1.0
  outer loop
    vertex 0.0 3.2000000000000006 25.800000000000004
    vertex -0.4658742811845387 1.7386664873203226 25.800000000000004
    vertex -3.306546357697853e-16 1.7999999999999998 25.800000000000004
  endloop
endfacet
facet normal 0.0 0.0 1.0
  outer loop
    vertex 0.0 3.2000000000000006 25.800000000000004
    vertex -3.306546357697853e-16 1.7999999999999998 25.800000000000004
    vertex 0.4658742811845365 1.738666487320323 25.800000000000004
  endloop
endfacet
facet normal 0.0 0.0 1.0
  outer loop
    vertex 0.0 3.2000000000000006 25.800000000000004
    vertex 0.4658742811845365 1.738666487320323 25.800000000000004
    vertex 0.8282209443280665 3.090962644125019 25.800000000000004
  endloop
endfacet
facet normal 0.0 0.0 1.0
  outer loop
    vertex 0.8282209443280665 3.090962644125019 25.800000000000004
    vertex 0.4658742811845365 1.738666487320323 25.800000000000004
    vertex 0.8999999999999987 1.5588457268119902 25.800000000000004
  endloop
endfacet
facet normal 0.0 0.0 1.0
  outer loop
    vertex 0.8282209443280665 3.090962644125019 25.800000000000004
    vertex 0.8999999999999987 1.5588457268119902 25.800000000000004
    vertex 1.5999999999999999 2.771281292110204 25.800000000000004
  endloop
endfacet
facet normal 0.0 0.0 1.0
  outer loop
    vertex 1.5999999999999999 2.771281292110204 25.800000000000004
    vertex 0.8999999999999987 1.5588457268119902 25.800000000000004
    vertex 1.272792206135785 1.2727922061357857 25.800000000000004
  endloop
endfacet
facet normal 0.0 0.0 1.0
  outer loop
    vertex 1.5999999999999999 2.771281292110204 25.800000000000004
    vertex 1.272792206135785 1.2727922061357857 25.800000000000004
    vertex 1.5588457268119889 0.9000000000000008 25.800000000000004
  endloop
endfacet
facet normal 0.0 0.0 1.0
  outer loop
    vertex 1.5999999999999999 2.771281292110204 25.800000000000004
    vertex 1.5588457268119889 0.9000000000000008 25.800000000000004
    vertex 1.7386664873203226 0.46587428118453883 25.800000000000004
  endloop
endfacet
facet normal 0.0 0.0 1.0
  outer loop
    vertex 1.5999999999999999 2.771281292110204 25.800000000000004
    vertex 1.7386664873203226 0.46587428118453883 25.800000000000004
    vertex 2.2627416997969525 2.2627416997969525 25.800000000000004
  endloop
endfacet
facet normal 0.0 0.0 1.0
  outer loop
    vertex 2.2627416997969525 2.2627416997969525 25.800000000000004
    vertex 1.7386664873203226 0.46587428118453883 25.800000000000004
    vertex 1.7999999999999998 0.0 25.800000000000004
  endloop
endfacet
facet normal 0.2588190451025206 0.9659258262890684 0.0
  outer loop
    vertex -0.8282209443280653 -3.0909626441250193 29.000000000000004
    vertex 3.918869757271531e-16 -3.2000000000000006 25.800000000000004
    vertex -0.8282209443280653 -3.0909626441250193 25.800000000000004
  endloop
endfacet
facet normal 0.13052619222005132 0.9914448613738106 0.0
  outer loop
    vertex 3.918869757271531e-16 -3.2000000000000006 25.800000000000004
    vertex -0.8282209443280653 -3.0909626441250193 29.000000000000004
    vertex 3.918869757271531e-16 -3.2000000000000006 29.000000000000004
  endloop
endfacet
facet normal -0.1305261922200519 0.9914448613738105 -0.0
  outer loop
    vertex 3.918869757271531e-16 -3.2000000000000006 29.000000000000004
    vertex 0.8282209443280674 -3.090962644125019 25.800000000000004
    vertex 3.918869757271531e-16 -3.2000000000000006 25.800000000000004
  endloop
endfacet
facet normal -0.258819045102521 0.9659258262890682 0.0
  outer loop
    vertex 0.8282209443280674 -3.090962644125019 25.800000000000004
    vertex 3.918869757271531e-16 -3.2000000000000006 29.000000000000004
    vertex 0.8282209443280674 -3.090962644125019 29.000000000000004
  endloop
endfacet
facet normal -0.258819045102521 0.9659258262890682 0.0
  outer loop
    vertex 0.8282209443280674 -3.090962644125019 29.000000000000004
    vertex 1.6000000000000012 -2.7712812921102032 25.800000000000004
    vertex 0.8282209443280674 -3.090962644125019 25.800000000000004
  endloop
endfacet
facet normal -0.5000000000000001 0.8660254037844386 0.0
  outer loop
    vertex 1.6000000000000012 -2.7712812921102032 25.800000000000004
    vertex 0.8282209443280674 -3.090962644125019 29.000000000000004
    vertex 1.6000000000000012 -2.7712812921102032 29.000000000000004
  endloop
endfacet
facet normal -0.5000000000000001 0.8660254037844386 0.0
  outer loop
    vertex 1.6000000000000012 -2.7712812921102032 29.000000000000004
    vertex 2.2627416997969525 -2.2627416997969525 25.800000000000004
    vertex 1.6000000000000012 -2.7712812921102032 25.800000000000004
  endloop
endfacet
facet normal -0.7071067811865478 0.7071067811865472 0.0
  outer loop
    vertex 2.2627416997969525 -2.2627416997969525 25.800000000000004
    vertex 1.6000000000000012 -2.7712812921102032 29.000000000000004
    vertex 2.2627416997969525 -2.2627416997969525 29.000000000000004
  endloop
endfacet
facet normal -0.8660254037844388 0.4999999999999998 0.0
  outer loop
    vertex 2.771281292110204 -1.5999999999999996 29.000000000000004
    vertex 2.2627416997969525 -2.2627416997969525 25.800000000000004
    vertex 2.2627416997969525 -2.2627416997969525 29.000000000000004
  endloop
endfacet
facet normal -0.7071067811865478 0.7071067811865472 0.0
  outer loop
    vertex 2.2627416997969525 -2.2627416997969525 25.800000000000004
    vertex 2.771281292110204 -1.5999999999999996 29.000000000000004
    vertex 2.771281292110204 -1.5999999999999996 25.800000000000004
  endloop
endfacet
facet normal -0.9659258262890682 0.2588190451025208 0.0
  outer loop
    vertex 3.090962644125019 -0.8282209443280661 29.000000000000004
    vertex 2.771281292110204 -1.5999999999999996 25.800000000000004
    vertex 2.771281292110204 -1.5999999999999996 29.000000000000004
  endloop
endfacet
facet normal -0.8660254037844388 0.4999999999999998 0.0
  outer loop
    vertex 2.771281292110204 -1.5999999999999996 25.800000000000004
    vertex 3.090962644125019 -0.8282209443280661 29.000000000000004
    vertex 3.090962644125019 -0.8282209443280661 25.800000000000004
  endloop
endfacet
facet normal -1.0 -1.514888682259974e-16 0.0
  outer loop
    vertex 3.2000000000000006 1.9594348786357655e-16 29.000000000000004
    vertex 3.090962644125019 -0.8282209443280661 25.800000000000004
    vertex 3.090962644125019 -0.8282209443280661 29.000000000000004
  endloop
endfacet
facet normal -0.9659258262890682 0.2588190451025208 0.0
  outer loop
    vertex 3.090962644125019 -0.8282209443280661 25.800000000000004
    vertex 3.2000000000000006 1.9594348786357655e-16 29.000000000000004
    vertex 3.2000000000000006 1.9594348786357655e-16 25.800000000000004
  endloop
endfacet
facet normal -0.9659258262890682 -0.2588190451025209 0.0
  outer loop
    vertex 3.090962644125019 0.8282209443280671 29.000000000000004
    vertex 3.2000000000000006 1.9594348786357655e-16 25.800000000000004
    vertex 3.2000000000000006 1.9594348786357655e-16 29.000000000000004
  endloop
endfacet
facet normal -1.0 -1.514888682259974e-16 0.0
  outer loop
    vertex 3.2000000000000006 1.9594348786357655e-16 25.800000000000004
    vertex 3.090962644125019 0.8282209443280671 29.000000000000004
    vertex 3.090962644125019 0.8282209443280671 25.800000000000004
  endloop
endfacet
facet normal -0.8660254037844387 -0.49999999999999994 0.0
  outer loop
    vertex 2.7712812921102037 1.6000000000000005 29.000000000000004
    vertex 3.090962644125019 0.8282209443280671 25.800000000000004
    vertex 3.090962644125019 0.8282209443280671 29.000000000000004
  endloop
endfacet
facet normal -0.9659258262890682 -0.2588190451025209 0.0
  outer loop
    vertex 3.090962644125019 0.8282209443280671 25.800000000000004
    vertex 2.7712812921102037 1.6000000000000005 29.000000000000004
    vertex 2.7712812921102037 1.6000000000000005 25.800000000000004
  endloop
endfacet
facet normal -0.7071067811865475 -0.7071067811865476 0.0
  outer loop
    vertex 2.2627416997969525 2.2627416997969525 29.000000000000004
    vertex 2.7712812921102037 1.6000000000000005 25.800000000000004
    vertex 2.7712812921102037 1.6000000000000005 29.000000000000004
  endloop
endfacet
facet normal -0.8660254037844387 -0.49999999999999994 0.0
  outer loop
    vertex 2.7712812921102037 1.6000000000000005 25.800000000000004
    vertex 2.2627416997969525 2.2627416997969525 29.000000000000004
    vertex 2.2627416997969525 2.2627416997969525 25.800000000000004
  endloop
endfacet
facet normal -0.7071067811865475 -0.7071067811865476 0.0
  outer loop
    vertex 2.2627416997969525 2.2627416997969525 29.000000000000004
    vertex 1.5999999999999999 2.771281292110204 25.800000000000004
    vertex 2.2627416997969525 2.2627416997969525 25.800000000000004
  endloop
endfacet
facet normal -0.4999999999999999 -0.8660254037844387 0.0
  outer loop
    vertex 1.5999999999999999 2.771281292110204 25.800000000000004
    vertex 2.2627416997969525 2.2627416997969525 29.000000000000004
    vertex 1.5999999999999999 2.771281292110204 29.000000000000004
  endloop
endfacet
facet normal -0.4999999999999999 -0.8660254037844387 0.0
  outer loop
    vertex 1.5999999999999999 2.771281292110204 29.000000000000004
    vertex 0.8282209443280665 3.090962644125019 25.800000000000004
    vertex 1.5999999999999999 2.771281292110204 25.800000000000004
  endloop
endfacet
facet normal -0.2588190451025208 -0.9659258262890682 0.0
  outer loop
    vertex 0.8282209443280665 3.090962644125019 25.800000000000004
    vertex 1.5999999999999999 2.771281292110204 29.000000000000004
    vertex 0.8282209443280665 3.090962644125019 29.000000000000004
  endloop
endfacet
facet normal 0.25881904510252135 -0.9659258262890682 0.0
  outer loop
    vertex -0.8282209443280691 3.0909626441250184 29.000000000000004
    vertex -1.6000000000000016 2.7712812921102032 25.800000000000004
    vertex -0.8282209443280691 3.0909626441250184 25.800000000000004
  endloop
endfacet
facet normal 0.5000000000000004 -0.8660254037844385 0.0
  outer loop
    vertex -1.6000000000000016 2.7712812921102032 25.800000000000004
    vertex -0.8282209443280691 3.0909626441250184 29.000000000000004
    vertex -1.6000000000000016 2.7712812921102032 29.000000000000004
  endloop
endfacet
facet normal 0.5000000000000004 -0.8660254037844385 0.0
  outer loop
    vertex -1.6000000000000016 2.7712812921102032 29.000000000000004
    vertex -2.262741699796953 2.262741699796952 25.800000000000004
    vertex -1.6000000000000016 2.7712812921102032 25.800000000000004
  endloop
endfacet
facet normal 0.7071067811865479 -0.7071067811865471 0.0
  outer loop
    vertex -2.262741699796953 2.262741699796952 25.800000000000004
    vertex -1.6000000000000016 2.7712812921102032 29.000000000000004
    vertex -2.262741699796953 2.262741699796952 29.000000000000004
  endloop
endfacet
facet normal 0.7071067811865479 -0.7071067811865471 0.0
  outer loop
    vertex -2.262741699796953 2.262741699796952 25.800000000000004
    vertex -2.771281292110205 1.599999999999998 29.000000000000004
    vertex -2.771281292110205 1.599999999999998 25.800000000000004
  endloop
endfacet
facet normal 0.8660254037844392 -0.49999999999999944 0.0
  outer loop
    vertex -2.771281292110205 1.599999999999998 29.000000000000004
    vertex -2.262741699796953 2.262741699796952 25.800000000000004
    vertex -2.262741699796953 2.262741699796952 29.000000000000004
  endloop
endfacet
facet normal 0.8660254037844392 -0.49999999999999944 0.0
  outer loop
    vertex -2.771281292110205 1.599999999999998 25.800000000000004
    vertex -3.0909626441250193 0.828220944328065 29.000000000000004
    vertex -3.0909626441250193 0.828220944328065 25.800000000000004
  endloop
endfacet
facet normal 0.9659258262890684 -0.25881904510252035 0.0
  outer loop
    vertex -3.0909626441250193 0.828220944328065 29.000000000000004
    vertex -2.771281292110205 1.599999999999998 25.800000000000004
    vertex -2.771281292110205 1.599999999999998 29.000000000000004
  endloop
endfacet
facet normal 0.9659258262890684 -0.25881904510252035 0.0
  outer loop
    vertex -3.0909626441250193 0.828220944328065 25.800000000000004
    vertex -3.2000000000000006 -5.878304635907295e-16 29.000000000000004
    vertex -3.2000000000000006 -5.878304635907295e-16 25.800000000000004
  endloop
endfacet
facet normal 1.0 3.920888354084638e-16 0.0
  outer loop
    vertex -3.2000000000000006 -5.878304635907295e-16 29.000000000000004
    vertex -3.0909626441250193 0.828220944328065 25.800000000000004
    vertex -3.0909626441250193 0.828220944328065 29.000000000000004
  endloop
endfacet
facet normal 1.0 3.920888354084638e-16 0.0
  outer loop
    vertex -3.2000000000000006 -5.878304635907295e-16 25.800000000000004
    vertex -3.0909626441250184 -0.8282209443280689 29.000000000000004
    vertex -3.0909626441250184 -0.8282209443280689 25.800000000000004
  endloop
endfacet
facet normal 0.965925826289068 0.25881904510252135 0.0
  outer loop
    vertex -3.0909626441250184 -0.8282209443280689 29.000000000000004
    vertex -3.2000000000000006 -5.878304635907295e-16 25.800000000000004
    vertex -3.2000000000000006 -5.878304635907295e-16 29.000000000000004
  endloop
endfacet
facet normal 0.965925826289068 0.25881904510252135 0.0
  outer loop
    vertex -3.0909626441250184 -0.8282209443280689 25.800000000000004
    vertex -2.7712812921102032 -1.6000000000000016 29.000000000000004
    vertex -2.7712812921102032 -1.6000000000000016 25.800000000000004
  endloop
endfacet
facet normal 0.8660254037844384 0.5000000000000003 0.0
  outer loop
    vertex -2.7712812921102032 -1.6000000000000016 29.000000000000004
    vertex -3.0909626441250184 -0.8282209443280689 25.800000000000004
    vertex -3.0909626441250184 -0.8282209443280689 29.000000000000004
  endloop
endfacet
facet normal 0.8660254037844384 0.5000000000000003 0.0
  outer loop
    vertex -2.7712812921102032 -1.6000000000000016 25.800000000000004
    vertex -2.262741699796951 -2.262741699796954 29.000000000000004
    vertex -2.262741699796951 -2.262741699796954 25.800000000000004
  endloop
endfacet
facet normal 0.7071067811865471 0.707106781186548 0.0
  outer loop
    vertex -2.262741699796951 -2.262741699796954 29.000000000000004
    vertex -2.7712812921102032 -1.6000000000000016 25.800000000000004
    vertex -2.7712812921102032 -1.6000000000000016 29.000000000000004
  endloop
endfacet
facet normal 0.7071067811865471 0.707106781186548 0.0
  outer loop
    vertex -2.262741699796951 -2.262741699796954 29.000000000000004
    vertex -1.5999999999999992 -2.7712812921102046 25.800000000000004
    vertex -2.262741699796951 -2.262741699796954 25.800000000000004
  endloop
endfacet
facet normal 0.4999999999999995 0.8660254037844389 0.0
  outer loop
    vertex -1.5999999999999992 -2.7712812921102046 25.800000000000004
    vertex -2.262741699796951 -2.262741699796954 29.000000000000004
    vertex -1.5999999999999992 -2.7712812921102046 29.000000000000004
  endloop
endfacet
facet normal 0.4999999999999995 0.8660254037844389 0.0
  outer loop
    vertex -1.5999999999999992 -2.7712812921102046 29.000000000000004
    vertex -0.8282209443280653 -3.0909626441250193 25.800000000000004
    vertex -1.5999999999999992 -2.7712812921102046 25.800000000000004
  endloop
endfacet
facet normal 0.2588190451025206 0.9659258262890684 0.0
  outer loop
    vertex -0.8282209443280653 -3.0909626441250193 25.800000000000004
    vertex -1.5999999999999992 -2.7712812921102046 29.000000000000004
    vertex -0.8282209443280653 -3.0909626441250193 29.000000000000004
  endloop
endfacet
facet normal 0.25881904510252135 -0.9659258262890681 0.0
  outer loop
    vertex -0.4658742811845387 1.7386664873203226 25.800000000000004
    vertex -0.9000000000000008 1.5588457268119889 0.0
    vertex -0.4658742811845387 1.7386664873203226 0.0
  endloop
endfacet
facet normal 0.5000000000000007 -0.8660254037844383 0.0
  outer loop
    vertex -0.9000000000000008 1.5588457268119889 0.0
    vertex -0.4658742811845387 1.7386664873203226 25.800000000000004
    vertex -0.9000000000000008 1.5588457268119889 25.800000000000004
  endloop
endfacet
facet normal 0.5000000000000007 -0.8660254037844383 0.0
  outer loop
    vertex -0.9000000000000008 1.5588457268119889 25.800000000000004
    vertex -1.2727922061357861 1.2727922061357848 0.0
    vertex -0.9000000000000008 1.5588457268119889 0.0
  endloop
endfacet
facet normal 0.7071067811865479 -0.7071067811865471 0.0
  outer loop
    vertex -1.2727922061357861 1.2727922061357848 0.0
    vertex -0.9000000000000008 1.5588457268119889 25.800000000000004
    vertex -1.2727922061357861 1.2727922061357848 25.800000000000004
  endloop
endfacet
facet normal 0.7071067811865479 -0.7071067811865471 0.0
  outer loop
    vertex -1.2727922061357861 1.2727922061357848 0.0
    vertex -1.5588457268119897 0.8999999999999994 25.800000000000004
    vertex -1.5588457268119897 0.8999999999999994 0.0
  endloop
endfacet
facet normal 0.8660254037844389 -0.4999999999999997 0.0
  outer loop
    vertex -1.5588457268119897 0.8999999999999994 25.800000000000004
    vertex -1.2727922061357861 1.2727922061357848 0.0
    vertex -1.2727922061357861 1.2727922061357848 25.800000000000004
  endloop
endfacet
facet normal 0.8660254037844389 -0.4999999999999997 0.0
  outer loop
    vertex -1.5588457268119897 0.8999999999999994 0.0
    vertex -1.738666487320323 0.4658742811845366 25.800000000000004
    vertex -1.738666487320323 0.4658742811845366 0.0
  endloop
endfacet
facet normal 0.9659258262890683 -0.2588190451025204 0.0
  outer loop
    vertex -1.738666487320323 0.4658742811845366 25.800000000000004
    vertex -1.5588457268119897 0.8999999999999994 0.0
    vertex -1.5588457268119897 0.8999999999999994 25.800000000000004
  endloop
endfacet
facet normal 0.9659258262890683 -0.2588190451025204 0.0
  outer loop
    vertex -1.738666487320323 0.4658742811845366 0.0
    vertex -1.7999999999999998 -2.2043642384652356e-16 25.800000000000004
    vertex -1.7999999999999998 -2.2043642384652356e-16 0.0
  endloop
endfacet
facet normal 1.0 2.7624440676505406e-16 0.0
  outer loop
    vertex -1.7999999999999998 -2.2043642384652356e-16 25.800000000000004
    vertex -1.738666487320323 0.4658742811845366 0.0
    vertex -1.738666487320323 0.4658742811845366 25.800000000000004
  endloop
endfacet
facet normal 1.0 2.7624440676505406e-16 0.0
  outer loop
    vertex -1.7999999999999998 -2.2043642384652356e-16 0.0
    vertex -1.7386664873203226 -0.4658742811845378 25.800000000000004
    vertex -1.7386664873203226 -0.4658742811845378 0.0
  endloop
endfacet
facet normal 0.9659258262890683 0.2588190451025209 0.0
  outer loop
    vertex -1.7386664873203226 -0.4658742811845378 25.800000000000004
    vertex -1.7999999999999998 -2.2043642384652356e-16 0.0
    vertex -1.7999999999999998 -2.2043642384652356e-16 25.800000000000004
  endloop
endfacet
facet normal 0.9659258262890683 0.2588190451025209 0.0
  outer loop
    vertex -1.7386664873203226 -0.4658742811845378 0.0
    vertex -1.5588457268119893 -0.9000000000000005 25.800000000000004
    vertex -1.5588457268119893 -0.9000000000000005 0.0
  endloop
endfacet
facet normal 0.8660254037844386 0.5000000000000001 0.0
  outer loop
    vertex -1.5588457268119893 -0.9000000000000005 25.800000000000004
    vertex -1.7386664873203226 -0.4658742811845378 0.0
    vertex -1.7386664873203226 -0.4658742811845378 25.800000000000004
  endloop
endfacet
facet normal 0.8660254037844386 0.5000000000000001 0.0
  outer loop
    vertex -1.5588457268119893 -0.9000000000000005 0.0
    vertex -1.2727922061357853 -1.2727922061357857 25.800000000000004
    vertex -1.2727922061357853 -1.2727922061357857 0.0
  endloop
endfacet
facet normal 0.7071067811865475 0.7071067811865477 0.0
  outer loop
    vertex -1.2727922061357853 -1.2727922061357857 25.800000000000004
    vertex -1.5588457268119893 -0.9000000000000005 0.0
    vertex -1.5588457268119893 -0.9000000000000005 25.800000000000004
  endloop
endfacet
facet normal 0.7071067811865475 0.7071067811865477 0.0
  outer loop
    vertex -1.2727922061357853 -1.2727922061357857 25.800000000000004
    vertex -0.8999999999999996 -1.5588457268119895 0.0
    vertex -1.2727922061357853 -1.2727922061357857 0.0
  endloop
endfacet
facet normal 0.5 0.8660254037844387 0.0
  outer loop
    vertex -0.8999999999999996 -1.5588457268119895 0.0
    vertex -1.2727922061357853 -1.2727922061357857 25.800000000000004
    vertex -0.8999999999999996 -1.5588457268119895 25.800000000000004
  endloop
endfacet
facet normal 0.5 0.8660254037844387 0.0
  outer loop
    vertex -0.8999999999999996 -1.5588457268119895 25.800000000000004
    vertex -0.46587428118453716 -1.738666487320323 0.0
    vertex -0.8999999999999996 -1.5588457268119895 0.0
  endloop
endfacet
facet normal 0.25881904510252063 0.9659258262890682 0.0
  outer loop
    vertex -0.46587428118453716 -1.738666487320323 0.0
    vertex -0.8999999999999996 -1.5588457268119895 25.800000000000004
    vertex -0.46587428118453716 -1.738666487320323 25.800000000000004
  endloop
endfacet
facet normal -0.2588190451025208 0.9659258262890683 0.0
  outer loop
    vertex 0.46587428118453766 -1.7386664873203226 25.800000000000004
    vertex 0.9000000000000001 -1.5588457268119895 0.0
    vertex 0.46587428118453766 -1.7386664873203226 0.0
  endloop
endfacet
facet normal -0.5 0.8660254037844387 0.0
  outer loop
    vertex 0.9000000000000001 -1.5588457268119895 0.0
    vertex 0.46587428118453766 -1.7386664873203226 25.800000000000004
    vertex 0.9000000000000001 -1.5588457268119895 25.800000000000004
  endloop
endfacet
facet normal -0.5 0.8660254037844387 0.0
  outer loop
    vertex 0.9000000000000001 -1.5588457268119895 25.800000000000004
    vertex 1.2727922061357857 -1.2727922061357853 0.0
    vertex 0.9000000000000001 -1.5588457268119895 0.0
  endloop
endfacet
facet normal -0.7071067811865476 0.7071067811865475 0.0
  outer loop
    vertex 1.2727922061357857 -1.2727922061357853 0.0
    vertex 0.9000000000000001 -1.5588457268119895 25.800000000000004
    vertex 1.2727922061357857 -1.2727922061357853 25.800000000000004
  endloop
endfacet
facet normal -0.8660254037844386 0.5 0.0
  outer loop
    vertex 1.5588457268119895 -0.8999999999999998 25.800000000000004
    vertex 1.2727922061357857 -1.2727922061357853 0.0
    vertex 1.2727922061357857 -1.2727922061357853 25.800000000000004
  endloop
endfacet
facet normal -0.7071067811865476 0.7071067811865475 0.0
  outer loop
    vertex 1.2727922061357857 -1.2727922061357853 0.0
    vertex 1.5588457268119895 -0.8999999999999998 25.800000000000004
    vertex 1.5588457268119895 -0.8999999999999998 0.0
  endloop
endfacet
facet normal -0.9659258262890682 0.25881904510252063 0.0
  outer loop
    vertex 1.738666487320323 -0.46587428118453733 25.800000000000004
    vertex 1.5588457268119895 -0.8999999999999998 0.0
    vertex 1.5588457268119895 -0.8999999999999998 25.800000000000004
  endloop
endfacet
facet normal -0.8660254037844386 0.5 0.0
  outer loop
    vertex 1.5588457268119895 -0.8999999999999998 0.0
    vertex 1.738666487320323 -0.46587428118453733 25.800000000000004
    vertex 1.738666487320323 -0.46587428118453733 0.0
  endloop
endfacet
facet normal -1.0 -1.603999781216443e-16 0.0
  outer loop
    vertex 1.7999999999999998 0.0 25.800000000000004
    vertex 1.738666487320323 -0.46587428118453733 0.0
    vertex 1.738666487320323 -0.46587428118453733 25.800000000000004
  endloop
endfacet
facet normal -0.9659258262890682 0.25881904510252063 0.0
  outer loop
    vertex 1.738666487320323 -0.46587428118453733 0.0
    vertex 1.7999999999999998 0.0 25.800000000000004
    vertex 1.7999999999999998 0.0 0.0
  endloop
endfacet
facet normal -0.9659258262890681 -0.25881904510252135 0.0
  outer loop
    vertex 1.7386664873203226 0.46587428118453883 25.800000000000004
    vertex 1.7999999999999998 0.0 0.0
    vertex 1.7999999999999998 0.0 25.800000000000004
  endloop
endfacet
facet normal -1.0 -1.603999781216443e-16 0.0
  outer loop
    vertex 1.7999999999999998 0.0 0.0
    vertex 1.7386664873203226 0.46587428118453883 25.800000000000004
    vertex 1.7386664873203226 0.46587428118453883 0.0
  endloop
endfacet
facet normal -0.8660254037844383 -0.5000000000000007 0.0
  outer loop
    vertex 1.5588457268119889 0.9000000000000008 25.800000000000004
    vertex 1.7386664873203226 0.46587428118453883 0.0
    vertex 1.7386664873203226 0.46587428118453883 25.800000000000004
  endloop
endfacet
facet normal -0.9659258262890681 -0.25881904510252135 0.0
  outer loop
    vertex 1.7386664873203226 0.46587428118453883 0.0
    vertex 1.5588457268119889 0.9000000000000008 25.800000000000004
    vertex 1.5588457268119889 0.9000000000000008 0.0
  endloop
endfacet
facet normal -0.7071067811865471 -0.7071067811865479 0.0
  outer loop
    vertex 1.272792206135785 1.2727922061357857 25.800000000000004
    vertex 1.5588457268119889 0.9000000000000008 0.0
    vertex 1.5588457268119889 0.9000000000000008 25.800000000000004
  endloop
endfacet
facet normal -0.8660254037844383 -0.5000000000000007 0.0
  outer loop
    vertex 1.5588457268119889 0.9000000000000008 0.0
    vertex 1.272792206135785 1.2727922061357857 25.800000000000004
    vertex 1.272792206135785 1.2727922061357857 0.0
  endloop
endfacet
facet normal -0.7071067811865471 -0.7071067811865479 0.0
  outer loop
    vertex 1.272792206135785 1.2727922061357857 25.800000000000004
    vertex 0.8999999999999987 1.5588457268119902 0.0
    vertex 1.272792206135785 1.2727922061357857 0.0
  endloop
endfacet
facet normal -0.49999999999999944 -0.8660254037844392 0.0
  outer loop
    vertex 0.8999999999999987 1.5588457268119902 0.0
    vertex 1.272792206135785 1.2727922061357857 25.800000000000004
    vertex 0.8999999999999987 1.5588457268119902 25.800000000000004
  endloop
endfacet
facet normal -0.49999999999999944 -0.8660254037844392 0.0
  outer loop
    vertex 0.8999999999999987 1.5588457268119902 25.800000000000004
    vertex 0.4658742811845365 1.738666487320323 0.0
    vertex 0.8999999999999987 1.5588457268119902 0.0
  endloop
endfacet
facet normal -0.25881904510252035 -0.9659258262890684 0.0
  outer loop
    vertex 0.4658742811845365 1.738666487320323 0.0
    vertex 0.8999999999999987 1.5588457268119902 25.800000000000004
    vertex 0.4658742811845365 1.738666487320323 25.800000000000004
  endloop
endfacet
facet normal 0.13052619222005177 -0.9914448613738105 -0.0
  outer loop
    vertex -3.306546357697853e-16 1.7999999999999998 25.800000000000004
    vertex -0.4658742811845387 1.7386664873203226 0.0
    vertex -3.306546357697853e-16 1.7999999999999998 0.0
  endloop
endfacet
facet normal 0.25881904510252135 -0.9659258262890681 0.0
  outer loop
    vertex -0.4658742811845387 1.7386664873203226 0.0
    vertex -3.306546357697853e-16 1.7999999999999998 25.800000000000004
    vertex -0.4658742811845387 1.7386664873203226 25.800000000000004
  endloop
endfacet
facet normal -0.25881904510252035 -0.9659258262890684 0.0
  outer loop
    vertex 0.4658742811845365 1.738666487320323 25.800000000000004
    vertex -3.306546357697853e-16 1.7999999999999998 0.0
    vertex 0.4658742811845365 1.738666487320323 0.0
  endloop
endfacet
facet normal -0.13052619222005143 -0.9914448613738105 -0.0
  outer loop
    vertex -3.306546357697853e-16 1.7999999999999998 0.0
    vertex 0.4658742811845365 1.738666487320323 25.800000000000004
    vertex -3.306546357697853e-16 1.7999999999999998 25.800000000000004
  endloop
endfacet
facet normal 0.130526192220052 -0.9914448613738105 -0.0
  outer loop
    vertex 0.0 3.2000000000000006 29.000000000000004
    vertex -0.8282209443280691 3.0909626441250184 25.800000000000004
    vertex 0.0 3.2000000000000006 25.800000000000004
  endloop
endfacet
facet normal 0.25881904510252135 -0.9659258262890682 0.0
  outer loop
    vertex -0.8282209443280691 3.0909626441250184 25.800000000000004
    vertex 0.0 3.2000000000000006 29.000000000000004
    vertex -0.8282209443280691 3.0909626441250184 29.000000000000004
  endloop
endfacet
facet normal -0.2588190451025208 -0.9659258262890682 0.0
  outer loop
    vertex 0.8282209443280665 3.090962644125019 29.000000000000004
    vertex 0.0 3.2000000000000006 25.800000000000004
    vertex 0.8282209443280665 3.090962644125019 25.800000000000004
  endloop
endfacet
facet normal -0.13052619222005157 -0.9914448613738104 -0.0
  outer loop
    vertex 0.0 3.2000000000000006 25.800000000000004
    vertex 0.8282209443280665 3.090962644125019 29.000000000000004
    vertex 0.0 3.2000000000000006 29.000000000000004
  endloop
endfacet
facet normal -0.13052619222005196 0.9914448613738104 -0.0
  outer loop
    vertex 1.1021821192326178e-16 -1.7999999999999998 25.800000000000004
    vertex 0.46587428118453766 -1.7386664873203226 0.0
    vertex 1.1021821192326178e-16 -1.7999999999999998 0.0
  endloop
endfacet
facet normal -0.2588190451025208 0.9659258262890683 0.0
  outer loop
    vertex 0.46587428118453766 -1.7386664873203226 0.0
    vertex 1.1021821192326178e-16 -1.7999999999999998 25.800000000000004
    vertex 0.46587428118453766 -1.7386664873203226 25.800000000000004
  endloop
endfacet
facet normal 0.25881904510252063 0.9659258262890682 0.0
  outer loop
    vertex -0.46587428118453716 -1.738666487320323 25.800000000000004
    vertex 1.1021821192326178e-16 -1.7999999999999998 0.0
    vertex -0.46587428118453716 -1.738666487320323 0.0
  endloop
endfacet
facet normal 0.13052619222005135 0.9914448613738105 0.0
  outer loop
    vertex 1.1021821192326178e-16 -1.7999999999999998 0.0
    vertex -0.46587428118453716 -1.738666487320323 25.800000000000004
    vertex 1.1021821192326178e-16 -1.7999999999999998 25.800000000000004
  endloop
endfacet
endsolid Probe-retractor-HB-V2
