solid KosselHeatbedMount
facet normal 0.0 0.0 -1.0
  outer loop
    vertex 20.26702660794187 39.86735677193992 0.0
    vertex 22.200423545046085 25.76669794525769 0.0
    vertex 22.149312284479688 25.378469377603906 0.0
  endloop
endfacet
facet normal 0.0 0.0 -1.0
  outer loop
    vertex 22.200423545046085 25.76669794525769 0.0
    vertex 20.26702660794187 39.86735677193992 0.0
    vertex 24.149312284479677 40.3784693776039 0.0
  endloop
endfacet
facet normal 0.0 0.0 -1.0
  outer loop
    vertex 22.200423545046085 25.76669794525769 0.0
    vertex 24.149312284479677 40.3784693776039 0.0
    vertex 22.35027417880303 26.128469377603906 0.0
  endloop
endfacet
facet normal 0.0 0.0 -1.0
  outer loop
    vertex 22.35027417880303 26.128469377603906 0.0
    vertex 24.149312284479677 40.3784693776039 0.0
    vertex 22.58865211269987 26.43912954938373 0.0
  endloop
endfacet
facet normal 0.0 0.0 -1.0
  outer loop
    vertex 22.58865211269987 26.43912954938373 0.0
    vertex 24.149312284479677 40.3784693776039 0.0
    vertex 22.89931228447969 26.67750748328056 0.0
  endloop
endfacet
facet normal 0.0 0.0 -1.0
  outer loop
    vertex 22.89931228447969 26.67750748328056 0.0
    vertex 24.149312284479677 40.3784693776039 0.0
    vertex 23.261083716825908 26.82735811703751 0.0
  endloop
endfacet
facet normal 0.0 0.0 -1.0
  outer loop
    vertex 23.261083716825908 26.82735811703751 0.0
    vertex 24.149312284479677 40.3784693776039 0.0
    vertex 23.649312284479688 26.878469377603903 0.0
  endloop
endfacet
facet normal 0.0 0.0 -1.0
  outer loop
    vertex 23.649312284479688 26.878469377603903 0.0
    vertex 24.149312284479677 40.3784693776039 0.0
    vertex 24.03754085213347 26.82735811703751 0.0
  endloop
endfacet
facet normal 0.0 0.0 -1.0
  outer loop
    vertex 24.03754085213347 26.82735811703751 0.0
    vertex 24.149312284479677 40.3784693776039 0.0
    vertex 24.39931228447969 26.67750748328056 0.0
  endloop
endfacet
facet normal 0.0 0.0 -1.0
  outer loop
    vertex 24.39931228447969 26.67750748328056 0.0
    vertex 24.149312284479677 40.3784693776039 0.0
    vertex 49.14931228447968 40.3784693776039 0.0
  endloop
endfacet
facet normal 0.0 0.0 -1.0
  outer loop
    vertex 24.39931228447969 26.67750748328056 0.0
    vertex 49.14931228447968 40.3784693776039 0.0
    vertex 24.70997245625951 26.439129549383726 0.0
  endloop
endfacet
facet normal 0.0 0.0 -1.0
  outer loop
    vertex 24.70997245625951 26.439129549383726 0.0
    vertex 49.14931228447968 40.3784693776039 0.0
    vertex 24.948350390156346 26.128469377603906 0.0
  endloop
endfacet
facet normal 0.0 0.0 -1.0
  outer loop
    vertex 24.948350390156346 26.128469377603906 0.0
    vertex 49.14931228447968 40.3784693776039 0.0
    vertex 25.09820102391329 25.766697945257686 0.0
  endloop
endfacet
facet normal 0.0 0.0 -1.0
  outer loop
    vertex 25.09820102391329 25.766697945257686 0.0
    vertex 49.14931228447968 40.3784693776039 0.0
    vertex 25.149312284479688 25.378469377603906 0.0
  endloop
endfacet
facet normal 0.0 0.0 -1.0
  outer loop
    vertex 9.660424890143648 29.260755054141704 0.0
    vertex 9.660424890143652 21.49618370106608 0.0
    vertex 9.149312284479675 25.378469377603896 0.0
  endloop
endfacet
facet normal 0.0 0.0 -1.0
  outer loop
    vertex 9.660424890143652 21.49618370106608 0.0
    vertex 9.660424890143648 29.260755054141704 0.0
    vertex 11.158931227713094 32.87846937760389 0.0
  endloop
endfacet
facet normal 0.0 0.0 -1.0
  outer loop
    vertex 9.660424890143652 21.49618370106608 0.0
    vertex 11.158931227713094 32.87846937760389 0.0
    vertex 11.158931227713097 17.878469377603892 0.0
  endloop
endfacet
facet normal 0.0 0.0 -1.0
  outer loop
    vertex 11.158931227713097 17.878469377603892 0.0
    vertex 11.158931227713094 32.87846937760389 0.0
    vertex 13.542710566681462 35.985071095402105 0.0
  endloop
endfacet
facet normal 0.0 0.0 -1.0
  outer loop
    vertex 11.158931227713097 17.878469377603892 0.0
    vertex 13.542710566681462 35.985071095402105 0.0
    vertex 13.542710566681466 14.77186765980568 0.0
  endloop
endfacet
facet normal 0.0 0.0 -1.0
  outer loop
    vertex 13.542710566681466 14.77186765980568 0.0
    vertex 13.542710566681462 35.985071095402105 0.0
    vertex 14.899312284479675 25.378469377603896 0.0
  endloop
endfacet
facet normal 0.0 0.0 -1.0
  outer loop
    vertex 14.899312284479675 25.378469377603896 0.0
    vertex 13.542710566681462 35.985071095402105 0.0
    vertex 14.958942088473805 25.831402706533307 0.0
  endloop
endfacet
facet normal 0.0 0.0 -1.0
  outer loop
    vertex 14.958942088473805 25.831402706533307 0.0
    vertex 13.542710566681462 35.985071095402105 0.0
    vertex 16.649312284479677 38.36885043437048 0.0
  endloop
endfacet
facet normal 0.0 0.0 -1.0
  outer loop
    vertex 14.958942088473805 25.831402706533307 0.0
    vertex 16.649312284479677 38.36885043437048 0.0
    vertex 15.133767827856909 26.253469377603892 0.0
  endloop
endfacet
facet normal 0.0 0.0 -1.0
  outer loop
    vertex 15.133767827856909 26.253469377603892 0.0
    vertex 16.649312284479677 38.36885043437048 0.0
    vertex 15.411875417403218 26.61590624468035 0.0
  endloop
endfacet
facet normal 0.0 0.0 -1.0
  outer loop
    vertex 15.411875417403218 26.61590624468035 0.0
    vertex 16.649312284479677 38.36885043437048 0.0
    vertex 15.774312284479677 26.894013834226666 0.0
  endloop
endfacet
facet normal 0.0 0.0 -1.0
  outer loop
    vertex 15.774312284479677 26.894013834226666 0.0
    vertex 16.649312284479677 38.36885043437048 0.0
    vertex 16.196378955550262 27.06883957360976 0.0
  endloop
endfacet
facet normal 0.0 0.0 -1.0
  outer loop
    vertex 16.196378955550262 27.06883957360976 0.0
    vertex 16.649312284479677 38.36885043437048 0.0
    vertex 16.649312284479677 27.1284693776039 0.0
  endloop
endfacet
facet normal 0.0 0.0 -1.0
  outer loop
    vertex 16.649312284479677 27.1284693776039 0.0
    vertex 16.649312284479677 38.36885043437048 0.0
    vertex 17.10224561340909 27.06883957360976 0.0
  endloop
endfacet
facet normal 0.0 0.0 -1.0
  outer loop
    vertex 17.10224561340909 27.06883957360976 0.0
    vertex 16.649312284479677 38.36885043437048 0.0
    vertex 20.26702660794187 39.86735677193992 0.0
  endloop
endfacet
facet normal 0.0 0.0 -1.0
  outer loop
    vertex 17.10224561340909 27.06883957360976 0.0
    vertex 20.26702660794187 39.86735677193992 0.0
    vertex 17.524312284479677 26.89401383422666 0.0
  endloop
endfacet
facet normal 0.0 0.0 -1.0
  outer loop
    vertex 17.524312284479677 26.89401383422666 0.0
    vertex 20.26702660794187 39.86735677193992 0.0
    vertex 17.886749151556135 26.61590624468035 0.0
  endloop
endfacet
facet normal 0.0 0.0 -1.0
  outer loop
    vertex 17.886749151556135 26.61590624468035 0.0
    vertex 20.26702660794187 39.86735677193992 0.0
    vertex 18.164856741102444 26.253469377603892 0.0
  endloop
endfacet
facet normal 0.0 0.0 -1.0
  outer loop
    vertex 18.164856741102444 26.253469377603892 0.0
    vertex 20.26702660794187 39.86735677193992 0.0
    vertex 18.339682480485546 25.831402706533307 0.0
  endloop
endfacet
facet normal 0.0 0.0 -1.0
  outer loop
    vertex 18.339682480485546 25.831402706533307 0.0
    vertex 20.26702660794187 39.86735677193992 0.0
    vertex 18.399312284479677 25.378469377603896 0.0
  endloop
endfacet
facet normal 0.0 0.0 -1.0
  outer loop
    vertex 18.399312284479677 25.378469377603896 0.0
    vertex 20.26702660794187 39.86735677193992 0.0
    vertex 20.267026607941865 10.88958198326787 0.0
  endloop
endfacet
facet normal 0.0 0.0 -1.0
  outer loop
    vertex 20.267026607941865 10.88958198326787 0.0
    vertex 20.26702660794187 39.86735677193992 0.0
    vertex 22.149312284479688 25.378469377603906 0.0
  endloop
endfacet
facet normal 0.0 0.0 -1.0
  outer loop
    vertex 20.267026607941865 10.88958198326787 0.0
    vertex 22.149312284479688 25.378469377603906 0.0
    vertex 22.200423545046085 24.990240809950127 0.0
  endloop
endfacet
facet normal 0.0 0.0 -1.0
  outer loop
    vertex 20.267026607941865 10.88958198326787 0.0
    vertex 22.200423545046085 24.990240809950127 0.0
    vertex 24.149312284479677 10.378469377603894 0.0
  endloop
endfacet
facet normal 0.0 0.0 -1.0
  outer loop
    vertex 24.149312284479677 10.378469377603894 0.0
    vertex 22.200423545046085 24.990240809950127 0.0
    vertex 22.35027417880303 24.628469377603906 0.0
  endloop
endfacet
facet normal 0.0 0.0 -1.0
  outer loop
    vertex 24.149312284479677 10.378469377603894 0.0
    vertex 22.35027417880303 24.628469377603906 0.0
    vertex 22.58865211269987 24.317809205824084 0.0
  endloop
endfacet
facet normal 0.0 0.0 -1.0
  outer loop
    vertex 24.149312284479677 10.378469377603894 0.0
    vertex 22.58865211269987 24.317809205824084 0.0
    vertex 22.899312284479688 24.07943127192725 0.0
  endloop
endfacet
facet normal 0.0 0.0 -1.0
  outer loop
    vertex 24.149312284479677 10.378469377603894 0.0
    vertex 22.899312284479688 24.07943127192725 0.0
    vertex 23.261083716825908 23.929580638170304 0.0
  endloop
endfacet
facet normal 0.0 0.0 -1.0
  outer loop
    vertex 24.149312284479677 10.378469377603894 0.0
    vertex 23.261083716825908 23.929580638170304 0.0
    vertex 23.649312284479688 23.878469377603906 0.0
  endloop
endfacet
facet normal 0.0 0.0 -1.0
  outer loop
    vertex 24.149312284479677 10.378469377603894 0.0
    vertex 23.649312284479688 23.878469377603906 0.0
    vertex 24.03754085213347 23.929580638170304 0.0
  endloop
endfacet
facet normal 0.0 0.0 -1.0
  outer loop
    vertex 24.149312284479677 10.378469377603894 0.0
    vertex 24.03754085213347 23.929580638170304 0.0
    vertex 24.399312284479688 24.07943127192725 0.0
  endloop
endfacet
facet normal 0.0 0.0 -1.0
  outer loop
    vertex 24.149312284479677 10.378469377603894 0.0
    vertex 24.399312284479688 24.07943127192725 0.0
    vertex 49.14931228447968 10.378469377603894 0.0
  endloop
endfacet
facet normal 0.0 0.0 -1.0
  outer loop
    vertex 49.14931228447968 10.378469377603894 0.0
    vertex 24.399312284479688 24.07943127192725 0.0
    vertex 24.70997245625951 24.317809205824084 0.0
  endloop
endfacet
facet normal 0.0 0.0 -1.0
  outer loop
    vertex 49.14931228447968 10.378469377603894 0.0
    vertex 24.70997245625951 24.317809205824084 0.0
    vertex 24.948350390156346 24.628469377603906 0.0
  endloop
endfacet
facet normal 0.0 0.0 -1.0
  outer loop
    vertex 49.14931228447968 10.378469377603894 0.0
    vertex 24.948350390156346 24.628469377603906 0.0
    vertex 25.09820102391329 24.990240809950127 0.0
  endloop
endfacet
facet normal 0.0 0.0 -1.0
  outer loop
    vertex 49.14931228447968 10.378469377603894 0.0
    vertex 25.09820102391329 24.990240809950127 0.0
    vertex 25.149312284479688 25.378469377603906 0.0
  endloop
endfacet
facet normal 0.0 0.0 -1.0
  outer loop
    vertex 49.14931228447968 10.378469377603894 0.0
    vertex 25.149312284479688 25.378469377603906 0.0
    vertex 49.14931228447968 40.3784693776039 0.0
  endloop
endfacet
facet normal 0.0 0.0 -1.0
  outer loop
    vertex 13.542710566681466 14.77186765980568 0.0
    vertex 14.958942088473805 24.925536048674484 0.0
    vertex 16.649312284479677 12.388088320837314 0.0
  endloop
endfacet
facet normal 0.0 0.0 -1.0
  outer loop
    vertex 14.958942088473805 24.925536048674484 0.0
    vertex 13.542710566681466 14.77186765980568 0.0
    vertex 14.899312284479675 25.378469377603896 0.0
  endloop
endfacet
facet normal 0.0 0.0 -1.0
  outer loop
    vertex 16.649312284479677 12.388088320837314 0.0
    vertex 14.958942088473805 24.925536048674484 0.0
    vertex 15.133767827856909 24.503469377603896 0.0
  endloop
endfacet
facet normal 0.0 0.0 -1.0
  outer loop
    vertex 16.649312284479677 12.388088320837314 0.0
    vertex 15.133767827856909 24.503469377603896 0.0
    vertex 15.411875417403218 24.141032510527438 0.0
  endloop
endfacet
facet normal 0.0 0.0 -1.0
  outer loop
    vertex 16.649312284479677 12.388088320837314 0.0
    vertex 15.411875417403218 24.141032510527438 0.0
    vertex 15.774312284479675 23.86292492098113 0.0
  endloop
endfacet
facet normal 0.0 0.0 -1.0
  outer loop
    vertex 16.649312284479677 12.388088320837314 0.0
    vertex 15.774312284479675 23.86292492098113 0.0
    vertex 16.196378955550262 23.688099181598027 0.0
  endloop
endfacet
facet normal 0.0 0.0 -1.0
  outer loop
    vertex 16.649312284479677 12.388088320837314 0.0
    vertex 16.196378955550262 23.688099181598027 0.0
    vertex 16.649312284479677 23.628469377603896 0.0
  endloop
endfacet
facet normal 0.0 0.0 -1.0
  outer loop
    vertex 16.649312284479677 12.388088320837314 0.0
    vertex 16.649312284479677 23.628469377603896 0.0
    vertex 17.102245613409085 23.688099181598023 0.0
  endloop
endfacet
facet normal 0.0 0.0 -1.0
  outer loop
    vertex 16.649312284479677 12.388088320837314 0.0
    vertex 17.102245613409085 23.688099181598023 0.0
    vertex 20.267026607941865 10.88958198326787 0.0
  endloop
endfacet
facet normal 0.0 0.0 -1.0
  outer loop
    vertex 20.267026607941865 10.88958198326787 0.0
    vertex 17.102245613409085 23.688099181598023 0.0
    vertex 17.524312284479674 23.86292492098113 0.0
  endloop
endfacet
facet normal 0.0 0.0 -1.0
  outer loop
    vertex 20.267026607941865 10.88958198326787 0.0
    vertex 17.524312284479674 23.86292492098113 0.0
    vertex 17.886749151556135 24.141032510527438 0.0
  endloop
endfacet
facet normal 0.0 0.0 -1.0
  outer loop
    vertex 20.267026607941865 10.88958198326787 0.0
    vertex 17.886749151556135 24.141032510527438 0.0
    vertex 18.164856741102444 24.503469377603892 0.0
  endloop
endfacet
facet normal 0.0 0.0 -1.0
  outer loop
    vertex 20.267026607941865 10.88958198326787 0.0
    vertex 18.164856741102444 24.503469377603892 0.0
    vertex 18.339682480485543 24.925536048674484 0.0
  endloop
endfacet
facet normal 0.0 0.0 -1.0
  outer loop
    vertex 20.267026607941865 10.88958198326787 0.0
    vertex 18.339682480485543 24.925536048674484 0.0
    vertex 18.399312284479677 25.378469377603896 0.0
  endloop
endfacet
facet normal 0.0 -1.0 0.0
  outer loop
    vertex 49.14931228447968 10.378469377603894 3.0
    vertex 24.149312284479677 10.378469377603894 0.0
    vertex 49.14931228447968 10.378469377603894 0.0
  endloop
endfacet
facet normal 0.0 -1.0 0.0
  outer loop
    vertex 24.149312284479677 10.378469377603894 0.0
    vertex 49.14931228447968 10.378469377603894 3.0
    vertex 28.649312284479674 10.378469377603894 3.0
  endloop
endfacet
facet normal 0.0 -1.0 0.0
  outer loop
    vertex 24.149312284479677 10.378469377603894 0.0
    vertex 28.649312284479674 10.378469377603894 3.0
    vertex 24.149312284479674 10.378469377603894 11.0
  endloop
endfacet
facet normal 0.0 -1.0 0.0
  outer loop
    vertex 24.149312284479674 10.378469377603894 11.0
    vertex 28.649312284479674 10.378469377603894 3.0
    vertex 28.649312284479674 10.378469377603894 11.0
  endloop
endfacet
facet normal -0.13052619222005177 -0.9914448613738105 -1.4898061737861203e-17
  outer loop
    vertex 24.149312284479674 10.378469377603894 11.0
    vertex 20.267026607941865 10.88958198326787 0.0
    vertex 24.149312284479677 10.378469377603894 0.0
  endloop
endfacet
facet normal -0.25881904510252063 -0.9659258262890682 -1.9457383249633514e-17
  outer loop
    vertex 20.267026607941865 10.88958198326787 0.0
    vertex 24.149312284479674 10.378469377603894 11.0
    vertex 20.851538734830445 10.812629501892868 11.0
  endloop
endfacet
facet normal -0.25881904510252063 -0.9659258262890682 -1.9457383249633514e-17
  outer loop
    vertex 20.267026607941865 10.88958198326787 0.0
    vertex 20.851538734830445 10.812629501892868 11.0
    vertex 20.267026607941865 10.88958198326787 15.0
  endloop
endfacet
facet normal -0.13052619222005177 -0.9914448613738105 -1.4898061737861203e-17
  outer loop
    vertex 20.851538734830445 10.812629501892868 11.0
    vertex 24.149312284479674 10.378469377603894 11.0
    vertex 20.919312284479673 10.803706944811184 11.0
  endloop
endfacet
facet normal -0.25881904510252063 -0.9659258262890682 -1.9457383249633514e-17
  outer loop
    vertex 20.267026607941865 10.88958198326787 15.0
    vertex 20.851538734830445 10.812629501892868 11.0
    vertex 20.85153873483045 10.812629501892868 15.0
  endloop
endfacet
facet normal -0.25881904510252063 -0.9659258262890682 -1.9457383249633514e-17
  outer loop
    vertex 20.267026607941865 10.88958198326787 15.0
    vertex 16.649312284479677 12.388088320837314 0.0
    vertex 20.267026607941865 10.88958198326787 0.0
  endloop
endfacet
facet normal -0.5 -0.8660254037844387 -1.1944074986974575e-17
  outer loop
    vertex 16.649312284479677 12.388088320837314 0.0
    vertex 20.267026607941865 10.88958198326787 15.0
    vertex 16.649312284479677 12.388088320837314 15.0
  endloop
endfacet
facet normal -0.5 -0.8660254037844387 -1.1944074986974575e-17
  outer loop
    vertex 16.649312284479677 12.388088320837314 15.0
    vertex 20.267026607941865 10.88958198326787 15.0
    vertex 19.649312284479674 11.14544763371803 15.0
  endloop
endfacet
facet normal -0.5 -0.8660254037844387 -1.1944074986974575e-17
  outer loop
    vertex 16.649312284479677 12.388088320837314 15.0
    vertex 13.542710566681466 14.77186765980568 0.0
    vertex 16.649312284479677 12.388088320837314 0.0
  endloop
endfacet
facet normal -0.7071067811865475 -0.7071067811865477 0.0
  outer loop
    vertex 13.542710566681466 14.77186765980568 0.0
    vertex 16.649312284479677 12.388088320837314 15.0
    vertex 13.542710566681466 14.77186765980568 15.0
  endloop
endfacet
facet normal -0.8660254037844386 -0.5000000000000002 0.0
  outer loop
    vertex 11.158931227713097 17.878469377603892 15.0
    vertex 13.542710566681466 14.77186765980568 0.0
    vertex 13.542710566681466 14.77186765980568 15.0
  endloop
endfacet
facet normal -0.7071067811865475 -0.7071067811865477 0.0
  outer loop
    vertex 13.542710566681466 14.77186765980568 0.0
    vertex 11.158931227713097 17.878469377603892 15.0
    vertex 11.158931227713097 17.878469377603892 0.0
  endloop
endfacet
facet normal -0.9659258262890682 -0.2588190451025208 0.0
  outer loop
    vertex 9.660424890143652 21.49618370106608 15.0
    vertex 11.158931227713097 17.878469377603892 0.0
    vertex 11.158931227713097 17.878469377603892 15.0
  endloop
endfacet
facet normal -0.8660254037844386 -0.5000000000000002 0.0
  outer loop
    vertex 11.158931227713097 17.878469377603892 0.0
    vertex 9.660424890143652 21.49618370106608 15.0
    vertex 9.660424890143652 21.49618370106608 0.0
  endloop
endfacet
facet normal -1.0 -2.673332968694071e-16 0.0
  outer loop
    vertex 9.149312284479675 25.378469377603896 15.0
    vertex 9.660424890143652 21.49618370106608 0.0
    vertex 9.660424890143652 21.49618370106608 15.0
  endloop
endfacet
facet normal -0.9659258262890682 -0.2588190451025208 0.0
  outer loop
    vertex 9.660424890143652 21.49618370106608 0.0
    vertex 9.149312284479675 25.378469377603896 15.0
    vertex 9.149312284479675 25.378469377603896 0.0
  endloop
endfacet
facet normal -0.9659258262890683 0.2588190451025206 0.0
  outer loop
    vertex 9.660424890143648 29.260755054141704 15.0
    vertex 9.149312284479675 25.378469377603896 0.0
    vertex 9.149312284479675 25.378469377603896 15.0
  endloop
endfacet
facet normal -1.0 -2.673332968694071e-16 0.0
  outer loop
    vertex 9.149312284479675 25.378469377603896 0.0
    vertex 9.660424890143648 29.260755054141704 15.0
    vertex 9.660424890143648 29.260755054141704 0.0
  endloop
endfacet
facet normal -0.8660254037844386 0.5 0.0
  outer loop
    vertex 11.158931227713094 32.87846937760389 15.0
    vertex 9.660424890143648 29.260755054141704 0.0
    vertex 9.660424890143648 29.260755054141704 15.0
  endloop
endfacet
facet normal -0.9659258262890683 0.2588190451025206 0.0
  outer loop
    vertex 9.660424890143648 29.260755054141704 0.0
    vertex 11.158931227713094 32.87846937760389 15.0
    vertex 11.158931227713094 32.87846937760389 0.0
  endloop
endfacet
facet normal -0.7071067811865476 0.7071067811865475 0.0
  outer loop
    vertex 13.542710566681462 35.985071095402105 15.0
    vertex 11.158931227713094 32.87846937760389 0.0
    vertex 11.158931227713094 32.87846937760389 15.0
  endloop
endfacet
facet normal -0.8660254037844386 0.5 0.0
  outer loop
    vertex 11.158931227713094 32.87846937760389 0.0
    vertex 13.542710566681462 35.985071095402105 15.0
    vertex 13.542710566681462 35.985071095402105 0.0
  endloop
endfacet
facet normal -0.7071067811865476 0.7071067811865475 0.0
  outer loop
    vertex 13.542710566681462 35.985071095402105 15.0
    vertex 16.649312284479677 38.36885043437048 0.0
    vertex 13.542710566681462 35.985071095402105 0.0
  endloop
endfacet
facet normal -0.4999999999999998 0.8660254037844388 2.2295606642352518e-17
  outer loop
    vertex 16.649312284479677 38.36885043437048 0.0
    vertex 13.542710566681462 35.985071095402105 15.0
    vertex 16.649312284479677 38.36885043437048 15.0
  endloop
endfacet
facet normal -0.4999999999999998 0.8660254037844388 2.2295606642352518e-17
  outer loop
    vertex 16.649312284479677 38.36885043437048 15.0
    vertex 20.26702660794187 39.86735677193992 0.0
    vertex 16.649312284479677 38.36885043437048 0.0
  endloop
endfacet
facet normal -0.25881904510252063 0.9659258262890684 5.610549382431781e-17
  outer loop
    vertex 20.26702660794187 39.86735677193992 0.0
    vertex 16.649312284479677 38.36885043437048 15.0
    vertex 20.26702660794187 39.86735677193992 15.0
  endloop
endfacet
facet normal -0.25881904510252063 0.9659258262890684 5.610549382431781e-17
  outer loop
    vertex 20.26702660794187 39.86735677193992 15.0
    vertex 16.649312284479677 38.36885043437048 15.0
    vertex 19.649312284479674 39.611491121489756 15.0
  endloop
endfacet
facet normal -0.25881904510252063 0.9659258262890684 5.610549382431781e-17
  outer loop
    vertex 20.26702660794187 39.86735677193992 0.0
    vertex 20.851538734830445 39.94430925331492 11.0
    vertex 24.149312284479677 40.3784693776039 0.0
  endloop
endfacet
facet normal -0.13052619222005213 0.9914448613738105 6.704127782037547e-17
  outer loop
    vertex 20.851538734830445 39.94430925331492 11.0
    vertex 20.26702660794187 39.86735677193992 0.0
    vertex 20.26702660794187 39.86735677193992 15.0
  endloop
endfacet
facet normal -0.13052619222005213 0.9914448613738105 6.704127782037547e-17
  outer loop
    vertex 20.851538734830445 39.94430925331492 11.0
    vertex 20.26702660794187 39.86735677193992 15.0
    vertex 20.85153873483045 39.94430925331492 15.0
  endloop
endfacet
facet normal -0.13052619222005213 0.9914448613738105 6.704127782037547e-17
  outer loop
    vertex 20.851538734830445 39.94430925331492 11.0
    vertex 24.149312284479674 40.3784693776039 11.0
    vertex 24.149312284479677 40.3784693776039 0.0
  endloop
endfacet
facet normal -0.13052619222005213 0.9914448613738105 6.704127782037547e-17
  outer loop
    vertex 24.149312284479674 40.3784693776039 11.0
    vertex 20.851538734830445 39.94430925331492 11.0
    vertex 20.919312284479673 39.9532318103966 11.0
  endloop
endfacet
facet normal -0.0 1.0 -0.0
  outer loop
    vertex 24.149312284479677 40.3784693776039 0.0
    vertex 28.649312284479674 40.3784693776039 3.0
    vertex 49.14931228447968 40.3784693776039 0.0
  endloop
endfacet
facet normal -0.0 1.0 -0.0
  outer loop
    vertex 28.649312284479674 40.3784693776039 3.0
    vertex 24.149312284479677 40.3784693776039 0.0
    vertex 24.149312284479674 40.3784693776039 11.0
  endloop
endfacet
facet normal -0.0 1.0 -0.0
  outer loop
    vertex 28.649312284479674 40.3784693776039 3.0
    vertex 24.149312284479674 40.3784693776039 11.0
    vertex 28.649312284479674 40.3784693776039 11.0
  endloop
endfacet
facet normal -0.0 1.0 -0.0
  outer loop
    vertex 49.14931228447968 40.3784693776039 3.0
    vertex 49.14931228447968 40.3784693776039 0.0
    vertex 28.649312284479674 40.3784693776039 3.0
  endloop
endfacet
facet normal 1.0 -0.0 -0.0
  outer loop
    vertex 49.14931228447968 40.3784693776039 0.0
    vertex 49.14931228447968 10.378469377603894 3.0
    vertex 49.14931228447968 10.378469377603894 0.0
  endloop
endfacet
facet normal 1.0 -0.0 -0.0
  outer loop
    vertex 49.14931228447968 10.378469377603894 3.0
    vertex 49.14931228447968 40.3784693776039 0.0
    vertex 49.14931228447968 40.3784693776039 3.0
  endloop
endfacet
facet normal -1.0 3.047599584311241e-15 0.0
  outer loop
    vertex 18.399312284479677 25.378469377603896 15.0
    vertex 18.339682480485543 24.925536048674484 0.0
    vertex 18.339682480485543 24.925536048674484 15.0
  endloop
endfacet
facet normal -0.9659258262890683 0.2588190451025207 0.0
  outer loop
    vertex 18.339682480485543 24.925536048674484 0.0
    vertex 18.399312284479677 25.378469377603896 15.0
    vertex 18.399312284479677 25.378469377603896 0.0
  endloop
endfacet
facet normal -0.9659258262890681 -0.2588190451025216 0.0
  outer loop
    vertex 18.339682480485546 25.831402706533307 15.0
    vertex 18.399312284479677 25.378469377603896 0.0
    vertex 18.399312284479677 25.378469377603896 15.0
  endloop
endfacet
facet normal -1.0 3.047599584311241e-15 0.0
  outer loop
    vertex 18.399312284479677 25.378469377603896 0.0
    vertex 18.339682480485546 25.831402706533307 15.0
    vertex 18.339682480485546 25.831402706533307 0.0
  endloop
endfacet
facet normal -0.8660254037844375 -0.5000000000000022 0.0
  outer loop
    vertex 18.164856741102444 26.253469377603892 15.0
    vertex 18.339682480485546 25.831402706533307 0.0
    vertex 18.339682480485546 25.831402706533307 15.0
  endloop
endfacet
facet normal -0.9659258262890681 -0.2588190451025216 0.0
  outer loop
    vertex 18.339682480485546 25.831402706533307 0.0
    vertex 18.164856741102444 26.253469377603892 15.0
    vertex 18.164856741102444 26.253469377603892 0.0
  endloop
endfacet
facet normal -0.7071067811865476 -0.7071067811865476 0.0
  outer loop
    vertex 17.886749151556135 26.61590624468035 15.0
    vertex 18.164856741102444 26.253469377603892 0.0
    vertex 18.164856741102444 26.253469377603892 15.0
  endloop
endfacet
facet normal -0.8660254037844375 -0.5000000000000022 0.0
  outer loop
    vertex 18.164856741102444 26.253469377603892 0.0
    vertex 17.886749151556135 26.61590624468035 15.0
    vertex 17.886749151556135 26.61590624468035 0.0
  endloop
endfacet
facet normal -0.7071067811865476 -0.7071067811865476 0.0
  outer loop
    vertex 17.886749151556135 26.61590624468035 15.0
    vertex 17.524312284479677 26.89401383422666 0.0
    vertex 17.886749151556135 26.61590624468035 0.0
  endloop
endfacet
facet normal -0.500000000000001 -0.866025403784438 0.0
  outer loop
    vertex 17.524312284479677 26.89401383422666 0.0
    vertex 17.886749151556135 26.61590624468035 15.0
    vertex 17.524312284479677 26.89401383422666 15.0
  endloop
endfacet
facet normal -0.500000000000001 -0.866025403784438 0.0
  outer loop
    vertex 17.524312284479677 26.89401383422666 15.0
    vertex 17.10224561340909 27.06883957360976 0.0
    vertex 17.524312284479677 26.89401383422666 0.0
  endloop
endfacet
facet normal -0.2588190451025264 -0.9659258262890669 0.0
  outer loop
    vertex 17.10224561340909 27.06883957360976 0.0
    vertex 17.524312284479677 26.89401383422666 15.0
    vertex 17.10224561340909 27.06883957360976 15.0
  endloop
endfacet
facet normal -0.2588190451025264 -0.9659258262890669 0.0
  outer loop
    vertex 17.10224561340909 27.06883957360976 15.0
    vertex 16.649312284479677 27.1284693776039 0.0
    vertex 17.10224561340909 27.06883957360976 0.0
  endloop
endfacet
facet normal 0.0 -1.0 0.0
  outer loop
    vertex 16.649312284479677 27.1284693776039 0.0
    vertex 17.10224561340909 27.06883957360976 15.0
    vertex 16.649312284479677 27.1284693776039 15.0
  endloop
endfacet
facet normal 0.0 -1.0 0.0
  outer loop
    vertex 16.649312284479677 27.1284693776039 15.0
    vertex 16.196378955550262 27.06883957360976 0.0
    vertex 16.649312284479677 27.1284693776039 0.0
  endloop
endfacet
facet normal 0.25881904510252196 -0.965925826289068 0.0
  outer loop
    vertex 16.196378955550262 27.06883957360976 0.0
    vertex 16.649312284479677 27.1284693776039 15.0
    vertex 16.196378955550262 27.06883957360976 15.0
  endloop
endfacet
facet normal 0.25881904510252196 -0.965925826289068 0.0
  outer loop
    vertex 16.196378955550262 27.06883957360976 15.0
    vertex 15.774312284479677 26.894013834226666 0.0
    vertex 16.196378955550262 27.06883957360976 0.0
  endloop
endfacet
facet normal 0.4999999999999998 -0.8660254037844387 0.0
  outer loop
    vertex 15.774312284479677 26.894013834226666 0.0
    vertex 16.196378955550262 27.06883957360976 15.0
    vertex 15.774312284479677 26.894013834226666 15.0
  endloop
endfacet
facet normal 0.4999999999999998 -0.8660254037844387 0.0
  outer loop
    vertex 15.774312284479677 26.894013834226666 15.0
    vertex 15.411875417403218 26.61590624468035 0.0
    vertex 15.774312284479677 26.894013834226666 0.0
  endloop
endfacet
facet normal 0.7071067811865498 -0.7071067811865454 0.0
  outer loop
    vertex 15.411875417403218 26.61590624468035 0.0
    vertex 15.774312284479677 26.894013834226666 15.0
    vertex 15.411875417403218 26.61590624468035 15.0
  endloop
endfacet
facet normal 0.7071067811865498 -0.7071067811865454 0.0
  outer loop
    vertex 15.411875417403218 26.61590624468035 0.0
    vertex 15.133767827856909 26.253469377603892 15.0
    vertex 15.133767827856909 26.253469377603892 0.0
  endloop
endfacet
facet normal 0.8660254037844375 -0.5000000000000022 0.0
  outer loop
    vertex 15.133767827856909 26.253469377603892 15.0
    vertex 15.411875417403218 26.61590624468035 0.0
    vertex 15.411875417403218 26.61590624468035 15.0
  endloop
endfacet
facet normal 0.8660254037844375 -0.5000000000000022 0.0
  outer loop
    vertex 15.133767827856909 26.253469377603892 0.0
    vertex 14.958942088473805 25.831402706533307 15.0
    vertex 14.958942088473805 25.831402706533307 0.0
  endloop
endfacet
facet normal 0.9659258262890681 -0.2588190451025216 0.0
  outer loop
    vertex 14.958942088473805 25.831402706533307 15.0
    vertex 15.133767827856909 26.253469377603892 0.0
    vertex 15.133767827856909 26.253469377603892 15.0
  endloop
endfacet
facet normal 0.9659258262890681 -0.2588190451025216 0.0
  outer loop
    vertex 14.958942088473805 25.831402706533307 0.0
    vertex 14.899312284479675 25.378469377603896 15.0
    vertex 14.899312284479675 25.378469377603896 0.0
  endloop
endfacet
facet normal 1.0 3.920888354084637e-16 0.0
  outer loop
    vertex 14.899312284479675 25.378469377603896 15.0
    vertex 14.958942088473805 25.831402706533307 0.0
    vertex 14.958942088473805 25.831402706533307 15.0
  endloop
endfacet
facet normal 1.0 3.920888354084637e-16 0.0
  outer loop
    vertex 14.899312284479675 25.378469377603896 0.0
    vertex 14.958942088473805 24.925536048674484 15.0
    vertex 14.958942088473805 24.925536048674484 0.0
  endloop
endfacet
facet normal 0.9659258262890683 0.25881904510252085 0.0
  outer loop
    vertex 14.958942088473805 24.925536048674484 15.0
    vertex 14.899312284479675 25.378469377603896 0.0
    vertex 14.899312284479675 25.378469377603896 15.0
  endloop
endfacet
facet normal 0.9659258262890683 0.25881904510252085 0.0
  outer loop
    vertex 14.958942088473805 24.925536048674484 0.0
    vertex 15.133767827856909 24.503469377603896 15.0
    vertex 15.133767827856909 24.503469377603896 0.0
  endloop
endfacet
facet normal 0.8660254037844389 0.4999999999999994 0.0
  outer loop
    vertex 15.133767827856909 24.503469377603896 15.0
    vertex 14.958942088473805 24.925536048674484 0.0
    vertex 14.958942088473805 24.925536048674484 15.0
  endloop
endfacet
facet normal 0.8660254037844389 0.4999999999999994 0.0
  outer loop
    vertex 15.133767827856909 24.503469377603896 0.0
    vertex 15.411875417403218 24.141032510527438 15.0
    vertex 15.411875417403218 24.141032510527438 0.0
  endloop
endfacet
facet normal 0.7071067811865488 0.7071067811865461 0.0
  outer loop
    vertex 15.411875417403218 24.141032510527438 15.0
    vertex 15.133767827856909 24.503469377603896 0.0
    vertex 15.133767827856909 24.503469377603896 15.0
  endloop
endfacet
facet normal 0.7071067811865488 0.7071067811865461 0.0
  outer loop
    vertex 15.411875417403218 24.141032510527438 15.0
    vertex 15.774312284479675 23.86292492098113 0.0
    vertex 15.411875417403218 24.141032510527438 0.0
  endloop
endfacet
facet normal 0.4999999999999986 0.8660254037844394 0.0
  outer loop
    vertex 15.774312284479675 23.86292492098113 0.0
    vertex 15.411875417403218 24.141032510527438 15.0
    vertex 15.774312284479675 23.86292492098113 15.0
  endloop
endfacet
facet normal 0.4999999999999986 0.8660254037844394 0.0
  outer loop
    vertex 15.774312284479675 23.86292492098113 15.0
    vertex 16.196378955550262 23.688099181598027 0.0
    vertex 15.774312284479675 23.86292492098113 0.0
  endloop
endfacet
facet normal 0.25881904510252063 0.9659258262890683 0.0
  outer loop
    vertex 16.196378955550262 23.688099181598027 0.0
    vertex 15.774312284479675 23.86292492098113 15.0
    vertex 16.196378955550262 23.688099181598027 15.0
  endloop
endfacet
facet normal 0.25881904510252063 0.9659258262890683 0.0
  outer loop
    vertex 16.196378955550262 23.688099181598027 15.0
    vertex 16.649312284479677 23.628469377603896 0.0
    vertex 16.196378955550262 23.688099181598027 0.0
  endloop
endfacet
facet normal 2.6733329686940714e-15 1.0 0.0
  outer loop
    vertex 16.649312284479677 23.628469377603896 0.0
    vertex 16.196378955550262 23.688099181598027 15.0
    vertex 16.649312284479677 23.628469377603896 15.0
  endloop
endfacet
facet normal 2.6733329686940714e-15 1.0 0.0
  outer loop
    vertex 16.649312284479677 23.628469377603896 15.0
    vertex 17.102245613409085 23.688099181598023 0.0
    vertex 16.649312284479677 23.628469377603896 0.0
  endloop
endfacet
facet normal -0.25881904510252085 0.9659258262890683 0.0
  outer loop
    vertex 17.102245613409085 23.688099181598023 0.0
    vertex 16.649312284479677 23.628469377603896 15.0
    vertex 17.102245613409085 23.688099181598023 15.0
  endloop
endfacet
facet normal -0.25881904510252085 0.9659258262890683 0.0
  outer loop
    vertex 17.102245613409085 23.688099181598023 15.0
    vertex 17.524312284479674 23.86292492098113 0.0
    vertex 17.102245613409085 23.688099181598023 0.0
  endloop
endfacet
facet normal -0.4999999999999994 0.8660254037844389 0.0
  outer loop
    vertex 17.524312284479674 23.86292492098113 0.0
    vertex 17.102245613409085 23.688099181598023 15.0
    vertex 17.524312284479674 23.86292492098113 15.0
  endloop
endfacet
facet normal -0.4999999999999994 0.8660254037844389 0.0
  outer loop
    vertex 17.524312284479674 23.86292492098113 15.0
    vertex 17.886749151556135 24.141032510527438 0.0
    vertex 17.524312284479674 23.86292492098113 0.0
  endloop
endfacet
facet normal -0.7071067811865461 0.7071067811865488 0.0
  outer loop
    vertex 17.886749151556135 24.141032510527438 0.0
    vertex 17.524312284479674 23.86292492098113 15.0
    vertex 17.886749151556135 24.141032510527438 15.0
  endloop
endfacet
facet normal -0.8660254037844394 0.4999999999999986 0.0
  outer loop
    vertex 18.164856741102444 24.503469377603892 15.0
    vertex 17.886749151556135 24.141032510527438 0.0
    vertex 17.886749151556135 24.141032510527438 15.0
  endloop
endfacet
facet normal -0.7071067811865461 0.7071067811865488 0.0
  outer loop
    vertex 17.886749151556135 24.141032510527438 0.0
    vertex 18.164856741102444 24.503469377603892 15.0
    vertex 18.164856741102444 24.503469377603892 0.0
  endloop
endfacet
facet normal -0.9659258262890683 0.2588190451025207 0.0
  outer loop
    vertex 18.339682480485543 24.925536048674484 15.0
    vertex 18.164856741102444 24.503469377603892 0.0
    vertex 18.164856741102444 24.503469377603892 15.0
  endloop
endfacet
facet normal -0.8660254037844394 0.4999999999999986 0.0
  outer loop
    vertex 18.164856741102444 24.503469377603892 0.0
    vertex 18.339682480485543 24.925536048674484 15.0
    vertex 18.339682480485543 24.925536048674484 0.0
  endloop
endfacet
facet normal 7.184845354595074e-32 1.655529193944259e-32 1.0
  outer loop
    vertex 13.542710566681466 14.77186765980568 15.0
    vertex 14.958942088473805 24.925536048674484 15.0
    vertex 14.899312284479675 25.378469377603896 15.0
  endloop
endfacet
facet normal 7.184845354595074e-32 1.655529193944259e-32 1.0
  outer loop
    vertex 14.958942088473805 24.925536048674484 15.0
    vertex 13.542710566681466 14.77186765980568 15.0
    vertex 16.649312284479677 12.388088320837314 15.0
  endloop
endfacet
facet normal 7.184845354595074e-32 1.655529193944259e-32 1.0
  outer loop
    vertex 14.958942088473805 24.925536048674484 15.0
    vertex 16.649312284479677 12.388088320837314 15.0
    vertex 15.133767827856909 24.503469377603896 15.0
  endloop
endfacet
facet normal 7.184845354595074e-32 1.655529193944259e-32 1.0
  outer loop
    vertex 15.133767827856909 24.503469377603896 15.0
    vertex 16.649312284479677 12.388088320837314 15.0
    vertex 15.411875417403218 24.141032510527438 15.0
  endloop
endfacet
facet normal 7.184845354595074e-32 1.655529193944259e-32 1.0
  outer loop
    vertex 15.411875417403218 24.141032510527438 15.0
    vertex 16.649312284479677 12.388088320837314 15.0
    vertex 15.774312284479675 23.86292492098113 15.0
  endloop
endfacet
facet normal 7.184845354595074e-32 1.655529193944259e-32 1.0
  outer loop
    vertex 15.774312284479675 23.86292492098113 15.0
    vertex 16.649312284479677 12.388088320837314 15.0
    vertex 16.196378955550262 23.688099181598027 15.0
  endloop
endfacet
facet normal 7.184845354595074e-32 1.655529193944259e-32 1.0
  outer loop
    vertex 16.196378955550262 23.688099181598027 15.0
    vertex 16.649312284479677 12.388088320837314 15.0
    vertex 16.649312284479677 23.628469377603896 15.0
  endloop
endfacet
facet normal 7.184845354595074e-32 1.655529193944259e-32 1.0
  outer loop
    vertex 16.649312284479677 23.628469377603896 15.0
    vertex 16.649312284479677 12.388088320837314 15.0
    vertex 17.102245613409085 23.688099181598023 15.0
  endloop
endfacet
facet normal 7.184845354595074e-32 1.655529193944259e-32 1.0
  outer loop
    vertex 17.102245613409085 23.688099181598023 15.0
    vertex 16.649312284479677 12.388088320837314 15.0
    vertex 19.649312284479674 11.14544763371803 15.0
  endloop
endfacet
facet normal 7.184845354595074e-32 1.655529193944259e-32 1.0
  outer loop
    vertex 17.102245613409085 23.688099181598023 15.0
    vertex 19.649312284479674 11.14544763371803 15.0
    vertex 17.524312284479674 23.86292492098113 15.0
  endloop
endfacet
facet normal 7.184845354595074e-32 1.655529193944259e-32 1.0
  outer loop
    vertex 17.524312284479674 23.86292492098113 15.0
    vertex 19.649312284479674 11.14544763371803 15.0
    vertex 17.886749151556135 24.141032510527438 15.0
  endloop
endfacet
facet normal 7.184845354595074e-32 1.655529193944259e-32 1.0
  outer loop
    vertex 17.886749151556135 24.141032510527438 15.0
    vertex 19.649312284479674 11.14544763371803 15.0
    vertex 18.164856741102444 24.503469377603892 15.0
  endloop
endfacet
facet normal 7.184845354595074e-32 1.655529193944259e-32 1.0
  outer loop
    vertex 18.164856741102444 24.503469377603892 15.0
    vertex 19.649312284479674 11.14544763371803 15.0
    vertex 18.339682480485543 24.925536048674484 15.0
  endloop
endfacet
facet normal 7.184845354595074e-32 1.655529193944259e-32 1.0
  outer loop
    vertex 18.339682480485543 24.925536048674484 15.0
    vertex 19.649312284479674 11.14544763371803 15.0
    vertex 18.399312284479677 25.378469377603896 15.0
  endloop
endfacet
facet normal 7.184845354595074e-32 1.655529193944259e-32 1.0
  outer loop
    vertex 9.660424890143652 21.49618370106608 15.0
    vertex 9.660424890143648 29.260755054141704 15.0
    vertex 9.149312284479675 25.378469377603896 15.0
  endloop
endfacet
facet normal 7.184845354595074e-32 1.655529193944259e-32 1.0
  outer loop
    vertex 9.660424890143648 29.260755054141704 15.0
    vertex 9.660424890143652 21.49618370106608 15.0
    vertex 11.158931227713094 32.87846937760389 15.0
  endloop
endfacet
facet normal 7.184845354595074e-32 1.655529193944259e-32 1.0
  outer loop
    vertex 11.158931227713094 32.87846937760389 15.0
    vertex 9.660424890143652 21.49618370106608 15.0
    vertex 11.158931227713097 17.878469377603892 15.0
  endloop
endfacet
facet normal 7.184845354595074e-32 1.655529193944259e-32 1.0
  outer loop
    vertex 11.158931227713094 32.87846937760389 15.0
    vertex 11.158931227713097 17.878469377603892 15.0
    vertex 13.542710566681462 35.985071095402105 15.0
  endloop
endfacet
facet normal 7.184845354595074e-32 1.655529193944259e-32 1.0
  outer loop
    vertex 13.542710566681462 35.985071095402105 15.0
    vertex 11.158931227713097 17.878469377603892 15.0
    vertex 13.542710566681466 14.77186765980568 15.0
  endloop
endfacet
facet normal 7.184845354595074e-32 1.655529193944259e-32 1.0
  outer loop
    vertex 13.542710566681462 35.985071095402105 15.0
    vertex 13.542710566681466 14.77186765980568 15.0
    vertex 14.899312284479675 25.378469377603896 15.0
  endloop
endfacet
facet normal 7.184845354595074e-32 1.655529193944259e-32 1.0
  outer loop
    vertex 13.542710566681462 35.985071095402105 15.0
    vertex 14.899312284479675 25.378469377603896 15.0
    vertex 14.958942088473805 25.831402706533307 15.0
  endloop
endfacet
facet normal 7.184845354595074e-32 1.655529193944259e-32 1.0
  outer loop
    vertex 13.542710566681462 35.985071095402105 15.0
    vertex 14.958942088473805 25.831402706533307 15.0
    vertex 16.649312284479677 38.36885043437048 15.0
  endloop
endfacet
facet normal 7.184845354595074e-32 1.655529193944259e-32 1.0
  outer loop
    vertex 16.649312284479677 38.36885043437048 15.0
    vertex 14.958942088473805 25.831402706533307 15.0
    vertex 15.133767827856909 26.253469377603892 15.0
  endloop
endfacet
facet normal 7.184845354595074e-32 1.655529193944259e-32 1.0
  outer loop
    vertex 16.649312284479677 38.36885043437048 15.0
    vertex 15.133767827856909 26.253469377603892 15.0
    vertex 15.411875417403218 26.61590624468035 15.0
  endloop
endfacet
facet normal 7.184845354595074e-32 1.655529193944259e-32 1.0
  outer loop
    vertex 16.649312284479677 38.36885043437048 15.0
    vertex 15.411875417403218 26.61590624468035 15.0
    vertex 15.774312284479677 26.894013834226666 15.0
  endloop
endfacet
facet normal 7.184845354595074e-32 1.655529193944259e-32 1.0
  outer loop
    vertex 16.649312284479677 38.36885043437048 15.0
    vertex 15.774312284479677 26.894013834226666 15.0
    vertex 16.196378955550262 27.06883957360976 15.0
  endloop
endfacet
facet normal 7.184845354595074e-32 1.655529193944259e-32 1.0
  outer loop
    vertex 16.649312284479677 38.36885043437048 15.0
    vertex 16.196378955550262 27.06883957360976 15.0
    vertex 16.649312284479677 27.1284693776039 15.0
  endloop
endfacet
facet normal 7.184845354595074e-32 1.655529193944259e-32 1.0
  outer loop
    vertex 16.649312284479677 38.36885043437048 15.0
    vertex 16.649312284479677 27.1284693776039 15.0
    vertex 17.10224561340909 27.06883957360976 15.0
  endloop
endfacet
facet normal 7.184845354595074e-32 1.655529193944259e-32 1.0
  outer loop
    vertex 16.649312284479677 38.36885043437048 15.0
    vertex 17.10224561340909 27.06883957360976 15.0
    vertex 19.649312284479674 39.611491121489756 15.0
  endloop
endfacet
facet normal 7.184845354595074e-32 1.655529193944259e-32 1.0
  outer loop
    vertex 19.649312284479674 39.611491121489756 15.0
    vertex 17.10224561340909 27.06883957360976 15.0
    vertex 17.524312284479677 26.89401383422666 15.0
  endloop
endfacet
facet normal 7.184845354595074e-32 1.655529193944259e-32 1.0
  outer loop
    vertex 19.649312284479674 39.611491121489756 15.0
    vertex 17.524312284479677 26.89401383422666 15.0
    vertex 17.886749151556135 26.61590624468035 15.0
  endloop
endfacet
facet normal 7.184845354595074e-32 1.655529193944259e-32 1.0
  outer loop
    vertex 19.649312284479674 39.611491121489756 15.0
    vertex 17.886749151556135 26.61590624468035 15.0
    vertex 18.164856741102444 26.253469377603892 15.0
  endloop
endfacet
facet normal 7.184845354595074e-32 1.655529193944259e-32 1.0
  outer loop
    vertex 19.649312284479674 39.611491121489756 15.0
    vertex 18.164856741102444 26.253469377603892 15.0
    vertex 18.339682480485546 25.831402706533307 15.0
  endloop
endfacet
facet normal 7.184845354595074e-32 1.655529193944259e-32 1.0
  outer loop
    vertex 19.649312284479674 39.611491121489756 15.0
    vertex 18.339682480485546 25.831402706533307 15.0
    vertex 18.399312284479677 25.378469377603896 15.0
  endloop
endfacet
facet normal 7.184845354595074e-32 1.655529193944259e-32 1.0
  outer loop
    vertex 19.649312284479674 39.611491121489756 15.0
    vertex 18.399312284479677 25.378469377603896 15.0
    vertex 19.649312284479674 11.14544763371803 15.0
  endloop
endfacet
facet normal 7.184845354595074e-32 1.655529193944259e-32 1.0
  outer loop
    vertex 19.649312284479674 39.611491121489756 15.0
    vertex 19.649312284479674 11.14544763371803 15.0
    vertex 19.64931228447969 25.378469377603906 15.0
  endloop
endfacet
facet normal 7.184845354595074e-32 1.655529193944259e-32 1.0
  outer loop
    vertex 19.64931228447969 25.378469377603906 15.0
    vertex 19.649312284479674 11.14544763371803 15.0
    vertex 19.684671741149415 22.86687090479291 15.0
  endloop
endfacet
facet normal 7.184845354595074e-32 1.655529193944259e-32 1.0
  outer loop
    vertex 19.684671741149415 22.86687090479291 15.0
    vertex 19.649312284479674 11.14544763371803 15.0
    vertex 19.790722083278535 20.357263265193293 15.0
  endloop
endfacet
facet normal 7.184845354595074e-32 1.655529193944259e-32 1.0
  outer loop
    vertex 19.790722083278535 20.357263265193293 15.0
    vertex 19.649312284479674 11.14544763371803 15.0
    vertex 20.267026607941865 10.88958198326787 15.0
  endloop
endfacet
facet normal 7.184845354595074e-32 1.655529193944259e-32 1.0
  outer loop
    vertex 19.790722083278535 20.357263265193293 15.0
    vertex 20.267026607941865 10.88958198326787 15.0
    vertex 19.96737924944345 17.851635713970833 15.0
  endloop
endfacet
facet normal 7.184845354595074e-32 1.655529193944259e-32 1.0
  outer loop
    vertex 19.96737924944345 17.851635713970833 15.0
    vertex 20.267026607941865 10.88958198326787 15.0
    vertex 20.21188383416796 15.378469377603908 15.0
  endloop
endfacet
facet normal 7.184845354595074e-32 1.655529193944259e-32 1.0
  outer loop
    vertex 20.21188383416796 15.378469377603908 15.0
    vertex 20.267026607941865 10.88958198326787 15.0
    vertex 20.214503211308717 15.351974351451002 15.0
  endloop
endfacet
facet normal 7.184845354595074e-32 1.655529193944259e-32 1.0
  outer loop
    vertex 20.214503211308717 15.351974351451002 15.0
    vertex 20.267026607941865 10.88958198326787 15.0
    vertex 20.531898084621353 12.860260548824918 15.0
  endloop
endfacet
facet normal 7.184845354595074e-32 1.655529193944259e-32 1.0
  outer loop
    vertex 20.531898084621353 12.860260548824918 15.0
    vertex 20.267026607941865 10.88958198326787 15.0
    vertex 20.85153873483045 10.812629501892868 15.0
  endloop
endfacet
facet normal 7.184845354595074e-32 1.655529193944259e-32 1.0
  outer loop
    vertex 19.649312284479674 39.611491121489756 15.0
    vertex 19.79072208327855 30.39967549001452 15.0
    vertex 20.26702660794187 39.86735677193992 15.0
  endloop
endfacet
facet normal 7.184845354595074e-32 1.655529193944259e-32 1.0
  outer loop
    vertex 19.79072208327855 30.39967549001452 15.0
    vertex 19.649312284479674 39.611491121489756 15.0
    vertex 19.684671741149415 27.8900678504149 15.0
  endloop
endfacet
facet normal 7.184845354595074e-32 1.655529193944259e-32 1.0
  outer loop
    vertex 19.684671741149415 27.8900678504149 15.0
    vertex 19.649312284479674 39.611491121489756 15.0
    vertex 19.64931228447969 25.378469377603906 15.0
  endloop
endfacet
facet normal 7.184845354595074e-32 1.655529193944259e-32 1.0
  outer loop
    vertex 20.26702660794187 39.86735677193992 15.0
    vertex 19.79072208327855 30.39967549001452 15.0
    vertex 19.96737924944345 32.90530304123698 15.0
  endloop
endfacet
facet normal 7.184845354595074e-32 1.655529193944259e-32 1.0
  outer loop
    vertex 20.26702660794187 39.86735677193992 15.0
    vertex 19.96737924944345 32.90530304123698 15.0
    vertex 20.211883834167956 35.378469377603906 15.0
  endloop
endfacet
facet normal 7.184845354595074e-32 1.655529193944259e-32 1.0
  outer loop
    vertex 20.26702660794187 39.86735677193992 15.0
    vertex 20.211883834167956 35.378469377603906 15.0
    vertex 20.214503211308717 35.40496440375681 15.0
  endloop
endfacet
facet normal 7.184845354595074e-32 1.655529193944259e-32 1.0
  outer loop
    vertex 20.26702660794187 39.86735677193992 15.0
    vertex 20.214503211308717 35.40496440375681 15.0
    vertex 20.53189808462138 37.896678206382894 15.0
  endloop
endfacet
facet normal 7.184845354595074e-32 1.655529193944259e-32 1.0
  outer loop
    vertex 20.26702660794187 39.86735677193992 15.0
    vertex 20.53189808462138 37.896678206382894 15.0
    vertex 20.85153873483045 39.94430925331492 15.0
  endloop
endfacet
facet normal 0.9984150024603672 -0.056280395006297675 5.132536974342132e-32
  outer loop
    vertex 19.790722083278546 30.39967549001452 11.0
    vertex 19.684671741149415 27.8900678504149 15.0
    vertex 19.684671741149412 27.8900678504149 11.0
  endloop
endfacet
facet normal 0.9996036720771806 -0.028151354671073433 -3.5247429568162676e-16
  outer loop
    vertex 19.684671741149415 27.8900678504149 15.0
    vertex 19.790722083278546 30.39967549001452 11.0
    vertex 19.79072208327855 30.39967549001452 15.0
  endloop
endfacet
facet normal 0.9964349333554801 -0.08436482435742827 -4.085838279818127e-16
  outer loop
    vertex 19.967379249443447 32.90530304123698 11.0
    vertex 19.79072208327855 30.39967549001452 15.0
    vertex 19.790722083278546 30.39967549001452 11.0
  endloop
endfacet
facet normal 0.9984150024603672 -0.056280395006297675 5.132536974342132e-32
  outer loop
    vertex 19.79072208327855 30.39967549001452 15.0
    vertex 19.967379249443447 32.90530304123698 11.0
    vertex 19.96737924944345 32.90530304123698 15.0
  endloop
endfacet
facet normal 0.9936650342758695 -0.11238238143737113 -4.0858382798181265e-16
  outer loop
    vertex 20.214503211308713 35.40496440375681 11.0
    vertex 19.96737924944345 32.90530304123698 15.0
    vertex 19.967379249443447 32.90530304123698 11.0
  endloop
endfacet
facet normal 0.9964349333554802 -0.08436482435742827 -4.0858382798181275e-16
  outer loop
    vertex 19.96737924944345 32.90530304123698 15.0
    vertex 20.214503211308713 35.40496440375681 11.0
    vertex 20.211883834167956 35.378469377603906 15.0
  endloop
endfacet
facet normal 0.9951485899943571 -0.09838335139769894 -8.170866853621421e-16
  outer loop
    vertex 20.211883834167956 35.378469377603906 15.0
    vertex 20.214503211308713 35.40496440375681 11.0
    vertex 20.214503211308717 35.40496440375681 15.0
  endloop
endfacet
facet normal 0.9901075007982341 -0.14031085796571505 5.03902736916399e-32
  outer loop
    vertex 20.531898084621375 37.896678206382894 11.0
    vertex 20.214503211308717 35.40496440375681 15.0
    vertex 20.214503211308713 35.40496440375681 11.0
  endloop
endfacet
facet normal 0.9936650342758695 -0.11238238143737113 -4.085838279818126e-16
  outer loop
    vertex 20.214503211308717 35.40496440375681 15.0
    vertex 20.531898084621375 37.896678206382894 11.0
    vertex 20.53189808462138 37.896678206382894 15.0
  endloop
endfacet
facet normal 0.9880342280489413 -0.15423476976263406 5.019927559727055e-32
  outer loop
    vertex 20.851538734830445 39.94430925331492 11.0
    vertex 20.53189808462138 37.896678206382894 15.0
    vertex 20.531898084621375 37.896678206382894 11.0
  endloop
endfacet
facet normal 0.9901075007982341 -0.14031085796571505 5.03902736916399e-32
  outer loop
    vertex 20.53189808462138 37.896678206382894 15.0
    vertex 20.851538734830445 39.94430925331492 11.0
    vertex 20.85153873483045 39.94430925331492 15.0
  endloop
endfacet
facet normal 1.5978428833371006e-16 -2.305113917130745e-32 1.0
  outer loop
    vertex 27.268870806289605 22.863974624533007 3.000000000000005
    vertex 27.268870806289616 27.892964130674795 3.000000000000005
    vertex 27.22931228447967 25.378469377603896 3.0000000000000053
  endloop
endfacet
facet normal 1.5978428833371006e-16 -2.305113917130745e-32 1.0
  outer loop
    vertex 27.268870806289616 27.892964130674795 3.000000000000005
    vertex 27.268870806289605 22.863974624533007 3.000000000000005
    vertex 27.3875072181633 20.351968625008606 3.000000000000005
  endloop
endfacet
facet normal 1.5978428833371006e-16 -2.305113917130745e-32 1.0
  outer loop
    vertex 27.268870806289616 27.892964130674795 3.000000000000005
    vertex 27.3875072181633 20.351968625008606 3.000000000000005
    vertex 27.3875072181633 30.404970130199192 3.000000000000005
  endloop
endfacet
facet normal 1.5978428833371006e-16 -2.305113917130745e-32 1.0
  outer loop
    vertex 27.3875072181633 30.404970130199192 3.000000000000005
    vertex 27.3875072181633 20.351968625008606 3.000000000000005
    vertex 27.585104098185077 17.84493766930134 3.000000000000004
  endloop
endfacet
facet normal 1.5978428833371006e-16 -2.305113917130745e-32 1.0
  outer loop
    vertex 27.3875072181633 30.404970130199192 3.000000000000005
    vertex 27.585104098185077 17.84493766930134 3.000000000000004
    vertex 27.585104098185077 32.91200108590646 3.000000000000004
  endloop
endfacet
facet normal 1.5978428833371006e-16 -2.305113917130745e-32 1.0
  outer loop
    vertex 27.585104098185077 32.91200108590646 3.000000000000004
    vertex 27.585104098185077 17.84493766930134 3.000000000000004
    vertex 27.861465872299647 15.345363123568191 3.000000000000003
  endloop
endfacet
facet normal 1.5978428833371006e-16 -2.305113917130745e-32 1.0
  outer loop
    vertex 27.585104098185077 32.91200108590646 3.000000000000004
    vertex 27.861465872299647 15.345363123568191 3.000000000000003
    vertex 27.861465872299647 35.41157563163961 3.000000000000003
  endloop
endfacet
facet normal 1.5978428833371006e-16 -2.305113917130745e-32 1.0
  outer loop
    vertex 27.861465872299647 35.41157563163961 3.000000000000003
    vertex 27.861465872299647 15.345363123568191 3.000000000000003
    vertex 28.216319007883968 12.855718973888397 3.0000000000000013
  endloop
endfacet
facet normal 1.5978428833371006e-16 -2.305113917130745e-32 1.0
  outer loop
    vertex 27.861465872299647 35.41157563163961 3.000000000000003
    vertex 28.216319007883968 12.855718973888397 3.0000000000000013
    vertex 28.216319007883968 37.9012197813194 3.0000000000000013
  endloop
endfacet
facet normal 1.5978428833371006e-16 -2.305113917130745e-32 1.0
  outer loop
    vertex 28.216319007883968 37.9012197813194 3.0000000000000013
    vertex 28.216319007883968 12.855718973888397 3.0000000000000013
    vertex 28.649312284479674 10.378469377603894 3.0
  endloop
endfacet
facet normal 1.5978428833371006e-16 -2.305113917130745e-32 1.0
  outer loop
    vertex 28.216319007883968 37.9012197813194 3.0000000000000013
    vertex 28.649312284479674 10.378469377603894 3.0
    vertex 28.649312284479674 40.3784693776039 3.0
  endloop
endfacet
facet normal 1.5978428833371006e-16 -2.305113917130745e-32 1.0
  outer loop
    vertex 28.649312284479674 40.3784693776039 3.0
    vertex 28.649312284479674 10.378469377603894 3.0
    vertex 49.14931228447968 10.378469377603894 3.0
  endloop
endfacet
facet normal 1.5978428833371006e-16 -2.305113917130745e-32 1.0
  outer loop
    vertex 28.649312284479674 40.3784693776039 3.0
    vertex 49.14931228447968 10.378469377603894 3.0
    vertex 49.14931228447968 40.3784693776039 3.0
  endloop
endfacet
facet normal 0.9876524379099119 0.15666097756176448 3.705821107605409e-16
  outer loop
    vertex 28.216319007883968 12.855718973888397 3.0000000000000013
    vertex 28.649312284479674 10.378469377603894 11.0
    vertex 28.649312284479674 10.378469377603894 3.0
  endloop
endfacet
facet normal 0.985065921529043 0.1721776124882023 3.6961161075148163e-16
  outer loop
    vertex 28.649312284479674 10.378469377603894 11.0
    vertex 28.216319007883968 12.855718973888397 3.0000000000000013
    vertex 28.216319007883968 12.855718973888397 11.000000000000002
  endloop
endfacet
facet normal 0.9920916894576391 0.12551525687774892 3.722477849852057e-16
  outer loop
    vertex 27.861465872299647 15.345363123568191 3.000000000000003
    vertex 28.216319007883968 12.855718973888397 11.000000000000002
    vertex 28.216319007883968 12.855718973888397 3.0000000000000013
  endloop
endfacet
facet normal 0.9876524379099119 0.15666097756176448 3.705821107605409e-16
  outer loop
    vertex 28.216319007883968 12.855718973888397 11.000000000000002
    vertex 27.861465872299647 15.345363123568191 3.000000000000003
    vertex 27.861465872299647 15.345363123568191 11.000000000000002
  endloop
endfacet
facet normal 0.995549005486285 0.09424530585269901 3.735450221733942e-16
  outer loop
    vertex 27.585104098185077 17.84493766930134 3.000000000000004
    vertex 27.861465872299647 15.345363123568191 11.000000000000002
    vertex 27.861465872299647 15.345363123568191 3.000000000000003
  endloop
endfacet
facet normal 0.9920916894576391 0.12551525687774892 3.722477849852057e-16
  outer loop
    vertex 27.861465872299647 15.345363123568191 11.000000000000002
    vertex 27.585104098185077 17.84493766930134 3.000000000000004
    vertex 27.585104098185077 17.84493766930134 11.000000000000004
  endloop
endfacet
facet normal 0.9980209640728093 0.06288207432313467 3.744725383679023e-16
  outer loop
    vertex 27.3875072181633 20.351968625008606 3.000000000000005
    vertex 27.585104098185077 17.84493766930134 11.000000000000004
    vertex 27.585104098185077 17.84493766930134 3.000000000000004
  endloop
endfacet
facet normal 0.995549005486285 0.09424530585269902 3.7354502217339426e-16
  outer loop
    vertex 27.585104098185077 17.84493766930134 11.000000000000004
    vertex 27.3875072181633 20.351968625008606 3.000000000000005
    vertex 27.3875072181633 20.351968625008606 11.000000000000004
  endloop
endfacet
facet normal 0.9995051185643845 0.03145660445113942 1.875086357962367e-16
  outer loop
    vertex 27.268870806289605 22.863974624533007 3.000000000000005
    vertex 27.3875072181633 20.351968625008606 11.000000000000004
    vertex 27.3875072181633 20.351968625008606 3.000000000000005
  endloop
endfacet
facet normal 0.9980209640728093 0.06288207432313467 3.744725383679023e-16
  outer loop
    vertex 27.3875072181633 20.351968625008606 11.000000000000004
    vertex 27.268870806289605 22.863974624533007 3.000000000000005
    vertex 27.268870806289605 22.863974624533007 11.000000000000004
  endloop
endfacet
facet normal 0.9999999999999999 -2.2089918429660457e-15 -5.508821509953921e-21
  outer loop
    vertex 27.22931228447967 25.378469377603896 3.0000000000000053
    vertex 27.268870806289605 22.863974624533007 11.000000000000004
    vertex 27.268870806289605 22.863974624533007 3.000000000000005
  endloop
endfacet
facet normal 0.9995051185643845 0.03145660445113941 1.8750863579623664e-16
  outer loop
    vertex 27.268870806289605 22.863974624533007 11.000000000000004
    vertex 27.22931228447967 25.378469377603896 3.0000000000000053
    vertex 27.22931228447967 25.378469377603896 11.000000000000005
  endloop
endfacet
facet normal 0.9995051185643845 -0.03145660445113938 1.8732958394128403e-16
  outer loop
    vertex 27.268870806289616 27.892964130674795 3.000000000000005
    vertex 27.22931228447967 25.378469377603896 11.000000000000005
    vertex 27.22931228447967 25.378469377603896 3.0000000000000053
  endloop
endfacet
facet normal 1.0 -2.208991842966047e-15 -5.5088215099539245e-21
  outer loop
    vertex 27.22931228447967 25.378469377603896 11.000000000000005
    vertex 27.268870806289616 27.892964130674795 3.000000000000005
    vertex 27.268870806289616 27.892964130674795 11.000000000000004
  endloop
endfacet
facet normal 0.9980209640728095 -0.06288207432313248 3.7447253836790234e-16
  outer loop
    vertex 27.3875072181633 30.404970130199192 3.000000000000005
    vertex 27.268870806289616 27.892964130674795 11.000000000000004
    vertex 27.268870806289616 27.892964130674795 3.000000000000005
  endloop
endfacet
facet normal 0.9995051185643845 -0.031456604451139375 1.8732958394128398e-16
  outer loop
    vertex 27.268870806289616 27.892964130674795 11.000000000000004
    vertex 27.3875072181633 30.404970130199192 3.000000000000005
    vertex 27.3875072181633 30.404970130199192 11.000000000000004
  endloop
endfacet
facet normal 0.995549005486285 -0.09424530585269913 3.735450221733942e-16
  outer loop
    vertex 27.585104098185077 32.91200108590646 3.000000000000004
    vertex 27.3875072181633 30.404970130199192 11.000000000000004
    vertex 27.3875072181633 30.404970130199192 3.000000000000005
  endloop
endfacet
facet normal 0.9980209640728094 -0.06288207432313249 3.7447253836790234e-16
  outer loop
    vertex 27.3875072181633 30.404970130199192 11.000000000000004
    vertex 27.585104098185077 32.91200108590646 3.000000000000004
    vertex 27.585104098185077 32.91200108590646 11.000000000000004
  endloop
endfacet
facet normal 0.9920916894576391 -0.1255152568777491 3.722477849852057e-16
  outer loop
    vertex 27.861465872299647 35.41157563163961 3.000000000000003
    vertex 27.585104098185077 32.91200108590646 11.000000000000004
    vertex 27.585104098185077 32.91200108590646 3.000000000000004
  endloop
endfacet
facet normal 0.995549005486285 -0.09424530585269911 3.735450221733941e-16
  outer loop
    vertex 27.585104098185077 32.91200108590646 11.000000000000004
    vertex 27.861465872299647 35.41157563163961 3.000000000000003
    vertex 27.861465872299647 35.41157563163961 11.000000000000002
  endloop
endfacet
facet normal 0.9876524379099119 -0.15666097756176467 3.705821107605409e-16
  outer loop
    vertex 28.216319007883968 37.9012197813194 3.0000000000000013
    vertex 27.861465872299647 35.41157563163961 11.000000000000002
    vertex 27.861465872299647 35.41157563163961 3.000000000000003
  endloop
endfacet
facet normal 0.992091689457639 -0.12551525687774903 3.722477849852056e-16
  outer loop
    vertex 27.861465872299647 35.41157563163961 11.000000000000002
    vertex 28.216319007883968 37.9012197813194 3.0000000000000013
    vertex 28.216319007883968 37.9012197813194 11.000000000000002
  endloop
endfacet
facet normal 0.9850659215290428 -0.17217761248820246 3.696116107514815e-16
  outer loop
    vertex 28.649312284479674 40.3784693776039 3.0
    vertex 28.216319007883968 37.9012197813194 11.000000000000002
    vertex 28.216319007883968 37.9012197813194 3.0000000000000013
  endloop
endfacet
facet normal 0.9876524379099119 -0.1566609775617647 3.70582110760541e-16
  outer loop
    vertex 28.216319007883968 37.9012197813194 11.000000000000002
    vertex 28.649312284479674 40.3784693776039 3.0
    vertex 28.649312284479674 40.3784693776039 11.0
  endloop
endfacet
facet normal 0.9996036720771806 -0.028151354671073433 -3.5247429568162676e-16
  outer loop
    vertex 19.684671741149412 27.8900678504149 11.0
    vertex 19.64931228447969 25.378469377603906 15.0
    vertex 19.649312284479688 25.378469377603906 11.0
  endloop
endfacet
facet normal 0.9999999999999999 -6.626812216594229e-17 -7.733933618370741e-16
  outer loop
    vertex 19.64931228447969 25.378469377603906 15.0
    vertex 19.684671741149412 27.8900678504149 11.0
    vertex 19.684671741149415 27.8900678504149 15.0
  endloop
endfacet
facet normal 0.9901075007982341 0.140310857965715 5.207746128537455e-32
  outer loop
    vertex 20.53189808462135 12.860260548824918 11.0
    vertex 20.85153873483045 10.812629501892868 15.0
    vertex 20.851538734830445 10.812629501892868 11.0
  endloop
endfacet
facet normal 0.9880342280489399 0.1542347697626428 5.205389322158598e-32
  outer loop
    vertex 20.85153873483045 10.812629501892868 15.0
    vertex 20.53189808462135 12.860260548824918 11.0
    vertex 20.531898084621353 12.860260548824918 15.0
  endloop
endfacet
facet normal 0.99366503427587 0.11238238143736706 -6.097230889790336e-16
  outer loop
    vertex 20.214503211308713 15.351974351451002 11.0
    vertex 20.531898084621353 12.860260548824918 15.0
    vertex 20.53189808462135 12.860260548824918 11.0
  endloop
endfacet
facet normal 0.9901075007982341 0.140310857965715 5.207746128537455e-32
  outer loop
    vertex 20.531898084621353 12.860260548824918 15.0
    vertex 20.214503211308713 15.351974351451002 11.0
    vertex 20.214503211308717 15.351974351451002 15.0
  endloop
endfacet
facet normal 0.9964349333554798 0.08436482435743084 -6.097230889790336e-16
  outer loop
    vertex 19.967379249443447 17.851635713970833 11.0
    vertex 20.214503211308717 15.351974351451002 15.0
    vertex 20.214503211308713 15.351974351451002 11.0
  endloop
endfacet
facet normal 0.99366503427587 0.11238238143736706 -6.097230889790334e-16
  outer loop
    vertex 20.214503211308717 15.351974351451002 15.0
    vertex 19.967379249443447 17.851635713970833 11.0
    vertex 20.21188383416796 15.378469377603908 15.0
  endloop
endfacet
facet normal 0.9951485899943571 0.09838335139769969 -1.219325346829002e-15
  outer loop
    vertex 20.21188383416796 15.378469377603908 15.0
    vertex 19.967379249443447 17.851635713970833 11.0
    vertex 19.96737924944345 17.851635713970833 15.0
  endloop
endfacet
facet normal 0.9984150024603671 0.056280395006297626 5.20021212479151e-32
  outer loop
    vertex 19.790722083278535 20.357263265193293 11.0
    vertex 19.96737924944345 17.851635713970833 15.0
    vertex 19.967379249443447 17.851635713970833 11.0
  endloop
endfacet
facet normal 0.99643493335548 0.08436482435743083 -6.097230889790336e-16
  outer loop
    vertex 19.96737924944345 17.851635713970833 15.0
    vertex 19.790722083278535 20.357263265193293 11.0
    vertex 19.790722083278535 20.357263265193293 15.0
  endloop
endfacet
facet normal 0.9996036720771806 0.028151354671071126 -4.2091906615544744e-16
  outer loop
    vertex 19.684671741149412 22.86687090479291 11.0
    vertex 19.790722083278535 20.357263265193293 15.0
    vertex 19.790722083278535 20.357263265193293 11.0
  endloop
endfacet
facet normal 0.9984150024603671 0.056280395006297626 5.20021212479151e-32
  outer loop
    vertex 19.790722083278535 20.357263265193293 15.0
    vertex 19.684671741149412 22.86687090479291 11.0
    vertex 19.684671741149415 22.86687090479291 15.0
  endloop
endfacet
facet normal -0.0 -0.0 1.0
  outer loop
    vertex 19.677469218840418 23.378469377603906 10.0
    vertex 19.649312284479688 25.378469377603906 10.0
    vertex 19.649312284479688 23.378469377603906 10.0
  endloop
endfacet
facet normal 0.9999009131101894 0.014077072188839357 -8.417547171886402e-16
  outer loop
    vertex 19.677469218840418 23.378469377603906 11.0
    vertex 19.684671741149415 22.86687090479291 15.0
    vertex 19.684671741149412 22.86687090479291 11.0
  endloop
endfacet
facet normal 0.9996036720771806 0.028151354671071126 -4.2091906615544744e-16
  outer loop
    vertex 19.684671741149415 22.86687090479291 15.0
    vertex 19.677469218840418 23.378469377603906 11.0
    vertex 19.64931228447969 25.378469377603906 15.0
  endloop
endfacet
facet normal 0.9999999999999999 -6.626812216594229e-17 -7.733933618370741e-16
  outer loop
    vertex 19.64931228447969 25.378469377603906 15.0
    vertex 19.677469218840418 23.378469377603906 11.0
    vertex 19.649312284479688 25.378469377603906 11.0
  endloop
endfacet
facet normal -3.6462196903426177e-16 1.0829869909468065e-19 1.0
  outer loop
    vertex 19.677469218840418 23.378469377603906 11.0
    vertex 19.684671741149412 27.8900678504149 11.0
    vertex 19.649312284479688 25.378469377603906 11.0
  endloop
endfacet
facet normal -3.6462196903426177e-16 1.0829869909468065e-19 1.0
  outer loop
    vertex 19.684671741149412 27.8900678504149 11.0
    vertex 19.677469218840418 23.378469377603906 11.0
    vertex 19.684671741149412 22.86687090479291 11.0
  endloop
endfacet
facet normal -3.6462196903426177e-16 1.0829869909468065e-19 1.0
  outer loop
    vertex 19.684671741149412 27.8900678504149 11.0
    vertex 19.684671741149412 22.86687090479291 11.0
    vertex 19.790722083278535 20.357263265193293 11.0
  endloop
endfacet
facet normal -3.6462196903426177e-16 1.0829869909468065e-19 1.0
  outer loop
    vertex 19.684671741149412 27.8900678504149 11.0
    vertex 19.790722083278535 20.357263265193293 11.0
    vertex 19.790722083278546 30.39967549001452 11.0
  endloop
endfacet
facet normal -3.6462196903426177e-16 1.0829869909468065e-19 1.0
  outer loop
    vertex 19.790722083278546 30.39967549001452 11.0
    vertex 19.790722083278535 20.357263265193293 11.0
    vertex 19.967379249443447 17.851635713970833 11.0
  endloop
endfacet
facet normal -3.6462196903426177e-16 1.0829869909468065e-19 1.0
  outer loop
    vertex 19.790722083278546 30.39967549001452 11.0
    vertex 19.967379249443447 17.851635713970833 11.0
    vertex 19.967379249443447 32.90530304123698 11.0
  endloop
endfacet
facet normal -3.6462196903426177e-16 1.0829869909468065e-19 1.0
  outer loop
    vertex 19.967379249443447 32.90530304123698 11.0
    vertex 19.967379249443447 17.851635713970833 11.0
    vertex 20.214503211308713 15.351974351451002 11.0
  endloop
endfacet
facet normal -3.6462196903426177e-16 1.0829869909468065e-19 1.0
  outer loop
    vertex 19.967379249443447 32.90530304123698 11.0
    vertex 20.214503211308713 15.351974351451002 11.0
    vertex 20.214503211308713 35.40496440375681 11.0
  endloop
endfacet
facet normal -3.6462196903426177e-16 1.0829869909468065e-19 1.0
  outer loop
    vertex 20.214503211308713 35.40496440375681 11.0
    vertex 20.214503211308713 15.351974351451002 11.0
    vertex 20.53189808462135 12.860260548824918 11.0
  endloop
endfacet
facet normal -3.6462196903426177e-16 1.0829869909468065e-19 1.0
  outer loop
    vertex 20.214503211308713 35.40496440375681 11.0
    vertex 20.53189808462135 12.860260548824918 11.0
    vertex 20.531898084621375 37.896678206382894 11.0
  endloop
endfacet
facet normal -3.6462196903426177e-16 1.0829869909468065e-19 1.0
  outer loop
    vertex 20.531898084621375 37.896678206382894 11.0
    vertex 20.53189808462135 12.860260548824918 11.0
    vertex 20.851538734830445 10.812629501892868 11.0
  endloop
endfacet
facet normal -3.6462196903426177e-16 1.0829869909468065e-19 1.0
  outer loop
    vertex 20.531898084621375 37.896678206382894 11.0
    vertex 20.851538734830445 10.812629501892868 11.0
    vertex 20.851538734830445 39.94430925331492 11.0
  endloop
endfacet
facet normal -3.6462196903426177e-16 1.0829869909468065e-19 1.0
  outer loop
    vertex 20.851538734830445 39.94430925331492 11.0
    vertex 20.851538734830445 10.812629501892868 11.0
    vertex 20.919312284479673 10.803706944811184 11.0
  endloop
endfacet
facet normal -3.6462196903426177e-16 1.0829869909468065e-19 1.0
  outer loop
    vertex 20.851538734830445 39.94430925331492 11.0
    vertex 20.919312284479673 10.803706944811184 11.0
    vertex 20.919312284479673 39.9532318103966 11.0
  endloop
endfacet
facet normal -3.6462196903426177e-16 1.0829869909468065e-19 1.0
  outer loop
    vertex 20.919312284479673 39.9532318103966 11.0
    vertex 20.919312284479673 10.803706944811184 11.0
    vertex 22.149312284479688 25.378469377603906 11.0
  endloop
endfacet
facet normal -3.6462196903426177e-16 1.0829869909468065e-19 1.0
  outer loop
    vertex 22.149312284479688 25.378469377603906 11.0
    vertex 20.919312284479673 10.803706944811184 11.0
    vertex 22.200423545046085 24.990240809950127 11.0
  endloop
endfacet
facet normal -3.6462196903426177e-16 1.0829869909468065e-19 1.0
  outer loop
    vertex 22.200423545046085 24.990240809950127 11.0
    vertex 20.919312284479673 10.803706944811184 11.0
    vertex 24.149312284479674 10.378469377603894 11.0
  endloop
endfacet
facet normal -3.6462196903426177e-16 1.0829869909468065e-19 1.0
  outer loop
    vertex 22.200423545046085 24.990240809950127 11.0
    vertex 24.149312284479674 10.378469377603894 11.0
    vertex 22.35027417880303 24.628469377603906 11.0
  endloop
endfacet
facet normal -3.6462196903426177e-16 1.0829869909468065e-19 1.0
  outer loop
    vertex 22.35027417880303 24.628469377603906 11.0
    vertex 24.149312284479674 10.378469377603894 11.0
    vertex 22.58865211269987 24.317809205824084 11.0
  endloop
endfacet
facet normal -3.6462196903426177e-16 1.0829869909468065e-19 1.0
  outer loop
    vertex 22.58865211269987 24.317809205824084 11.0
    vertex 24.149312284479674 10.378469377603894 11.0
    vertex 22.899312284479688 24.07943127192725 11.0
  endloop
endfacet
facet normal -3.6462196903426177e-16 1.0829869909468065e-19 1.0
  outer loop
    vertex 22.899312284479688 24.07943127192725 11.0
    vertex 24.149312284479674 10.378469377603894 11.0
    vertex 23.261083716825908 23.929580638170304 11.0
  endloop
endfacet
facet normal -3.6462196903426177e-16 1.0829869909468065e-19 1.0
  outer loop
    vertex 23.261083716825908 23.929580638170304 11.0
    vertex 24.149312284479674 10.378469377603894 11.0
    vertex 23.649312284479688 23.878469377603906 11.0
  endloop
endfacet
facet normal -3.6462196903426177e-16 1.0829869909468065e-19 1.0
  outer loop
    vertex 23.649312284479688 23.878469377603906 11.0
    vertex 24.149312284479674 10.378469377603894 11.0
    vertex 24.03754085213347 23.929580638170304 11.0
  endloop
endfacet
facet normal -3.6462196903426177e-16 1.0829869909468065e-19 1.0
  outer loop
    vertex 24.03754085213347 23.929580638170304 11.0
    vertex 24.149312284479674 10.378469377603894 11.0
    vertex 24.399312284479688 24.07943127192725 11.0
  endloop
endfacet
facet normal -3.6462196903426177e-16 1.0829869909468065e-19 1.0
  outer loop
    vertex 24.399312284479688 24.07943127192725 11.0
    vertex 24.149312284479674 10.378469377603894 11.0
    vertex 28.649312284479674 10.378469377603894 11.0
  endloop
endfacet
facet normal -3.6462196903426177e-16 1.0829869909468065e-19 1.0
  outer loop
    vertex 24.399312284479688 24.07943127192725 11.0
    vertex 28.649312284479674 10.378469377603894 11.0
    vertex 24.70997245625951 24.317809205824084 11.0
  endloop
endfacet
facet normal -3.6462196903426177e-16 1.0829869909468065e-19 1.0
  outer loop
    vertex 24.70997245625951 24.317809205824084 11.0
    vertex 28.649312284479674 10.378469377603894 11.0
    vertex 24.948350390156346 24.628469377603906 11.0
  endloop
endfacet
facet normal -3.6462196903426177e-16 1.0829869909468065e-19 1.0
  outer loop
    vertex 24.948350390156346 24.628469377603906 11.0
    vertex 28.649312284479674 10.378469377603894 11.0
    vertex 25.09820102391329 24.990240809950127 11.0
  endloop
endfacet
facet normal -3.6462196903426177e-16 1.0829869909468065e-19 1.0
  outer loop
    vertex 25.09820102391329 24.990240809950127 11.0
    vertex 28.649312284479674 10.378469377603894 11.0
    vertex 25.149312284479688 25.378469377603906 11.0
  endloop
endfacet
facet normal -3.6462196903426177e-16 1.0829869909468065e-19 1.0
  outer loop
    vertex 25.149312284479688 25.378469377603906 11.0
    vertex 28.649312284479674 10.378469377603894 11.0
    vertex 28.216319007883968 12.855718973888397 11.000000000000002
  endloop
endfacet
facet normal -3.6462196903426177e-16 1.0829869909468065e-19 1.0
  outer loop
    vertex 25.149312284479688 25.378469377603906 11.0
    vertex 28.216319007883968 12.855718973888397 11.000000000000002
    vertex 27.861465872299647 15.345363123568191 11.000000000000002
  endloop
endfacet
facet normal -3.6462196903426177e-16 1.0829869909468065e-19 1.0
  outer loop
    vertex 25.149312284479688 25.378469377603906 11.0
    vertex 27.861465872299647 15.345363123568191 11.000000000000002
    vertex 27.585104098185077 17.84493766930134 11.000000000000004
  endloop
endfacet
facet normal -3.6462196903426177e-16 1.0829869909468065e-19 1.0
  outer loop
    vertex 25.149312284479688 25.378469377603906 11.0
    vertex 27.585104098185077 17.84493766930134 11.000000000000004
    vertex 27.3875072181633 20.351968625008606 11.000000000000004
  endloop
endfacet
facet normal -3.6462196903426177e-16 1.0829869909468065e-19 1.0
  outer loop
    vertex 25.149312284479688 25.378469377603906 11.0
    vertex 27.3875072181633 20.351968625008606 11.000000000000004
    vertex 27.268870806289605 22.863974624533007 11.000000000000004
  endloop
endfacet
facet normal -3.6462196903426177e-16 1.0829869909468065e-19 1.0
  outer loop
    vertex 25.149312284479688 25.378469377603906 11.0
    vertex 27.268870806289605 22.863974624533007 11.000000000000004
    vertex 27.22931228447967 25.378469377603896 11.000000000000005
  endloop
endfacet
facet normal -3.6462196903426177e-16 1.0829869909468065e-19 1.0
  outer loop
    vertex 20.919312284479673 39.9532318103966 11.0
    vertex 22.200423545046085 25.76669794525769 11.0
    vertex 24.149312284479674 40.3784693776039 11.0
  endloop
endfacet
facet normal -3.6462196903426177e-16 1.0829869909468065e-19 1.0
  outer loop
    vertex 22.200423545046085 25.76669794525769 11.0
    vertex 20.919312284479673 39.9532318103966 11.0
    vertex 22.149312284479688 25.378469377603906 11.0
  endloop
endfacet
facet normal -3.6462196903426177e-16 1.0829869909468065e-19 1.0
  outer loop
    vertex 24.149312284479674 40.3784693776039 11.0
    vertex 22.200423545046085 25.76669794525769 11.0
    vertex 22.35027417880303 26.128469377603906 11.0
  endloop
endfacet
facet normal -3.6462196903426177e-16 1.0829869909468065e-19 1.0
  outer loop
    vertex 24.149312284479674 40.3784693776039 11.0
    vertex 22.35027417880303 26.128469377603906 11.0
    vertex 22.58865211269987 26.43912954938373 11.0
  endloop
endfacet
facet normal -3.6462196903426177e-16 1.0829869909468065e-19 1.0
  outer loop
    vertex 24.149312284479674 40.3784693776039 11.0
    vertex 22.58865211269987 26.43912954938373 11.0
    vertex 22.89931228447969 26.67750748328056 11.0
  endloop
endfacet
facet normal -3.6462196903426177e-16 1.0829869909468065e-19 1.0
  outer loop
    vertex 24.149312284479674 40.3784693776039 11.0
    vertex 22.89931228447969 26.67750748328056 11.0
    vertex 23.261083716825908 26.82735811703751 11.0
  endloop
endfacet
facet normal -3.6462196903426177e-16 1.0829869909468065e-19 1.0
  outer loop
    vertex 24.149312284479674 40.3784693776039 11.0
    vertex 23.261083716825908 26.82735811703751 11.0
    vertex 23.649312284479688 26.878469377603903 11.0
  endloop
endfacet
facet normal -3.6462196903426177e-16 1.0829869909468065e-19 1.0
  outer loop
    vertex 24.149312284479674 40.3784693776039 11.0
    vertex 23.649312284479688 26.878469377603903 11.0
    vertex 24.03754085213347 26.82735811703751 11.0
  endloop
endfacet
facet normal -3.6462196903426177e-16 1.0829869909468065e-19 1.0
  outer loop
    vertex 24.149312284479674 40.3784693776039 11.0
    vertex 24.03754085213347 26.82735811703751 11.0
    vertex 24.39931228447969 26.67750748328056 11.0
  endloop
endfacet
facet normal -3.6462196903426177e-16 1.0829869909468065e-19 1.0
  outer loop
    vertex 24.149312284479674 40.3784693776039 11.0
    vertex 24.39931228447969 26.67750748328056 11.0
    vertex 28.649312284479674 40.3784693776039 11.0
  endloop
endfacet
facet normal -3.6462196903426177e-16 1.0829869909468065e-19 1.0
  outer loop
    vertex 28.649312284479674 40.3784693776039 11.0
    vertex 24.39931228447969 26.67750748328056 11.0
    vertex 24.70997245625951 26.439129549383726 11.0
  endloop
endfacet
facet normal -3.6462196903426177e-16 1.0829869909468065e-19 1.0
  outer loop
    vertex 28.649312284479674 40.3784693776039 11.0
    vertex 24.70997245625951 26.439129549383726 11.0
    vertex 24.948350390156346 26.128469377603906 11.0
  endloop
endfacet
facet normal -3.6462196903426177e-16 1.0829869909468065e-19 1.0
  outer loop
    vertex 28.649312284479674 40.3784693776039 11.0
    vertex 24.948350390156346 26.128469377603906 11.0
    vertex 25.09820102391329 25.766697945257686 11.0
  endloop
endfacet
facet normal -3.6462196903426177e-16 1.0829869909468065e-19 1.0
  outer loop
    vertex 28.649312284479674 40.3784693776039 11.0
    vertex 25.09820102391329 25.766697945257686 11.0
    vertex 25.149312284479688 25.378469377603906 11.0
  endloop
endfacet
facet normal -3.6462196903426177e-16 1.0829869909468065e-19 1.0
  outer loop
    vertex 28.649312284479674 40.3784693776039 11.0
    vertex 25.149312284479688 25.378469377603906 11.0
    vertex 28.216319007883968 37.9012197813194 11.000000000000002
  endloop
endfacet
facet normal -3.6462196903426177e-16 1.0829869909468065e-19 1.0
  outer loop
    vertex 28.216319007883968 37.9012197813194 11.000000000000002
    vertex 25.149312284479688 25.378469377603906 11.0
    vertex 27.861465872299647 35.41157563163961 11.000000000000002
  endloop
endfacet
facet normal -3.6462196903426177e-16 1.0829869909468065e-19 1.0
  outer loop
    vertex 27.861465872299647 35.41157563163961 11.000000000000002
    vertex 25.149312284479688 25.378469377603906 11.0
    vertex 27.585104098185077 32.91200108590646 11.000000000000004
  endloop
endfacet
facet normal -3.6462196903426177e-16 1.0829869909468065e-19 1.0
  outer loop
    vertex 27.585104098185077 32.91200108590646 11.000000000000004
    vertex 25.149312284479688 25.378469377603906 11.0
    vertex 27.3875072181633 30.404970130199192 11.000000000000004
  endloop
endfacet
facet normal -3.6462196903426177e-16 1.0829869909468065e-19 1.0
  outer loop
    vertex 27.3875072181633 30.404970130199192 11.000000000000004
    vertex 25.149312284479688 25.378469377603906 11.0
    vertex 27.268870806289616 27.892964130674795 11.000000000000004
  endloop
endfacet
facet normal -3.6462196903426177e-16 1.0829869909468065e-19 1.0
  outer loop
    vertex 27.268870806289616 27.892964130674795 11.000000000000004
    vertex 25.149312284479688 25.378469377603906 11.0
    vertex 27.22931228447967 25.378469377603896 11.000000000000005
  endloop
endfacet
facet normal 0.9999009131101892 0.014077072188838618 3.6458431524878835e-16
  outer loop
    vertex 19.649312284479688 25.378469377603906 10.0
    vertex 19.677469218840418 23.378469377603906 11.0
    vertex 19.677469218840418 23.378469377603906 10.0
  endloop
endfacet
facet normal 0.9999009131101892 0.014077072188838618 3.6458431524878835e-16
  outer loop
    vertex 19.677469218840418 23.378469377603906 11.0
    vertex 19.649312284479688 25.378469377603906 10.0
    vertex 19.649312284479688 25.378469377603906 11.0
  endloop
endfacet
facet normal 1.0 4.811999343649329e-16 0.0
  outer loop
    vertex 22.149312284479688 25.378469377603906 0.0
    vertex 22.200423545046085 24.990240809950127 11.0
    vertex 22.200423545046085 24.990240809950127 0.0
  endloop
endfacet
facet normal 0.9659258262890682 0.25881904510252063 0.0
  outer loop
    vertex 22.200423545046085 24.990240809950127 11.0
    vertex 22.149312284479688 25.378469377603906 0.0
    vertex 22.149312284479688 25.378469377603906 11.0
  endloop
endfacet
facet normal 0.965925826289068 -0.25881904510252146 0.0
  outer loop
    vertex 22.200423545046085 25.76669794525769 0.0
    vertex 22.149312284479688 25.378469377603906 11.0
    vertex 22.149312284479688 25.378469377603906 0.0
  endloop
endfacet
facet normal 1.0 4.811999343649329e-16 0.0
  outer loop
    vertex 22.149312284479688 25.378469377603906 11.0
    vertex 22.200423545046085 25.76669794525769 0.0
    vertex 22.200423545046085 25.76669794525769 11.0
  endloop
endfacet
facet normal 0.8660254037844392 -0.4999999999999993 0.0
  outer loop
    vertex 22.35027417880303 26.128469377603906 0.0
    vertex 22.200423545046085 25.76669794525769 11.0
    vertex 22.200423545046085 25.76669794525769 0.0
  endloop
endfacet
facet normal 0.965925826289068 -0.25881904510252146 0.0
  outer loop
    vertex 22.200423545046085 25.76669794525769 11.0
    vertex 22.35027417880303 26.128469377603906 0.0
    vertex 22.35027417880303 26.128469377603906 11.0
  endloop
endfacet
facet normal 0.7071067811865451 -0.70710678118655 0.0
  outer loop
    vertex 22.58865211269987 26.43912954938373 0.0
    vertex 22.35027417880303 26.128469377603906 11.0
    vertex 22.35027417880303 26.128469377603906 0.0
  endloop
endfacet
facet normal 0.8660254037844392 -0.4999999999999993 0.0
  outer loop
    vertex 22.35027417880303 26.128469377603906 11.0
    vertex 22.58865211269987 26.43912954938373 0.0
    vertex 22.58865211269987 26.43912954938373 11.0
  endloop
endfacet
facet normal 0.4999999999999979 -0.86602540378444 0.0
  outer loop
    vertex 22.89931228447969 26.67750748328056 11.0
    vertex 22.58865211269987 26.43912954938373 0.0
    vertex 22.89931228447969 26.67750748328056 0.0
  endloop
endfacet
facet normal 0.7071067811865451 -0.70710678118655 0.0
  outer loop
    vertex 22.58865211269987 26.43912954938373 0.0
    vertex 22.89931228447969 26.67750748328056 11.0
    vertex 22.58865211269987 26.43912954938373 11.0
  endloop
endfacet
facet normal 0.2588190451025204 -0.9659258262890684 0.0
  outer loop
    vertex 23.261083716825908 26.82735811703751 11.0
    vertex 22.89931228447969 26.67750748328056 0.0
    vertex 23.261083716825908 26.82735811703751 0.0
  endloop
endfacet
facet normal 0.4999999999999979 -0.86602540378444 0.0
  outer loop
    vertex 22.89931228447969 26.67750748328056 0.0
    vertex 23.261083716825908 26.82735811703751 11.0
    vertex 22.89931228447969 26.67750748328056 11.0
  endloop
endfacet
facet normal 0.0 -1.0 0.0
  outer loop
    vertex 23.649312284479688 26.878469377603903 11.0
    vertex 23.261083716825908 26.82735811703751 0.0
    vertex 23.649312284479688 26.878469377603903 0.0
  endloop
endfacet
facet normal 0.2588190451025204 -0.9659258262890684 0.0
  outer loop
    vertex 23.261083716825908 26.82735811703751 0.0
    vertex 23.649312284479688 26.878469377603903 11.0
    vertex 23.261083716825908 26.82735811703751 11.0
  endloop
endfacet
facet normal -0.2588190451025191 -0.9659258262890688 0.0
  outer loop
    vertex 24.03754085213347 26.82735811703751 11.0
    vertex 23.649312284479688 26.878469377603903 0.0
    vertex 24.03754085213347 26.82735811703751 0.0
  endloop
endfacet
facet normal 0.0 -1.0 0.0
  outer loop
    vertex 23.649312284479688 26.878469377603903 0.0
    vertex 24.03754085213347 26.82735811703751 11.0
    vertex 23.649312284479688 26.878469377603903 11.0
  endloop
endfacet
facet normal -0.5000000000000034 -0.8660254037844365 0.0
  outer loop
    vertex 24.39931228447969 26.67750748328056 11.0
    vertex 24.03754085213347 26.82735811703751 0.0
    vertex 24.39931228447969 26.67750748328056 0.0
  endloop
endfacet
facet normal -0.2588190451025191 -0.9659258262890688 0.0
  outer loop
    vertex 24.03754085213347 26.82735811703751 0.0
    vertex 24.39931228447969 26.67750748328056 11.0
    vertex 24.03754085213347 26.82735811703751 11.0
  endloop
endfacet
facet normal -0.7071067811865476 -0.7071067811865476 0.0
  outer loop
    vertex 24.70997245625951 26.439129549383726 11.0
    vertex 24.39931228447969 26.67750748328056 0.0
    vertex 24.70997245625951 26.439129549383726 0.0
  endloop
endfacet
facet normal -0.5000000000000034 -0.8660254037844365 0.0
  outer loop
    vertex 24.39931228447969 26.67750748328056 0.0
    vertex 24.70997245625951 26.439129549383726 11.0
    vertex 24.39931228447969 26.67750748328056 11.0
  endloop
endfacet
facet normal -0.7071067811865476 -0.7071067811865476 0.0
  outer loop
    vertex 24.70997245625951 26.439129549383726 11.0
    vertex 24.948350390156346 26.128469377603906 0.0
    vertex 24.948350390156346 26.128469377603906 11.0
  endloop
endfacet
facet normal -0.8660254037844384 -0.5000000000000007 0.0
  outer loop
    vertex 24.948350390156346 26.128469377603906 0.0
    vertex 24.70997245625951 26.439129549383726 11.0
    vertex 24.70997245625951 26.439129549383726 0.0
  endloop
endfacet
facet normal -0.8660254037844384 -0.5000000000000007 0.0
  outer loop
    vertex 24.948350390156346 26.128469377603906 11.0
    vertex 25.09820102391329 25.766697945257686 0.0
    vertex 25.09820102391329 25.766697945257686 11.0
  endloop
endfacet
facet normal -0.9659258262890685 -0.2588190451025198 0.0
  outer loop
    vertex 25.09820102391329 25.766697945257686 0.0
    vertex 24.948350390156346 26.128469377603906 11.0
    vertex 24.948350390156346 26.128469377603906 0.0
  endloop
endfacet
facet normal -0.9659258262890685 -0.2588190451025198 0.0
  outer loop
    vertex 25.09820102391329 25.766697945257686 11.0
    vertex 25.149312284479688 25.378469377603906 0.0
    vertex 25.149312284479688 25.378469377603906 11.0
  endloop
endfacet
facet normal -1.0 -4.633777145736391e-16 0.0
  outer loop
    vertex 25.149312284479688 25.378469377603906 0.0
    vertex 25.09820102391329 25.766697945257686 11.0
    vertex 25.09820102391329 25.766697945257686 0.0
  endloop
endfacet
facet normal -1.0 -4.633777145736391e-16 0.0
  outer loop
    vertex 25.149312284479688 25.378469377603906 11.0
    vertex 25.09820102391329 24.990240809950127 0.0
    vertex 25.09820102391329 24.990240809950127 11.0
  endloop
endfacet
facet normal -0.9659258262890688 0.25881904510251935 0.0
  outer loop
    vertex 25.09820102391329 24.990240809950127 0.0
    vertex 25.149312284479688 25.378469377603906 11.0
    vertex 25.149312284479688 25.378469377603906 0.0
  endloop
endfacet
facet normal -0.9659258262890688 0.25881904510251935 0.0
  outer loop
    vertex 25.09820102391329 24.990240809950127 11.0
    vertex 24.948350390156346 24.628469377603906 0.0
    vertex 24.948350390156346 24.628469377603906 11.0
  endloop
endfacet
facet normal -0.8660254037844384 0.5000000000000007 0.0
  outer loop
    vertex 24.948350390156346 24.628469377603906 0.0
    vertex 25.09820102391329 24.990240809950127 11.0
    vertex 25.09820102391329 24.990240809950127 0.0
  endloop
endfacet
facet normal -0.8660254037844384 0.5000000000000007 0.0
  outer loop
    vertex 24.948350390156346 24.628469377603906 11.0
    vertex 24.70997245625951 24.317809205824084 0.0
    vertex 24.70997245625951 24.317809205824084 11.0
  endloop
endfacet
facet normal -0.7071067811865459 0.7071067811865491 0.0
  outer loop
    vertex 24.70997245625951 24.317809205824084 0.0
    vertex 24.948350390156346 24.628469377603906 11.0
    vertex 24.948350390156346 24.628469377603906 0.0
  endloop
endfacet
facet normal -0.5 0.8660254037844387 0.0
  outer loop
    vertex 24.399312284479688 24.07943127192725 11.0
    vertex 24.70997245625951 24.317809205824084 0.0
    vertex 24.399312284479688 24.07943127192725 0.0
  endloop
endfacet
facet normal -0.7071067811865459 0.7071067811865491 0.0
  outer loop
    vertex 24.70997245625951 24.317809205824084 0.0
    vertex 24.399312284479688 24.07943127192725 11.0
    vertex 24.70997245625951 24.317809205824084 11.0
  endloop
endfacet
facet normal -0.25881904510252063 0.9659258262890682 0.0
  outer loop
    vertex 24.03754085213347 23.929580638170304 11.0
    vertex 24.399312284479688 24.07943127192725 0.0
    vertex 24.03754085213347 23.929580638170304 0.0
  endloop
endfacet
facet normal -0.5 0.8660254037844387 0.0
  outer loop
    vertex 24.399312284479688 24.07943127192725 0.0
    vertex 24.03754085213347 23.929580638170304 11.0
    vertex 24.399312284479688 24.07943127192725 11.0
  endloop
endfacet
facet normal 0.0 1.0 0.0
  outer loop
    vertex 23.649312284479688 23.878469377603906 11.0
    vertex 24.03754085213347 23.929580638170304 0.0
    vertex 23.649312284479688 23.878469377603906 0.0
  endloop
endfacet
facet normal -0.25881904510252063 0.9659258262890682 0.0
  outer loop
    vertex 24.03754085213347 23.929580638170304 0.0
    vertex 23.649312284479688 23.878469377603906 11.0
    vertex 24.03754085213347 23.929580638170304 11.0
  endloop
endfacet
facet normal 0.25881904510251935 0.9659258262890688 0.0
  outer loop
    vertex 23.261083716825908 23.929580638170304 11.0
    vertex 23.649312284479688 23.878469377603906 0.0
    vertex 23.261083716825908 23.929580638170304 0.0
  endloop
endfacet
facet normal 0.0 1.0 0.0
  outer loop
    vertex 23.649312284479688 23.878469377603906 0.0
    vertex 23.261083716825908 23.929580638170304 11.0
    vertex 23.649312284479688 23.878469377603906 11.0
  endloop
endfacet
facet normal 0.5000000000000007 0.8660254037844384 0.0
  outer loop
    vertex 22.899312284479688 24.07943127192725 11.0
    vertex 23.261083716825908 23.929580638170304 0.0
    vertex 22.899312284479688 24.07943127192725 0.0
  endloop
endfacet
facet normal 0.25881904510251935 0.9659258262890688 0.0
  outer loop
    vertex 23.261083716825908 23.929580638170304 0.0
    vertex 22.899312284479688 24.07943127192725 11.0
    vertex 23.261083716825908 23.929580638170304 11.0
  endloop
endfacet
facet normal 0.7071067811865491 0.7071067811865459 0.0
  outer loop
    vertex 22.58865211269987 24.317809205824084 11.0
    vertex 22.899312284479688 24.07943127192725 0.0
    vertex 22.58865211269987 24.317809205824084 0.0
  endloop
endfacet
facet normal 0.5000000000000007 0.8660254037844384 0.0
  outer loop
    vertex 22.899312284479688 24.07943127192725 0.0
    vertex 22.58865211269987 24.317809205824084 11.0
    vertex 22.899312284479688 24.07943127192725 11.0
  endloop
endfacet
facet normal 0.8660254037844387 0.5 0.0
  outer loop
    vertex 22.35027417880303 24.628469377603906 0.0
    vertex 22.58865211269987 24.317809205824084 11.0
    vertex 22.58865211269987 24.317809205824084 0.0
  endloop
endfacet
facet normal 0.7071067811865491 0.7071067811865459 0.0
  outer loop
    vertex 22.58865211269987 24.317809205824084 11.0
    vertex 22.35027417880303 24.628469377603906 0.0
    vertex 22.35027417880303 24.628469377603906 11.0
  endloop
endfacet
facet normal 0.9659258262890682 0.25881904510252063 0.0
  outer loop
    vertex 22.200423545046085 24.990240809950127 0.0
    vertex 22.35027417880303 24.628469377603906 11.0
    vertex 22.35027417880303 24.628469377603906 0.0
  endloop
endfacet
facet normal 0.8660254037844387 0.5 0.0
  outer loop
    vertex 22.35027417880303 24.628469377603906 11.0
    vertex 22.200423545046085 24.990240809950127 0.0
    vertex 22.200423545046085 24.990240809950127 11.0
  endloop
endfacet
endsolid KosselHeatbedMount
