solid OpenSCAD_Model
  facet normal -1 0 0
    outer loop
      vertex -10 -3.2 8.125
      vertex -10 3.2 16.25
      vertex -10 3.2 8.125
    endloop
  endfacet
  facet normal -1 -0 0
    outer loop
      vertex -10 3.2 16.25
      vertex -10 -3.2 8.125
      vertex -10 -3.2 16.25
    endloop
  endfacet
  facet normal 0 0 1
    outer loop
      vertex 2.25 5.2 16.25
      vertex -2.25 5.2 16.25
      vertex 2.25 3.2 16.25
    endloop
  endfacet
  facet normal 0 0 1
    outer loop
      vertex 10 3.2 16.25
      vertex 4.25 -1.8 16.25
      vertex 10 -3.2 16.25
    endloop
  endfacet
  facet normal -0 0 1
    outer loop
      vertex 2.25 3.2 16.25
      vertex 4.25 -1.8 16.25
      vertex 10 3.2 16.25
    endloop
  endfacet
  facet normal 0 0 1
    outer loop
      vertex -2.25 3.2 16.25
      vertex 2.25 3.2 16.25
      vertex -2.25 5.2 16.25
    endloop
  endfacet
  facet normal 0 0 1
    outer loop
      vertex 2.25 3.2 16.25
      vertex -2.25 3.2 16.25
      vertex 4.25 -1.8 16.25
    endloop
  endfacet
  facet normal 0 0 1
    outer loop
      vertex -2.25 3.2 16.25
      vertex -4.25 -1.8 16.25
      vertex 4.25 -1.8 16.25
    endloop
  endfacet
  facet normal -0 0 1
    outer loop
      vertex -10 3.2 16.25
      vertex -4.25 -1.8 16.25
      vertex -2.25 3.2 16.25
    endloop
  endfacet
  facet normal 0 0 1
    outer loop
      vertex -10 -3.2 16.25
      vertex -4.25 -1.8 16.25
      vertex -10 3.2 16.25
    endloop
  endfacet
  facet normal 0 0 1
    outer loop
      vertex -4.25 -1.8 16.25
      vertex -10 -3.2 16.25
      vertex -4.25 -3.2 16.25
    endloop
  endfacet
  facet normal 0 0 1
    outer loop
      vertex 10 -3.2 16.25
      vertex 4.25 -1.8 16.25
      vertex 4.25 -3.2 16.25
    endloop
  endfacet
  facet normal 1 -0 0
    outer loop
      vertex 10 -3.2 16.25
      vertex 10 3.2 8.125
      vertex 10 3.2 16.25
    endloop
  endfacet
  facet normal 1 0 0
    outer loop
      vertex 10 3.2 8.125
      vertex 10 -3.2 16.25
      vertex 10 -3.2 8.125
    endloop
  endfacet
  facet normal 0 0 -1
    outer loop
      vertex 11 -3.2 0
      vertex 2.25 3.2 0
      vertex 11 3.2 0
    endloop
  endfacet
  facet normal 0 0 -1
    outer loop
      vertex 2.25 3.2 0
      vertex -2.25 3.2 0
      vertex 2.25 5.2 0
    endloop
  endfacet
  facet normal 0 0 -1
    outer loop
      vertex 11 -3.2 0
      vertex -2.25 3.2 0
      vertex 2.25 3.2 0
    endloop
  endfacet
  facet normal 0 0 -1
    outer loop
      vertex -11 -3.2 0
      vertex -2.25 3.2 0
      vertex 11 -3.2 0
    endloop
  endfacet
  facet normal -0 0 -1
    outer loop
      vertex -2.25 3.2 0
      vertex -11 -3.2 0
      vertex -11 3.2 0
    endloop
  endfacet
  facet normal -0 0 -1
    outer loop
      vertex 2.25 5.2 0
      vertex -2.25 3.2 0
      vertex -2.25 5.2 0
    endloop
  endfacet
  facet normal 0 -1 0
    outer loop
      vertex -3.45 -3.2 3.875
      vertex -1.09998 -3.2 7.01982
      vertex -3.62417 -3.2 4.525
    endloop
  endfacet
  facet normal 0 -1 0
    outer loop
      vertex 0 -3.2 6.875
      vertex 4.1 -3.2 5.00083
      vertex 4.75 -3.2 5.175
    endloop
  endfacet
  facet normal 0 -1 -0
    outer loop
      vertex -1.09998 -3.2 7.01982
      vertex -3.45 -3.2 3.875
      vertex 0 -3.2 6.875
    endloop
  endfacet
  facet normal 0 -1 0
    outer loop
      vertex 0 -3.2 6.875
      vertex 3.62417 -3.2 4.525
      vertex 4.1 -3.2 5.00083
    endloop
  endfacet
  facet normal 0 -1 0
    outer loop
      vertex 3.45 -3.2 3.875
      vertex 0 -3.2 6.875
      vertex -3.45 -3.2 3.875
    endloop
  endfacet
  facet normal 0 -1 0
    outer loop
      vertex 0 -3.2 6.875
      vertex 3.45 -3.2 3.875
      vertex 3.62417 -3.2 4.525
    endloop
  endfacet
  facet normal 0 -1 0
    outer loop
      vertex -3.62417 -3.2 3.225
      vertex 3.45 -3.2 3.875
      vertex -3.45 -3.2 3.875
    endloop
  endfacet
  facet normal 0 -1 0
    outer loop
      vertex -3.62417 -3.2 3.225
      vertex 3.62417 -3.2 3.225
      vertex 3.45 -3.2 3.875
    endloop
  endfacet
  facet normal 0 -1 0
    outer loop
      vertex -4.1 -3.2 2.74917
      vertex 3.62417 -3.2 3.225
      vertex -3.62417 -3.2 3.225
    endloop
  endfacet
  facet normal 0 -1 0
    outer loop
      vertex -4.1 -3.2 2.74917
      vertex 4.1 -3.2 2.74917
      vertex 3.62417 -3.2 3.225
    endloop
  endfacet
  facet normal 0 -1 0
    outer loop
      vertex -4.75 -3.2 2.575
      vertex 4.1 -3.2 2.74917
      vertex -4.1 -3.2 2.74917
    endloop
  endfacet
  facet normal 0 -1 -0
    outer loop
      vertex 4.1 -3.2 2.74917
      vertex -4.75 -3.2 2.575
      vertex 4.75 -3.2 2.575
    endloop
  endfacet
  facet normal 0 -1 0
    outer loop
      vertex -11 -3.2 0
      vertex -10 -3.2 8.125
      vertex -11 -3.2 8.125
    endloop
  endfacet
  facet normal 0 -1 0
    outer loop
      vertex -10 -3.2 8.125
      vertex -5.4 -3.2 5.00083
      vertex -3.0052 -3.2 8.1198
    endloop
  endfacet
  facet normal -0 -1 0
    outer loop
      vertex -4.75 -3.2 5.175
      vertex -3.0052 -3.2 8.1198
      vertex -5.4 -3.2 5.00083
    endloop
  endfacet
  facet normal 0 -1 -0
    outer loop
      vertex -3.0052 -3.2 8.1198
      vertex -4.1 -3.2 5.00083
      vertex -2.125 -3.2 7.4444
    endloop
  endfacet
  facet normal 0 -1 0
    outer loop
      vertex -3.62417 -3.2 4.525
      vertex -2.125 -3.2 7.4444
      vertex -4.1 -3.2 5.00083
    endloop
  endfacet
  facet normal 0 -1 0
    outer loop
      vertex -4.1 -3.2 5.00083
      vertex -3.0052 -3.2 8.1198
      vertex -4.75 -3.2 5.175
    endloop
  endfacet
  facet normal 0 -1 0
    outer loop
      vertex -10 -3.2 8.125
      vertex -5.87583 -3.2 4.525
      vertex -5.4 -3.2 5.00083
    endloop
  endfacet
  facet normal 0 -1 0
    outer loop
      vertex -10 -3.2 8.125
      vertex -6.05 -3.2 3.875
      vertex -5.87583 -3.2 4.525
    endloop
  endfacet
  facet normal 0 -1 -0
    outer loop
      vertex -10 -3.2 8.125
      vertex -11 -3.2 0
      vertex -6.05 -3.2 3.875
    endloop
  endfacet
  facet normal 0 -1 -0
    outer loop
      vertex -6.05 -3.2 3.875
      vertex -11 -3.2 0
      vertex -5.87583 -3.2 3.225
    endloop
  endfacet
  facet normal 0 -1 -0
    outer loop
      vertex -4.75 -3.2 2.575
      vertex -11 -3.2 0
      vertex 4.75 -3.2 2.575
    endloop
  endfacet
  facet normal 0 -1 -0
    outer loop
      vertex -5.4 -3.2 2.74917
      vertex -11 -3.2 0
      vertex -4.75 -3.2 2.575
    endloop
  endfacet
  facet normal 0 -1 -0
    outer loop
      vertex -5.87583 -3.2 3.225
      vertex -11 -3.2 0
      vertex -5.4 -3.2 2.74917
    endloop
  endfacet
  facet normal 0 -1 0
    outer loop
      vertex -10 -3.2 16.25
      vertex -4.25 -3.2 11.125
      vertex -4.25 -3.2 16.25
    endloop
  endfacet
  facet normal 0 -1 0
    outer loop
      vertex -10 -3.2 8.125
      vertex -4.25 -3.2 11.125
      vertex -10 -3.2 16.25
    endloop
  endfacet
  facet normal 0 -1 -0
    outer loop
      vertex -4.25 -3.2 11.125
      vertex -10 -3.2 8.125
      vertex -4.10518 -3.2 10.025
    endloop
  endfacet
  facet normal 0 -1 -0
    outer loop
      vertex -4.10518 -3.2 10.025
      vertex -10 -3.2 8.125
      vertex -3.6806 -3.2 9.00002
    endloop
  endfacet
  facet normal 0 -1 -0
    outer loop
      vertex -3.6806 -3.2 9.00002
      vertex -10 -3.2 8.125
      vertex -3.0052 -3.2 8.1198
    endloop
  endfacet
  facet normal 0 -1 0
    outer loop
      vertex 4.25 -3.2 11.125
      vertex 10 -3.2 16.25
      vertex 4.25 -3.2 16.25
    endloop
  endfacet
  facet normal 0 -1 0
    outer loop
      vertex 10 -3.2 8.125
      vertex 4.25 -3.2 11.125
      vertex 4.10518 -3.2 10.025
    endloop
  endfacet
  facet normal 0 -1 0
    outer loop
      vertex 10 -3.2 8.125
      vertex 4.10518 -3.2 10.025
      vertex 3.6806 -3.2 9
    endloop
  endfacet
  facet normal 0 -1 0
    outer loop
      vertex 4.25 -3.2 11.125
      vertex 10 -3.2 8.125
      vertex 10 -3.2 16.25
    endloop
  endfacet
  facet normal 0 -1 0
    outer loop
      vertex 4.75 -3.2 5.175
      vertex 3.6806 -3.2 9
      vertex 3.0052 -3.2 8.1198
    endloop
  endfacet
  facet normal 0 -1 0
    outer loop
      vertex 3.6806 -3.2 9
      vertex 5.4 -3.2 5.00083
      vertex 10 -3.2 8.125
    endloop
  endfacet
  facet normal 0 -1 0
    outer loop
      vertex 4.75 -3.2 5.175
      vertex 3.0052 -3.2 8.1198
      vertex 2.125 -3.2 7.4444
    endloop
  endfacet
  facet normal 0 -1 0
    outer loop
      vertex 4.75 -3.2 5.175
      vertex 2.125 -3.2 7.4444
      vertex 1.09998 -3.2 7.01982
    endloop
  endfacet
  facet normal 0 -1 0
    outer loop
      vertex 4.75 -3.2 5.175
      vertex 1.09998 -3.2 7.01982
      vertex 0 -3.2 6.875
    endloop
  endfacet
  facet normal 0 -1 -0
    outer loop
      vertex -2.125 -3.2 7.4444
      vertex -3.62417 -3.2 4.525
      vertex -1.09998 -3.2 7.01982
    endloop
  endfacet
  facet normal 0 -1 0
    outer loop
      vertex 3.6806 -3.2 9
      vertex 4.75 -3.2 5.175
      vertex 5.4 -3.2 5.00083
    endloop
  endfacet
  facet normal 0 -1 0
    outer loop
      vertex 5.87583 -3.2 4.525
      vertex 10 -3.2 8.125
      vertex 5.4 -3.2 5.00083
    endloop
  endfacet
  facet normal 0 -1 0
    outer loop
      vertex 6.05 -3.2 3.875
      vertex 10 -3.2 8.125
      vertex 5.87583 -3.2 4.525
    endloop
  endfacet
  facet normal 0 -1 0
    outer loop
      vertex 11 -3.2 0
      vertex 10 -3.2 8.125
      vertex 6.05 -3.2 3.875
    endloop
  endfacet
  facet normal 0 -1 0
    outer loop
      vertex 11 -3.2 0
      vertex 6.05 -3.2 3.875
      vertex 5.87583 -3.2 3.225
    endloop
  endfacet
  facet normal 0 -1 0
    outer loop
      vertex 11 -3.2 0
      vertex 5.87583 -3.2 3.225
      vertex 5.4 -3.2 2.74917
    endloop
  endfacet
  facet normal 0 -1 0
    outer loop
      vertex 10 -3.2 8.125
      vertex 11 -3.2 0
      vertex 11 -3.2 8.125
    endloop
  endfacet
  facet normal 0 -1 0
    outer loop
      vertex 4.75 -3.2 2.575
      vertex 11 -3.2 0
      vertex 5.4 -3.2 2.74917
    endloop
  endfacet
  facet normal 0 -1 0
    outer loop
      vertex 11 -3.2 0
      vertex 4.75 -3.2 2.575
      vertex -11 -3.2 0
    endloop
  endfacet
  facet normal 0 1 -0
    outer loop
      vertex 11 3.2 0
      vertex 10 3.2 8.125
      vertex 11 3.2 8.125
    endloop
  endfacet
  facet normal 0 1 0
    outer loop
      vertex 10 3.2 8.125
      vertex 5.4 3.2 5.00083
      vertex 4.75 3.2 5.175
    endloop
  endfacet
  facet normal 0 1 0
    outer loop
      vertex 10 3.2 8.125
      vertex 5.87583 3.2 4.525
      vertex 5.4 3.2 5.00083
    endloop
  endfacet
  facet normal 0 1 0
    outer loop
      vertex 10 3.2 8.125
      vertex 6.05 3.2 3.875
      vertex 5.87583 3.2 4.525
    endloop
  endfacet
  facet normal 0 1 0
    outer loop
      vertex 10 3.2 8.125
      vertex 11 3.2 0
      vertex 6.05 3.2 3.875
    endloop
  endfacet
  facet normal 0 1 0
    outer loop
      vertex 6.05 3.2 3.875
      vertex 11 3.2 0
      vertex 5.87583 3.2 3.225
    endloop
  endfacet
  facet normal 0 1 0
    outer loop
      vertex 2.25 3.2 0
      vertex 5.4 3.2 2.74917
      vertex 11 3.2 0
    endloop
  endfacet
  facet normal 0 1 0
    outer loop
      vertex 5.87583 3.2 3.225
      vertex 11 3.2 0
      vertex 5.4 3.2 2.74917
    endloop
  endfacet
  facet normal 0 1 0
    outer loop
      vertex 10 3.2 16.25
      vertex 2.25 3.2 11.4049
      vertex 2.25 3.2 16.25
    endloop
  endfacet
  facet normal 0 1 0
    outer loop
      vertex 10 3.2 16.25
      vertex 2.325 3.2 11.125
      vertex 2.25 3.2 11.4049
    endloop
  endfacet
  facet normal 0 1 -0
    outer loop
      vertex 10 3.2 8.125
      vertex 2.325 3.2 11.125
      vertex 10 3.2 16.25
    endloop
  endfacet
  facet normal 0 1 0
    outer loop
      vertex 2.325 3.2 11.125
      vertex 10 3.2 8.125
      vertex 2.25 3.2 10.5553
    endloop
  endfacet
  facet normal 0 1 -0
    outer loop
      vertex 4.75 3.2 5.175
      vertex 2.25 3.2 10.5553
      vertex 10 3.2 8.125
    endloop
  endfacet
  facet normal 0 1 -0
    outer loop
      vertex 4.1 3.2 5.00083
      vertex 2.25 3.2 10.5553
      vertex 4.75 3.2 5.175
    endloop
  endfacet
  facet normal 0 1 -0
    outer loop
      vertex 3.62417 3.2 4.525
      vertex 2.25 3.2 10.5553
      vertex 4.1 3.2 5.00083
    endloop
  endfacet
  facet normal 0 1 -0
    outer loop
      vertex 3.45 3.2 3.875
      vertex 2.25 3.2 10.5553
      vertex 3.62417 3.2 4.525
    endloop
  endfacet
  facet normal 0 1 0
    outer loop
      vertex 5.4 3.2 2.74917
      vertex 2.25 3.2 0
      vertex 4.75 3.2 2.575
    endloop
  endfacet
  facet normal 0 1 0
    outer loop
      vertex 3.45 3.2 3.875
      vertex 2.25 3.2 0
      vertex 2.25 3.2 10.5553
    endloop
  endfacet
  facet normal 0 1 0
    outer loop
      vertex 3.62417 3.2 3.225
      vertex 2.25 3.2 0
      vertex 3.45 3.2 3.875
    endloop
  endfacet
  facet normal 0 1 0
    outer loop
      vertex 4.1 3.2 2.74917
      vertex 2.25 3.2 0
      vertex 3.62417 3.2 3.225
    endloop
  endfacet
  facet normal 0 1 0
    outer loop
      vertex 4.75 3.2 2.575
      vertex 2.25 3.2 0
      vertex 4.1 3.2 2.74917
    endloop
  endfacet
  facet normal 0 1 -0
    outer loop
      vertex -2.25 3.2 11.4049
      vertex -10 3.2 16.25
      vertex -2.25 3.2 16.25
    endloop
  endfacet
  facet normal 0 1 0
    outer loop
      vertex -2.25 3.2 11.4049
      vertex -2.325 3.2 11.125
      vertex -10 3.2 16.25
    endloop
  endfacet
  facet normal 0 1 0
    outer loop
      vertex -10 3.2 8.125
      vertex -2.325 3.2 11.125
      vertex -2.25 3.2 10.5553
    endloop
  endfacet
  facet normal 0 1 0
    outer loop
      vertex -2.325 3.2 11.125
      vertex -10 3.2 8.125
      vertex -10 3.2 16.25
    endloop
  endfacet
  facet normal 0 1 -0
    outer loop
      vertex -5.4 3.2 5.00083
      vertex -10 3.2 8.125
      vertex -4.75 3.2 5.175
    endloop
  endfacet
  facet normal 0 1 0
    outer loop
      vertex -2.25 3.2 10.5553
      vertex -4.75 3.2 5.175
      vertex -10 3.2 8.125
    endloop
  endfacet
  facet normal 0 1 0
    outer loop
      vertex -2.25 3.2 10.5553
      vertex -4.1 3.2 5.00083
      vertex -4.75 3.2 5.175
    endloop
  endfacet
  facet normal 0 1 0
    outer loop
      vertex -2.25 3.2 10.5553
      vertex -3.62417 3.2 4.525
      vertex -4.1 3.2 5.00083
    endloop
  endfacet
  facet normal 0 1 0
    outer loop
      vertex -2.25 3.2 10.5553
      vertex -3.45 3.2 3.875
      vertex -3.62417 3.2 4.525
    endloop
  endfacet
  facet normal 0 1 0
    outer loop
      vertex -4.1 3.2 2.74917
      vertex -2.25 3.2 0
      vertex -4.75 3.2 2.575
    endloop
  endfacet
  facet normal 0 1 0
    outer loop
      vertex -3.62417 3.2 3.225
      vertex -2.25 3.2 0
      vertex -4.1 3.2 2.74917
    endloop
  endfacet
  facet normal 0 1 0
    outer loop
      vertex -3.45 3.2 3.875
      vertex -2.25 3.2 0
      vertex -3.62417 3.2 3.225
    endloop
  endfacet
  facet normal 0 1 -0
    outer loop
      vertex -2.25 3.2 0
      vertex -3.45 3.2 3.875
      vertex -2.25 3.2 10.5553
    endloop
  endfacet
  facet normal 0 1 -0
    outer loop
      vertex -5.87583 3.2 4.525
      vertex -10 3.2 8.125
      vertex -5.4 3.2 5.00083
    endloop
  endfacet
  facet normal 0 1 -0
    outer loop
      vertex -6.05 3.2 3.875
      vertex -10 3.2 8.125
      vertex -5.87583 3.2 4.525
    endloop
  endfacet
  facet normal 0 1 0
    outer loop
      vertex -11 3.2 0
      vertex -10 3.2 8.125
      vertex -6.05 3.2 3.875
    endloop
  endfacet
  facet normal 0 1 0
    outer loop
      vertex -11 3.2 0
      vertex -6.05 3.2 3.875
      vertex -5.87583 3.2 3.225
    endloop
  endfacet
  facet normal 0 1 0
    outer loop
      vertex -11 3.2 0
      vertex -5.87583 3.2 3.225
      vertex -5.4 3.2 2.74917
    endloop
  endfacet
  facet normal 0 1 0
    outer loop
      vertex -2.25 3.2 0
      vertex -5.4 3.2 2.74917
      vertex -4.75 3.2 2.575
    endloop
  endfacet
  facet normal 0 1 0
    outer loop
      vertex -10 3.2 8.125
      vertex -11 3.2 0
      vertex -11 3.2 8.125
    endloop
  endfacet
  facet normal 0 1 0
    outer loop
      vertex -11 3.2 0
      vertex -5.4 3.2 2.74917
      vertex -2.25 3.2 0
    endloop
  endfacet
  facet normal -1 0 0
    outer loop
      vertex -11 -3.2 0
      vertex -11 3.2 8.125
      vertex -11 3.2 0
    endloop
  endfacet
  facet normal -1 -0 0
    outer loop
      vertex -11 3.2 8.125
      vertex -11 -3.2 0
      vertex -11 -3.2 8.125
    endloop
  endfacet
  facet normal -0 0 1
    outer loop
      vertex -11 3.2 8.125
      vertex -10 -3.2 8.125
      vertex -10 3.2 8.125
    endloop
  endfacet
  facet normal 0 0 1
    outer loop
      vertex -10 -3.2 8.125
      vertex -11 3.2 8.125
      vertex -11 -3.2 8.125
    endloop
  endfacet
  facet normal -0 0 1
    outer loop
      vertex 10 3.2 8.125
      vertex 11 -3.2 8.125
      vertex 11 3.2 8.125
    endloop
  endfacet
  facet normal 0 0 1
    outer loop
      vertex 11 -3.2 8.125
      vertex 10 3.2 8.125
      vertex 10 -3.2 8.125
    endloop
  endfacet
  facet normal 1 -0 0
    outer loop
      vertex 11 -3.2 8.125
      vertex 11 3.2 0
      vertex 11 3.2 8.125
    endloop
  endfacet
  facet normal 1 0 0
    outer loop
      vertex 11 3.2 0
      vertex 11 -3.2 8.125
      vertex 11 -3.2 0
    endloop
  endfacet
  facet normal -1 0 0
    outer loop
      vertex -2.25 3.2 0
      vertex -2.25 5.2 8.4932
      vertex -2.25 5.2 0
    endloop
  endfacet
  facet normal -1 -0 0
    outer loop
      vertex -2.25 5.2 8.4932
      vertex -2.25 3.2 0
      vertex -2.25 4.67438 8.875
    endloop
  endfacet
  facet normal -1 -0 0
    outer loop
      vertex -2.25 4.67438 8.875
      vertex -2.25 3.2 0
      vertex -2.25 4.21717 9.30781
    endloop
  endfacet
  facet normal -1 -0 0
    outer loop
      vertex -2.25 4.21717 9.30781
      vertex -2.25 3.2 0
      vertex -2.25 3.66981 9.82596
    endloop
  endfacet
  facet normal -1 -0 0
    outer loop
      vertex -2.25 3.66981 9.82596
      vertex -2.25 3.2 0
      vertex -2.25 3.20948 10.5192
    endloop
  endfacet
  facet normal -1 -0 0
    outer loop
      vertex -2.25 3.20948 10.5192
      vertex -2.25 3.2 0
      vertex -2.25 3.20752 10.5221
    endloop
  endfacet
  facet normal -1 -0 0
    outer loop
      vertex -2.25 3.20752 10.5221
      vertex -2.25 3.2 0
      vertex -2.25 3.2 10.5553
    endloop
  endfacet
  facet normal -1 0 0
    outer loop
      vertex -2.25 3.2 16.25
      vertex -2.25 5.2 13.7568
      vertex -2.25 4.67438 13.375
    endloop
  endfacet
  facet normal -1 0 0
    outer loop
      vertex -2.25 3.2 16.25
      vertex -2.25 4.67438 13.375
      vertex -2.25 4.21717 12.9422
    endloop
  endfacet
  facet normal -1 0 0
    outer loop
      vertex -2.25 3.2 16.25
      vertex -2.25 4.21717 12.9422
      vertex -2.25 3.66981 12.424
    endloop
  endfacet
  facet normal -1 0 0
    outer loop
      vertex -2.25 3.2 16.25
      vertex -2.25 3.66981 12.424
      vertex -2.25 3.20948 11.7308
    endloop
  endfacet
  facet normal -1 0 0
    outer loop
      vertex -2.25 3.2 16.25
      vertex -2.25 3.20948 11.7308
      vertex -2.25 3.20752 11.7279
    endloop
  endfacet
  facet normal -1 0 0
    outer loop
      vertex -2.25 5.2 13.7568
      vertex -2.25 3.2 16.25
      vertex -2.25 5.2 16.25
    endloop
  endfacet
  facet normal -1 0 0
    outer loop
      vertex -2.25 3.2 16.25
      vertex -2.25 3.20752 11.7279
      vertex -2.25 3.2 11.6947
    endloop
  endfacet
  facet normal 0 0 0
    outer loop
      vertex -2.25 3.2 16.25
      vertex -2.25 3.2 11.6947
      vertex -2.25 3.2 11.4049
    endloop
  endfacet
  facet normal 1 -0 0
    outer loop
      vertex 2.25 3.2 16.25
      vertex 2.25 5.2 13.7568
      vertex 2.25 5.2 16.25
    endloop
  endfacet
  facet normal 1 0 0
    outer loop
      vertex 2.25 5.2 13.7568
      vertex 2.25 3.2 16.25
      vertex 2.25 4.67438 13.375
    endloop
  endfacet
  facet normal 1 0 0
    outer loop
      vertex 2.25 4.67438 13.375
      vertex 2.25 3.2 16.25
      vertex 2.25 4.21717 12.9422
    endloop
  endfacet
  facet normal 1 0 0
    outer loop
      vertex 2.25 4.21717 12.9422
      vertex 2.25 3.2 16.25
      vertex 2.25 3.66981 12.424
    endloop
  endfacet
  facet normal 1 0 0
    outer loop
      vertex 2.25 3.66981 12.424
      vertex 2.25 3.2 16.25
      vertex 2.25 3.20948 11.7308
    endloop
  endfacet
  facet normal 1 0 0
    outer loop
      vertex 2.25 3.20948 11.7308
      vertex 2.25 3.2 16.25
      vertex 2.25 3.20752 11.7279
    endloop
  endfacet
  facet normal 1 0 0
    outer loop
      vertex 2.25 3.20752 11.7279
      vertex 2.25 3.2 16.25
      vertex 2.25 3.2 11.6947
    endloop
  endfacet
  facet normal 0 0 0
    outer loop
      vertex 2.25 3.2 11.6947
      vertex 2.25 3.2 16.25
      vertex 2.25 3.2 11.4049
    endloop
  endfacet
  facet normal 1 0 0
    outer loop
      vertex 2.25 3.2 0
      vertex 2.25 5.2 8.4932
      vertex 2.25 4.67438 8.875
    endloop
  endfacet
  facet normal 1 0 0
    outer loop
      vertex 2.25 3.2 0
      vertex 2.25 4.67438 8.875
      vertex 2.25 4.21717 9.30781
    endloop
  endfacet
  facet normal 1 0 0
    outer loop
      vertex 2.25 3.2 0
      vertex 2.25 4.21717 9.30781
      vertex 2.25 3.66981 9.82596
    endloop
  endfacet
  facet normal 1 0 0
    outer loop
      vertex 2.25 3.2 0
      vertex 2.25 3.66981 9.82596
      vertex 2.25 3.20948 10.5192
    endloop
  endfacet
  facet normal 1 0 0
    outer loop
      vertex 2.25 3.2 0
      vertex 2.25 3.20948 10.5192
      vertex 2.25 3.20752 10.5221
    endloop
  endfacet
  facet normal 1 0 0
    outer loop
      vertex 2.25 3.2 0
      vertex 2.25 3.20752 10.5221
      vertex 2.25 3.2 10.5553
    endloop
  endfacet
  facet normal 1 0 0
    outer loop
      vertex 2.25 5.2 8.4932
      vertex 2.25 3.2 0
      vertex 2.25 5.2 0
    endloop
  endfacet
  facet normal 0 1 0
    outer loop
      vertex 2.25 5.2 16.25
      vertex 0 5.2 14.6125
      vertex -2.25 5.2 16.25
    endloop
  endfacet
  facet normal 0 1 0
    outer loop
      vertex 2.25 5.2 16.25
      vertex 0.902631 5.2 14.4937
      vertex 0 5.2 14.6125
    endloop
  endfacet
  facet normal 0 1 0
    outer loop
      vertex 2.25 5.2 16.25
      vertex 1.46338 5.2 14.2614
      vertex 0.902631 5.2 14.4937
    endloop
  endfacet
  facet normal 0 1 0
    outer loop
      vertex 2.25 5.2 16.25
      vertex 1.74375 5.2 14.1453
      vertex 1.46338 5.2 14.2614
    endloop
  endfacet
  facet normal 0 1 0
    outer loop
      vertex 2.25 5.2 16.25
      vertex 1.98451 5.2 13.9605
      vertex 1.74375 5.2 14.1453
    endloop
  endfacet
  facet normal -0 1 0
    outer loop
      vertex 1.98451 5.2 13.9605
      vertex 2.25 5.2 16.25
      vertex 2.25 5.2 13.7568
    endloop
  endfacet
  facet normal 0 1 -0
    outer loop
      vertex -0.902631 5.2 14.4937
      vertex -2.25 5.2 16.25
      vertex 0 5.2 14.6125
    endloop
  endfacet
  facet normal 0 1 -0
    outer loop
      vertex -1.46338 5.2 14.2614
      vertex -2.25 5.2 16.25
      vertex -0.902631 5.2 14.4937
    endloop
  endfacet
  facet normal 0 1 -0
    outer loop
      vertex -1.74375 5.2 14.1453
      vertex -2.25 5.2 16.25
      vertex -1.46338 5.2 14.2614
    endloop
  endfacet
  facet normal 0 1 -0
    outer loop
      vertex -1.98451 5.2 13.9605
      vertex -2.25 5.2 16.25
      vertex -1.74375 5.2 14.1453
    endloop
  endfacet
  facet normal 0 1 0
    outer loop
      vertex -2.25 5.2 16.25
      vertex -1.98451 5.2 13.9605
      vertex -2.25 5.2 13.7568
    endloop
  endfacet
  facet normal 0 1 0
    outer loop
      vertex 2.25 5.2 0
      vertex 1.46338 5.2 7.9886
      vertex 1.74375 5.2 8.10474
    endloop
  endfacet
  facet normal 0 1 0
    outer loop
      vertex 0.902631 5.2 7.75633
      vertex 2.25 5.2 0
      vertex 0 5.2 7.6375
    endloop
  endfacet
  facet normal 0 1 0
    outer loop
      vertex 1.46338 5.2 7.9886
      vertex 2.25 5.2 0
      vertex 0.902631 5.2 7.75633
    endloop
  endfacet
  facet normal 0 1 0
    outer loop
      vertex 1.98451 5.2 8.28948
      vertex 2.25 5.2 0
      vertex 1.74375 5.2 8.10474
    endloop
  endfacet
  facet normal 0 1 -0
    outer loop
      vertex 2.25 5.2 0
      vertex 1.98451 5.2 8.28948
      vertex 2.25 5.2 8.4932
    endloop
  endfacet
  facet normal 0 1 0
    outer loop
      vertex -2.25 5.2 0
      vertex -1.46338 5.2 7.9886
      vertex -0.902631 5.2 7.75633
    endloop
  endfacet
  facet normal 0 1 0
    outer loop
      vertex -2.25 5.2 0
      vertex 0 5.2 7.6375
      vertex 2.25 5.2 0
    endloop
  endfacet
  facet normal 0 1 0
    outer loop
      vertex 0 5.2 7.6375
      vertex -2.25 5.2 0
      vertex -0.902631 5.2 7.75633
    endloop
  endfacet
  facet normal 0 1 0
    outer loop
      vertex -1.46338 5.2 7.9886
      vertex -2.25 5.2 0
      vertex -1.74375 5.2 8.10474
    endloop
  endfacet
  facet normal 0 1 0
    outer loop
      vertex -1.74375 5.2 8.10474
      vertex -2.25 5.2 0
      vertex -1.98451 5.2 8.28948
    endloop
  endfacet
  facet normal 0 1 0
    outer loop
      vertex -1.98451 5.2 8.28948
      vertex -2.25 5.2 0
      vertex -2.25 5.2 8.4932
    endloop
  endfacet
  facet normal -0.608759 0 0.793355
    outer loop
      vertex 2.125 -1.8 7.4444
      vertex 3.0052 -3.2 8.1198
      vertex 3.0052 -1.8 8.1198
    endloop
  endfacet
  facet normal -0.608759 0 0.793355
    outer loop
      vertex 3.0052 -3.2 8.1198
      vertex 2.125 -1.8 7.4444
      vertex 2.125 -3.2 7.4444
    endloop
  endfacet
  facet normal -0.793355 0 0.608759
    outer loop
      vertex 3.0052 -3.2 8.1198
      vertex 3.6806 -1.8 9
      vertex 3.0052 -1.8 8.1198
    endloop
  endfacet
  facet normal -0.793355 0 0.608759
    outer loop
      vertex 3.6806 -1.8 9
      vertex 3.0052 -3.2 8.1198
      vertex 3.6806 -3.2 9
    endloop
  endfacet
  facet normal -0.923881 0 0.382681
    outer loop
      vertex 3.6806 -3.2 9
      vertex 4.10518 -1.8 10.025
      vertex 3.6806 -1.8 9
    endloop
  endfacet
  facet normal -0.923881 0 0.382681
    outer loop
      vertex 4.10518 -1.8 10.025
      vertex 3.6806 -3.2 9
      vertex 4.10518 -3.2 10.025
    endloop
  endfacet
  facet normal 0 -1 0
    outer loop
      vertex -4.25 -1.8 16.25
      vertex -0.963028 -1.8 13.45
      vertex 4.25 -1.8 16.25
    endloop
  endfacet
  facet normal 0 -1 0
    outer loop
      vertex -4.25 -1.8 16.25
      vertex -1.64401 -1.8 12.769
      vertex -0.963028 -1.8 13.45
    endloop
  endfacet
  facet normal 0 -1 -0
    outer loop
      vertex -1.64401 -1.8 12.769
      vertex -2.0135 -1.8 12.2875
      vertex -1.588 -1.8 12.713
    endloop
  endfacet
  facet normal 0 -1 0
    outer loop
      vertex -4.25 -1.8 16.25
      vertex -2.0135 -1.8 12.2875
      vertex -1.64401 -1.8 12.769
    endloop
  endfacet
  facet normal 0 -1 0
    outer loop
      vertex -4.25 -1.8 11.125
      vertex -2.0135 -1.8 12.2875
      vertex -4.25 -1.8 16.25
    endloop
  endfacet
  facet normal 0 -1 0
    outer loop
      vertex -4.25 -1.8 11.125
      vertex -2.325 -1.8 11.125
      vertex -2.0135 -1.8 12.2875
    endloop
  endfacet
  facet normal 0 -1 0
    outer loop
      vertex -4.10518 -1.8 10.025
      vertex -2.325 -1.8 11.125
      vertex -4.25 -1.8 11.125
    endloop
  endfacet
  facet normal 0 -1 0
    outer loop
      vertex -4.10518 -1.8 10.025
      vertex -2.0135 -1.8 9.96251
      vertex -2.325 -1.8 11.125
    endloop
  endfacet
  facet normal 0 -1 0
    outer loop
      vertex -3.6806 -1.8 9.00002
      vertex -2.0135 -1.8 9.96251
      vertex -4.10518 -1.8 10.025
    endloop
  endfacet
  facet normal 0 -1 0
    outer loop
      vertex -3.0052 -1.8 8.1198
      vertex -2.0135 -1.8 9.96251
      vertex -3.6806 -1.8 9.00002
    endloop
  endfacet
  facet normal 0 -1 -0
    outer loop
      vertex -2.0135 -1.8 9.96251
      vertex -3.0052 -1.8 8.1198
      vertex -1.16249 -1.8 9.1115
    endloop
  endfacet
  facet normal 0 -1 0
    outer loop
      vertex -2.125 -1.8 7.4444
      vertex -1.16249 -1.8 9.1115
      vertex -3.0052 -1.8 8.1198
    endloop
  endfacet
  facet normal 0 -1 0
    outer loop
      vertex 0.963028 -1.8 13.45
      vertex 4.25 -1.8 16.25
      vertex -0.963028 -1.8 13.45
    endloop
  endfacet
  facet normal 0 -1 0
    outer loop
      vertex 1.64401 -1.8 12.769
      vertex 4.25 -1.8 16.25
      vertex 0.963028 -1.8 13.45
    endloop
  endfacet
  facet normal 0 -1 0
    outer loop
      vertex 2.0135 -1.8 12.2875
      vertex 1.64401 -1.8 12.769
      vertex 1.588 -1.8 12.713
    endloop
  endfacet
  facet normal 0 -1 0
    outer loop
      vertex 2.0135 -1.8 12.2875
      vertex 4.25 -1.8 16.25
      vertex 1.64401 -1.8 12.769
    endloop
  endfacet
  facet normal 0 -1 0
    outer loop
      vertex 4.25 -1.8 11.125
      vertex 2.0135 -1.8 12.2875
      vertex 2.325 -1.8 11.125
    endloop
  endfacet
  facet normal 0 -1 0
    outer loop
      vertex 2.0135 -1.8 12.2875
      vertex 4.25 -1.8 11.125
      vertex 4.25 -1.8 16.25
    endloop
  endfacet
  facet normal 0 -1 0
    outer loop
      vertex 2.325 -1.8 11.125
      vertex 4.10518 -1.8 10.025
      vertex 4.25 -1.8 11.125
    endloop
  endfacet
  facet normal 0 -1 0
    outer loop
      vertex 2.0135 -1.8 9.96251
      vertex 4.10518 -1.8 10.025
      vertex 2.325 -1.8 11.125
    endloop
  endfacet
  facet normal 0 -1 0
    outer loop
      vertex 3.0052 -1.8 8.1198
      vertex 2.0135 -1.8 9.96251
      vertex 1.16249 -1.8 9.1115
    endloop
  endfacet
  facet normal 0 -1 0
    outer loop
      vertex 2.0135 -1.8 9.96251
      vertex 3.6806 -1.8 9
      vertex 4.10518 -1.8 10.025
    endloop
  endfacet
  facet normal 0 -1 0
    outer loop
      vertex 1.09998 -1.8 7.01982
      vertex 1.16249 -1.8 9.1115
      vertex 0 -1.8 8.8
    endloop
  endfacet
  facet normal 0 -1 0
    outer loop
      vertex -1.09998 -1.8 7.01982
      vertex -1.16249 -1.8 9.1115
      vertex -2.125 -1.8 7.4444
    endloop
  endfacet
  facet normal 0 -1 0
    outer loop
      vertex 2.0135 -1.8 9.96251
      vertex 3.0052 -1.8 8.1198
      vertex 3.6806 -1.8 9
    endloop
  endfacet
  facet normal 0 -1 0
    outer loop
      vertex -1.16249 -1.8 9.1115
      vertex -1.09998 -1.8 7.01982
      vertex 0 -1.8 8.8
    endloop
  endfacet
  facet normal 0 -1 0
    outer loop
      vertex 1.16249 -1.8 9.1115
      vertex 2.125 -1.8 7.4444
      vertex 3.0052 -1.8 8.1198
    endloop
  endfacet
  facet normal 0 -1 0
    outer loop
      vertex 0 -1.8 6.875
      vertex 0 -1.8 8.8
      vertex -1.09998 -1.8 7.01982
    endloop
  endfacet
  facet normal 0 -1 -0
    outer loop
      vertex 1.16249 -1.8 9.1115
      vertex 1.09998 -1.8 7.01982
      vertex 2.125 -1.8 7.4444
    endloop
  endfacet
  facet normal 0 -1 0
    outer loop
      vertex 0 -1.8 8.8
      vertex 0 -1.8 6.875
      vertex 1.09998 -1.8 7.01982
    endloop
  endfacet
  facet normal 0.608759 0 0.793355
    outer loop
      vertex -3.0052 -1.8 8.1198
      vertex -2.125 -3.2 7.4444
      vertex -2.125 -1.8 7.4444
    endloop
  endfacet
  facet normal 0.608759 0 0.793355
    outer loop
      vertex -2.125 -3.2 7.4444
      vertex -3.0052 -1.8 8.1198
      vertex -3.0052 -3.2 8.1198
    endloop
  endfacet
  facet normal 0.130532 0 0.991444
    outer loop
      vertex -1.09998 -1.8 7.01982
      vertex 0 -3.2 6.875
      vertex 0 -1.8 6.875
    endloop
  endfacet
  facet normal 0.130532 0 0.991444
    outer loop
      vertex 0 -3.2 6.875
      vertex -1.09998 -1.8 7.01982
      vertex -1.09998 -3.2 7.01982
    endloop
  endfacet
  facet normal -0.130532 0 0.991444
    outer loop
      vertex 0 -1.8 6.875
      vertex 1.09998 -3.2 7.01982
      vertex 1.09998 -1.8 7.01982
    endloop
  endfacet
  facet normal -0.130532 0 0.991444
    outer loop
      vertex 1.09998 -3.2 7.01982
      vertex 0 -1.8 6.875
      vertex 0 -3.2 6.875
    endloop
  endfacet
  facet normal 0.382681 0 0.923881
    outer loop
      vertex -2.125 -1.8 7.4444
      vertex -1.09998 -3.2 7.01982
      vertex -1.09998 -1.8 7.01982
    endloop
  endfacet
  facet normal 0.382681 0 0.923881
    outer loop
      vertex -1.09998 -3.2 7.01982
      vertex -2.125 -1.8 7.4444
      vertex -2.125 -3.2 7.4444
    endloop
  endfacet
  facet normal 0.991444 -0 0.130532
    outer loop
      vertex -4.25 -3.2 11.125
      vertex -4.10518 -1.8 10.025
      vertex -4.25 -1.8 11.125
    endloop
  endfacet
  facet normal 0.991444 0 0.130532
    outer loop
      vertex -4.10518 -1.8 10.025
      vertex -4.25 -3.2 11.125
      vertex -4.10518 -3.2 10.025
    endloop
  endfacet
  facet normal -0.382681 0 0.923881
    outer loop
      vertex 1.09998 -1.8 7.01982
      vertex 2.125 -3.2 7.4444
      vertex 2.125 -1.8 7.4444
    endloop
  endfacet
  facet normal -0.382681 0 0.923881
    outer loop
      vertex 2.125 -3.2 7.4444
      vertex 1.09998 -1.8 7.01982
      vertex 1.09998 -3.2 7.01982
    endloop
  endfacet
  facet normal 0.79336 -0 0.608753
    outer loop
      vertex -3.6806 -3.2 9.00002
      vertex -3.0052 -1.8 8.1198
      vertex -3.6806 -1.8 9.00002
    endloop
  endfacet
  facet normal 0.79336 0 0.608753
    outer loop
      vertex -3.0052 -1.8 8.1198
      vertex -3.6806 -3.2 9.00002
      vertex -3.0052 -3.2 8.1198
    endloop
  endfacet
  facet normal 0.923879 -0 0.382686
    outer loop
      vertex -4.10518 -3.2 10.025
      vertex -3.6806 -1.8 9.00002
      vertex -4.10518 -1.8 10.025
    endloop
  endfacet
  facet normal 0.923879 0 0.382686
    outer loop
      vertex -3.6806 -1.8 9.00002
      vertex -4.10518 -3.2 10.025
      vertex -3.6806 -3.2 9.00002
    endloop
  endfacet
  facet normal -0.991444 0 0.130532
    outer loop
      vertex 4.10518 -3.2 10.025
      vertex 4.25 -1.8 11.125
      vertex 4.10518 -1.8 10.025
    endloop
  endfacet
  facet normal -0.991444 0 0.130532
    outer loop
      vertex 4.25 -1.8 11.125
      vertex 4.10518 -3.2 10.025
      vertex 4.25 -3.2 11.125
    endloop
  endfacet
  facet normal 1 -0 0
    outer loop
      vertex -4.25 -3.2 16.25
      vertex -4.25 -1.8 11.125
      vertex -4.25 -1.8 16.25
    endloop
  endfacet
  facet normal 1 0 0
    outer loop
      vertex -4.25 -1.8 11.125
      vertex -4.25 -3.2 16.25
      vertex -4.25 -3.2 11.125
    endloop
  endfacet
  facet normal -1 0 0
    outer loop
      vertex 4.25 -3.2 11.125
      vertex 4.25 -1.8 16.25
      vertex 4.25 -1.8 11.125
    endloop
  endfacet
  facet normal -1 -0 0
    outer loop
      vertex 4.25 -1.8 16.25
      vertex 4.25 -3.2 11.125
      vertex 4.25 -3.2 16.25
    endloop
  endfacet
  facet normal -0.707107 0 0.707107
    outer loop
      vertex 1.16249 -1.8 9.1115
      vertex 2.0135 3.2 9.96251
      vertex 1.16249 3.2 9.1115
    endloop
  endfacet
  facet normal -0.707107 0 0.707107
    outer loop
      vertex 2.0135 3.2 9.96251
      vertex 1.16249 -1.8 9.1115
      vertex 2.0135 -1.8 9.96251
    endloop
  endfacet
  facet normal -0.965925 0 0.258822
    outer loop
      vertex 2.0135 -1.8 9.96251
      vertex 2.325 3.2 11.125
      vertex 2.0135 3.2 9.96251
    endloop
  endfacet
  facet normal -0.965925 0 0.258822
    outer loop
      vertex 2.325 3.2 11.125
      vertex 2.0135 -1.8 9.96251
      vertex 2.325 -1.8 11.125
    endloop
  endfacet
  facet normal -0.965925 0 -0.258823
    outer loop
      vertex 2.325 -1.8 11.125
      vertex 2.25 3.2 11.4049
      vertex 2.325 3.2 11.125
    endloop
  endfacet
  facet normal -0.965925 -1.45676e-008 -0.258822
    outer loop
      vertex 2.0135 -1.8 12.2875
      vertex 2.25 3.2 11.4049
      vertex 2.325 -1.8 11.125
    endloop
  endfacet
  facet normal -0.965925 0 -0.258822
    outer loop
      vertex 2.25 3.2 11.4049
      vertex 2.0135 -1.8 12.2875
      vertex 2.0135 3.2 12.2875
    endloop
  endfacet
  facet normal -0.707107 0 -0.707107
    outer loop
      vertex 2.0135 -1.8 12.2875
      vertex 1.588 3.2 12.713
      vertex 2.0135 3.2 12.2875
    endloop
  endfacet
  facet normal -0.707107 -0 -0.707107
    outer loop
      vertex 1.588 3.2 12.713
      vertex 2.0135 -1.8 12.2875
      vertex 1.588 -1.8 12.713
    endloop
  endfacet
  facet normal -0.707107 0 0.707107
    outer loop
      vertex 1.588 -1.8 12.713
      vertex 1.64401 3.2 12.769
      vertex 1.588 3.2 12.713
    endloop
  endfacet
  facet normal -0.707107 0 0.707107
    outer loop
      vertex 1.64401 3.2 12.769
      vertex 1.588 -1.8 12.713
      vertex 1.64401 -1.8 12.769
    endloop
  endfacet
  facet normal -0.709214 -0 -0.704993
    outer loop
      vertex 1.64401 3.2 12.769
      vertex 1.64401 -1.8 12.769
      vertex 1.64393 3.2 12.7691
    endloop
  endfacet
  facet normal -0.707107 6.7435e-008 -0.707107
    outer loop
      vertex 0.963028 -1.8 13.45
      vertex 1.64393 3.2 12.7691
      vertex 1.64401 -1.8 12.769
    endloop
  endfacet
  facet normal -0.707106 -1.10202e-007 -0.707107
    outer loop
      vertex 1.64393 3.2 12.7691
      vertex 0.963028 -1.8 13.45
      vertex 1.2035 3.34108 13.2095
    endloop
  endfacet
  facet normal -0.707107 0 -0.707106
    outer loop
      vertex 1.2035 3.34108 13.2095
      vertex 0.963028 -1.8 13.45
      vertex 0.963028 3.56691 13.45
    endloop
  endfacet
  facet normal 0 0 -1
    outer loop
      vertex 0.963028 -1.8 13.45
      vertex 0.678395 3.3779 13.45
      vertex 0.963028 3.56691 13.45
    endloop
  endfacet
  facet normal 0 0 -1
    outer loop
      vertex 0.963028 -1.8 13.45
      vertex 0.622981 3.3411 13.45
      vertex 0.678395 3.3779 13.45
    endloop
  endfacet
  facet normal 0 0 -1
    outer loop
      vertex 0.963028 -1.8 13.45
      vertex 2.17316e-005 3.2 13.45
      vertex 0.622981 3.3411 13.45
    endloop
  endfacet
  facet normal 0 0 -1
    outer loop
      vertex 0.963028 -1.8 13.45
      vertex -2.17316e-005 3.2 13.45
      vertex 2.17316e-005 3.2 13.45
    endloop
  endfacet
  facet normal 0 0 -1
    outer loop
      vertex -0.963028 -1.8 13.45
      vertex -2.17316e-005 3.2 13.45
      vertex 0.963028 -1.8 13.45
    endloop
  endfacet
  facet normal -0 0 -1
    outer loop
      vertex -2.17316e-005 3.2 13.45
      vertex -0.963028 -1.8 13.45
      vertex -0.622981 3.3411 13.45
    endloop
  endfacet
  facet normal -0 0 -1
    outer loop
      vertex -0.622981 3.3411 13.45
      vertex -0.963028 -1.8 13.45
      vertex -0.678395 3.3779 13.45
    endloop
  endfacet
  facet normal -0 0 -1
    outer loop
      vertex -0.678395 3.3779 13.45
      vertex -0.963028 -1.8 13.45
      vertex -0.963028 3.56691 13.45
    endloop
  endfacet
  facet normal 0.707107 0 -0.707106
    outer loop
      vertex -0.963028 -1.8 13.45
      vertex -1.2035 3.34108 13.2095
      vertex -0.963028 3.56691 13.45
    endloop
  endfacet
  facet normal 0.707106 -1.10202e-007 -0.707107
    outer loop
      vertex -0.963028 -1.8 13.45
      vertex -1.64393 3.2 12.7691
      vertex -1.2035 3.34108 13.2095
    endloop
  endfacet
  facet normal 0.707107 6.7435e-008 -0.707107
    outer loop
      vertex -1.64401 -1.8 12.769
      vertex -1.64393 3.2 12.7691
      vertex -0.963028 -1.8 13.45
    endloop
  endfacet
  facet normal 0.709214 0 -0.704993
    outer loop
      vertex -1.64393 3.2 12.7691
      vertex -1.64401 -1.8 12.769
      vertex -1.64401 3.2 12.769
    endloop
  endfacet
  facet normal 0.707107 -0 0.707107
    outer loop
      vertex -1.64401 -1.8 12.769
      vertex -1.588 3.2 12.713
      vertex -1.64401 3.2 12.769
    endloop
  endfacet
  facet normal 0.707107 0 0.707107
    outer loop
      vertex -1.588 3.2 12.713
      vertex -1.64401 -1.8 12.769
      vertex -1.588 -1.8 12.713
    endloop
  endfacet
  facet normal 0.707107 0 -0.707107
    outer loop
      vertex -1.588 -1.8 12.713
      vertex -2.0135 3.2 12.2875
      vertex -1.588 3.2 12.713
    endloop
  endfacet
  facet normal 0.707107 0 -0.707107
    outer loop
      vertex -2.0135 3.2 12.2875
      vertex -1.588 -1.8 12.713
      vertex -2.0135 -1.8 12.2875
    endloop
  endfacet
  facet normal 0.965925 0 -0.258822
    outer loop
      vertex -2.0135 -1.8 12.2875
      vertex -2.25 3.2 11.4049
      vertex -2.0135 3.2 12.2875
    endloop
  endfacet
  facet normal 0.965925 -1.45676e-008 -0.258822
    outer loop
      vertex -2.325 -1.8 11.125
      vertex -2.25 3.2 11.4049
      vertex -2.0135 -1.8 12.2875
    endloop
  endfacet
  facet normal 0.965925 0 -0.258823
    outer loop
      vertex -2.25 3.2 11.4049
      vertex -2.325 -1.8 11.125
      vertex -2.325 3.2 11.125
    endloop
  endfacet
  facet normal 0.965925 -0 0.258822
    outer loop
      vertex -2.325 -1.8 11.125
      vertex -2.0135 3.2 9.96251
      vertex -2.325 3.2 11.125
    endloop
  endfacet
  facet normal 0.965925 0 0.258822
    outer loop
      vertex -2.0135 3.2 9.96251
      vertex -2.325 -1.8 11.125
      vertex -2.0135 -1.8 9.96251
    endloop
  endfacet
  facet normal 0.707107 -0 0.707107
    outer loop
      vertex -2.0135 -1.8 9.96251
      vertex -1.16249 3.2 9.1115
      vertex -2.0135 3.2 9.96251
    endloop
  endfacet
  facet normal 0.707107 0 0.707107
    outer loop
      vertex -1.16249 3.2 9.1115
      vertex -2.0135 -1.8 9.96251
      vertex -1.16249 -1.8 9.1115
    endloop
  endfacet
  facet normal 0.258822 0 0.965925
    outer loop
      vertex -1.16249 3.2 9.1115
      vertex 0 -1.8 8.8
      vertex 0 3.2 8.8
    endloop
  endfacet
  facet normal 0.258822 0 0.965925
    outer loop
      vertex 0 -1.8 8.8
      vertex -1.16249 3.2 9.1115
      vertex -1.16249 -1.8 9.1115
    endloop
  endfacet
  facet normal -0.258822 0 0.965925
    outer loop
      vertex 0 3.2 8.8
      vertex 1.16249 -1.8 9.1115
      vertex 1.16249 3.2 9.1115
    endloop
  endfacet
  facet normal -0.258822 0 0.965925
    outer loop
      vertex 1.16249 -1.8 9.1115
      vertex 0 3.2 8.8
      vertex 0 -1.8 8.8
    endloop
  endfacet
  facet normal 0.527449 0.499302 0.687383
    outer loop
      vertex -2.25 4.67438 8.875
      vertex -1.98451 5.2 8.28948
      vertex -2.25 5.2 8.4932
    endloop
  endfacet
  facet normal 0.527448 0.499303 0.687383
    outer loop
      vertex -1.98451 5.2 8.28948
      vertex -2.25 4.67438 8.875
      vertex -1.64402 3.2 9.48098
    endloop
  endfacet
  facet normal -0.687383 0.499303 -0.527448
    outer loop
      vertex 2.25 4.67438 13.375
      vertex 2.25 4.21717 12.9422
      vertex 1.64402 3.2 12.769
    endloop
  endfacet
  facet normal -0.687383 0.499303 0.527448
    outer loop
      vertex 1.64402 3.2 9.48098
      vertex 2.25 3.66981 9.82596
      vertex 2.25 4.21717 9.30781
    endloop
  endfacet
  facet normal -0.687383 0.499303 0.527448
    outer loop
      vertex 2.25 3.66981 9.82596
      vertex 1.64402 3.2 9.48098
      vertex 2.01351 3.2 9.9625
    endloop
  endfacet
  facet normal -0.527447 0.499303 -0.687384
    outer loop
      vertex 2.25 4.67438 13.375
      vertex 1.98451 5.2 13.9605
      vertex 2.25 5.2 13.7568
    endloop
  endfacet
  facet normal -0.527448 0.499303 -0.687383
    outer loop
      vertex 1.98451 5.2 13.9605
      vertex 2.25 4.67438 13.375
      vertex 1.64402 3.2 12.769
    endloop
  endfacet
  facet normal 0.800501 0.499293 -0.331519
    outer loop
      vertex -2.25 3.20948 11.7308
      vertex -2.24578 3.2 11.7268
      vertex -2.25 3.20752 11.7279
    endloop
  endfacet
  facet normal 0.687383 0.499303 0.527448
    outer loop
      vertex -1.64402 3.2 9.48098
      vertex -2.25 4.67438 8.875
      vertex -2.25 4.21717 9.30781
    endloop
  endfacet
  facet normal -0.527449 0.499302 0.687383
    outer loop
      vertex 1.98451 5.2 8.28948
      vertex 2.25 4.67438 8.875
      vertex 2.25 5.2 8.4932
    endloop
  endfacet
  facet normal -0.527448 0.499303 0.687383
    outer loop
      vertex 2.25 4.67438 8.875
      vertex 1.98451 5.2 8.28948
      vertex 1.64402 3.2 9.48098
    endloop
  endfacet
  facet normal -0.859017 0.4993 0.113092
    outer loop
      vertex 2.25 3.20752 10.5221
      vertex 2.24578 3.2 10.5232
      vertex 2.25 3.2 10.5553
    endloop
  endfacet
  facet normal 0 -1 0
    outer loop
      vertex 2.24578 3.2 10.5232
      vertex 2.325 3.2 11.125
      vertex 2.25 3.2 10.5553
    endloop
  endfacet
  facet normal -0.800501 0.499293 -0.331519
    outer loop
      vertex 2.25 3.20948 11.7308
      vertex 2.25 3.20752 11.7279
      vertex 2.24578 3.2 11.7268
    endloop
  endfacet
  facet normal -0.687383 0.499303 -0.527448
    outer loop
      vertex 1.64402 3.2 12.769
      vertex 2.25 3.66981 12.424
      vertex 2.01351 3.2 12.2875
    endloop
  endfacet
  facet normal -0.687383 0.499303 -0.527448
    outer loop
      vertex 2.25 3.66981 12.424
      vertex 1.64402 3.2 12.769
      vertex 2.25 4.21717 12.9422
    endloop
  endfacet
  facet normal -0.113092 0.499302 -0.859015
    outer loop
      vertex 0 5.2 14.6125
      vertex 0.622981 3.3411 13.45
      vertex 2.17316e-005 3.2 13.45
    endloop
  endfacet
  facet normal -0.113092 0.499302 -0.859015
    outer loop
      vertex 0 5.2 14.6125
      vertex 2.17316e-005 3.2 13.45
      vertex 0 3.2 13.45
    endloop
  endfacet
  facet normal -0.113091 0.499303 -0.859015
    outer loop
      vertex 0.622981 3.3411 13.45
      vertex 0 5.2 14.6125
      vertex 0.902631 5.2 14.4937
    endloop
  endfacet
  facet normal 0.331568 0.499303 -0.800475
    outer loop
      vertex -0.963028 3.56691 13.45
      vertex -1.46338 5.2 14.2614
      vertex -0.678395 3.3779 13.45
    endloop
  endfacet
  facet normal 0.331568 0.499303 -0.800475
    outer loop
      vertex -1.74375 5.2 14.1453
      vertex -0.963028 3.56691 13.45
      vertex -1.2035 3.34108 13.2095
    endloop
  endfacet
  facet normal 0.331569 0.499303 -0.800474
    outer loop
      vertex -0.963028 3.56691 13.45
      vertex -1.74375 5.2 14.1453
      vertex -1.46338 5.2 14.2614
    endloop
  endfacet
  facet normal 0.687383 0.499303 -0.527448
    outer loop
      vertex -2.25 4.67438 13.375
      vertex -1.64402 3.2 12.769
      vertex -2.25 4.21717 12.9422
    endloop
  endfacet
  facet normal 0.527448 0.499303 -0.687383
    outer loop
      vertex -2.25 4.67438 13.375
      vertex -1.98451 5.2 13.9605
      vertex -1.64402 3.2 12.769
    endloop
  endfacet
  facet normal 0.527447 0.499303 -0.687384
    outer loop
      vertex -1.98451 5.2 13.9605
      vertex -2.25 4.67438 13.375
      vertex -2.25 5.2 13.7568
    endloop
  endfacet
  facet normal 0.687383 0.499303 0.527448
    outer loop
      vertex -1.64402 3.2 9.48098
      vertex -2.25 3.66981 9.82596
      vertex -2.01351 3.2 9.9625
    endloop
  endfacet
  facet normal 0.687383 0.499303 0.527448
    outer loop
      vertex -2.25 3.66981 9.82596
      vertex -1.64402 3.2 9.48098
      vertex -2.25 4.21717 9.30781
    endloop
  endfacet
  facet normal 0.527448 0.499303 0.687383
    outer loop
      vertex -1.74375 5.2 8.10474
      vertex -1.64402 3.2 9.48098
      vertex -1.1625 3.2 9.11149
    endloop
  endfacet
  facet normal 0.527448 0.499303 0.687383
    outer loop
      vertex -1.64402 3.2 9.48098
      vertex -1.74375 5.2 8.10474
      vertex -1.98451 5.2 8.28948
    endloop
  endfacet
  facet normal -0.687383 0.499303 0.527448
    outer loop
      vertex 2.25 4.21717 9.30781
      vertex 2.25 4.67438 8.875
      vertex 1.64402 3.2 9.48098
    endloop
  endfacet
  facet normal -0.527448 0.499303 0.687383
    outer loop
      vertex 1.74375 5.2 8.10474
      vertex 1.64402 3.2 9.48098
      vertex 1.98451 5.2 8.28948
    endloop
  endfacet
  facet normal -0.527448 0.499303 0.687383
    outer loop
      vertex 1.64402 3.2 9.48098
      vertex 1.74375 5.2 8.10474
      vertex 1.1625 3.2 9.11149
    endloop
  endfacet
  facet normal -0.859017 0.4993 -0.113092
    outer loop
      vertex 2.25 3.20752 11.7279
      vertex 2.25 3.2 11.6947
      vertex 2.24578 3.2 11.7268
    endloop
  endfacet
  facet normal -0.800475 0.499302 -0.331568
    outer loop
      vertex 2.01351 3.2 12.2875
      vertex 2.25 3.20948 11.7308
      vertex 2.24578 3.2 11.7268
    endloop
  endfacet
  facet normal -0.800475 0.499303 -0.331568
    outer loop
      vertex 2.25 3.20948 11.7308
      vertex 2.01351 3.2 12.2875
      vertex 2.25 3.66981 12.424
    endloop
  endfacet
  facet normal -0.527448 0.499303 -0.687383
    outer loop
      vertex 1.64402 3.2 12.769
      vertex 1.74375 5.2 14.1453
      vertex 1.98451 5.2 13.9605
    endloop
  endfacet
  facet normal -0.532912 0.489989 -0.689866
    outer loop
      vertex 1.2035 3.34108 13.2095
      vertex 1.64402 3.2 12.769
      vertex 1.64393 3.2 12.7691
    endloop
  endfacet
  facet normal -0.527447 0.499303 -0.687384
    outer loop
      vertex 1.64402 3.2 12.769
      vertex 1.2035 3.34108 13.2095
      vertex 1.74375 5.2 14.1453
    endloop
  endfacet
  facet normal -0.331567 0.499303 -0.800475
    outer loop
      vertex 0.678395 3.3779 13.45
      vertex 0.902631 5.2 14.4937
      vertex 1.46338 5.2 14.2614
    endloop
  endfacet
  facet normal -0.331567 0.499303 -0.800475
    outer loop
      vertex 0.902631 5.2 14.4937
      vertex 0.678395 3.3779 13.45
      vertex 0.622981 3.3411 13.45
    endloop
  endfacet
  facet normal 0.859017 0.4993 -0.113092
    outer loop
      vertex -2.25 3.20752 11.7279
      vertex -2.24578 3.2 11.7268
      vertex -2.25 3.2 11.6947
    endloop
  endfacet
  facet normal 0.687383 0.499303 -0.527448
    outer loop
      vertex -1.64402 3.2 12.769
      vertex -2.25 3.66981 12.424
      vertex -2.25 4.21717 12.9422
    endloop
  endfacet
  facet normal 0.687383 0.499303 -0.527448
    outer loop
      vertex -2.25 3.66981 12.424
      vertex -1.64402 3.2 12.769
      vertex -2.01351 3.2 12.2875
    endloop
  endfacet
  facet normal 0.532912 0.489989 -0.689866
    outer loop
      vertex -1.64402 3.2 12.769
      vertex -1.2035 3.34108 13.2095
      vertex -1.64393 3.2 12.7691
    endloop
  endfacet
  facet normal 0.527447 0.499303 -0.687384
    outer loop
      vertex -1.64402 3.2 12.769
      vertex -1.74375 5.2 14.1453
      vertex -1.2035 3.34108 13.2095
    endloop
  endfacet
  facet normal 0.527448 0.499303 -0.687383
    outer loop
      vertex -1.74375 5.2 14.1453
      vertex -1.64402 3.2 12.769
      vertex -1.98451 5.2 13.9605
    endloop
  endfacet
  facet normal 0.113092 0.499302 -0.859015
    outer loop
      vertex -2.17316e-005 3.2 13.45
      vertex 0 5.2 14.6125
      vertex 0 3.2 13.45
    endloop
  endfacet
  facet normal 0.113092 0.499302 -0.859015
    outer loop
      vertex -0.622981 3.3411 13.45
      vertex 0 5.2 14.6125
      vertex -2.17316e-005 3.2 13.45
    endloop
  endfacet
  facet normal 0.113091 0.499303 -0.859015
    outer loop
      vertex 0 5.2 14.6125
      vertex -0.622981 3.3411 13.45
      vertex -0.902631 5.2 14.4937
    endloop
  endfacet
  facet normal 0.859017 0.4993 0.113092
    outer loop
      vertex -2.25 3.20752 10.5221
      vertex -2.25 3.2 10.5553
      vertex -2.24578 3.2 10.5232
    endloop
  endfacet
  facet normal 0 -1 0
    outer loop
      vertex -2.24578 3.2 10.5232
      vertex -2.25 3.2 10.5553
      vertex -2.325 3.2 11.125
    endloop
  endfacet
  facet normal 0.800475 0.499302 0.331568
    outer loop
      vertex -2.01351 3.2 9.9625
      vertex -2.25 3.20948 10.5192
      vertex -2.24578 3.2 10.5232
    endloop
  endfacet
  facet normal 0.800475 0.499303 0.331568
    outer loop
      vertex -2.25 3.20948 10.5192
      vertex -2.01351 3.2 9.9625
      vertex -2.25 3.66981 9.82596
    endloop
  endfacet
  facet normal 0.331567 0.499303 0.800475
    outer loop
      vertex -0.601754 3.2 8.87922
      vertex -0.902631 5.2 7.75633
      vertex -1.46338 5.2 7.9886
    endloop
  endfacet
  facet normal 0.113092 0.499303 0.859015
    outer loop
      vertex 0 5.2 7.6375
      vertex -0.601754 3.2 8.87922
      vertex 0 3.2 8.8
    endloop
  endfacet
  facet normal 0.113092 0.499303 0.859015
    outer loop
      vertex -0.601754 3.2 8.87922
      vertex 0 5.2 7.6375
      vertex -0.902631 5.2 7.75633
    endloop
  endfacet
  facet normal -0.113092 0.499303 0.859015
    outer loop
      vertex 0 5.2 7.6375
      vertex 0.601754 3.2 8.87922
      vertex 0.902631 5.2 7.75633
    endloop
  endfacet
  facet normal -0.113092 0.499303 0.859015
    outer loop
      vertex 0.601754 3.2 8.87922
      vertex 0 5.2 7.6375
      vertex 0 3.2 8.8
    endloop
  endfacet
  facet normal -0.331566 0.499303 0.800475
    outer loop
      vertex 1.46338 5.2 7.9886
      vertex 1.1625 3.2 9.11149
      vertex 1.74375 5.2 8.10474
    endloop
  endfacet
  facet normal -0.331568 0.499303 0.800475
    outer loop
      vertex 1.1625 3.2 9.11149
      vertex 1.46338 5.2 7.9886
      vertex 0.601754 3.2 8.87922
    endloop
  endfacet
  facet normal 0 1 -0
    outer loop
      vertex 2.24578 3.2 10.5232
      vertex 2.0135 3.2 9.96251
      vertex 2.325 3.2 11.125
    endloop
  endfacet
  facet normal 0 1 -0
    outer loop
      vertex 2.01351 3.2 9.9625
      vertex 2.0135 3.2 9.96251
      vertex 2.24578 3.2 10.5232
    endloop
  endfacet
  facet normal 0 1 0
    outer loop
      vertex 1.64402 3.2 9.48098
      vertex 2.0135 3.2 9.96251
      vertex 2.01351 3.2 9.9625
    endloop
  endfacet
  facet normal 0 1 -0
    outer loop
      vertex 1.64402 3.2 9.48098
      vertex 1.16249 3.2 9.1115
      vertex 2.0135 3.2 9.96251
    endloop
  endfacet
  facet normal 0 1 -0
    outer loop
      vertex 1.1625 3.2 9.11149
      vertex 1.16249 3.2 9.1115
      vertex 1.64402 3.2 9.48098
    endloop
  endfacet
  facet normal 0 1 0
    outer loop
      vertex 0.601754 3.2 8.87922
      vertex 1.16249 3.2 9.1115
      vertex 1.1625 3.2 9.11149
    endloop
  endfacet
  facet normal 0 1 -0
    outer loop
      vertex 0.601754 3.2 8.87922
      vertex 0 3.2 8.8
      vertex 1.16249 3.2 9.1115
    endloop
  endfacet
  facet normal 0 1 0
    outer loop
      vertex -2.0135 3.2 9.96251
      vertex -2.24578 3.2 10.5232
      vertex -2.325 3.2 11.125
    endloop
  endfacet
  facet normal 0 1 0
    outer loop
      vertex -2.0135 3.2 9.96251
      vertex -2.01351 3.2 9.9625
      vertex -2.24578 3.2 10.5232
    endloop
  endfacet
  facet normal 0 1 0
    outer loop
      vertex -2.0135 3.2 9.96251
      vertex -1.64402 3.2 9.48098
      vertex -2.01351 3.2 9.9625
    endloop
  endfacet
  facet normal 0 1 0
    outer loop
      vertex -1.16249 3.2 9.1115
      vertex -1.64402 3.2 9.48098
      vertex -2.0135 3.2 9.96251
    endloop
  endfacet
  facet normal 0 1 0
    outer loop
      vertex -1.16249 3.2 9.1115
      vertex -1.1625 3.2 9.11149
      vertex -1.64402 3.2 9.48098
    endloop
  endfacet
  facet normal 0 1 0
    outer loop
      vertex -1.16249 3.2 9.1115
      vertex -0.601754 3.2 8.87922
      vertex -1.1625 3.2 9.11149
    endloop
  endfacet
  facet normal 0 1 0
    outer loop
      vertex 0 3.2 8.8
      vertex -0.601754 3.2 8.87922
      vertex -1.16249 3.2 9.1115
    endloop
  endfacet
  facet normal 0 1 0
    outer loop
      vertex 1.64402 3.2 12.769
      vertex 1.64401 3.2 12.769
      vertex 1.64393 3.2 12.7691
    endloop
  endfacet
  facet normal 0 1 0
    outer loop
      vertex 2.01351 3.2 12.2875
      vertex 1.64401 3.2 12.769
      vertex 1.64402 3.2 12.769
    endloop
  endfacet
  facet normal 0 1 0
    outer loop
      vertex 1.64401 3.2 12.769
      vertex 2.01351 3.2 12.2875
      vertex 1.588 3.2 12.713
    endloop
  endfacet
  facet normal 0 1 0
    outer loop
      vertex 2.01351 3.2 12.2875
      vertex 2.0135 3.2 12.2875
      vertex 1.588 3.2 12.713
    endloop
  endfacet
  facet normal 0 1 0
    outer loop
      vertex 2.24578 3.2 11.7268
      vertex 2.0135 3.2 12.2875
      vertex 2.01351 3.2 12.2875
    endloop
  endfacet
  facet normal 0 1 0
    outer loop
      vertex 2.25 3.2 11.6947
      vertex 2.0135 3.2 12.2875
      vertex 2.24578 3.2 11.7268
    endloop
  endfacet
  facet normal 0 1 0
    outer loop
      vertex 2.0135 3.2 12.2875
      vertex 2.25 3.2 11.6947
      vertex 2.25 3.2 11.4049
    endloop
  endfacet
  facet normal 0 1 -0
    outer loop
      vertex -1.64401 3.2 12.769
      vertex -1.64402 3.2 12.769
      vertex -1.64393 3.2 12.7691
    endloop
  endfacet
  facet normal 0 1 0
    outer loop
      vertex -2.01351 3.2 12.2875
      vertex -1.64401 3.2 12.769
      vertex -1.588 3.2 12.713
    endloop
  endfacet
  facet normal 0 1 0
    outer loop
      vertex -1.64401 3.2 12.769
      vertex -2.01351 3.2 12.2875
      vertex -1.64402 3.2 12.769
    endloop
  endfacet
  facet normal 0 1 -0
    outer loop
      vertex -2.0135 3.2 12.2875
      vertex -2.01351 3.2 12.2875
      vertex -1.588 3.2 12.713
    endloop
  endfacet
  facet normal 0 1 0
    outer loop
      vertex -2.0135 3.2 12.2875
      vertex -2.24578 3.2 11.7268
      vertex -2.01351 3.2 12.2875
    endloop
  endfacet
  facet normal 0 1 0
    outer loop
      vertex -2.0135 3.2 12.2875
      vertex -2.25 3.2 11.6947
      vertex -2.24578 3.2 11.7268
    endloop
  endfacet
  facet normal -0 1 0
    outer loop
      vertex -2.25 3.2 11.6947
      vertex -2.0135 3.2 12.2875
      vertex -2.25 3.2 11.4049
    endloop
  endfacet
  facet normal 0 1 0
    outer loop
      vertex 0 3.2 13.45
      vertex 2.17316e-005 3.2 13.45
      vertex -2.17316e-005 3.2 13.45
    endloop
  endfacet
  facet normal 0.800475 0.499303 -0.331568
    outer loop
      vertex -2.01351 3.2 12.2875
      vertex -2.25 3.20948 11.7308
      vertex -2.25 3.66981 12.424
    endloop
  endfacet
  facet normal 0.800475 0.499302 -0.331568
    outer loop
      vertex -2.25 3.20948 11.7308
      vertex -2.01351 3.2 12.2875
      vertex -2.24578 3.2 11.7268
    endloop
  endfacet
  facet normal 0.331567 0.499303 -0.800475
    outer loop
      vertex -0.678395 3.3779 13.45
      vertex -0.902631 5.2 14.4937
      vertex -0.622981 3.3411 13.45
    endloop
  endfacet
  facet normal 0.331567 0.499303 -0.800475
    outer loop
      vertex -0.902631 5.2 14.4937
      vertex -0.678395 3.3779 13.45
      vertex -1.46338 5.2 14.2614
    endloop
  endfacet
  facet normal 0.800501 0.499293 0.331519
    outer loop
      vertex -2.24578 3.2 10.5232
      vertex -2.25 3.20948 10.5192
      vertex -2.25 3.20752 10.5221
    endloop
  endfacet
  facet normal 0.331568 0.499303 0.800475
    outer loop
      vertex -1.46338 5.2 7.9886
      vertex -1.1625 3.2 9.11149
      vertex -0.601754 3.2 8.87922
    endloop
  endfacet
  facet normal 0.331566 0.499303 0.800475
    outer loop
      vertex -1.1625 3.2 9.11149
      vertex -1.46338 5.2 7.9886
      vertex -1.74375 5.2 8.10474
    endloop
  endfacet
  facet normal -0.800475 0.499303 0.331568
    outer loop
      vertex 2.01351 3.2 9.9625
      vertex 2.25 3.20948 10.5192
      vertex 2.25 3.66981 9.82596
    endloop
  endfacet
  facet normal -0.800475 0.499302 0.331568
    outer loop
      vertex 2.25 3.20948 10.5192
      vertex 2.01351 3.2 9.9625
      vertex 2.24578 3.2 10.5232
    endloop
  endfacet
  facet normal -0.800501 0.499293 0.331519
    outer loop
      vertex 2.25 3.20752 10.5221
      vertex 2.25 3.20948 10.5192
      vertex 2.24578 3.2 10.5232
    endloop
  endfacet
  facet normal -0.331567 0.499303 0.800475
    outer loop
      vertex 1.46338 5.2 7.9886
      vertex 0.902631 5.2 7.75633
      vertex 0.601754 3.2 8.87922
    endloop
  endfacet
  facet normal -0.331568 0.499303 -0.800475
    outer loop
      vertex 0.963028 3.56691 13.45
      vertex 1.74375 5.2 14.1453
      vertex 1.2035 3.34108 13.2095
    endloop
  endfacet
  facet normal -0.331569 0.499303 -0.800474
    outer loop
      vertex 1.74375 5.2 14.1453
      vertex 0.963028 3.56691 13.45
      vertex 1.46338 5.2 14.2614
    endloop
  endfacet
  facet normal -0.331568 0.499303 -0.800475
    outer loop
      vertex 1.46338 5.2 14.2614
      vertex 0.963028 3.56691 13.45
      vertex 0.678395 3.3779 13.45
    endloop
  endfacet
  facet normal 0.965926 -0 0.258819
    outer loop
      vertex 3.45 -3.2 3.875
      vertex 3.62417 3.2 3.225
      vertex 3.45 3.2 3.875
    endloop
  endfacet
  facet normal 0.965926 0 0.258819
    outer loop
      vertex 3.62417 3.2 3.225
      vertex 3.45 -3.2 3.875
      vertex 3.62417 -3.2 3.225
    endloop
  endfacet
  facet normal 0.707107 -0 0.707107
    outer loop
      vertex 3.62417 -3.2 3.225
      vertex 4.1 3.2 2.74917
      vertex 3.62417 3.2 3.225
    endloop
  endfacet
  facet normal 0.707107 0 0.707107
    outer loop
      vertex 4.1 3.2 2.74917
      vertex 3.62417 -3.2 3.225
      vertex 4.1 -3.2 2.74917
    endloop
  endfacet
  facet normal -0.965926 0 0.258819
    outer loop
      vertex 5.87583 -3.2 3.225
      vertex 6.05 3.2 3.875
      vertex 5.87583 3.2 3.225
    endloop
  endfacet
  facet normal -0.965926 0 0.258819
    outer loop
      vertex 6.05 3.2 3.875
      vertex 5.87583 -3.2 3.225
      vertex 6.05 -3.2 3.875
    endloop
  endfacet
  facet normal -0.707107 0 0.707107
    outer loop
      vertex 5.4 -3.2 2.74917
      vertex 5.87583 3.2 3.225
      vertex 5.4 3.2 2.74917
    endloop
  endfacet
  facet normal -0.707107 0 0.707107
    outer loop
      vertex 5.87583 3.2 3.225
      vertex 5.4 -3.2 2.74917
      vertex 5.87583 -3.2 3.225
    endloop
  endfacet
  facet normal 0.965926 0 -0.258819
    outer loop
      vertex 3.62417 -3.2 4.525
      vertex 3.45 3.2 3.875
      vertex 3.62417 3.2 4.525
    endloop
  endfacet
  facet normal 0.965926 0 -0.258819
    outer loop
      vertex 3.45 3.2 3.875
      vertex 3.62417 -3.2 4.525
      vertex 3.45 -3.2 3.875
    endloop
  endfacet
  facet normal -0.965926 0 -0.258819
    outer loop
      vertex 6.05 -3.2 3.875
      vertex 5.87583 3.2 4.525
      vertex 6.05 3.2 3.875
    endloop
  endfacet
  facet normal -0.965926 -0 -0.258819
    outer loop
      vertex 5.87583 3.2 4.525
      vertex 6.05 -3.2 3.875
      vertex 5.87583 -3.2 4.525
    endloop
  endfacet
  facet normal -0.707107 0 -0.707107
    outer loop
      vertex 5.87583 -3.2 4.525
      vertex 5.4 3.2 5.00083
      vertex 5.87583 3.2 4.525
    endloop
  endfacet
  facet normal -0.707107 -0 -0.707107
    outer loop
      vertex 5.4 3.2 5.00083
      vertex 5.87583 -3.2 4.525
      vertex 5.4 -3.2 5.00083
    endloop
  endfacet
  facet normal 0.258818 0 0.965926
    outer loop
      vertex 4.1 3.2 2.74917
      vertex 4.75 -3.2 2.575
      vertex 4.75 3.2 2.575
    endloop
  endfacet
  facet normal 0.258818 0 0.965926
    outer loop
      vertex 4.75 -3.2 2.575
      vertex 4.1 3.2 2.74917
      vertex 4.1 -3.2 2.74917
    endloop
  endfacet
  facet normal -0.258819 0 0.965926
    outer loop
      vertex 4.75 3.2 2.575
      vertex 5.4 -3.2 2.74917
      vertex 5.4 3.2 2.74917
    endloop
  endfacet
  facet normal -0.258819 0 0.965926
    outer loop
      vertex 5.4 -3.2 2.74917
      vertex 4.75 3.2 2.575
      vertex 4.75 -3.2 2.575
    endloop
  endfacet
  facet normal 0.258818 0 -0.965926
    outer loop
      vertex 4.1 -3.2 5.00083
      vertex 4.75 3.2 5.175
      vertex 4.75 -3.2 5.175
    endloop
  endfacet
  facet normal 0.258818 0 -0.965926
    outer loop
      vertex 4.75 3.2 5.175
      vertex 4.1 -3.2 5.00083
      vertex 4.1 3.2 5.00083
    endloop
  endfacet
  facet normal 0.707107 0 -0.707107
    outer loop
      vertex 4.1 -3.2 5.00083
      vertex 3.62417 3.2 4.525
      vertex 4.1 3.2 5.00083
    endloop
  endfacet
  facet normal 0.707107 0 -0.707107
    outer loop
      vertex 3.62417 3.2 4.525
      vertex 4.1 -3.2 5.00083
      vertex 3.62417 -3.2 4.525
    endloop
  endfacet
  facet normal -0.258819 0 -0.965926
    outer loop
      vertex 4.75 -3.2 5.175
      vertex 5.4 3.2 5.00083
      vertex 5.4 -3.2 5.00083
    endloop
  endfacet
  facet normal -0.258819 0 -0.965926
    outer loop
      vertex 5.4 3.2 5.00083
      vertex 4.75 -3.2 5.175
      vertex 4.75 3.2 5.175
    endloop
  endfacet
  facet normal 0.965926 -0 0.258819
    outer loop
      vertex -6.05 -3.2 3.875
      vertex -5.87583 3.2 3.225
      vertex -6.05 3.2 3.875
    endloop
  endfacet
  facet normal 0.965926 0 0.258819
    outer loop
      vertex -5.87583 3.2 3.225
      vertex -6.05 -3.2 3.875
      vertex -5.87583 -3.2 3.225
    endloop
  endfacet
  facet normal 0.707107 -0 0.707107
    outer loop
      vertex -5.87583 -3.2 3.225
      vertex -5.4 3.2 2.74917
      vertex -5.87583 3.2 3.225
    endloop
  endfacet
  facet normal 0.707107 0 0.707107
    outer loop
      vertex -5.4 3.2 2.74917
      vertex -5.87583 -3.2 3.225
      vertex -5.4 -3.2 2.74917
    endloop
  endfacet
  facet normal -0.965926 0 0.258819
    outer loop
      vertex -3.62417 -3.2 3.225
      vertex -3.45 3.2 3.875
      vertex -3.62417 3.2 3.225
    endloop
  endfacet
  facet normal -0.965926 0 0.258819
    outer loop
      vertex -3.45 3.2 3.875
      vertex -3.62417 -3.2 3.225
      vertex -3.45 -3.2 3.875
    endloop
  endfacet
  facet normal -0.965926 0 -0.258819
    outer loop
      vertex -3.45 -3.2 3.875
      vertex -3.62417 3.2 4.525
      vertex -3.45 3.2 3.875
    endloop
  endfacet
  facet normal -0.965926 -0 -0.258819
    outer loop
      vertex -3.62417 3.2 4.525
      vertex -3.45 -3.2 3.875
      vertex -3.62417 -3.2 4.525
    endloop
  endfacet
  facet normal -0.707107 0 0.707107
    outer loop
      vertex -4.1 -3.2 2.74917
      vertex -3.62417 3.2 3.225
      vertex -4.1 3.2 2.74917
    endloop
  endfacet
  facet normal -0.707107 0 0.707107
    outer loop
      vertex -3.62417 3.2 3.225
      vertex -4.1 -3.2 2.74917
      vertex -3.62417 -3.2 3.225
    endloop
  endfacet
  facet normal 0.965926 0 -0.258819
    outer loop
      vertex -5.87583 -3.2 4.525
      vertex -6.05 3.2 3.875
      vertex -5.87583 3.2 4.525
    endloop
  endfacet
  facet normal 0.965926 0 -0.258819
    outer loop
      vertex -6.05 3.2 3.875
      vertex -5.87583 -3.2 4.525
      vertex -6.05 -3.2 3.875
    endloop
  endfacet
  facet normal 0.258819 0 0.965926
    outer loop
      vertex -5.4 3.2 2.74917
      vertex -4.75 -3.2 2.575
      vertex -4.75 3.2 2.575
    endloop
  endfacet
  facet normal 0.258819 0 0.965926
    outer loop
      vertex -4.75 -3.2 2.575
      vertex -5.4 3.2 2.74917
      vertex -5.4 -3.2 2.74917
    endloop
  endfacet
  facet normal -0.258818 0 0.965926
    outer loop
      vertex -4.75 3.2 2.575
      vertex -4.1 -3.2 2.74917
      vertex -4.1 3.2 2.74917
    endloop
  endfacet
  facet normal -0.258818 0 0.965926
    outer loop
      vertex -4.1 -3.2 2.74917
      vertex -4.75 3.2 2.575
      vertex -4.75 -3.2 2.575
    endloop
  endfacet
  facet normal 0.258819 0 -0.965926
    outer loop
      vertex -5.4 -3.2 5.00083
      vertex -4.75 3.2 5.175
      vertex -4.75 -3.2 5.175
    endloop
  endfacet
  facet normal 0.258819 0 -0.965926
    outer loop
      vertex -4.75 3.2 5.175
      vertex -5.4 -3.2 5.00083
      vertex -5.4 3.2 5.00083
    endloop
  endfacet
  facet normal 0.707107 0 -0.707107
    outer loop
      vertex -5.4 -3.2 5.00083
      vertex -5.87583 3.2 4.525
      vertex -5.4 3.2 5.00083
    endloop
  endfacet
  facet normal 0.707107 0 -0.707107
    outer loop
      vertex -5.87583 3.2 4.525
      vertex -5.4 -3.2 5.00083
      vertex -5.87583 -3.2 4.525
    endloop
  endfacet
  facet normal -0.258818 0 -0.965926
    outer loop
      vertex -4.75 -3.2 5.175
      vertex -4.1 3.2 5.00083
      vertex -4.1 -3.2 5.00083
    endloop
  endfacet
  facet normal -0.258818 0 -0.965926
    outer loop
      vertex -4.1 3.2 5.00083
      vertex -4.75 -3.2 5.175
      vertex -4.75 3.2 5.175
    endloop
  endfacet
  facet normal -0.707107 0 -0.707107
    outer loop
      vertex -3.62417 -3.2 4.525
      vertex -4.1 3.2 5.00083
      vertex -3.62417 3.2 4.525
    endloop
  endfacet
  facet normal -0.707107 -0 -0.707107
    outer loop
      vertex -4.1 3.2 5.00083
      vertex -3.62417 -3.2 4.525
      vertex -4.1 -3.2 5.00083
    endloop
  endfacet
endsolid OpenSCAD_Model
