solid 12x9_washer
facet normal 0.0 0.0 -1.0
  outer loop
    vertex -4.242640687119285 4.242640687119286 0.0
    vertex -4.5 5.51091059616309e-16 0.0
    vertex -5.196152422706631 3.000000000000002 0.0
  endloop
endfacet
facet normal 0.0 0.0 -1.0
  outer loop
    vertex -4.5 5.51091059616309e-16 0.0
    vertex -4.242640687119285 4.242640687119286 0.0
    vertex -4.346666218300808 1.1646857029613447 0.0
  endloop
endfacet
facet normal 0.0 0.0 -1.0
  outer loop
    vertex -4.346666218300808 1.1646857029613447 0.0
    vertex -4.242640687119285 4.242640687119286 0.0
    vertex -3.8971143170299736 2.2500000000000013 0.0
  endloop
endfacet
facet normal 0.0 0.0 -1.0
  outer loop
    vertex -3.8971143170299736 2.2500000000000013 0.0
    vertex -4.242640687119285 4.242640687119286 0.0
    vertex -2.9999999999999982 5.196152422706632 0.0
  endloop
endfacet
facet normal 0.0 0.0 -1.0
  outer loop
    vertex -3.8971143170299736 2.2500000000000013 0.0
    vertex -2.9999999999999982 5.196152422706632 0.0
    vertex -3.1819805153394642 3.1819805153394642 0.0
  endloop
endfacet
facet normal 0.0 0.0 -1.0
  outer loop
    vertex -3.1819805153394642 3.1819805153394642 0.0
    vertex -2.9999999999999982 5.196152422706632 0.0
    vertex -2.249999999999999 3.897114317029974 0.0
  endloop
endfacet
facet normal 0.0 0.0 -1.0
  outer loop
    vertex -2.249999999999999 3.897114317029974 0.0
    vertex -2.9999999999999982 5.196152422706632 0.0
    vertex -1.5529142706151238 5.79555495773441 0.0
  endloop
endfacet
facet normal 0.0 0.0 -1.0
  outer loop
    vertex -2.249999999999999 3.897114317029974 0.0
    vertex -1.5529142706151238 5.79555495773441 0.0
    vertex -1.1646857029613429 4.346666218300808 0.0
  endloop
endfacet
facet normal 0.0 0.0 -1.0
  outer loop
    vertex -1.1646857029613429 4.346666218300808 0.0
    vertex -1.5529142706151238 5.79555495773441 0.0
    vertex 3.6739403974420594e-16 6.0 0.0
  endloop
endfacet
facet normal 0.0 0.0 -1.0
  outer loop
    vertex -1.1646857029613429 4.346666218300808 0.0
    vertex 3.6739403974420594e-16 6.0 0.0
    vertex 2.755455298081545e-16 4.5 0.0
  endloop
endfacet
facet normal 0.0 0.0 -1.0
  outer loop
    vertex 2.755455298081545e-16 4.5 0.0
    vertex 3.6739403974420594e-16 6.0 0.0
    vertex 1.1646857029613444 4.346666218300808 0.0
  endloop
endfacet
facet normal 0.0 0.0 -1.0
  outer loop
    vertex 1.1646857029613444 4.346666218300808 0.0
    vertex 3.6739403974420594e-16 6.0 0.0
    vertex 1.5529142706151258 5.79555495773441 0.0
  endloop
endfacet
facet normal 0.0 0.0 -1.0
  outer loop
    vertex 1.1646857029613444 4.346666218300808 0.0
    vertex 1.5529142706151258 5.79555495773441 0.0
    vertex 2.2500000000000004 3.897114317029974 0.0
  endloop
endfacet
facet normal 0.0 0.0 -1.0
  outer loop
    vertex 2.2500000000000004 3.897114317029974 0.0
    vertex 1.5529142706151258 5.79555495773441 0.0
    vertex 3.0000000000000004 5.196152422706631 0.0
  endloop
endfacet
facet normal 0.0 0.0 -1.0
  outer loop
    vertex 2.2500000000000004 3.897114317029974 0.0
    vertex 3.0000000000000004 5.196152422706631 0.0
    vertex 3.1819805153394642 3.1819805153394642 0.0
  endloop
endfacet
facet normal 0.0 0.0 -1.0
  outer loop
    vertex 3.1819805153394642 3.1819805153394642 0.0
    vertex 3.0000000000000004 5.196152422706631 0.0
    vertex 4.242640687119285 4.242640687119285 0.0
  endloop
endfacet
facet normal 0.0 0.0 -1.0
  outer loop
    vertex 3.1819805153394642 3.1819805153394642 0.0
    vertex 4.242640687119285 4.242640687119285 0.0
    vertex 3.897114317029974 2.2499999999999996 0.0
  endloop
endfacet
facet normal 0.0 0.0 -1.0
  outer loop
    vertex 3.897114317029974 2.2499999999999996 0.0
    vertex 4.242640687119285 4.242640687119285 0.0
    vertex 4.346666218300808 1.1646857029613435 0.0
  endloop
endfacet
facet normal 0.0 0.0 -1.0
  outer loop
    vertex 4.346666218300808 1.1646857029613435 0.0
    vertex 4.242640687119285 4.242640687119285 0.0
    vertex 5.196152422706631 3.0 0.0
  endloop
endfacet
facet normal 0.0 0.0 -1.0
  outer loop
    vertex 4.346666218300808 1.1646857029613435 0.0
    vertex 5.196152422706631 3.0 0.0
    vertex 4.5 0.0 0.0
  endloop
endfacet
facet normal 0.0 0.0 -1.0
  outer loop
    vertex 4.5 0.0 0.0
    vertex 5.196152422706631 3.0 0.0
    vertex 5.19615242270663 -3.000000000000003 0.0
  endloop
endfacet
facet normal 0.0 0.0 -1.0
  outer loop
    vertex 5.19615242270663 -3.000000000000003 0.0
    vertex 5.196152422706631 3.0 0.0
    vertex 5.795554957734408 -1.5529142706151295 0.0
  endloop
endfacet
facet normal 0.0 0.0 -1.0
  outer loop
    vertex 5.795554957734408 -1.5529142706151295 0.0
    vertex 5.196152422706631 3.0 0.0
    vertex 5.79555495773441 1.5529142706151244 0.0
  endloop
endfacet
facet normal 0.0 0.0 -1.0
  outer loop
    vertex 5.795554957734408 -1.5529142706151295 0.0
    vertex 5.79555495773441 1.5529142706151244 0.0
    vertex 6.0 0.0 0.0
  endloop
endfacet
facet normal 0.0 0.0 -1.0
  outer loop
    vertex -5.795554957734409 1.5529142706151262 0.0
    vertex -5.79555495773441 -1.5529142706151222 0.0
    vertex -6.0 7.34788079488412e-16 0.0
  endloop
endfacet
facet normal 0.0 0.0 -1.0
  outer loop
    vertex -5.79555495773441 -1.5529142706151222 0.0
    vertex -5.795554957734409 1.5529142706151262 0.0
    vertex -5.196152422706632 -2.9999999999999982 0.0
  endloop
endfacet
facet normal 0.0 0.0 -1.0
  outer loop
    vertex -5.196152422706632 -2.9999999999999982 0.0
    vertex -5.795554957734409 1.5529142706151262 0.0
    vertex -5.196152422706631 3.000000000000002 0.0
  endloop
endfacet
facet normal 0.0 0.0 -1.0
  outer loop
    vertex -5.196152422706632 -2.9999999999999982 0.0
    vertex -5.196152422706631 3.000000000000002 0.0
    vertex -4.242640687119287 -4.242640687119283 0.0
  endloop
endfacet
facet normal 0.0 0.0 -1.0
  outer loop
    vertex -4.242640687119287 -4.242640687119283 0.0
    vertex -5.196152422706631 3.000000000000002 0.0
    vertex -4.5 5.51091059616309e-16 0.0
  endloop
endfacet
facet normal 0.0 0.0 -1.0
  outer loop
    vertex -4.242640687119287 -4.242640687119283 0.0
    vertex -4.5 5.51091059616309e-16 0.0
    vertex -4.3466662183008085 -1.1646857029613418 0.0
  endloop
endfacet
facet normal 0.0 0.0 -1.0
  outer loop
    vertex -4.242640687119287 -4.242640687119283 0.0
    vertex -4.3466662183008085 -1.1646857029613418 0.0
    vertex -3.897114317029975 -2.2499999999999987 0.0
  endloop
endfacet
facet normal 0.0 0.0 -1.0
  outer loop
    vertex -4.242640687119287 -4.242640687119283 0.0
    vertex -3.897114317029975 -2.2499999999999987 0.0
    vertex -3.0000000000000027 -5.196152422706631 0.0
  endloop
endfacet
facet normal 0.0 0.0 -1.0
  outer loop
    vertex -3.0000000000000027 -5.196152422706631 0.0
    vertex -3.897114317029975 -2.2499999999999987 0.0
    vertex -3.1819805153394656 -3.181980515339462 0.0
  endloop
endfacet
facet normal 0.0 0.0 -1.0
  outer loop
    vertex -3.0000000000000027 -5.196152422706631 0.0
    vertex -3.1819805153394656 -3.181980515339462 0.0
    vertex -2.250000000000002 -3.8971143170299727 0.0
  endloop
endfacet
facet normal 0.0 0.0 -1.0
  outer loop
    vertex -3.0000000000000027 -5.196152422706631 0.0
    vertex -2.250000000000002 -3.8971143170299727 0.0
    vertex -1.552914270615129 -5.795554957734409 0.0
  endloop
endfacet
facet normal 0.0 0.0 -1.0
  outer loop
    vertex -1.552914270615129 -5.795554957734409 0.0
    vertex -2.250000000000002 -3.8971143170299727 0.0
    vertex -1.1646857029613469 -4.346666218300807 0.0
  endloop
endfacet
facet normal 0.0 0.0 -1.0
  outer loop
    vertex -1.552914270615129 -5.795554957734409 0.0
    vertex -1.1646857029613469 -4.346666218300807 0.0
    vertex -1.1021821192326177e-15 -6.0 0.0
  endloop
endfacet
facet normal 0.0 0.0 -1.0
  outer loop
    vertex -1.1021821192326177e-15 -6.0 0.0
    vertex -1.1646857029613469 -4.346666218300807 0.0
    vertex -8.266365894244633e-16 -4.5 0.0
  endloop
endfacet
facet normal 0.0 0.0 -1.0
  outer loop
    vertex -1.1021821192326177e-15 -6.0 0.0
    vertex -8.266365894244633e-16 -4.5 0.0
    vertex 1.5529142706151216 -5.79555495773441 0.0
  endloop
endfacet
facet normal 0.0 0.0 -1.0
  outer loop
    vertex 1.5529142706151216 -5.79555495773441 0.0
    vertex -8.266365894244633e-16 -4.5 0.0
    vertex 1.1646857029613413 -4.3466662183008085 0.0
  endloop
endfacet
facet normal 0.0 0.0 -1.0
  outer loop
    vertex 1.5529142706151216 -5.79555495773441 0.0
    vertex 1.1646857029613413 -4.3466662183008085 0.0
    vertex 2.249999999999997 -3.8971143170299753 0.0
  endloop
endfacet
facet normal 0.0 0.0 -1.0
  outer loop
    vertex 1.5529142706151216 -5.79555495773441 0.0
    vertex 2.249999999999997 -3.8971143170299753 0.0
    vertex 2.999999999999996 -5.196152422706635 0.0
  endloop
endfacet
facet normal 0.0 0.0 -1.0
  outer loop
    vertex 2.999999999999996 -5.196152422706635 0.0
    vertex 2.249999999999997 -3.8971143170299753 0.0
    vertex 3.1819805153394634 -3.1819805153394647 0.0
  endloop
endfacet
facet normal 0.0 0.0 -1.0
  outer loop
    vertex 2.999999999999996 -5.196152422706635 0.0
    vertex 3.1819805153394634 -3.1819805153394647 0.0
    vertex 4.242640687119284 -4.2426406871192865 0.0
  endloop
endfacet
facet normal 0.0 0.0 -1.0
  outer loop
    vertex 4.242640687119284 -4.2426406871192865 0.0
    vertex 3.1819805153394634 -3.1819805153394647 0.0
    vertex 3.8971143170299727 -2.250000000000002 0.0
  endloop
endfacet
facet normal 0.0 0.0 -1.0
  outer loop
    vertex 4.242640687119284 -4.2426406871192865 0.0
    vertex 3.8971143170299727 -2.250000000000002 0.0
    vertex 4.346666218300807 -1.164685702961347 0.0
  endloop
endfacet
facet normal 0.0 0.0 -1.0
  outer loop
    vertex 4.242640687119284 -4.2426406871192865 0.0
    vertex 4.346666218300807 -1.164685702961347 0.0
    vertex 5.19615242270663 -3.000000000000003 0.0
  endloop
endfacet
facet normal 0.0 0.0 -1.0
  outer loop
    vertex 5.19615242270663 -3.000000000000003 0.0
    vertex 4.346666218300807 -1.164685702961347 0.0
    vertex 4.5 0.0 0.0
  endloop
endfacet
facet normal -0.0 -0.0 1.0
  outer loop
    vertex -5.79555495773441 -1.5529142706151222 1.2
    vertex -5.795554957734409 1.5529142706151262 1.2
    vertex -6.0 7.34788079488412e-16 1.2
  endloop
endfacet
facet normal -0.0 -0.0 1.0
  outer loop
    vertex -5.795554957734409 1.5529142706151262 1.2
    vertex -5.79555495773441 -1.5529142706151222 1.2
    vertex -5.196152422706632 -2.9999999999999982 1.2
  endloop
endfacet
facet normal -0.0 -0.0 1.0
  outer loop
    vertex -5.795554957734409 1.5529142706151262 1.2
    vertex -5.196152422706632 -2.9999999999999982 1.2
    vertex -5.196152422706631 3.000000000000002 1.2
  endloop
endfacet
facet normal -0.0 -0.0 1.0
  outer loop
    vertex -5.196152422706631 3.000000000000002 1.2
    vertex -5.196152422706632 -2.9999999999999982 1.2
    vertex -4.242640687119287 -4.242640687119283 1.2
  endloop
endfacet
facet normal -0.0 -0.0 1.0
  outer loop
    vertex -5.196152422706631 3.000000000000002 1.2
    vertex -4.242640687119287 -4.242640687119283 1.2
    vertex -4.5 5.51091059616309e-16 1.2
  endloop
endfacet
facet normal -0.0 -0.0 1.0
  outer loop
    vertex -4.5 5.51091059616309e-16 1.2
    vertex -4.242640687119287 -4.242640687119283 1.2
    vertex -4.3466662183008085 -1.1646857029613418 1.2
  endloop
endfacet
facet normal -0.0 -0.0 1.0
  outer loop
    vertex -4.3466662183008085 -1.1646857029613418 1.2
    vertex -4.242640687119287 -4.242640687119283 1.2
    vertex -3.897114317029975 -2.2499999999999987 1.2
  endloop
endfacet
facet normal -0.0 -0.0 1.0
  outer loop
    vertex -3.897114317029975 -2.2499999999999987 1.2
    vertex -4.242640687119287 -4.242640687119283 1.2
    vertex -3.0000000000000027 -5.196152422706631 1.2
  endloop
endfacet
facet normal -0.0 -0.0 1.0
  outer loop
    vertex -3.897114317029975 -2.2499999999999987 1.2
    vertex -3.0000000000000027 -5.196152422706631 1.2
    vertex -3.1819805153394656 -3.181980515339462 1.2
  endloop
endfacet
facet normal -0.0 -0.0 1.0
  outer loop
    vertex -3.1819805153394656 -3.181980515339462 1.2
    vertex -3.0000000000000027 -5.196152422706631 1.2
    vertex -2.250000000000002 -3.8971143170299727 1.2
  endloop
endfacet
facet normal -0.0 -0.0 1.0
  outer loop
    vertex -2.250000000000002 -3.8971143170299727 1.2
    vertex -3.0000000000000027 -5.196152422706631 1.2
    vertex -1.552914270615129 -5.795554957734409 1.2
  endloop
endfacet
facet normal -0.0 -0.0 1.0
  outer loop
    vertex -2.250000000000002 -3.8971143170299727 1.2
    vertex -1.552914270615129 -5.795554957734409 1.2
    vertex -1.1646857029613469 -4.346666218300807 1.2
  endloop
endfacet
facet normal -0.0 -0.0 1.0
  outer loop
    vertex -1.1646857029613469 -4.346666218300807 1.2
    vertex -1.552914270615129 -5.795554957734409 1.2
    vertex -1.1021821192326177e-15 -6.0 1.2
  endloop
endfacet
facet normal -0.0 -0.0 1.0
  outer loop
    vertex -1.1646857029613469 -4.346666218300807 1.2
    vertex -1.1021821192326177e-15 -6.0 1.2
    vertex -8.266365894244633e-16 -4.5 1.2
  endloop
endfacet
facet normal -0.0 -0.0 1.0
  outer loop
    vertex -8.266365894244633e-16 -4.5 1.2
    vertex -1.1021821192326177e-15 -6.0 1.2
    vertex 1.5529142706151216 -5.79555495773441 1.2
  endloop
endfacet
facet normal -0.0 -0.0 1.0
  outer loop
    vertex -8.266365894244633e-16 -4.5 1.2
    vertex 1.5529142706151216 -5.79555495773441 1.2
    vertex 1.1646857029613413 -4.3466662183008085 1.2
  endloop
endfacet
facet normal -0.0 -0.0 1.0
  outer loop
    vertex 1.1646857029613413 -4.3466662183008085 1.2
    vertex 1.5529142706151216 -5.79555495773441 1.2
    vertex 2.249999999999997 -3.8971143170299753 1.2
  endloop
endfacet
facet normal -0.0 -0.0 1.0
  outer loop
    vertex 2.249999999999997 -3.8971143170299753 1.2
    vertex 1.5529142706151216 -5.79555495773441 1.2
    vertex 2.999999999999996 -5.196152422706635 1.2
  endloop
endfacet
facet normal -0.0 -0.0 1.0
  outer loop
    vertex 2.249999999999997 -3.8971143170299753 1.2
    vertex 2.999999999999996 -5.196152422706635 1.2
    vertex 3.1819805153394634 -3.1819805153394647 1.2
  endloop
endfacet
facet normal -0.0 -0.0 1.0
  outer loop
    vertex 3.1819805153394634 -3.1819805153394647 1.2
    vertex 2.999999999999996 -5.196152422706635 1.2
    vertex 4.242640687119284 -4.2426406871192865 1.2
  endloop
endfacet
facet normal -0.0 -0.0 1.0
  outer loop
    vertex 3.1819805153394634 -3.1819805153394647 1.2
    vertex 4.242640687119284 -4.2426406871192865 1.2
    vertex 3.8971143170299727 -2.250000000000002 1.2
  endloop
endfacet
facet normal -0.0 -0.0 1.0
  outer loop
    vertex 3.8971143170299727 -2.250000000000002 1.2
    vertex 4.242640687119284 -4.2426406871192865 1.2
    vertex 4.346666218300807 -1.164685702961347 1.2
  endloop
endfacet
facet normal -0.0 -0.0 1.0
  outer loop
    vertex 4.346666218300807 -1.164685702961347 1.2
    vertex 4.242640687119284 -4.2426406871192865 1.2
    vertex 5.19615242270663 -3.000000000000003 1.2
  endloop
endfacet
facet normal -0.0 -0.0 1.0
  outer loop
    vertex 4.346666218300807 -1.164685702961347 1.2
    vertex 5.19615242270663 -3.000000000000003 1.2
    vertex 4.5 0.0 1.2
  endloop
endfacet
facet normal -0.0 -0.0 1.0
  outer loop
    vertex -4.5 5.51091059616309e-16 1.2
    vertex -4.242640687119285 4.242640687119286 1.2
    vertex -5.196152422706631 3.000000000000002 1.2
  endloop
endfacet
facet normal -0.0 -0.0 1.0
  outer loop
    vertex -4.242640687119285 4.242640687119286 1.2
    vertex -4.5 5.51091059616309e-16 1.2
    vertex -4.346666218300808 1.1646857029613447 1.2
  endloop
endfacet
facet normal -0.0 -0.0 1.0
  outer loop
    vertex -4.242640687119285 4.242640687119286 1.2
    vertex -4.346666218300808 1.1646857029613447 1.2
    vertex -3.8971143170299736 2.2500000000000013 1.2
  endloop
endfacet
facet normal -0.0 -0.0 1.0
  outer loop
    vertex -4.242640687119285 4.242640687119286 1.2
    vertex -3.8971143170299736 2.2500000000000013 1.2
    vertex -2.9999999999999982 5.196152422706632 1.2
  endloop
endfacet
facet normal -0.0 -0.0 1.0
  outer loop
    vertex -2.9999999999999982 5.196152422706632 1.2
    vertex -3.8971143170299736 2.2500000000000013 1.2
    vertex -3.1819805153394642 3.1819805153394642 1.2
  endloop
endfacet
facet normal -0.0 -0.0 1.0
  outer loop
    vertex -2.9999999999999982 5.196152422706632 1.2
    vertex -3.1819805153394642 3.1819805153394642 1.2
    vertex -2.249999999999999 3.897114317029974 1.2
  endloop
endfacet
facet normal -0.0 -0.0 1.0
  outer loop
    vertex -2.9999999999999982 5.196152422706632 1.2
    vertex -2.249999999999999 3.897114317029974 1.2
    vertex -1.5529142706151238 5.79555495773441 1.2
  endloop
endfacet
facet normal -0.0 -0.0 1.0
  outer loop
    vertex -1.5529142706151238 5.79555495773441 1.2
    vertex -2.249999999999999 3.897114317029974 1.2
    vertex -1.1646857029613429 4.346666218300808 1.2
  endloop
endfacet
facet normal -0.0 -0.0 1.0
  outer loop
    vertex -1.5529142706151238 5.79555495773441 1.2
    vertex -1.1646857029613429 4.346666218300808 1.2
    vertex 3.6739403974420594e-16 6.0 1.2
  endloop
endfacet
facet normal -0.0 -0.0 1.0
  outer loop
    vertex 3.6739403974420594e-16 6.0 1.2
    vertex -1.1646857029613429 4.346666218300808 1.2
    vertex 2.755455298081545e-16 4.5 1.2
  endloop
endfacet
facet normal -0.0 -0.0 1.0
  outer loop
    vertex 3.6739403974420594e-16 6.0 1.2
    vertex 2.755455298081545e-16 4.5 1.2
    vertex 1.1646857029613444 4.346666218300808 1.2
  endloop
endfacet
facet normal -0.0 -0.0 1.0
  outer loop
    vertex 3.6739403974420594e-16 6.0 1.2
    vertex 1.1646857029613444 4.346666218300808 1.2
    vertex 1.5529142706151258 5.79555495773441 1.2
  endloop
endfacet
facet normal -0.0 -0.0 1.0
  outer loop
    vertex 1.5529142706151258 5.79555495773441 1.2
    vertex 1.1646857029613444 4.346666218300808 1.2
    vertex 2.2500000000000004 3.897114317029974 1.2
  endloop
endfacet
facet normal -0.0 -0.0 1.0
  outer loop
    vertex 1.5529142706151258 5.79555495773441 1.2
    vertex 2.2500000000000004 3.897114317029974 1.2
    vertex 3.0000000000000004 5.196152422706631 1.2
  endloop
endfacet
facet normal -0.0 -0.0 1.0
  outer loop
    vertex 3.0000000000000004 5.196152422706631 1.2
    vertex 2.2500000000000004 3.897114317029974 1.2
    vertex 3.1819805153394642 3.1819805153394642 1.2
  endloop
endfacet
facet normal -0.0 -0.0 1.0
  outer loop
    vertex 3.0000000000000004 5.196152422706631 1.2
    vertex 3.1819805153394642 3.1819805153394642 1.2
    vertex 4.242640687119285 4.242640687119285 1.2
  endloop
endfacet
facet normal -0.0 -0.0 1.0
  outer loop
    vertex 4.242640687119285 4.242640687119285 1.2
    vertex 3.1819805153394642 3.1819805153394642 1.2
    vertex 3.897114317029974 2.2499999999999996 1.2
  endloop
endfacet
facet normal -0.0 -0.0 1.0
  outer loop
    vertex 4.242640687119285 4.242640687119285 1.2
    vertex 3.897114317029974 2.2499999999999996 1.2
    vertex 4.346666218300808 1.1646857029613435 1.2
  endloop
endfacet
facet normal -0.0 -0.0 1.0
  outer loop
    vertex 4.242640687119285 4.242640687119285 1.2
    vertex 4.346666218300808 1.1646857029613435 1.2
    vertex 5.196152422706631 3.0 1.2
  endloop
endfacet
facet normal -0.0 -0.0 1.0
  outer loop
    vertex 5.196152422706631 3.0 1.2
    vertex 4.346666218300808 1.1646857029613435 1.2
    vertex 4.5 0.0 1.2
  endloop
endfacet
facet normal -0.0 -0.0 1.0
  outer loop
    vertex 5.196152422706631 3.0 1.2
    vertex 4.5 0.0 1.2
    vertex 5.19615242270663 -3.000000000000003 1.2
  endloop
endfacet
facet normal -0.0 -0.0 1.0
  outer loop
    vertex 5.196152422706631 3.0 1.2
    vertex 5.19615242270663 -3.000000000000003 1.2
    vertex 5.795554957734408 -1.5529142706151295 1.2
  endloop
endfacet
facet normal -0.0 -0.0 1.0
  outer loop
    vertex 5.196152422706631 3.0 1.2
    vertex 5.795554957734408 -1.5529142706151295 1.2
    vertex 5.79555495773441 1.5529142706151244 1.2
  endloop
endfacet
facet normal -0.0 -0.0 1.0
  outer loop
    vertex 5.79555495773441 1.5529142706151244 1.2
    vertex 5.795554957734408 -1.5529142706151295 1.2
    vertex 6.0 0.0 1.2
  endloop
endfacet
facet normal 0.7071067811865477 0.7071067811865475 0.0
  outer loop
    vertex 4.242640687119285 4.242640687119285 0.0
    vertex 5.196152422706631 3.0 1.2
    vertex 5.196152422706631 3.0 0.0
  endloop
endfacet
facet normal 0.8660254037844386 0.5 0.0
  outer loop
    vertex 5.196152422706631 3.0 1.2
    vertex 4.242640687119285 4.242640687119285 0.0
    vertex 4.242640687119285 4.242640687119285 1.2
  endloop
endfacet
facet normal 0.8660254037844386 0.5 0.0
  outer loop
    vertex 5.196152422706631 3.0 0.0
    vertex 5.79555495773441 1.5529142706151244 1.2
    vertex 5.79555495773441 1.5529142706151244 0.0
  endloop
endfacet
facet normal 0.9659258262890682 0.25881904510252074 0.0
  outer loop
    vertex 5.79555495773441 1.5529142706151244 1.2
    vertex 5.196152422706631 3.0 0.0
    vertex 5.196152422706631 3.0 1.2
  endloop
endfacet
facet normal 0.9659258262890682 0.25881904510252074 0.0
  outer loop
    vertex 5.79555495773441 1.5529142706151244 0.0
    vertex 6.0 0.0 1.2
    vertex 6.0 0.0 0.0
  endloop
endfacet
facet normal 1.0 -2.316888572868195e-16 0.0
  outer loop
    vertex 6.0 0.0 1.2
    vertex 5.79555495773441 1.5529142706151244 0.0
    vertex 5.79555495773441 1.5529142706151244 1.2
  endloop
endfacet
facet normal 1.0 -2.316888572868195e-16 0.0
  outer loop
    vertex 6.0 0.0 0.0
    vertex 5.795554957734408 -1.5529142706151295 1.2
    vertex 5.795554957734408 -1.5529142706151295 0.0
  endloop
endfacet
facet normal 0.9659258262890682 -0.25881904510252113 0.0
  outer loop
    vertex 5.795554957734408 -1.5529142706151295 1.2
    vertex 6.0 0.0 0.0
    vertex 6.0 0.0 1.2
  endloop
endfacet
facet normal 0.9659258262890682 -0.25881904510252113 0.0
  outer loop
    vertex 5.795554957734408 -1.5529142706151295 0.0
    vertex 5.19615242270663 -3.000000000000003 1.2
    vertex 5.19615242270663 -3.000000000000003 0.0
  endloop
endfacet
facet normal 0.8660254037844384 -0.5000000000000006 0.0
  outer loop
    vertex 5.19615242270663 -3.000000000000003 1.2
    vertex 5.795554957734408 -1.5529142706151295 0.0
    vertex 5.795554957734408 -1.5529142706151295 1.2
  endloop
endfacet
facet normal 0.8660254037844384 -0.5000000000000006 0.0
  outer loop
    vertex 5.19615242270663 -3.000000000000003 0.0
    vertex 4.242640687119284 -4.2426406871192865 1.2
    vertex 4.242640687119284 -4.2426406871192865 0.0
  endloop
endfacet
facet normal 0.7071067811865471 -0.7071067811865478 0.0
  outer loop
    vertex 4.242640687119284 -4.2426406871192865 1.2
    vertex 5.19615242270663 -3.000000000000003 0.0
    vertex 5.19615242270663 -3.000000000000003 1.2
  endloop
endfacet
facet normal 0.7071067811865471 -0.7071067811865478 0.0
  outer loop
    vertex 4.242640687119284 -4.2426406871192865 1.2
    vertex 2.999999999999996 -5.196152422706635 0.0
    vertex 4.242640687119284 -4.2426406871192865 0.0
  endloop
endfacet
facet normal 0.4999999999999995 -0.866025403784439 0.0
  outer loop
    vertex 2.999999999999996 -5.196152422706635 0.0
    vertex 4.242640687119284 -4.2426406871192865 1.2
    vertex 2.999999999999996 -5.196152422706635 1.2
  endloop
endfacet
facet normal 0.4999999999999995 -0.866025403784439 0.0
  outer loop
    vertex 2.999999999999996 -5.196152422706635 1.2
    vertex 1.5529142706151216 -5.79555495773441 0.0
    vertex 2.999999999999996 -5.196152422706635 0.0
  endloop
endfacet
facet normal 0.25881904510252035 -0.9659258262890684 0.0
  outer loop
    vertex 1.5529142706151216 -5.79555495773441 0.0
    vertex 2.999999999999996 -5.196152422706635 1.2
    vertex 1.5529142706151216 -5.79555495773441 1.2
  endloop
endfacet
facet normal 0.25881904510252035 -0.9659258262890684 0.0
  outer loop
    vertex 1.5529142706151216 -5.79555495773441 1.2
    vertex -1.1021821192326177e-15 -6.0 0.0
    vertex 1.5529142706151216 -5.79555495773441 0.0
  endloop
endfacet
facet normal -2.2277774739117265e-16 -1.0 0.0
  outer loop
    vertex -1.1021821192326177e-15 -6.0 0.0
    vertex 1.5529142706151216 -5.79555495773441 1.2
    vertex -1.1021821192326177e-15 -6.0 1.2
  endloop
endfacet
facet normal -2.2277774739117265e-16 -1.0 0.0
  outer loop
    vertex -1.1021821192326177e-15 -6.0 1.2
    vertex -1.552914270615129 -5.795554957734409 0.0
    vertex -1.1021821192326177e-15 -6.0 0.0
  endloop
endfacet
facet normal -0.2588190451025212 -0.9659258262890682 0.0
  outer loop
    vertex -1.552914270615129 -5.795554957734409 0.0
    vertex -1.1021821192326177e-15 -6.0 1.2
    vertex -1.552914270615129 -5.795554957734409 1.2
  endloop
endfacet
facet normal -0.2588190451025212 -0.9659258262890682 0.0
  outer loop
    vertex -1.552914270615129 -5.795554957734409 1.2
    vertex -3.0000000000000027 -5.196152422706631 0.0
    vertex -1.552914270615129 -5.795554957734409 0.0
  endloop
endfacet
facet normal -0.5000000000000006 -0.8660254037844383 0.0
  outer loop
    vertex -3.0000000000000027 -5.196152422706631 0.0
    vertex -1.552914270615129 -5.795554957734409 1.2
    vertex -3.0000000000000027 -5.196152422706631 1.2
  endloop
endfacet
facet normal -0.5000000000000006 -0.8660254037844383 0.0
  outer loop
    vertex -3.0000000000000027 -5.196152422706631 1.2
    vertex -4.242640687119287 -4.242640687119283 0.0
    vertex -3.0000000000000027 -5.196152422706631 0.0
  endloop
endfacet
facet normal -0.707106781186548 -0.707106781186547 0.0
  outer loop
    vertex -4.242640687119287 -4.242640687119283 0.0
    vertex -3.0000000000000027 -5.196152422706631 1.2
    vertex -4.242640687119287 -4.242640687119283 1.2
  endloop
endfacet
facet normal -0.8660254037844389 -0.49999999999999956 0.0
  outer loop
    vertex -5.196152422706632 -2.9999999999999982 1.2
    vertex -4.242640687119287 -4.242640687119283 0.0
    vertex -4.242640687119287 -4.242640687119283 1.2
  endloop
endfacet
facet normal -0.707106781186548 -0.707106781186547 0.0
  outer loop
    vertex -4.242640687119287 -4.242640687119283 0.0
    vertex -5.196152422706632 -2.9999999999999982 1.2
    vertex -5.196152422706632 -2.9999999999999982 0.0
  endloop
endfacet
facet normal -0.9659258262890684 -0.2588190451025206 0.0
  outer loop
    vertex -5.79555495773441 -1.5529142706151222 1.2
    vertex -5.196152422706632 -2.9999999999999982 0.0
    vertex -5.196152422706632 -2.9999999999999982 1.2
  endloop
endfacet
facet normal -0.8660254037844389 -0.49999999999999956 0.0
  outer loop
    vertex -5.196152422706632 -2.9999999999999982 0.0
    vertex -5.79555495773441 -1.5529142706151222 1.2
    vertex -5.79555495773441 -1.5529142706151222 0.0
  endloop
endfacet
facet normal -1.0 1.0693331874776287e-16 0.0
  outer loop
    vertex -6.0 7.34788079488412e-16 1.2
    vertex -5.79555495773441 -1.5529142706151222 0.0
    vertex -5.79555495773441 -1.5529142706151222 1.2
  endloop
endfacet
facet normal -0.9659258262890684 -0.2588190451025206 0.0
  outer loop
    vertex -5.79555495773441 -1.5529142706151222 0.0
    vertex -6.0 7.34788079488412e-16 1.2
    vertex -6.0 7.34788079488412e-16 0.0
  endloop
endfacet
facet normal -0.9659258262890682 0.2588190451025208 0.0
  outer loop
    vertex -5.795554957734409 1.5529142706151262 1.2
    vertex -6.0 7.34788079488412e-16 0.0
    vertex -6.0 7.34788079488412e-16 1.2
  endloop
endfacet
facet normal -1.0 1.0693331874776287e-16 0.0
  outer loop
    vertex -6.0 7.34788079488412e-16 0.0
    vertex -5.795554957734409 1.5529142706151262 1.2
    vertex -5.795554957734409 1.5529142706151262 0.0
  endloop
endfacet
facet normal -0.8660254037844385 0.5000000000000002 0.0
  outer loop
    vertex -5.196152422706631 3.000000000000002 1.2
    vertex -5.795554957734409 1.5529142706151262 0.0
    vertex -5.795554957734409 1.5529142706151262 1.2
  endloop
endfacet
facet normal -0.9659258262890682 0.2588190451025208 0.0
  outer loop
    vertex -5.795554957734409 1.5529142706151262 0.0
    vertex -5.196152422706631 3.000000000000002 1.2
    vertex -5.196152422706631 3.000000000000002 0.0
  endloop
endfacet
facet normal -0.7071067811865471 0.707106781186548 0.0
  outer loop
    vertex -4.242640687119285 4.242640687119286 1.2
    vertex -5.196152422706631 3.000000000000002 0.0
    vertex -5.196152422706631 3.000000000000002 1.2
  endloop
endfacet
facet normal -0.8660254037844385 0.5000000000000002 0.0
  outer loop
    vertex -5.196152422706631 3.000000000000002 0.0
    vertex -4.242640687119285 4.242640687119286 1.2
    vertex -4.242640687119285 4.242640687119286 0.0
  endloop
endfacet
facet normal -0.7071067811865471 0.707106781186548 0.0
  outer loop
    vertex -4.242640687119285 4.242640687119286 1.2
    vertex -2.9999999999999982 5.196152422706632 0.0
    vertex -4.242640687119285 4.242640687119286 0.0
  endloop
endfacet
facet normal -0.49999999999999994 0.8660254037844388 0.0
  outer loop
    vertex -2.9999999999999982 5.196152422706632 0.0
    vertex -4.242640687119285 4.242640687119286 1.2
    vertex -2.9999999999999982 5.196152422706632 1.2
  endloop
endfacet
facet normal -0.49999999999999994 0.8660254037844388 0.0
  outer loop
    vertex -2.9999999999999982 5.196152422706632 1.2
    vertex -1.5529142706151238 5.79555495773441 0.0
    vertex -2.9999999999999982 5.196152422706632 0.0
  endloop
endfacet
facet normal -0.2588190451025208 0.9659258262890682 0.0
  outer loop
    vertex -1.5529142706151238 5.79555495773441 0.0
    vertex -2.9999999999999982 5.196152422706632 1.2
    vertex -1.5529142706151238 5.79555495773441 1.2
  endloop
endfacet
facet normal -0.2588190451025208 0.9659258262890682 0.0
  outer loop
    vertex -1.5529142706151238 5.79555495773441 1.2
    vertex 3.6739403974420594e-16 6.0 0.0
    vertex -1.5529142706151238 5.79555495773441 0.0
  endloop
endfacet
facet normal 1.6931108801729119e-16 1.0 0.0
  outer loop
    vertex 3.6739403974420594e-16 6.0 0.0
    vertex -1.5529142706151238 5.79555495773441 1.2
    vertex 3.6739403974420594e-16 6.0 1.2
  endloop
endfacet
facet normal 1.6931108801729119e-16 1.0 0.0
  outer loop
    vertex 3.6739403974420594e-16 6.0 1.2
    vertex 1.5529142706151258 5.79555495773441 0.0
    vertex 3.6739403974420594e-16 6.0 0.0
  endloop
endfacet
facet normal 0.2588190451025209 0.9659258262890682 0.0
  outer loop
    vertex 1.5529142706151258 5.79555495773441 0.0
    vertex 3.6739403974420594e-16 6.0 1.2
    vertex 1.5529142706151258 5.79555495773441 1.2
  endloop
endfacet
facet normal 0.2588190451025209 0.9659258262890682 0.0
  outer loop
    vertex 1.5529142706151258 5.79555495773441 1.2
    vertex 3.0000000000000004 5.196152422706631 0.0
    vertex 1.5529142706151258 5.79555495773441 0.0
  endloop
endfacet
facet normal 0.5000000000000001 0.8660254037844386 0.0
  outer loop
    vertex 3.0000000000000004 5.196152422706631 0.0
    vertex 1.5529142706151258 5.79555495773441 1.2
    vertex 3.0000000000000004 5.196152422706631 1.2
  endloop
endfacet
facet normal 0.5000000000000001 0.8660254037844386 0.0
  outer loop
    vertex 3.0000000000000004 5.196152422706631 1.2
    vertex 4.242640687119285 4.242640687119285 0.0
    vertex 3.0000000000000004 5.196152422706631 0.0
  endloop
endfacet
facet normal 0.7071067811865477 0.7071067811865475 0.0
  outer loop
    vertex 4.242640687119285 4.242640687119285 0.0
    vertex 3.0000000000000004 5.196152422706631 1.2
    vertex 4.242640687119285 4.242640687119285 1.2
  endloop
endfacet
facet normal -0.8660254037844384 0.5000000000000006 0.0
  outer loop
    vertex 3.8971143170299727 -2.250000000000002 1.2
    vertex 3.1819805153394634 -3.1819805153394647 0.0
    vertex 3.1819805153394634 -3.1819805153394647 1.2
  endloop
endfacet
facet normal -0.7071067811865471 0.707106781186548 0.0
  outer loop
    vertex 3.1819805153394634 -3.1819805153394647 0.0
    vertex 3.8971143170299727 -2.250000000000002 1.2
    vertex 3.8971143170299727 -2.250000000000002 0.0
  endloop
endfacet
facet normal -0.9659258262890682 0.25881904510252135 0.0
  outer loop
    vertex 4.346666218300807 -1.164685702961347 1.2
    vertex 3.8971143170299727 -2.250000000000002 0.0
    vertex 3.8971143170299727 -2.250000000000002 1.2
  endloop
endfacet
facet normal -0.8660254037844384 0.5000000000000006 0.0
  outer loop
    vertex 3.8971143170299727 -2.250000000000002 0.0
    vertex 4.346666218300807 -1.164685702961347 1.2
    vertex 4.346666218300807 -1.164685702961347 0.0
  endloop
endfacet
facet normal -1.0 9.802220885211596e-17 0.0
  outer loop
    vertex 4.5 0.0 1.2
    vertex 4.346666218300807 -1.164685702961347 0.0
    vertex 4.346666218300807 -1.164685702961347 1.2
  endloop
endfacet
facet normal -0.9659258262890682 0.25881904510252135 0.0
  outer loop
    vertex 4.346666218300807 -1.164685702961347 0.0
    vertex 4.5 0.0 1.2
    vertex 4.5 0.0 0.0
  endloop
endfacet
facet normal -0.9659258262890682 -0.2588190451025208 0.0
  outer loop
    vertex 4.346666218300808 1.1646857029613435 1.2
    vertex 4.5 0.0 0.0
    vertex 4.5 0.0 1.2
  endloop
endfacet
facet normal -1.0 9.802220885211596e-17 0.0
  outer loop
    vertex 4.5 0.0 0.0
    vertex 4.346666218300808 1.1646857029613435 1.2
    vertex 4.346666218300808 1.1646857029613435 0.0
  endloop
endfacet
facet normal -0.8660254037844387 -0.4999999999999999 0.0
  outer loop
    vertex 3.897114317029974 2.2499999999999996 1.2
    vertex 4.346666218300808 1.1646857029613435 0.0
    vertex 4.346666218300808 1.1646857029613435 1.2
  endloop
endfacet
facet normal -0.9659258262890682 -0.2588190451025208 0.0
  outer loop
    vertex 4.346666218300808 1.1646857029613435 0.0
    vertex 3.897114317029974 2.2499999999999996 1.2
    vertex 3.897114317029974 2.2499999999999996 0.0
  endloop
endfacet
facet normal -0.7071067811865477 -0.7071067811865475 0.0
  outer loop
    vertex 3.1819805153394642 3.1819805153394642 1.2
    vertex 3.897114317029974 2.2499999999999996 0.0
    vertex 3.897114317029974 2.2499999999999996 1.2
  endloop
endfacet
facet normal -0.8660254037844387 -0.4999999999999999 0.0
  outer loop
    vertex 3.897114317029974 2.2499999999999996 0.0
    vertex 3.1819805153394642 3.1819805153394642 1.2
    vertex 3.1819805153394642 3.1819805153394642 0.0
  endloop
endfacet
facet normal -0.7071067811865477 -0.7071067811865475 0.0
  outer loop
    vertex 3.1819805153394642 3.1819805153394642 1.2
    vertex 2.2500000000000004 3.897114317029974 0.0
    vertex 3.1819805153394642 3.1819805153394642 0.0
  endloop
endfacet
facet normal -0.5 -0.8660254037844386 0.0
  outer loop
    vertex 2.2500000000000004 3.897114317029974 0.0
    vertex 3.1819805153394642 3.1819805153394642 1.2
    vertex 2.2500000000000004 3.897114317029974 1.2
  endloop
endfacet
facet normal -0.5 -0.8660254037844386 0.0
  outer loop
    vertex 2.2500000000000004 3.897114317029974 1.2
    vertex 1.1646857029613444 4.346666218300808 0.0
    vertex 2.2500000000000004 3.897114317029974 0.0
  endloop
endfacet
facet normal -0.25881904510252074 -0.9659258262890682 0.0
  outer loop
    vertex 1.1646857029613444 4.346666218300808 0.0
    vertex 2.2500000000000004 3.897114317029974 1.2
    vertex 1.1646857029613444 4.346666218300808 1.2
  endloop
endfacet
facet normal -0.25881904510252074 -0.9659258262890682 0.0
  outer loop
    vertex 1.1646857029613444 4.346666218300808 1.2
    vertex 2.755455298081545e-16 4.5 0.0
    vertex 1.1646857029613444 4.346666218300808 0.0
  endloop
endfacet
facet normal 4.455554947823453e-17 -1.0 0.0
  outer loop
    vertex 2.755455298081545e-16 4.5 0.0
    vertex 1.1646857029613444 4.346666218300808 1.2
    vertex 2.755455298081545e-16 4.5 1.2
  endloop
endfacet
facet normal 4.455554947823453e-17 -1.0 0.0
  outer loop
    vertex 2.755455298081545e-16 4.5 1.2
    vertex -1.1646857029613429 4.346666218300808 0.0
    vertex 2.755455298081545e-16 4.5 0.0
  endloop
endfacet
facet normal 0.2588190451025208 -0.9659258262890682 0.0
  outer loop
    vertex -1.1646857029613429 4.346666218300808 0.0
    vertex 2.755455298081545e-16 4.5 1.2
    vertex -1.1646857029613429 4.346666218300808 1.2
  endloop
endfacet
facet normal 0.2588190451025208 -0.9659258262890682 0.0
  outer loop
    vertex -1.1646857029613429 4.346666218300808 1.2
    vertex -2.249999999999999 3.897114317029974 0.0
    vertex -1.1646857029613429 4.346666218300808 0.0
  endloop
endfacet
facet normal 0.4999999999999998 -0.8660254037844388 0.0
  outer loop
    vertex -2.249999999999999 3.897114317029974 0.0
    vertex -1.1646857029613429 4.346666218300808 1.2
    vertex -2.249999999999999 3.897114317029974 1.2
  endloop
endfacet
facet normal 0.4999999999999998 -0.8660254037844388 0.0
  outer loop
    vertex -2.249999999999999 3.897114317029974 1.2
    vertex -3.1819805153394642 3.1819805153394642 0.0
    vertex -2.249999999999999 3.897114317029974 0.0
  endloop
endfacet
facet normal 0.7071067811865471 -0.7071067811865478 0.0
  outer loop
    vertex -3.1819805153394642 3.1819805153394642 0.0
    vertex -2.249999999999999 3.897114317029974 1.2
    vertex -3.1819805153394642 3.1819805153394642 1.2
  endloop
endfacet
facet normal 0.7071067811865471 -0.7071067811865478 0.0
  outer loop
    vertex -3.1819805153394642 3.1819805153394642 0.0
    vertex -3.8971143170299736 2.2500000000000013 1.2
    vertex -3.8971143170299736 2.2500000000000013 0.0
  endloop
endfacet
facet normal 0.8660254037844386 -0.5000000000000002 0.0
  outer loop
    vertex -3.8971143170299736 2.2500000000000013 1.2
    vertex -3.1819805153394642 3.1819805153394642 0.0
    vertex -3.1819805153394642 3.1819805153394642 1.2
  endloop
endfacet
facet normal 0.8660254037844386 -0.5000000000000002 0.0
  outer loop
    vertex -3.8971143170299736 2.2500000000000013 0.0
    vertex -4.346666218300808 1.1646857029613447 1.2
    vertex -4.346666218300808 1.1646857029613447 0.0
  endloop
endfacet
facet normal 0.9659258262890682 -0.2588190451025209 0.0
  outer loop
    vertex -4.346666218300808 1.1646857029613447 1.2
    vertex -3.8971143170299736 2.2500000000000013 0.0
    vertex -3.8971143170299736 2.2500000000000013 1.2
  endloop
endfacet
facet normal 0.9659258262890682 -0.2588190451025209 0.0
  outer loop
    vertex -4.346666218300808 1.1646857029613447 0.0
    vertex -4.5 5.51091059616309e-16 1.2
    vertex -4.5 5.51091059616309e-16 0.0
  endloop
endfacet
facet normal 1.0 -1.9604441770423192e-16 0.0
  outer loop
    vertex -4.5 5.51091059616309e-16 1.2
    vertex -4.346666218300808 1.1646857029613447 0.0
    vertex -4.346666218300808 1.1646857029613447 1.2
  endloop
endfacet
facet normal 1.0 -1.9604441770423192e-16 0.0
  outer loop
    vertex -4.5 5.51091059616309e-16 0.0
    vertex -4.3466662183008085 -1.1646857029613418 1.2
    vertex -4.3466662183008085 -1.1646857029613418 0.0
  endloop
endfacet
facet normal 0.9659258262890684 0.25881904510252046 0.0
  outer loop
    vertex -4.3466662183008085 -1.1646857029613418 1.2
    vertex -4.5 5.51091059616309e-16 0.0
    vertex -4.5 5.51091059616309e-16 1.2
  endloop
endfacet
facet normal 0.9659258262890684 0.25881904510252046 0.0
  outer loop
    vertex -4.3466662183008085 -1.1646857029613418 0.0
    vertex -3.897114317029975 -2.2499999999999987 1.2
    vertex -3.897114317029975 -2.2499999999999987 0.0
  endloop
endfacet
facet normal 0.8660254037844387 0.4999999999999999 0.0
  outer loop
    vertex -3.897114317029975 -2.2499999999999987 1.2
    vertex -4.3466662183008085 -1.1646857029613418 0.0
    vertex -4.3466662183008085 -1.1646857029613418 1.2
  endloop
endfacet
facet normal 0.8660254037844387 0.4999999999999999 0.0
  outer loop
    vertex -3.897114317029975 -2.2499999999999987 0.0
    vertex -3.1819805153394656 -3.181980515339462 1.2
    vertex -3.1819805153394656 -3.181980515339462 0.0
  endloop
endfacet
facet normal 0.7071067811865478 0.7071067811865472 0.0
  outer loop
    vertex -3.1819805153394656 -3.181980515339462 1.2
    vertex -3.897114317029975 -2.2499999999999987 0.0
    vertex -3.897114317029975 -2.2499999999999987 1.2
  endloop
endfacet
facet normal 0.7071067811865478 0.7071067811865472 0.0
  outer loop
    vertex -3.1819805153394656 -3.181980515339462 1.2
    vertex -2.250000000000002 -3.8971143170299727 0.0
    vertex -3.1819805153394656 -3.181980515339462 0.0
  endloop
endfacet
facet normal 0.5000000000000006 0.8660254037844383 0.0
  outer loop
    vertex -2.250000000000002 -3.8971143170299727 0.0
    vertex -3.1819805153394656 -3.181980515339462 1.2
    vertex -2.250000000000002 -3.8971143170299727 1.2
  endloop
endfacet
facet normal 0.5000000000000006 0.8660254037844383 0.0
  outer loop
    vertex -2.250000000000002 -3.8971143170299727 1.2
    vertex -1.1646857029613469 -4.346666218300807 0.0
    vertex -2.250000000000002 -3.8971143170299727 0.0
  endloop
endfacet
facet normal 0.25881904510252135 0.9659258262890681 0.0
  outer loop
    vertex -1.1646857029613469 -4.346666218300807 0.0
    vertex -2.250000000000002 -3.8971143170299727 1.2
    vertex -1.1646857029613469 -4.346666218300807 1.2
  endloop
endfacet
facet normal 0.25881904510252135 0.9659258262890681 0.0
  outer loop
    vertex -1.1646857029613469 -4.346666218300807 1.2
    vertex -8.266365894244633e-16 -4.5 0.0
    vertex -1.1646857029613469 -4.346666218300807 0.0
  endloop
endfacet
facet normal 3.9208883540846383e-16 1.0 0.0
  outer loop
    vertex -8.266365894244633e-16 -4.5 0.0
    vertex -1.1646857029613469 -4.346666218300807 1.2
    vertex -8.266365894244633e-16 -4.5 1.2
  endloop
endfacet
facet normal 3.9208883540846383e-16 1.0 0.0
  outer loop
    vertex -8.266365894244633e-16 -4.5 1.2
    vertex 1.1646857029613413 -4.3466662183008085 0.0
    vertex -8.266365894244633e-16 -4.5 0.0
  endloop
endfacet
facet normal -0.2588190451025204 0.9659258262890684 0.0
  outer loop
    vertex 1.1646857029613413 -4.3466662183008085 0.0
    vertex -8.266365894244633e-16 -4.5 1.2
    vertex 1.1646857029613413 -4.3466662183008085 1.2
  endloop
endfacet
facet normal -0.2588190451025204 0.9659258262890684 0.0
  outer loop
    vertex 1.1646857029613413 -4.3466662183008085 1.2
    vertex 2.249999999999997 -3.8971143170299753 0.0
    vertex 1.1646857029613413 -4.3466662183008085 0.0
  endloop
endfacet
facet normal -0.49999999999999956 0.8660254037844389 0.0
  outer loop
    vertex 2.249999999999997 -3.8971143170299753 0.0
    vertex 1.1646857029613413 -4.3466662183008085 1.2
    vertex 2.249999999999997 -3.8971143170299753 1.2
  endloop
endfacet
facet normal -0.49999999999999956 0.8660254037844389 0.0
  outer loop
    vertex 2.249999999999997 -3.8971143170299753 1.2
    vertex 3.1819805153394634 -3.1819805153394647 0.0
    vertex 2.249999999999997 -3.8971143170299753 0.0
  endloop
endfacet
facet normal -0.7071067811865471 0.707106781186548 0.0
  outer loop
    vertex 3.1819805153394634 -3.1819805153394647 0.0
    vertex 2.249999999999997 -3.8971143170299753 1.2
    vertex 3.1819805153394634 -3.1819805153394647 1.2
  endloop
endfacet
endsolid 12x9_washer
